**ABCDEFGHIJKLMNOPQRSTUVWXYZabcdefghijklmnopqrstuvwxyz**************************
**PARASOLID !"#$%&'()*+,-./:;<=>?@[\]^_`{|}~0123456789**************************
**PART1;
MC=AMD64;
MC_MODEL=AMD64 Family 25 Model 80 Stepping 0, AuthenticAMD;
MC_ID=unknown;
OS=Windows_NT;
OS_RELEASE=unknown;
FRU=Parasolid Version 31.1, build 278,  7-15-2019;
APPL=SOLIDWORKS 2020-2019269;
SITE=;
USER=unknown;
FORMAT=text;
GUISE=transmit;
KEY=HW4_3.24mm;
FILE=HW4_3.24mm.x_t;
DATE=Sat Oct 14 17:59:29 2023;
**PART2;
SCH=SCH_3101278_31100;
USFLD_SIZE=0;
**PART3;
**END_OF_HEADER*****************************************************************
T51 : TRANSMIT FILE created by modeller version 310127823 SCH_3101278_31100_1300
6222 0 12 34 CCCCCCI4 mesh1006 0 I8 polyline1008 0 CCCCCCCDI5 owner1040 0 CCCCCC
I13 boundary_mesh1006 0 I17 boundary_polyline1008 0 CCCA16 index_map_offset0 0 1
 dA9 index_map82 0 A17 node_id_index_map82 0 A20 schema_embedding_map82 0 A5 chi
ld12 0 A14 lowest_node_id0 0 1 dA16 mesh_offset_data206 0 Z1 756 2 3 0 0 0 0 0 0
 1e3 1e-8 0 4 0 1 0 1 1 5 6 7 8 0 0 9 10 11 0 0 0 0 0 0 0 81 255 2 2 735 12 1 13
 0 0 0 0 14 70 11 CI9 list_type0 0 1 uI10 notransmit0 0 1 lCCCDCCDI12 finger_ind
ex0 0 1 dI12 finger_block1012 0 CZ3 0 4 T1 0 0 8 20 1 15 15 13 255 5 351 0 1 0 1
6 0 0 17 0 50 255 6 334 0 18 19 0 0 +0 .00324 0 0 0 -1 -1 0 0 30 255 7 350 0 10
 20 0 0 +.0251339312526815 .00324 -867361737988404e-33 0 -1 0 29 255 8 255 0 21
 22 0 0 0 0 19 8 CCCCCCCA5 owner12 0 Z9 117 0 1 17 0 23 V0 16 255 10 286 0 ?24 0
 25 7 0 0 1 18 255 11 114 0 26 0 27 28 ?1 17 255 26 0 29 30 31 11 32 33 0 34 +18
 27 111 0 31 11 35 36 ?1 29 28 116 0 11 36 37 0 .00324 0 29 36 113 0 27 38 28 0
 .00324 -.052 29 37 270 0 39 28 40 .0251339312526815 0 -867361737988404e-33 18 3
9 237 0 41 42 0 37 ?1 29 40 269 0 42 37 43 .03008928750178765 0 .004333333333333
335 18 42 236 0 44 45 39 40 ?1 29 43 268 0 45 40 46 .0490779587270383 0 .0071941
2271520401 18 45 235 0 47 48 42 43 ?1 29 46 267 0 48 43 49 .0681549669251056 0 -
.034097061357602 18 48 234 0 50 51 45 46 ?1 29 49 266 0 51 46 52 .07269394628862
47 0 -.037 18 51 233 0 53 54 48 49 ?1 29 52 265 0 54 49 55 .085 0 -.037 18 54 23
2 0 56 57 51 52 ?1 29 55 264 0 57 52 58 .09 0 -.032 18 57 231 0 59 60 54 55 ?1 2
9 58 263 0 60 55 61 .09 0 -.018 18 60 230 0 62 63 57 58 ?1 29 61 262 0 63 58 64
 .095 0 -.013 18 63 229 0 65 66 60 61 ?1 29 64 261 0 66 61 67 .105 0 -.013 18 66
 228 0 68 69 63 64 ?1 29 67 260 0 69 64 70 .11 0 -.018 18 69 227 0 71 72 66 67 ?
1 29 70 259 0 72 67 73 .11 0 -.052 18 72 226 0 74 75 69 70 ?1 29 73 258 0 75 70
 76 .105 0 -.057 18 75 225 0 77 78 72 73 ?1 29 76 257 0 78 73 22 .005 0 -.057 18
 78 224 0 79 80 75 76 ?1 29 22 256 0 80 76 8 0 0 -.052 18 80 223 0 81 21 78 22 ?
1 17 81 0 82 83 84 80 85 86 0 87 +18 21 222 0 88 89 80 8 ?1 17 88 0 90 34 87 21
 91 92 0 93 +18 89 69 0 94 95 21 96 ?1 17 94 0 97 24 98 89 99 100 0 30 -18 95 72
 0 99 101 89 102 ?1 29 96 71 0 89 0 102 .0251339312526815 .00324 -86736173798840
4e-33 29 102 74 0 95 96 103 .03008928750178765 .00324 .004333333333333335 29 103
 77 0 101 102 104 .0490779587270383 .00324 .00719412271520401 18 101 75 0 105 10
6 95 103 ?1 29 104 80 0 106 103 107 .0681549669251056 .00324 -.034097061357602 1
8 106 78 0 108 109 101 104 ?1 29 107 83 0 109 104 110 .0726939462886247 .00324 -
.037 18 109 81 0 111 112 106 107 ?1 29 110 86 0 112 107 113 .085 .00324 -.037 18
 112 84 0 114 115 109 110 ?1 29 113 89 0 115 110 116 .09 .00324 -.032 18 115 87
 0 117 118 112 113 ?1 29 116 92 0 118 113 119 .09 .00324 -.018 18 118 90 0 120 1
21 115 116 ?1 29 119 95 0 121 116 122 .095 .00324 -.013 18 121 93 0 123 124 118
 119 ?1 29 122 98 0 124 119 125 .105 .00324 -.013 18 124 96 0 126 127 121 122 ?1
 29 125 101 0 127 122 128 .11 .00324 -.018 18 127 99 0 129 130 124 125 ?1 29 128
 104 0 130 125 131 .11 .00324 -.052 18 130 102 0 132 133 127 128 ?1 29 131 107 0
 133 128 38 .105 .00324 -.057 18 133 105 0 134 35 130 131 ?1 29 38 110 0 35 131
 36 .005 .00324 -.057 18 35 108 0 135 27 133 38 ?1 17 135 0 29 31 134 35 136 137
 0 138 +15 255 29 4 0 30 16 139 17 31 0 29 26 135 27 140 141 0 83 +17 134 0 29 1
35 132 133 142 143 0 144 +17 136 0 145 146 138 133 135 137 0 0 -16 137 57 0 ?135
 141 143 147 0 0 1 17 138 0 145 136 79 35 84 148 0 140 -15 145 291 0 79 149 0 17
 79 0 145 138 146 78 150 151 0 84 +17 84 0 82 81 140 78 138 148 0 85 +16 148 273
 0 ?84 152 153 154 0 0 1 17 140 0 82 84 83 35 31 141 0 0 -15 82 289 0 81 155 0 1
7 83 0 82 140 81 27 87 153 0 32 -16 141 61 0 ?31 33 137 156 0 0 1 16 33 65 0 ?26
 157 141 158 0 0 1 31 255 156 63 0 141 147 158 0 +.005 .00324 -.052 0 1 0 0 0 -1
 .005 30 147 59 0 137 159 156 0 +.005 .00324 -.057 -1 0 0 30 158 67 0 33 156 160
 0 +0 .00324 0 0 0 1 30 160 254 0 161 158 162 0 +0 0 0 1 0 0 16 161 218 0 ?163 1
64 165 160 0 0 1 31 162 253 0 164 160 166 0 +.0251339312526815 0 .005 0 -1 0 0 0
 -1 .005 16 164 214 0 ?44 167 161 162 0 0 1 31 166 252 0 167 162 168 0 +.04 0 .0
03 0 1 0 0 0 1 .01 16 167 210 0 ?47 169 164 166 0 0 1 30 168 251 0 169 166 170 0
 +.0681549669251056 0 -.034097061357602 .419412271520401 0 -.907795872703824 16
 169 206 0 ?50 171 167 168 0 0 1 31 170 250 0 171 168 172 0 +.0726939462886247 0
 -.032 0 -1 0 0 0 1 .005 16 171 202 0 ?53 173 169 170 0 0 1 30 172 249 0 173 170
 174 0 +.085 0 -.037 1 0 0 16 173 198 0 ?56 175 171 172 0 0 1 31 174 248 0 175 1
72 176 0 +.085 0 -.032 0 -1 0 0 0 1 .005 16 175 194 0 ?59 177 173 174 0 0 1 30 1
76 247 0 177 174 178 0 +.09 0 -.018 0 0 1 16 177 190 0 ?62 179 175 176 0 0 1 31
 178 246 0 179 176 180 0 +.095 0 -.018 0 1 0 0 0 -1 .005 16 179 186 0 ?65 181 17
7 178 0 0 1 30 180 245 0 181 178 182 0 +.105 0 -.013 1 0 -173472347597682e-30 16
 181 182 0 ?68 183 179 180 0 0 1 31 182 244 0 183 180 184 0 +.105 0 -.018 0 1 0
 0 0 -1 .005 16 183 178 0 ?71 185 181 182 0 0 1 30 184 243 0 185 182 186 0 +.11
 0 -.052 4081702296416025e-31 0 -1 16 185 174 0 ?74 187 183 184 0 0 1 31 186 242
 0 187 184 188 0 +.105 0 -.052 0 1 0 0 0 -1 .005 16 187 170 0 ?77 151 185 186 0
 0 1 30 188 241 0 151 186 189 0 +.005 0 -.057 -1 0 0 16 151 166 0 ?79 86 187 188
 0 0 1 31 189 240 0 86 188 190 0 +.005 0 -.052 0 1 0 0 0 -1 .005 16 86 162 0 ?81
 92 151 189 0 0 1 30 190 239 0 92 189 191 0 +0 0 0 0 0 1 16 92 158 0 ?88 192 86
 190 0 0 1 30 191 335 0 157 190 193 0 +0 .00324 0 0 -1 0 16 157 271 0 ?93 153 33
 191 0 0 1 30 193 336 0 153 191 154 0 +0 .00324 -.052 0 -1 0 16 153 272 0 ?87 14
8 157 193 0 0 1 30 154 337 0 148 193 194 0 +.005 .00324 -.057 0 -1 0 30 194 338
 0 152 154 195 0 +.105 .00324 -.057 0 -1 0 16 152 274 0 ?146 196 148 194 0 0 1 3
0 195 339 0 196 194 197 0 +.11 .00324 -.052 0 -1 0 16 196 275 0 ?198 199 152 195
 0 0 1 30 197 340 0 199 195 200 0 +.11 .00324 -.018 0 -1 0 16 199 276 0 ?201 202
 196 197 0 0 1 30 200 341 0 202 197 203 0 +.105 .00324 -.013 0 -1 0 16 202 277 0
 ?204 205 199 200 0 0 1 30 203 342 0 205 200 206 0 +.095 .00324 -.013 0 -1 0 16
 205 278 0 ?207 208 202 203 0 0 1 30 206 343 0 208 203 209 0 +.09 .00324 -.018 0
 -1 0 16 208 279 0 ?210 211 205 206 0 0 1 30 209 344 0 211 206 212 0 +.09 .00324
 -.032 0 -1 0 16 211 280 0 ?213 214 208 209 0 0 1 30 212 345 0 214 209 215 0 +.0
85 .00324 -.037 0 -1 0 16 214 281 0 ?216 217 211 212 0 0 1 30 215 346 0 217 212
 218 0 +.0726939462886247 .00324 -.037 0 -1 0 16 217 282 0 ?219 220 214 215 0 0
 1 30 218 347 0 220 215 221 0 +.0681549669251056 .00324 -.034097061357602 0 -1 0
 16 220 283 0 ?222 223 217 218 0 0 1 30 221 348 0 223 218 20 0 +.049077958727038
3 .00324 .00719412271520401 0 -1 0 16 223 284 0 ?224 25 220 221 0 0 1 30 20 349
 0 25 221 7 0 +.03008928750178765 .00324 .004333333333333335 0 -1 0 16 25 285 0
 ?225 10 223 20 0 0 1 17 225 0 226 47 227 42 98 25 0 228 +15 226 313 0 47 229 0
 17 47 0 226 230 225 45 228 167 0 224 +17 227 0 226 225 230 95 105 231 0 0 -17 9
8 0 97 94 44 95 225 25 0 227 -17 228 0 232 41 233 42 47 167 0 0 -15 232 157 0 23
4 235 236 17 41 0 232 234 228 39 44 164 0 24 -17 233 0 232 228 237 45 50 169 0 0
 -17 237 0 232 233 238 48 53 171 0 0 -17 50 0 239 240 224 48 233 169 0 222 +15 2
39 311 0 50 241 0 17 240 0 239 242 50 106 222 220 0 243 -17 224 0 239 50 242 45
 230 223 0 233 +17 222 0 244 53 243 48 240 220 0 237 +15 244 309 0 53 245 0 17 5
3 0 244 246 222 51 237 171 0 219 +17 243 0 244 222 246 106 111 247 0 0 -17 246 0
 244 243 53 109 219 217 0 248 -17 111 0 29 114 108 109 243 247 0 246 +16 247 21
 0 ?111 249 250 251 0 0 1 16 249 25 0 ?114 252 247 253 0 0 1 16 250 17 0 ?108 24
7 231 254 0 0 1 31 251 23 0 247 254 253 0 +.0726939462886247 .00324 -.032 0 -1 0
 0 0 1 .005 30 254 19 0 250 255 251 0 +.0681549669251056 .00324 -.03409706135760
2 .419412271520401 0 -.907795872703824 30 253 27 0 249 251 256 0 +.085 .00324 -.
037 1 0 0 31 256 31 0 252 253 257 0 +.085 .00324 -.032 0 -1 0 0 0 1 .005 16 252
 29 0 ?117 258 249 256 0 0 1 30 257 35 0 258 256 259 0 +.09 .00324 -.018 0 0 1 1
6 258 33 0 ?120 260 252 257 0 0 1 31 259 39 0 260 257 261 0 +.095 .00324 -.018 0
 1 0 0 0 -1 .005 16 260 37 0 ?123 262 258 259 0 0 1 30 261 43 0 262 259 263 0 +.
105 .00324 -.013 1 0 -173472347597682e-30 16 262 41 0 ?126 264 260 261 0 0 1 31
 263 47 0 264 261 265 0 +.105 .00324 -.018 0 1 0 0 0 -1 .005 16 264 45 0 ?129 26
6 262 263 0 0 1 30 265 51 0 266 263 159 0 +.11 .00324 -.052 4081702296416025e-31
 0 -1 16 266 49 0 ?132 143 264 265 0 0 1 31 159 55 0 143 265 147 0 +.105 .00324
 -.052 0 1 0 0 0 -1 .005 16 143 53 0 ?134 137 266 159 0 0 1 17 132 0 29 134 129
 130 267 266 0 268 +17 129 0 29 132 126 127 269 264 0 270 +17 267 0 271 201 268
 127 132 266 0 0 -17 268 0 271 267 74 130 198 196 0 142 -15 271 295 0 74 272 0 1
7 74 0 271 268 201 72 273 185 0 198 +17 198 0 274 77 142 72 268 196 0 275 +17 14
2 0 274 198 144 130 134 143 0 0 -15 274 293 0 77 276 0 17 144 0 274 142 77 133 1
46 152 0 136 -17 77 0 274 144 198 75 275 187 0 146 +17 146 0 145 79 136 75 144 1
52 0 150 +17 150 0 232 275 85 75 79 151 0 0 -17 275 0 232 273 150 72 77 187 0 0
 -17 85 0 232 150 91 78 81 86 0 0 -17 91 0 232 85 234 80 88 92 0 0 -17 234 0 232
 91 41 21 163 161 0 0 -17 163 0 277 278 93 39 234 161 0 0 +15 277 317 0 163 18 0
 17 278 0 277 279 163 89 24 10 0 0 -17 93 0 277 163 279 21 34 157 0 234 +17 279
 0 277 93 278 11 30 192 0 0 -17 34 0 90 32 88 11 93 157 0 279 -15 90 287 0 88 28
0 0 17 32 0 90 87 34 27 26 33 0 0 -17 87 0 90 88 32 80 83 153 0 91 +14 255 280 2
88 281 ?282 155 90 5 283 -0 0 282 155 23 81 1 281 736 284 280 285 0 0 286 287 14
 282 407 286 ?288 280 289 5 290 +0 0 288 280 23 14 155 290 291 ?280 149 82 5 292
 -0 0 280 149 23 50 283 319 0 280 293 292 0 +0 .00324 0 1 0 0 0 0 -1 13 23 118 0
 0 0 0 0 0 9 16 14 16 474 294 ?235 0 29 5 295 -0 0 235 0 23 81 1 294 739 284 16
 296 0 291 297 298 14 235 468 297 ?18 16 299 5 293 +0 0 18 16 23 50 295 3 0 16 2
90 293 0 +.0251339312526815 .00324 .005 0 -1 0 0 0 -1 51 255 290 420 0 282 300 2
95 0 -.01 .00324 -.047 0 -1 0 .003 0 0 -1 50 293 238 0 235 295 283 0 +.025133931
2526815 0 .005 0 -1 0 0 0 -1 51 300 458 0 288 301 290 0 -.04 .00324 .003 0 -1 0
 .003 0 0 -1 14 288 445 302 ?303 282 304 5 300 +0 0 303 282 23 51 301 496 0 303
 0 300 0 -.1 .00324 -.023 0 -1 0 .003 0 0 -1 14 303 483 305 ?0 288 306 5 301 +0
 0 0 288 23 81 1 305 742 284 303 307 0 302 308 309 15 306 486 0 310 303 311 17 3
10 0 306 310 310 0 312 313 0 0 +15 311 487 0 314 303 0 17 314 0 311 314 314 0 31
5 316 0 0 -17 315 0 317 315 315 0 314 316 0 0 +16 316 477 0 ?315 313 0 318 0 0 1
 16 313 480 0 ?310 319 316 320 0 0 1 31 318 499 0 316 320 321 0 +.1 0 -.023 0 1
 0 0 0 1 .003 31 320 500 0 313 0 318 0 +.1 .00324 -.023 0 1 0 0 0 1 .003 31 321
 462 0 322 318 323 0 +.04 .00324 .003 0 1 0 0 0 1 .003 16 322 442 0 ?324 325 319
 321 0 0 1 31 323 461 0 319 321 326 0 +.04 0 .003 0 1 0 0 0 1 .003 16 319 439 0
 ?327 322 313 323 0 0 1 31 326 424 0 165 323 328 0 +.01 .00324 -.047 0 1 0 0 0 1
 .003 16 165 404 0 ?329 161 325 326 0 0 1 31 328 423 0 325 326 330 0 +.01 0 -.04
7 0 1 0 0 0 1 .003 16 325 401 0 ?331 165 322 328 0 0 1 30 330 7 0 192 328 332 0
 +0 .00324 0 1 0 0 16 192 5 0 ?30 100 92 330 0 0 1 31 332 11 0 100 330 255 0 +.0
251339312526815 .00324 .005 0 -1 0 0 0 -1 .005 16 100 9 0 ?99 231 192 332 0 0 1
 31 255 15 0 231 332 254 0 +.04 .00324 .003 0 1 0 0 0 1 .01 16 231 13 0 ?105 250
 100 255 0 0 1 17 105 0 29 108 99 101 227 231 0 230 +17 108 0 29 111 105 106 242
 250 0 240 +17 99 0 29 105 30 95 94 100 0 98 +17 230 0 226 227 47 101 224 223 0
 242 -17 242 0 239 224 240 101 108 250 0 0 -17 30 0 29 99 26 89 279 192 0 278 +1
7 331 0 236 331 331 0 333 325 0 0 +15 236 389 0 331 235 317 17 333 0 334 333 333
 0 331 325 0 0 -15 334 411 0 333 282 0 15 317 465 0 315 235 0 17 329 0 289 329 3
29 0 335 165 0 0 +15 289 410 0 329 282 334 17 335 0 139 335 335 0 329 165 0 0 -1
5 139 396 0 335 16 336 15 336 434 0 337 16 338 17 337 0 336 337 337 0 324 322 0
 0 -15 338 472 0 312 16 0 17 312 0 338 312 312 0 310 313 0 0 -17 324 0 304 324 3
24 0 337 322 0 0 +15 304 448 0 324 288 339 15 339 449 0 340 288 0 17 340 0 339 3
40 340 0 327 319 0 0 -17 327 0 299 327 327 0 340 319 0 0 +15 299 427 0 327 235 2
32 80 255 1 284 341 342 9000 1 1 1 1 1 1 1 1 0 FFFFTFTFFFFFFF1 81 1 307 691 343
 303 0 305 344 0 345 81 1 302 741 284 288 344 0 297 305 346 81 1 308 743 284 149
 347 0 305 348 349 82 255 1 309 779681903 14 149 292 308 ?155 276 145 5 350 -0 0
 155 276 23 81 1 347 686 343 149 0 308 351 352 353 81 1 348 744 284 276 351 0 30
8 354 355 82 1 349 760152175 14 276 294 348 ?149 272 274 5 356 -0 0 149 272 23 8
1 1 351 685 343 276 0 348 357 347 358 81 1 354 745 284 272 357 0 348 359 360 82
 1 355 760414319 14 272 296 354 ?276 361 271 5 362 -0 0 276 361 23 81 1 357 684
 343 272 0 354 363 351 364 81 1 359 746 284 361 363 0 354 365 366 82 1 360 76067
6463 14 361 298 359 ?272 367 368 5 369 -0 0 272 367 23 81 1 363 683 343 361 0 35
9 370 357 371 81 1 365 747 284 367 370 0 359 372 373 82 1 366 760938607 14 367 3
00 365 ?361 374 375 5 376 -0 0 361 374 23 81 1 370 682 343 367 0 365 377 363 378
 81 1 372 748 284 374 377 0 365 379 380 82 1 373 761200751 14 374 302 372 ?367 3
81 382 5 383 -0 0 367 381 23 81 1 377 681 343 374 0 372 384 370 385 81 1 379 749
 284 381 384 0 372 386 387 82 1 380 761462895 14 381 304 379 ?374 388 389 5 390
 -0 0 374 388 23 81 1 384 680 343 381 0 379 391 377 392 81 1 386 750 284 388 391
 0 379 393 394 82 1 387 761725039 14 388 306 386 ?381 395 396 5 397 -0 0 381 395
 23 81 1 391 679 343 388 0 386 398 384 399 81 1 393 751 284 395 398 0 386 400 40
1 82 1 394 761987183 14 395 308 393 ?388 245 402 5 403 -0 0 388 245 23 81 1 398
 678 343 395 0 393 404 391 405 81 1 400 752 284 245 404 0 393 406 407 82 1 401 7
62249327 14 245 310 400 ?395 241 244 5 408 -0 0 395 241 23 81 1 404 677 343 245
 0 400 409 398 410 81 1 406 753 284 241 409 0 400 411 412 82 1 407 762511471 14
 241 312 406 ?245 229 239 5 413 -0 0 245 229 23 81 1 409 676 343 241 0 406 414 4
04 415 81 1 411 754 284 229 414 0 406 416 417 82 1 412 762773615 14 229 314 411
 ?241 418 226 5 419 -0 0 241 418 23 81 1 414 675 343 229 0 411 420 409 421 81 1
 416 755 284 418 420 0 411 422 423 82 1 417 763035759 14 418 316 416 ?229 18 97
 5 19 -0 0 229 18 23 81 1 420 674 343 418 0 416 424 414 425 81 1 422 756 284 18
 424 0 416 0 426 82 1 423 763297903 14 18 318 422 ?418 235 277 5 6 -0 0 418 235
 23 81 1 424 673 343 18 0 422 427 420 428 82 1 426 763560047 80 1 343 0 429 8001
 0 0 0 0 3 5 0 0 0 FFFFTFTFFFFFFF2 81 1 427 672 343 235 0 297 296 424 430 83 255
 3 428 .792156862745098 .819607843137255 .933333333333333 81 1 297 740 284 235 4
27 0 294 302 431 81 1 296 671 343 16 0 294 0 427 432 83 3 430 .792156862745098 .
819607843137255 .933333333333333 83 3 432 .792156862745098 .819607843137255 .933
333333333333 82 1 431 784007279 79 255 15 429 SDL/TYSA_COLOUR83 3 425 .792156862
745098 .819607843137255 .933333333333333 15 97 315 0 44 418 0 51 19 333 0 418 41
9 6 0 +.0251339312526815 .00324 .005 0 -1 0 .005 0 0 -1 51 419 332 0 229 413 19
 0 -.04 .00324 .003 0 -1 0 .01 0 0 -1 50 413 331 0 241 408 419 0 +.0681549669251
056 .00324 -.034097061357602 -.907795872703824 0 -.419412271520401 -.41941227152
0401 0 .907795872703824 51 408 330 0 245 403 413 0 +.0726939462886247 .00324 -.0
32 0 -1 0 .005 0 0 -1 50 403 329 0 395 397 408 0 +.085 .00324 -.037 0 0 -1 -1 0
 0 51 397 328 0 388 390 403 0 +.085 .00324 -.032 0 -1 0 .005 0 0 -1 50 390 327 0
 381 383 397 0 +.09 .00324 -.018 1 0 0 0 0 -1 51 383 326 0 374 376 390 0 -.095 .
00324 -.018 0 -1 0 .005 0 0 -1 50 376 325 0 367 369 383 0 +.105 .00324 -.013 -17
3472347597682e-30 0 -1 -1 0 173472347597682e-30 51 369 324 0 361 362 376 0 -.105
 .00324 -.018 0 -1 0 .005 0 0 -1 50 362 323 0 272 356 369 0 +.11 .00324 -.052 -1
 0 -4081702296416025e-31 -4081702296416025e-31 0 1 51 356 322 0 276 350 362 0 -.
105 .00324 -.052 0 -1 0 .005 0 0 -1 50 350 321 0 149 292 356 0 +.005 .00324 -.05
7 0 0 1 1 0 0 51 292 320 0 155 283 350 0 -.005 .00324 -.052 0 -1 0 .005 0 0 -1 1
7 44 0 97 98 24 42 41 164 0 225 +17 24 0 97 44 94 39 278 10 0 163 +83 3 421 .792
156862745098 .819607843137255 .933333333333333 83 3 415 .792156862745098 .819607
843137255 .933333333333333 83 3 410 .792156862745098 .819607843137255 .933333333
333333 83 3 405 .792156862745098 .819607843137255 .933333333333333 15 402 307 0
 56 395 0 17 56 0 402 433 219 54 238 173 0 216 +17 433 0 402 248 56 112 216 214
 0 434 -17 219 0 402 56 248 51 246 217 0 238 +17 238 0 232 237 435 51 56 173 0 0
 -17 216 0 396 59 434 54 433 214 0 435 +15 396 305 0 59 388 0 17 59 0 396 436 21
6 57 435 175 0 213 +17 434 0 396 216 436 112 117 252 0 0 -17 435 0 232 238 437 5
4 59 175 0 0 -17 437 0 232 435 438 57 62 177 0 0 -17 438 0 232 437 439 60 65 179
 0 0 -17 62 0 389 440 213 60 437 177 0 210 +15 389 303 0 62 381 0 17 440 0 389 4
41 62 118 210 208 0 442 -17 213 0 389 62 441 57 436 211 0 437 +17 210 0 382 65 4
42 60 440 208 0 438 +15 382 301 0 65 374 0 17 65 0 382 443 210 63 438 179 0 207
 +17 442 0 382 210 443 118 123 260 0 0 -17 443 0 382 442 65 121 207 205 0 444 -1
7 123 0 29 126 120 121 442 260 0 443 +17 126 0 29 129 123 124 444 262 0 445 +17
 120 0 29 123 117 118 441 258 0 440 +17 117 0 29 120 114 115 434 252 0 436 +17 4
41 0 389 213 440 115 120 258 0 0 -17 114 0 29 117 111 112 248 249 0 433 +17 436
 0 396 434 59 115 213 211 0 441 -17 248 0 402 219 433 109 114 249 0 0 -17 444 0
 375 207 445 121 126 262 0 0 -17 445 0 375 444 68 124 204 202 0 269 -15 375 299
 0 68 367 0 17 68 0 375 445 207 66 439 181 0 204 +17 204 0 368 71 269 66 445 202
 0 446 +17 269 0 368 204 270 124 129 264 0 0 -15 368 297 0 71 361 0 17 270 0 368
 269 71 127 201 199 0 267 -17 71 0 368 270 204 69 446 183 0 201 +17 201 0 271 74
 267 69 270 199 0 273 +17 273 0 232 446 275 69 74 185 0 0 -17 446 0 232 439 273
 66 71 183 0 0 -17 439 0 232 438 446 63 68 181 0 0 -17 207 0 375 68 444 63 443 2
05 0 439 +83 3 399 .792156862745098 .819607843137255 .933333333333333 83 3 392 .
792156862745098 .819607843137255 .933333333333333 83 3 385 .792156862745098 .819
607843137255 .933333333333333 83 3 378 .792156862745098 .819607843137255 .933333
333333333 83 3 371 .792156862745098 .819607843137255 .933333333333333 83 3 364 .
792156862745098 .819607843137255 .933333333333333 83 3 358 .792156862745098 .819
607843137255 .933333333333333 81 1 352 687 343 155 0 291 347 285 447 83 3 353 .7
92156862745098 .819607843137255 .933333333333333 81 1 291 738 284 155 352 0 286
 294 448 81 1 285 688 343 280 0 281 352 449 450 83 3 447 .792156862745098 .81960
7843137255 .933333333333333 81 1 449 689 343 282 0 286 285 344 451 83 3 450 .792
156862745098 .819607843137255 .933333333333333 81 1 286 737 284 282 449 0 281 29
1 452 81 1 344 690 343 288 0 302 449 307 453 83 3 451 .792156862745098 .81960784
3137255 .933333333333333 83 3 453 .792156862745098 .819607843137255 .93333333333
3333 82 1 452 771555439 82 1 448 759890031 82 1 346 775618671 83 3 345 .79215686
2745098 .819607843137255 .933333333333333 79 14 342 SWEntUnchanged82 1 298 78453
1567 82 1 287 759627887 19 17 352 0 1 0 9 5 S0 74 4 CI16 index_map_offset0 0 1 d
CCZ20 15 8 0 0 454 455 422 456 457 13 307 2 0 0 0 0 0 0 0 0 0 0 0 0 81 2 454 387
 458 1 0 455 0 0 0 459 81 2 455 548 460 1 454 456 0 0 0 461 81 1 456 570 462 1 4
55 457 0 0 463 81 2 457 571 464 1 456 13 0 0 0 0 81 2 13 594 465 1 457 2 0 0 466
 0 80 2 465 467 468 8004 0 0 0 0 3 5 0 0 0 FFTFFFFFFFFFFF2 3 83 1 466 1 79 16 46
8 SDL/TYSA_DENSITY80 2 464 469 470 9000 0 0 0 0 3 5 0 0 0 FFTFFFFFFFFFFF9 1 79 1
6 470 BODY_RECIPE_200180 1 462 471 472 9000 1 1 1 1 1 1 1 1 0 FFTFFFFFFFFFFF1 82
 1 463 11237 79 10 472 BODY_MATCH80 2 460 473 474 9000 0 0 0 0 3 5 0 0 0 FFTFFFF
FFFFFFF9 1 82 1 461 78 79 30 474 LAST_BODY_MODIFYING_FEATURE_ID80 2 458 475 476
 9000 0 0 0 0 3 5 0 0 0 FFTFFFFFFFFFFF9 1 82 1 459 106 79 19 476 ENT_TIME_STAMP_
200180 2 12 477 478 9000 0 0 0 0 3 5 0 0 0 FFTFFFFFFFFFFF9 1 82 1 14 101 79 12 4
78 ATOM_ID_20011 0 
