**ABCDEFGHIJKLMNOPQRSTUVWXYZabcdefghijklmnopqrstuvwxyz**************************
**PARASOLID !"#$%&'()*+,-./:;<=>?@[\]^_`{|}~0123456789**************************
**PART1;
MC=AMD64;
MC_MODEL=Intel64 Family 6 Model 60 Stepping 3, GenuineIntel;
MC_ID=unknown;
OS=Windows_NT;
OS_RELEASE=unknown;
FRU=Parasolid Version 24.0, build 201, 10-11-2011;
APPL=SolidWorks 2012-2012018;
SITE=;
USER=unknown;
FORMAT=text;
GUISE=transmit;
KEY=ABE;
FILE=ABE.x_t;
DATE=Thu Apr 06 10:26:00 2017;
**PART2;
SCH=SCH_2400201_20000;
USFLD_SIZE=0;
**PART3;
**END_OF_HEADER*****************************************************************
T51 : TRANSMIT FILE created by modeller version 240020123 SCH_2400201_20000_1300
6186 0 12 27 CCCCCCCCCCCCCCCCCCCCCCCA16 index_map_offset0 0 1 dA9 index_map82 0
 A17 node_id_index_map82 0 A20 schema_embedding_map82 0 Z1 697 0 2 0 0 0 0 1e3 1
e-8 0 3 0 1 0 1 1 4 5 6 7 8 9 10 0 0 0 0 70 11 CI9 list_type0 0 1 uI10 notransmi
t0 0 1 lCCCDCCDI12 finger_index0 0 1 dI12 finger_block1012 0 CZ2 0 4 T1 0 0 2 20
 1 11 11 13 255 4 354 0 1 0 12 0 0 13 0 51 255 5 353 0 14 15 0 0 +.0731649658092
773 .045 .006 0 0 -1 .005 -1 0 0 30 255 6 336 0 9 16 0 0 +.0731649658092773 .05
 .006 0 0 -1 29 255 7 252 0 17 18 0 .0686457822208242 .0471393876913398 0 19 255
 8 106 0 1 13 0 19 V16 255 9 285 0 ?20 0 21 6 0 0 1 18 255 10 103 0 22 0 23 24 ?
1 17 255 22 0 25 26 27 10 28 29 0 30 +18 23 100 0 27 10 31 32 ?1 29 24 105 0 10
 32 33 .0686457822208242 .0471393876913398 .006 29 32 102 0 23 34 24 .0490383671
769062 .00572122461732038 .006 29 33 268 0 35 24 36 .0731649658092773 .05 0 18 3
5 233 0 37 38 0 33 ?1 29 36 267 0 38 33 39 .085 .05 0 18 38 232 0 40 41 35 36 ?1
 29 39 266 0 41 36 42 .09 .045 0 18 41 231 0 43 44 38 39 ?1 29 42 265 0 44 39 45
 .09 .031 0 18 44 230 0 46 47 41 42 ?1 29 45 264 0 47 42 48 .095 .026 0 18 47 22
9 0 49 50 44 45 ?1 29 48 263 0 50 45 51 .105 .026 0 18 50 228 0 52 53 47 48 ?1 2
9 51 262 0 53 48 54 .11 .031 0 18 53 227 0 55 56 50 51 ?1 29 54 261 0 56 51 57 .
11 .065 0 18 56 226 0 58 59 53 54 ?1 29 57 260 0 59 54 60 .105 .07 0 18 59 225 0
 61 62 56 57 ?1 29 60 259 0 62 57 63 .005 .07 0 18 62 224 0 64 65 59 60 ?1 29 63
 258 0 65 60 66 -234187669256869e-31 .065 0 18 65 223 0 67 68 62 63 ?1 29 66 257
 0 68 63 69 -208166817117217e-31 .013 0 18 68 222 0 70 71 65 66 ?1 29 69 255 0 7
1 66 72 .0251339312526815 .013 0 18 71 220 0 73 74 68 69 ?1 29 72 254 0 74 69 18
 .03008928750178765 .00866666666666668 0 18 74 219 0 75 76 71 72 ?1 29 18 253 0
 76 72 7 .0490383671769062 .00572122461732038 0 18 76 218 0 77 17 74 18 ?1 17 77
 0 78 79 80 76 81 82 0 83 +18 17 217 0 84 85 76 7 ?1 17 84 0 86 30 83 17 87 88 0
 89 +18 85 55 0 90 91 17 92 ?1 17 90 0 93 20 94 85 95 96 0 26 -18 91 58 0 95 97
 85 98 ?1 29 92 57 0 85 0 98 .0731649658092773 .05 .006 29 98 60 0 91 92 99 .085
 .05 .006 29 99 63 0 97 98 100 .09 .045 .006 18 97 61 0 101 102 91 99 ?1 29 100
 66 0 102 99 103 .09 .031 .006 18 102 64 0 104 105 97 100 ?1 29 103 69 0 105 100
 106 .095 .026 .006 18 105 67 0 107 108 102 103 ?1 29 106 72 0 108 103 109 .105
 .026 .006 18 108 70 0 110 111 105 106 ?1 29 109 75 0 111 106 112 .11 .031 .006
 18 111 73 0 113 114 108 109 ?1 29 112 78 0 114 109 115 .11 .065 .006 18 114 76
 0 116 117 111 112 ?1 29 115 81 0 117 112 118 .105 .07 .006 18 117 79 0 119 120
 114 115 ?1 29 118 84 0 120 115 121 .005 .07 .006 18 120 82 0 122 123 117 118 ?1
 29 121 87 0 123 118 124 -234187669256869e-31 .065 .006 18 123 85 0 125 126 120
 121 ?1 29 124 90 0 126 121 127 -208166817117217e-31 .013 .006 18 126 88 0 128 1
29 123 124 ?1 29 127 96 0 129 124 34 .0251339312526815 .013 .006 18 129 94 0 130
 31 126 127 ?1 29 34 99 0 31 127 32 .03008928750178765 .00866666666666668 .006 1
8 31 97 0 131 23 129 34 ?1 17 131 0 25 27 130 31 132 133 0 134 +15 255 25 3 0 26
 12 135 17 27 0 25 22 131 23 136 137 0 79 +17 130 0 25 131 128 129 138 139 0 140
 +17 132 0 141 142 134 129 131 133 0 0 -16 133 46 0 ?131 137 139 143 0 0 1 17 13
4 0 141 132 75 31 80 144 0 136 -15 141 290 0 75 145 0 17 75 0 141 134 142 74 146
 147 0 80 +17 80 0 78 77 136 74 134 144 0 81 +16 144 271 0 ?80 148 149 150 0 0 1
 17 136 0 78 80 79 31 27 137 0 0 -15 78 288 0 77 151 0 17 79 0 78 136 77 23 83 1
49 0 28 -16 137 49 0 ?27 29 133 152 0 0 1 16 29 52 0 ?22 153 137 154 0 0 1 31 25
5 152 50 0 137 143 154 0 +.04 .01 .006 0 0 1 1 0 0 .01 31 143 47 0 133 155 152 0
 +.0251339312526815 .008 .006 0 0 -1 1 0 0 .005 30 154 53 0 29 152 156 0 +.06864
57822208242 .0471393876913398 .006 .427877538267963 .903836717690617 0 31 156 25
1 0 157 154 158 0 +.0731649658092773 .045 0 0 0 -1 1 0 0 .005 16 157 213 0 ?159
 160 161 156 0 0 1 30 158 250 0 160 156 162 0 +.0731649658092773 .05 0 1 0 0 16
 160 209 0 ?40 163 157 158 0 0 1 31 162 249 0 163 158 164 0 +.085 .045 0 0 0 -1
 1 0 0 .005 16 163 205 0 ?43 165 160 162 0 0 1 30 164 248 0 165 162 166 0 +.09 .
045 0 0 -1 0 16 165 201 0 ?46 167 163 164 0 0 1 31 166 247 0 167 164 168 0 +.095
 .031 0 0 0 1 -1 0 0 .005 16 167 197 0 ?49 169 165 166 0 0 1 30 168 246 0 169 16
6 170 0 +.095 .026 0 1 0 0 16 169 193 0 ?52 171 167 168 0 0 1 31 170 245 0 171 1
68 172 0 +.105 .031 0 0 0 1 -1 0 0 .005 16 171 189 0 ?55 173 169 170 0 0 1 30 17
2 244 0 173 170 174 0 +.11 .031 0 0 1 0 16 173 185 0 ?58 175 171 172 0 0 1 31 17
4 243 0 175 172 176 0 +.105 .065 0 0 0 1 1 0 0 .005 16 175 181 0 ?61 177 173 174
 0 0 1 30 176 242 0 177 174 178 0 +.005 .07 0 -1 0 0 16 177 177 0 ?64 179 175 17
6 0 0 1 31 178 241 0 179 176 180 0 +.005 .065 0 0 0 1 1 0 0 .005 16 179 173 0 ?6
7 181 177 178 0 0 1 30 180 240 0 181 178 182 0 +-208166817117217e-31 .013 0 0 -1
 0 16 181 169 0 ?183 184 179 180 0 0 1 30 182 238 0 184 180 185 0 +.01 .013 0 1
 0 0 16 184 161 0 ?73 147 181 182 0 0 1 31 185 237 0 147 182 186 0 +.02513393125
26815 .008 0 0 0 -1 1 0 0 .005 16 147 157 0 ?75 82 184 185 0 0 1 31 186 236 0 82
 185 187 0 +.04 .01 0 0 0 1 1 0 0 .01 16 82 153 0 ?77 88 147 186 0 0 1 30 187 23
5 0 88 186 188 0 +.0686457822208242 .0471393876913398 0 .427877538267963 .903836
717690617 0 16 88 149 0 ?84 189 82 187 0 0 1 30 188 320 0 153 187 190 0 +.068645
7822208242 .0471393876913398 .006 0 0 -1 16 153 269 0 ?89 149 29 188 0 0 1 30 19
0 321 0 149 188 150 0 +.0490383671769062 .00572122461732038 .006 0 0 -1 16 149 2
70 0 ?83 144 153 190 0 0 1 30 150 322 0 144 190 191 0 +.03008928750178765 .00866
666666666668 .006 0 0 -1 30 191 323 0 148 150 192 0 +.0251339312526815 .013 .006
 0 0 -1 16 148 272 0 ?142 193 144 191 0 0 1 30 192 325 0 193 191 194 0 +-2081668
17117217e-31 .013 .006 0 0 -1 16 193 274 0 ?195 196 148 192 0 0 1 30 194 326 0 1
96 192 197 0 +-234187669256869e-31 .065 .006 0 0 -1 16 196 275 0 ?198 199 193 19
4 0 0 1 30 197 327 0 199 194 200 0 +.005 .07 .006 0 0 -1 16 199 276 0 ?201 202 1
96 197 0 0 1 30 200 328 0 202 197 203 0 +.105 .07 .006 0 0 -1 16 202 277 0 ?204
 205 199 200 0 0 1 30 203 329 0 205 200 206 0 +.11 .065 .006 0 0 -1 16 205 278 0
 ?207 208 202 203 0 0 1 30 206 330 0 208 203 209 0 +.11 .031 .006 0 0 -1 16 208
 279 0 ?210 211 205 206 0 0 1 30 209 331 0 211 206 212 0 +.105 .026 .006 0 0 -1
 16 211 280 0 ?213 214 208 209 0 0 1 30 212 332 0 214 209 215 0 +.095 .026 .006
 0 0 -1 16 214 281 0 ?216 217 211 212 0 0 1 30 215 333 0 217 212 218 0 +.09 .031
 .006 0 0 -1 16 217 282 0 ?219 220 214 215 0 0 1 30 218 334 0 220 215 16 0 +.09
 .045 .006 0 0 -1 16 220 283 0 ?221 21 217 218 0 0 1 30 16 335 0 21 218 6 0 +.08
5 .05 .006 0 0 -1 16 21 284 0 ?222 9 220 16 0 0 1 17 222 0 223 43 224 38 94 21 0
 225 +15 223 314 0 43 226 0 17 43 0 223 227 222 41 225 163 0 221 +17 224 0 223 2
22 227 91 101 228 0 0 -17 94 0 93 90 40 91 222 21 0 224 -17 225 0 229 37 230 38
 43 163 0 0 -15 229 148 0 231 232 233 17 37 0 229 231 225 35 40 160 0 20 -17 230
 0 229 225 234 41 46 165 0 0 -17 234 0 229 230 235 44 49 167 0 0 -17 46 0 236 23
7 221 44 230 165 0 219 +15 236 312 0 46 238 0 17 237 0 236 239 46 102 219 217 0
 240 -17 221 0 236 46 239 41 227 220 0 230 +17 219 0 241 49 240 44 237 217 0 234
 +15 241 310 0 49 242 0 17 49 0 241 243 219 47 234 167 0 216 +17 240 0 241 219 2
43 102 107 244 0 0 -17 243 0 241 240 49 105 216 214 0 245 -17 107 0 25 110 104 1
05 240 244 0 243 +16 244 16 0 ?107 246 247 248 0 0 1 16 246 19 0 ?110 249 244 25
0 0 0 1 16 247 13 0 ?104 244 228 251 0 0 1 31 248 17 0 244 251 250 0 +.095 .031
 .006 0 0 1 -1 0 0 .005 30 251 14 0 247 252 248 0 +.09 .045 .006 0 -1 0 30 250 2
0 0 246 248 253 0 +.095 .026 .006 1 0 0 31 253 23 0 249 250 254 0 +.105 .031 .00
6 0 0 1 -1 0 0 .005 16 249 22 0 ?113 255 246 253 0 0 1 30 254 26 0 255 253 256 0
 +.11 .031 .006 0 1 0 16 255 25 0 ?116 257 249 254 0 0 1 31 256 29 0 257 254 258
 0 +.105 .065 .006 0 0 1 1 0 0 .005 16 257 28 0 ?119 259 255 256 0 0 1 30 258 32
 0 259 256 260 0 +.005 .07 .006 -1 0 0 16 259 31 0 ?122 261 257 258 0 0 1 31 260
 35 0 261 258 262 0 +.005 .065 .006 0 0 1 1 0 0 .005 16 261 34 0 ?125 263 259 26
0 0 0 1 30 262 38 0 263 260 155 0 +-208166817117217e-31 .013 .006 0 -1 0 16 263
 37 0 ?128 139 261 262 0 0 1 30 155 41 0 139 262 143 0 +-208166817117217e-31 .01
3 .006 1 0 0 16 139 40 0 ?130 133 263 155 0 0 1 17 128 0 25 130 125 126 264 263
 0 265 +17 125 0 25 128 122 123 266 261 0 267 +17 264 0 268 198 265 123 128 263
 0 0 -17 265 0 268 264 183 126 195 193 0 138 -15 268 296 0 183 269 0 17 183 0 26
8 265 198 68 270 181 0 195 +17 195 0 271 73 138 68 265 193 0 0 +17 138 0 271 195
 140 126 130 139 0 0 -15 271 292 0 73 272 0 17 140 0 271 138 73 129 142 148 0 13
2 -17 73 0 271 140 195 71 70 184 0 142 +17 142 0 141 75 132 71 140 148 0 146 +17
 146 0 229 70 81 71 75 147 0 0 -17 70 0 229 270 146 68 73 184 0 183 -17 81 0 229
 146 87 74 77 82 0 0 -17 87 0 229 81 231 76 84 88 0 0 -17 231 0 229 87 37 17 159
 157 0 0 -17 159 0 273 274 89 35 231 157 0 0 +15 273 318 0 159 14 0 17 274 0 273
 275 159 85 20 9 0 0 -17 89 0 273 159 275 17 30 153 0 231 +17 275 0 273 89 274 1
0 26 189 0 0 -17 30 0 86 28 84 10 89 153 0 275 -15 86 286 0 84 276 0 17 28 0 86
 83 30 23 22 29 0 0 -17 83 0 86 84 28 76 79 149 0 87 +14 255 276 287 277 ?278 15
1 86 4 279 -0 0 278 151 19 81 255 1 277 677 280 276 281 0 0 282 283 14 278 417 2
82 ?284 276 285 4 286 +0 0 284 276 19 14 151 289 287 ?276 145 78 4 288 -0 0 276
 145 19 50 255 279 337 0 276 289 288 0 +.0686457822208242 .0471393876913398 .006
 -.903836717690617 .4278775382679625 0 -.427877538267963 -.903836717690617 0 13
 19 107 0 0 0 0 0 0 8 12 14 12 484 290 ?232 0 291 4 292 +0 0 232 0 19 81 1 290 6
80 280 12 293 0 287 294 295 14 232 478 294 ?14 12 296 4 289 -0 0 14 12 19 15 291
 443 0 297 12 25 50 292 2 0 12 286 289 0 +.0731649658092773 .045 .006 0 0 1 1 0
 0 51 286 430 0 278 298 292 0 -.04 .01 .006 0 0 -1 .003 -1 0 0 50 289 234 0 232
 292 279 0 +.0731649658092773 .045 0 0 0 1 1 0 0 51 298 468 0 284 299 286 0 -.1
 .036 .006 0 0 -1 .003 -1 0 0 14 284 455 300 ?301 278 302 4 298 +0 0 301 278 19
 51 299 506 0 301 0 298 0 -.01 .06 .006 0 0 -1 .003 -1 0 0 14 301 493 303 ?0 284
 304 4 299 +0 0 0 284 19 81 1 303 683 280 301 305 0 300 306 307 15 304 496 0 308
 301 309 17 308 0 304 308 308 0 310 311 0 0 +15 309 497 0 312 301 0 17 312 0 309
 312 312 0 313 314 0 0 -17 313 0 315 313 313 0 312 314 0 0 +16 314 487 0 ?313 31
1 0 316 0 0 1 16 311 490 0 ?308 317 314 318 0 0 1 31 316 509 0 314 318 319 0 +.0
1 .06 0 0 0 1 1 0 0 .003 31 318 510 0 311 0 316 0 +.01 .06 .006 0 0 1 1 0 0 .003
 31 319 472 0 320 316 321 0 +.1 .036 .006 0 0 1 1 0 0 .003 16 320 452 0 ?322 323
 317 319 0 0 1 31 321 471 0 317 319 324 0 +.1 .036 0 0 0 1 1 0 0 .003 16 317 449
 0 ?325 320 311 321 0 0 1 31 324 434 0 161 321 326 0 +.04 .01 .006 0 0 1 1 0 0 .
003 16 161 414 0 ?327 157 323 324 0 0 1 31 326 433 0 323 324 328 0 +.04 .01 0 0
 0 1 1 0 0 .003 16 323 411 0 ?329 161 320 326 0 0 1 31 328 5 0 189 326 330 0 +.0
731649658092773 .045 .006 0 0 -1 1 0 0 .005 16 189 4 0 ?26 96 88 328 0 0 1 30 33
0 8 0 96 328 252 0 +.0731649658092773 .05 .006 1 0 0 16 96 7 0 ?95 228 189 330 0
 0 1 31 252 11 0 228 330 251 0 +.085 .045 .006 0 0 -1 1 0 0 .005 16 228 10 0 ?10
1 247 96 252 0 0 1 17 101 0 25 104 95 97 224 228 0 227 +17 104 0 25 107 101 102
 239 247 0 237 +17 95 0 25 101 26 91 90 96 0 94 +17 227 0 223 224 43 97 221 220
 0 239 -17 239 0 236 221 237 97 104 247 0 0 -17 26 0 25 95 22 85 275 189 0 274 +
17 329 0 233 329 329 0 331 323 0 0 +15 233 400 0 329 232 315 17 331 0 332 331 33
1 0 329 323 0 0 -15 332 421 0 331 278 0 15 315 476 0 313 232 0 17 327 0 285 327
 327 0 333 161 0 0 +15 285 420 0 327 278 332 17 333 0 135 333 333 0 327 161 0 0
 -15 135 405 0 333 12 334 15 334 481 0 310 12 0 17 310 0 334 310 310 0 308 311 0
 0 -17 325 0 296 325 325 0 335 317 0 0 +15 296 438 0 325 232 229 17 335 0 336 33
5 335 0 325 317 0 0 -15 336 459 0 335 284 0 17 322 0 302 322 322 0 297 320 0 0 +
15 302 458 0 322 284 336 17 297 0 291 297 297 0 322 320 0 0 -80 255 1 280 337 33
8 9000 1 1 1 1 1 1 1 1 0 FFFFTFTFFFFFFF1 81 1 305 631 339 301 0 303 340 0 341 81
 1 300 682 280 284 340 0 294 303 342 81 1 306 684 280 145 343 0 303 344 345 82 2
55 1 307 516882570 14 145 291 306 ?151 272 141 4 346 -0 0 151 272 19 81 1 343 62
6 339 145 0 306 347 348 349 81 1 344 685 280 272 347 0 306 350 351 82 1 345 4968
28554 14 272 293 344 ?145 269 271 4 352 -0 0 145 269 19 81 1 347 625 339 272 0 3
44 353 343 354 81 1 350 686 280 269 353 0 344 355 356 82 1 351 497090698 14 269
 297 350 ?272 357 268 4 358 -0 0 272 357 19 81 1 353 624 339 269 0 350 359 347 3
60 81 1 355 687 280 357 359 0 350 361 362 82 1 356 497614986 14 357 299 355 ?269
 363 364 4 365 -0 0 269 363 19 81 1 359 623 339 357 0 355 366 353 367 81 1 361 6
88 280 363 366 0 355 368 369 82 1 362 497877130 14 363 301 361 ?357 370 371 4 37
2 -0 0 357 370 19 81 1 366 622 339 363 0 361 373 359 374 81 1 368 689 280 370 37
3 0 361 375 376 82 1 369 498139274 14 370 303 368 ?363 377 378 4 379 -0 0 363 37
7 19 81 1 373 621 339 370 0 368 380 366 381 81 1 375 690 280 377 380 0 368 382 3
83 82 1 376 498401418 14 377 305 375 ?370 384 385 4 386 -0 0 370 384 19 81 1 380
 620 339 377 0 375 387 373 388 81 1 382 691 280 384 387 0 375 389 390 82 1 383 4
98663562 14 384 307 382 ?377 391 392 4 393 -0 0 377 391 19 81 1 387 619 339 384
 0 382 394 380 395 81 1 389 692 280 391 394 0 382 396 397 82 1 390 498925706 14
 391 309 389 ?384 242 398 4 399 -0 0 384 242 19 81 1 394 618 339 391 0 389 400 3
87 401 81 1 396 693 280 242 400 0 389 402 403 82 1 397 499187850 14 242 311 396
 ?391 238 241 4 404 -0 0 391 238 19 81 1 400 617 339 242 0 396 405 394 406 81 1
 402 694 280 238 405 0 396 407 408 82 1 403 499449994 14 238 313 402 ?242 226 23
6 4 409 -0 0 242 226 19 81 1 405 616 339 238 0 402 410 400 411 81 1 407 695 280
 226 410 0 402 412 413 82 1 408 499712138 14 226 315 407 ?238 414 223 4 415 -0 0
 238 414 19 81 1 410 615 339 226 0 407 416 405 417 81 1 412 696 280 414 416 0 40
7 418 419 82 1 413 499974282 14 414 317 412 ?226 14 93 4 15 -0 0 226 14 19 81 1
 416 614 339 414 0 412 420 410 421 81 1 418 697 280 14 420 0 412 0 422 82 1 419
 500236426 14 14 319 418 ?414 232 273 4 5 -0 0 414 232 19 81 1 420 613 339 14 0
 418 423 416 424 82 1 422 500498570 80 1 339 0 425 8001 0 0 0 0 3 5 0 0 0 FFFFTF
TFFFFFFF2 81 1 423 612 339 232 0 294 293 420 426 83 255 3 424 .792156862745098 .
819607843137255 .933333333333333 81 1 294 681 280 232 423 0 290 300 427 81 1 293
 611 339 12 0 290 0 423 428 83 3 426 .792156862745098 .819607843137255 .93333333
3333333 83 3 428 .792156862745098 .819607843137255 .933333333333333 82 1 427 521
207946 79 255 15 425 SDL/TYSA_COLOUR83 3 421 .792156862745098 .819607843137255 .
933333333333333 15 93 316 0 40 414 0 50 15 352 0 414 415 5 0 +.0731649658092773
 .05 .006 0 1 0 0 0 1 51 415 351 0 226 409 15 0 +.085 .045 .006 0 0 -1 .005 -1 0
 0 50 409 350 0 238 404 415 0 +.09 .045 .006 1 0 0 0 0 -1 51 404 349 0 242 399 4
09 0 -.095 .031 .006 0 0 -1 .005 -1 0 0 50 399 348 0 391 393 404 0 +.095 .026 .0
06 0 1 0 0 0 1 51 393 347 0 384 386 399 0 -.105 .031 .006 0 0 -1 .005 -1 0 0 50
 386 346 0 377 379 393 0 +.11 .031 .006 -1 0 0 0 0 1 51 379 345 0 370 372 386 0
 -.105 .065 .006 0 0 -1 .005 -1 0 0 50 372 344 0 363 365 379 0 +.005 .07 .006 0
 -1 0 0 0 -1 51 365 343 0 357 358 372 0 -.005 .065 .006 0 0 -1 .005 -1 0 0 50 35
8 342 0 269 352 365 0 +-208166817117217e-31 .013 .006 1 0 0 0 0 -1 50 352 340 0
 272 346 358 0 +.01 .013 .006 0 1 0 0 0 1 51 346 339 0 145 288 352 0 +.025133931
2526815 .008 .006 0 0 -1 .005 -1 0 0 51 288 338 0 151 279 346 0 -.04 .01 .006 0
 0 -1 .01 -1 0 0 17 40 0 93 94 20 38 37 160 0 222 +17 20 0 93 40 90 35 274 9 0 1
59 +83 3 417 .792156862745098 .819607843137255 .933333333333333 83 3 411 .792156
862745098 .819607843137255 .933333333333333 83 3 406 .792156862745098 .819607843
137255 .933333333333333 83 3 401 .792156862745098 .819607843137255 .933333333333
333 15 398 308 0 52 391 0 17 52 0 398 429 216 50 235 169 0 213 +17 429 0 398 245
 52 108 213 211 0 430 -17 216 0 398 52 245 47 243 214 0 235 +17 235 0 229 234 43
1 47 52 169 0 0 -17 213 0 392 55 430 50 429 211 0 431 +15 392 306 0 55 384 0 17
 55 0 392 432 213 53 431 171 0 210 +17 430 0 392 213 432 108 113 249 0 0 -17 431
 0 229 235 433 50 55 171 0 0 -17 433 0 229 431 434 53 58 173 0 0 -17 434 0 229 4
33 435 56 61 175 0 0 -17 58 0 385 436 210 56 433 173 0 207 +15 385 304 0 58 377
 0 17 436 0 385 437 58 114 207 205 0 438 -17 210 0 385 58 437 53 432 208 0 433 +
17 207 0 378 61 438 56 436 205 0 434 +15 378 302 0 61 370 0 17 61 0 378 439 207
 59 434 175 0 204 +17 438 0 378 207 439 114 119 257 0 0 -17 439 0 378 438 61 117
 204 202 0 440 -17 119 0 25 122 116 117 438 257 0 439 +17 122 0 25 125 119 120 4
40 259 0 441 +17 116 0 25 119 113 114 437 255 0 436 +17 113 0 25 116 110 111 430
 249 0 432 +17 437 0 385 210 436 111 116 255 0 0 -17 110 0 25 113 107 108 245 24
6 0 429 +17 432 0 392 430 55 111 210 208 0 437 -17 245 0 398 216 429 105 110 246
 0 0 -17 440 0 371 204 441 117 122 259 0 0 -17 441 0 371 440 64 120 201 199 0 26
6 -15 371 300 0 64 363 0 17 64 0 371 441 204 62 435 177 0 201 +17 201 0 364 67 2
66 62 441 199 0 442 +17 266 0 364 201 267 120 125 261 0 0 -15 364 298 0 67 357 0
 17 267 0 364 266 67 123 198 196 0 264 -17 67 0 364 267 201 65 442 179 0 198 +17
 198 0 268 183 264 65 267 196 0 270 +17 270 0 229 442 70 65 183 181 0 0 -17 442
 0 229 435 270 62 67 179 0 0 -17 435 0 229 434 442 59 64 177 0 0 -17 204 0 371 6
4 440 59 439 202 0 435 +83 3 395 .792156862745098 .819607843137255 .933333333333
333 83 3 388 .792156862745098 .819607843137255 .933333333333333 83 3 381 .792156
862745098 .819607843137255 .933333333333333 83 3 374 .792156862745098 .819607843
137255 .933333333333333 83 3 367 .792156862745098 .819607843137255 .933333333333
333 83 3 360 .792156862745098 .819607843137255 .933333333333333 83 3 354 .792156
862745098 .819607843137255 .933333333333333 81 1 348 627 339 151 0 287 343 281 4
43 83 3 349 .792156862745098 .819607843137255 .933333333333333 81 1 287 679 280
 151 348 0 282 290 444 81 1 281 628 339 276 0 277 348 445 446 83 3 443 .79215686
2745098 .819607843137255 .933333333333333 81 1 445 629 339 278 0 282 281 340 447
 83 3 446 .792156862745098 .819607843137255 .933333333333333 81 1 282 678 280 27
8 445 0 277 287 448 81 1 340 630 339 284 0 300 445 305 449 83 3 447 .79215686274
5098 .819607843137255 .933333333333333 83 3 449 .792156862745098 .81960784313725
5 .933333333333333 82 1 448 508756106 82 1 444 496566410 82 1 342 512819338 83 3
 341 .792156862745098 .819607843137255 .933333333333333 79 14 338 SWEntUnchanged
82 1 295 521732234 82 1 283 496304266 19 13 355 0 1 0 8 4 S74 4 CI16 index_map_o
ffset0 0 1 dCCZ20 11 2 0 0 418 305 0 0 0 0 0 0 0 0 0 0 0 0 0 0 0 0 0 0 1 0 
