**ABCDEFGHIJKLMNOPQRSTUVWXYZabcdefghijklmnopqrstuvwxyz**************************
**PARASOLID !"#$%&'()*+,-./:;<=>?@[\]^_`{|}~0123456789**************************
**PART1;
MC=AMD64;
MC_MODEL=Intel64 Family 6 Model 158 Stepping 10, GenuineIntel;
MC_ID=unknown;
OS=Windows_NT;
OS_RELEASE=unknown;
FRU=Parasolid Version 28.0, build 209,  1-25-2016;
APPL=SOLIDWORKS 2016-2016095;
SITE=;
USER=unknown;
FORMAT=text;
GUISE=transmit;
KEY=Quarter_Model;
FILE=Quarter_Model.x_t;
DATE=Wed Sep 27 17:08:41 2023;
**PART2;
SCH=SCH_2800209_28002;
USFLD_SIZE=0;
**PART3;
**END_OF_HEADER*****************************************************************
T51 : TRANSMIT FILE created by modeller version 280020923 SCH_2800209_28002_1300
6200 0 10 255 1 9 2 3 0 0 0 0 0 1e3 1e-8 0 0 0 1 0 1 4 81 255 2 2 9 5 1 0 0 0 0
 0 0 70 11 CI9 list_type0 0 1 uI10 notransmit0 0 1 lCCCDCCDI12 finger_index0 0 1
 dI12 finger_block1012 0 CZ3 0 4 T1 0 0 1 20 1 6 6 11 255 4 7 0 1 7 8 1 9 0 0 0
 12 30 CCCCCCCCCCCCCDI5 owner1040 0 CCCCCCCCCA13 boundary_mesh1006 0 A16 index_m
ap_offset0 0 1 dA9 index_map82 0 A17 node_id_index_map82 0 A20 schema_embedding_
map82 0 A5 child12 0 A14 lowest_node_id0 0 1 dZ7 166 10 11 0 0 0 0 1e3 1e-8 4 12
 0 1 0 1 1 13 14 15 16 17 18 19 0 0 0 0 0 0 0 100 255 8 8 4 0 0 1 0 0 0 1 0 0 0
 1 0 0 0 1 0 ?11 9 5 0 1 12 20 1 21 4 0 0 12 12 166 22 23 0 0 0 0 1e3 1e-8 9 24
 7 1 0 1 1 25 26 27 28 29 30 31 0 0 0 0 0 0 0 100 20 6 9 0 0 1 0 0 0 1 0 0 0 1 0
 0 0 1 0 ?11 21 3 0 1 24 32 1 33 9 0 0 12 24 166 34 35 0 0 0 0 1e3 1e-8 21 36 12
 1 0 1 1 37 38 39 40 41 42 43 0 0 0 0 0 0 0 100 32 4 21 0 0 1 0 0 0 1 0 0 0 1 0
 0 0 1 0 ?11 33 1 0 1 36 44 1 0 21 0 0 12 36 238 45 46 0 0 0 0 1e3 1e-8 33 47 24
 1 0 1 1 48 49 50 51 52 53 54 0 0 0 0 0 0 0 100 44 2 33 0 0 1 0 0 0 1 0 0 0 1 0
 0 0 1 0 ?81 1 45 238 55 36 0 0 0 0 0 70 46 0 4 T36 0 0 3 20 1 56 56 13 255 48 9
4 0 36 0 57 0 0 58 0 51 255 49 199 0 59 60 0 0 +.01 .235 .01 0 0 -1 .04 -1 0 0 3
1 255 50 177 0 53 61 0 0 +.01 .235 .01 0 0 1 1 0 0 .04 29 255 51 168 0 54 62 0 .
05 .235 .01 19 8 CCCCCCCA5 owner12 0 Z52 28 0 36 58 0 63 V0 16 255 53 175 0 ?64
 0 65 50 0 0 36 18 255 54 166 0 66 0 67 51 ?36 17 255 66 0 68 69 70 54 71 65 0 7
2 +18 67 157 0 73 54 74 62 ?36 17 73 0 75 76 77 67 78 79 0 70 +18 74 148 0 64 67
 80 81 ?36 29 62 159 0 67 81 51 .05 .235 0 29 81 150 0 74 82 62 .01 .275 .01 29
 82 147 0 80 83 81 .01 .275 0 18 80 145 0 78 74 84 82 ?36 29 83 70 0 85 86 82 .0
5 -.275 0 18 85 61 0 87 88 89 83 ?36 29 86 71 0 89 90 83 -.05 -.275 0 18 89 62 0
 91 85 92 86 ?36 29 90 72 0 92 93 86 -.05 .275 0 18 92 63 0 94 89 0 90 ?36 29 93
 27 0 84 95 90 .05 -.275 .01 18 84 25 0 96 80 97 93 ?36 29 95 24 0 97 98 93 -.05
 -.275 .01 18 97 22 0 99 84 88 95 ?36 29 98 21 0 88 0 95 -.05 .275 .01 18 88 19
 0 100 97 85 98 ?36 17 100 0 101 99 64 88 102 103 0 104 +15 255 101 3 0 72 105 0
 17 99 0 101 96 100 97 106 107 0 108 +17 64 0 101 100 72 74 109 53 0 102 +17 102
 0 110 111 104 74 100 103 0 112 -16 103 149 0 ?100 107 113 114 0 0 36 17 104 0 1
10 102 94 88 115 116 0 106 -15 110 82 0 102 117 0 17 94 0 110 104 111 92 77 118
 0 115 +17 115 0 119 91 106 92 104 116 0 120 +16 116 76 0 ?115 121 122 123 0 0 3
6 17 106 0 119 115 108 88 99 107 0 0 -15 119 80 0 91 124 0 17 108 0 119 106 91 9
7 125 122 0 126 -16 107 10 0 ?99 127 103 128 0 0 36 16 127 13 0 ?96 129 107 130
 0 0 36 30 255 128 11 0 107 114 130 0 +-.05 .275 .01 1261617073437678e-31 -1 0 3
0 114 8 0 103 131 128 0 +-.05 .275 .01 -1 0 0 30 130 14 0 127 128 132 0 +-.05 -.
275 .01 1 0 0 30 132 69 0 133 130 134 0 +.05 .275 0 -1261617073437678e-31 1 0 16
 133 57 0 ?70 118 0 132 0 0 36 30 134 68 0 118 132 135 0 +-.05 .275 0 -1 0 0 16
 118 146 0 ?94 136 133 134 0 0 36 30 135 67 0 136 134 137 0 +-.05 .275 0 1261617
073437678e-31 -1 0 16 136 49 0 ?91 138 118 135 0 0 36 30 137 66 0 138 135 139 0
 +-.05 -.275 0 1 0 0 16 138 45 0 ?87 113 136 137 0 0 36 30 139 90 0 129 137 140
 0 +.05 -.275 .01 0 0 -1 16 129 74 0 ?141 122 127 139 0 0 36 30 140 91 0 122 139
 123 0 +-.05 -.275 .01 0 0 -1 16 122 75 0 ?125 116 129 140 0 0 36 30 123 92 0 11
6 140 142 0 +-.05 .275 .01 0 0 -1 30 142 153 0 121 123 143 0 +.01 .275 .01 0 0 -
1 16 121 151 0 ?111 79 116 142 0 0 36 31 143 162 0 79 142 61 0 -.01 .235 0 0 0 1
 1 0 0 .04 16 79 160 0 ?73 65 121 143 0 0 36 30 61 171 0 65 143 50 0 -.05 .235 .
01 0 0 -1 16 65 169 0 ?66 53 79 61 0 0 36 17 111 0 110 94 102 80 112 121 0 77 +1
7 112 0 144 109 78 74 111 121 0 0 -17 77 0 75 73 120 80 94 118 0 0 -15 75 44 0 7
7 145 0 17 120 0 75 77 146 92 91 136 0 0 -17 146 0 75 120 76 89 87 138 0 0 -17 9
1 0 119 108 115 89 120 136 0 125 +17 125 0 147 87 126 89 108 122 0 146 +15 147 7
8 0 87 148 0 17 87 0 147 149 125 85 146 138 0 141 +17 126 0 147 125 149 97 96 12
7 0 0 -17 149 0 147 126 87 84 141 129 0 69 -17 96 0 101 72 99 84 126 127 0 149 +
17 72 0 101 64 96 54 69 113 0 109 +17 69 0 68 141 66 84 72 113 0 0 -16 113 4 0 ?
72 103 138 131 0 0 36 17 109 0 144 71 112 54 64 53 0 0 -15 144 188 0 109 59 0 17
 71 0 144 78 109 67 66 65 0 0 -17 78 0 144 112 71 80 73 79 0 111 -14 255 59 187
 150 ?0 145 144 48 49 +0 0 0 145 63 81 1 150 231 151 59 152 0 0 153 154 14 145 4
3 153 ?59 105 75 48 155 -0 0 59 105 63 13 63 29 0 0 0 0 0 0 52 57 14 57 85 156 ?
117 0 68 48 60 -0 0 117 0 63 81 1 156 233 151 57 157 0 153 158 159 14 117 83 158
 ?124 57 110 48 160 -0 0 124 57 63 15 68 84 0 70 57 0 50 255 60 89 0 57 160 49 0
 +.05 .275 .01 -1 -1261617073437678e-31 0 1261617073437678e-31 -1 0 50 160 88 0
 117 161 60 0 +-.05 .275 .01 0 -1 0 0 0 -1 50 161 87 0 124 162 160 0 +-.05 .275
 .01 1 1261617073437678e-31 0 -1261617073437678e-31 1 0 14 124 81 163 ?148 117 1
19 48 161 -0 0 148 117 63 50 162 86 0 148 155 161 0 +-.05 -.275 .01 0 1 0 0 0 1
 14 148 79 164 ?105 124 147 48 162 -0 0 105 124 63 50 155 65 0 145 165 162 0 +0
 0 0 0 0 1 1 0 0 50 165 2 0 105 0 155 0 +0 0 .01 0 0 1 1 0 0 14 105 1 166 ?145 1
48 101 48 165 +0 0 145 148 63 81 1 166 237 151 105 167 0 164 0 168 80 255 1 151
 169 170 9000 1 1 1 1 1 1 1 1 0 FFFFTFTFFFFFFF1 81 1 167 140 171 105 0 166 172 1
73 174 81 1 164 236 151 148 172 0 163 166 175 82 255 1 168 45875331 81 1 172 139
 171 148 0 164 176 167 177 81 1 163 235 151 124 176 0 158 164 178 82 1 175 52500
9022 81 1 176 138 171 124 0 163 179 172 180 81 1 158 234 151 117 179 0 156 163 1
81 82 1 178 525271166 81 1 179 137 171 117 0 158 157 176 182 82 1 181 45154435 8
0 1 171 0 183 8001 0 0 0 0 3 5 0 0 0 FFFFTFTFFFFFFF2 81 1 157 136 171 57 0 156 0
 179 184 83 255 3 182 .792156862745098 .819607843137255 .933333333333333 83 3 18
4 .792156862745098 .819607843137255 .933333333333333 79 255 15 183 SDL/TYSA_COLO
UR83 3 180 .792156862745098 .819607843137255 .933333333333333 83 3 177 .79215686
2745098 .819607843137255 .933333333333333 81 1 173 141 171 145 0 153 167 152 185
 83 3 174 .792156862745098 .819607843137255 .933333333333333 81 1 153 232 151 14
5 173 0 150 156 186 81 1 152 213 171 59 0 150 173 0 187 83 3 185 .79215686274509
8 .819607843137255 .933333333333333 83 3 187 .792156862745098 .819607843137255 .
933333333333333 82 1 186 45744259 79 14 170 SWEntUnchanged17 70 0 68 66 141 67 7
6 133 0 71 +17 141 0 68 70 69 85 149 129 0 76 +17 76 0 75 146 73 85 70 133 0 0 -
82 1 159 45023363 82 1 154 152436867 30 131 5 0 113 0 114 0 +.05 .275 .01 -12616
17073437678e-31 1 0 19 58 95 0 36 0 52 48 S0 74 4 CI16 index_map_offset0 0 1 dCC
Z20 56 3 0 0 166 152 45 0 0 0 0 0 0 0 0 0 0 0 0 0 0 0 0 0 80 1 55 188 189 8017 0
 0 0 0 0 0 0 0 0 TTTTTTTTTTTTTF3 79 13 189 SDL/TYSA_NAME81 1 34 166 55 24 0 0 0
 0 0 70 35 0 4 T24 0 0 3 20 1 190 190 13 37 94 0 24 0 191 0 0 192 0 50 38 89 0 1
91 193 0 0 +-.006 -.225 .1 1 1387778780781446e-31 0 -1387778780781446e-31 1 0 30
 39 93 0 42 194 0 0 +-.006 -.275 .1 0 0 -1 29 40 70 0 195 196 0 -.006 -.225 .01
 19 41 28 0 24 192 0 197 V0 16 42 77 0 ?198 0 199 39 0 0 24 18 43 25 0 200 0 201
 202 ?24 17 200 0 203 204 205 43 206 207 0 208 +18 201 22 0 205 43 209 210 ?24 2
9 202 27 0 43 210 211 -.006 -.225 .1 29 210 24 0 201 212 202 .01 -.225 .1 29 211
 73 0 213 202 214 -.006 -.275 .01 18 213 64 0 215 216 0 211 ?24 29 214 72 0 216
 211 196 .01 -.275 .01 18 216 63 0 217 218 213 214 ?24 29 196 71 0 218 214 40 .0
1 -.225 .01 18 218 62 0 219 195 216 196 ?24 17 219 0 220 221 222 218 223 224 0 2
25 +18 195 61 0 226 227 218 40 ?24 17 226 0 228 208 225 195 229 230 0 231 +18 22
7 16 0 232 209 195 233 ?24 17 232 0 234 198 235 227 236 237 0 204 -18 209 19 0 2
36 201 227 212 ?24 29 233 18 0 227 0 212 -.006 -.275 .1 29 212 21 0 209 233 210
 .01 -.275 .1 17 236 0 203 205 204 209 232 237 0 235 +15 203 3 0 204 238 0 17 20
5 0 203 200 236 201 239 240 0 221 +17 204 0 203 236 200 227 241 242 0 243 +16 23
7 7 0 ?236 240 242 244 0 0 24 17 235 0 234 232 217 209 222 199 0 239 -15 234 82
 0 217 245 0 17 217 0 234 235 198 216 215 246 0 222 +17 222 0 220 219 239 216 23
5 199 0 223 +16 199 76 0 ?222 42 247 194 0 0 24 17 239 0 220 222 221 209 205 240
 0 0 -15 220 80 0 219 248 0 17 221 0 220 239 219 201 225 247 0 206 -16 240 10 0
 ?205 207 237 249 0 0 24 16 207 13 0 ?200 250 240 251 0 0 24 30 249 11 0 240 244
 251 0 +.01 -.225 .1 -1387778780781446e-31 1 0 30 244 8 0 237 252 249 0 +-.006 -
.275 .1 1 0 0 30 251 14 0 207 249 253 0 +-.006 -.225 .1 -1 0 0 30 253 69 0 254 2
51 255 0 +-.006 -.225 .01 1387778780781446e-31 -1 0 16 254 57 0 ?256 246 0 253 0
 0 24 30 255 68 0 246 253 257 0 +-.006 -.275 .01 1 0 0 16 246 53 0 ?217 224 254
 255 0 0 24 30 257 67 0 224 255 258 0 +.01 -.225 .01 -1387778780781446e-31 1 0 1
6 224 49 0 ?219 230 246 257 0 0 24 30 258 66 0 230 257 259 0 +-.006 -.225 .01 -1
 0 0 16 230 45 0 ?226 242 224 258 0 0 24 30 259 90 0 250 258 260 0 +-.006 -.225
 .1 0 0 -1 16 250 74 0 ?231 247 207 259 0 0 24 30 260 91 0 247 259 194 0 +.01 -.
225 .1 0 0 -1 16 247 75 0 ?225 199 250 260 0 0 24 30 194 92 0 199 260 39 0 +.01
 -.275 .1 0 0 -1 17 225 0 228 226 206 218 221 247 0 229 +15 228 78 0 226 261 0 1
7 206 0 228 225 208 201 200 207 0 0 -17 229 0 262 223 263 218 226 230 0 0 -15 26
2 44 0 263 264 0 17 223 0 262 215 229 216 219 224 0 0 -17 263 0 262 229 215 195
 256 254 0 0 -17 215 0 262 263 223 213 217 246 0 198 -17 256 0 265 243 231 213 2
63 254 0 0 +15 265 84 0 256 191 0 17 243 0 265 241 256 227 198 42 0 0 -17 231 0
 265 256 241 195 208 250 0 263 +17 241 0 265 231 243 43 204 242 0 0 -17 208 0 22
8 206 226 43 231 250 0 241 -16 242 4 0 ?204 237 230 252 0 0 24 30 252 5 0 242 0
 244 0 +-.006 -.225 .1 1387778780781446e-31 -1 0 17 198 0 234 217 232 213 243 42
 0 256 +14 191 85 266 ?245 0 265 37 38 -0 0 245 0 197 81 1 266 160 151 191 267 0
 0 268 269 14 245 83 268 ?248 191 234 37 193 -0 0 248 191 197 13 197 29 0 0 0 0
 0 0 41 191 81 1 268 161 151 245 270 0 266 271 272 14 248 81 271 ?261 245 220 37
 273 -0 0 261 245 197 50 193 88 0 245 273 38 0 +-.006 -.275 .1 0 1 0 0 0 1 50 27
3 87 0 248 274 193 0 +.01 -.225 .1 -1 -1387778780781446e-31 0 1387778780781446e-
31 -1 0 50 274 86 0 261 275 273 0 +-.006 -.225 .1 0 -1 0 0 0 -1 14 261 79 276 ?2
38 248 228 37 274 -0 0 238 248 197 50 275 65 0 264 277 274 0 +0 0 .01 0 0 1 1 0
 0 14 264 43 278 ?0 238 262 37 275 -0 0 0 238 197 50 277 2 0 238 0 275 0 +0 0 .1
 0 0 1 1 0 0 14 238 1 279 ?264 261 203 37 277 +0 0 264 261 197 81 1 279 165 151
 238 280 0 278 0 281 81 1 280 141 171 238 0 279 282 283 284 81 1 278 164 151 264
 283 0 276 279 285 82 1 281 586023041 81 1 283 142 171 264 0 278 280 0 286 81 1
 276 163 151 261 282 0 271 278 287 82 1 285 591659137 81 1 282 140 171 261 0 276
 288 280 289 81 1 271 162 151 248 288 0 268 276 290 82 1 287 592576641 81 1 288
 139 171 248 0 271 270 282 291 82 1 290 592838785 81 1 270 138 171 245 0 268 267
 288 292 83 3 291 .792156862745098 .819607843137255 .933333333333333 81 1 267 13
7 171 191 0 266 0 270 293 83 3 292 .792156862745098 .819607843137255 .9333333333
33333 83 3 293 .792156862745098 .819607843137255 .933333333333333 83 3 289 .7921
56862745098 .819607843137255 .933333333333333 83 3 286 .792156862745098 .8196078
43137255 .933333333333333 83 3 284 .792156862745098 .819607843137255 .9333333333
33333 82 1 272 593100929 82 1 269 593363073 19 192 95 0 24 0 41 37 S0 74 20 190
 3 0 0 279 283 34 0 0 0 0 0 0 0 0 0 0 0 0 0 0 0 0 0 81 1 22 166 55 12 0 0 0 0 0
 70 23 0 4 T12 0 0 3 20 1 294 294 13 25 94 0 12 0 295 0 0 296 0 50 26 89 0 295 2
97 0 0 +-.016 .275 .1 1 925185853854297e-31 0 -925185853854297e-31 1 0 30 27 93
 0 30 298 0 0 +-.016 .125 .1 0 0 -1 29 28 70 0 299 300 0 -.016 .275 .01 19 29 28
 0 12 296 0 301 V0 16 30 77 0 ?302 0 303 27 0 0 12 18 31 25 0 304 0 305 306 ?12
 17 304 0 307 308 309 31 310 311 0 312 +18 305 22 0 309 31 313 314 ?12 29 306 27
 0 31 314 315 -.016 .275 .1 29 314 24 0 305 316 306 4163336342344335e-32 .275 .1
 29 315 73 0 317 306 318 -.016 .125 .01 18 317 64 0 319 320 0 315 ?12 29 318 72
 0 320 315 300 624500451351651e-31 .125 .01 18 320 63 0 321 322 317 318 ?12 29 3
00 71 0 322 318 28 4163336342344335e-32 .275 .01 18 322 62 0 323 299 320 300 ?12
 17 323 0 324 325 326 322 327 328 0 329 +18 299 61 0 330 331 322 28 ?12 17 330 0
 332 312 329 299 333 334 0 335 +18 331 16 0 336 313 299 337 ?12 17 336 0 338 302
 339 331 340 341 0 308 -18 313 19 0 340 305 331 316 ?12 29 337 18 0 331 0 316 -.
016 .125 .1 29 316 21 0 313 337 314 624500451351651e-31 .125 .1 17 340 0 307 309
 308 313 336 341 0 339 +15 307 3 0 308 342 0 17 309 0 307 304 340 305 343 344 0
 325 +17 308 0 307 340 304 331 345 346 0 347 +16 341 7 0 ?340 344 346 348 0 0 12
 17 339 0 338 336 321 313 326 303 0 343 -15 338 82 0 321 349 0 17 321 0 338 339
 302 320 319 350 0 326 +17 326 0 324 323 343 320 339 303 0 327 +16 303 76 0 ?326
 30 351 298 0 0 12 17 343 0 324 326 325 313 309 344 0 0 -15 324 80 0 323 352 0 1
7 325 0 324 343 323 305 329 351 0 310 -16 344 10 0 ?309 311 341 353 0 0 12 16 31
1 13 0 ?304 354 344 355 0 0 12 30 353 11 0 344 348 355 0 +4163336342344335e-32 .
275 .1 -1387778780781446e-31 1 0 30 348 8 0 341 356 353 0 +-.016 .125 .1 1 0 0 3
0 355 14 0 311 353 357 0 +-.016 .275 .1 -1 0 0 30 357 69 0 358 355 359 0 +-.016
 .275 .01 925185853854297e-31 -1 0 16 358 57 0 ?360 350 0 357 0 0 12 30 359 68 0
 350 357 361 0 +-.016 .125 .01 1 0 0 16 350 53 0 ?321 328 358 359 0 0 12 30 361
 67 0 328 359 362 0 +4163336342344335e-32 .275 .01 -1387778780781446e-31 1 0 16
 328 49 0 ?323 334 350 361 0 0 12 30 362 66 0 334 361 363 0 +-.016 .275 .01 -1 0
 0 16 334 45 0 ?330 346 328 362 0 0 12 30 363 90 0 354 362 364 0 +-.016 .275 .1
 0 0 -1 16 354 74 0 ?335 351 311 363 0 0 12 30 364 91 0 351 363 298 0 +416333634
2344335e-32 .275 .1 0 0 -1 16 351 75 0 ?329 303 354 364 0 0 12 30 298 92 0 303 3
64 27 0 +624500451351651e-31 .125 .1 0 0 -1 17 329 0 332 330 310 322 325 351 0 3
33 +15 332 78 0 330 365 0 17 310 0 332 329 312 305 304 311 0 0 -17 333 0 366 327
 367 322 330 334 0 0 -15 366 44 0 367 368 0 17 327 0 366 319 333 320 323 328 0 0
 -17 367 0 366 333 319 299 360 358 0 0 -17 319 0 366 367 327 317 321 350 0 302 -
17 360 0 369 347 335 317 367 358 0 0 +15 369 84 0 360 295 0 17 347 0 369 345 360
 331 302 30 0 0 -17 335 0 369 360 345 299 312 354 0 367 +17 345 0 369 335 347 31
 308 346 0 0 -17 312 0 332 310 330 31 335 354 0 345 -16 346 4 0 ?308 341 334 356
 0 0 12 30 356 5 0 346 0 348 0 +-.016 .275 .1 925185853854297e-31 -1 0 17 302 0
 338 321 336 317 347 30 0 360 +14 295 85 370 ?349 0 369 25 26 -0 0 349 0 301 81
 1 370 160 151 295 371 0 0 372 373 14 349 83 372 ?352 295 338 25 297 -0 0 352 29
5 301 13 301 29 0 0 0 0 0 0 29 295 81 1 372 161 151 349 374 0 370 375 376 14 352
 81 375 ?365 349 324 25 377 -0 0 365 349 301 50 297 88 0 349 377 26 0 +-.016 .12
5 .1 0 1 0 0 0 1 50 377 87 0 352 378 297 0 +4163336342344335e-32 .275 .1 -1 -138
7778780781446e-31 0 1387778780781446e-31 -1 0 50 378 86 0 365 379 377 0 +-.016 .
275 .1 0 -1 0 0 0 -1 14 365 79 380 ?342 352 332 25 378 -0 0 342 352 301 50 379 6
5 0 368 381 378 0 +0 0 .01 0 0 1 1 0 0 14 368 43 382 ?0 342 366 25 379 -0 0 0 34
2 301 50 381 2 0 342 0 379 0 +0 0 .1 0 0 1 1 0 0 14 342 1 383 ?368 365 307 25 38
1 +0 0 368 365 301 81 1 383 165 151 342 384 0 382 0 385 81 1 384 141 171 342 0 3
83 386 387 388 81 1 382 164 151 368 387 0 380 383 389 82 1 385 562626689 81 1 38
7 142 171 368 0 382 384 0 390 81 1 380 163 151 365 386 0 375 382 391 82 1 389 56
8262785 81 1 386 140 171 365 0 380 392 384 393 81 1 375 162 151 352 392 0 372 38
0 394 82 1 391 569180289 81 1 392 139 171 352 0 375 374 386 395 82 1 394 5694424
33 81 1 374 138 171 349 0 372 371 392 396 83 3 395 .792156862745098 .81960784313
7255 .933333333333333 81 1 371 137 171 295 0 370 0 374 397 83 3 396 .79215686274
5098 .819607843137255 .933333333333333 83 3 397 .792156862745098 .81960784313725
5 .933333333333333 83 3 393 .792156862745098 .819607843137255 .933333333333333 8
3 3 390 .792156862745098 .819607843137255 .933333333333333 83 3 388 .79215686274
5098 .819607843137255 .933333333333333 82 1 376 569704577 82 1 373 569966721 19
 296 95 0 12 0 29 25 S0 74 20 294 3 0 0 383 387 22 0 0 0 0 0 0 0 0 0 0 0 0 0 0 0
 0 0 81 1 10 166 55 7 0 0 0 0 0 70 11 0 4 T7 0 0 3 20 1 398 398 13 13 94 0 7 0 3
99 0 0 400 0 50 14 89 0 399 401 0 0 +-.00599999999999993 .015 .1 1 8673617379884
04e-31 0 -867361737988404e-31 1 0 30 15 93 0 18 402 0 0 +-.00599999999999993 -.0
0499999999999992 .1 0 0 -1 29 16 70 0 403 404 0 -.00599999999999993 .015 .01 19
 17 28 0 7 400 0 405 V0 16 18 77 0 ?406 0 407 15 0 0 7 18 19 25 0 408 0 409 410
 ?7 17 408 0 411 412 413 19 414 415 0 416 +18 409 22 0 413 19 417 418 ?7 29 410
 27 0 19 418 419 -.00599999999999993 .015 .1 29 418 24 0 409 420 410 .01 .015 .1
 29 419 73 0 421 410 422 -.00599999999999993 -.00499999999999992 .01 18 421 64 0
 423 424 0 419 ?7 29 422 72 0 424 419 404 .01 -.00499999999999992 .01 18 424 63
 0 425 426 421 422 ?7 29 404 71 0 426 422 16 .01 .015 .01 18 426 62 0 427 403 42
4 404 ?7 17 427 0 428 429 430 426 431 432 0 433 +18 403 61 0 434 435 426 16 ?7 1
7 434 0 436 416 433 403 437 438 0 439 +18 435 16 0 440 417 403 441 ?7 17 440 0 4
42 406 443 435 444 445 0 412 -18 417 19 0 444 409 435 420 ?7 29 441 18 0 435 0 4
20 -.00599999999999993 -.00499999999999992 .1 29 420 21 0 417 441 418 .01 -.0049
9999999999992 .1 17 444 0 411 413 412 417 440 445 0 443 +15 411 3 0 412 446 0 17
 413 0 411 408 444 409 447 448 0 429 +17 412 0 411 444 408 435 449 450 0 451 +16
 445 7 0 ?444 448 450 452 0 0 7 17 443 0 442 440 425 417 430 407 0 447 -15 442 8
2 0 425 453 0 17 425 0 442 443 406 424 423 454 0 430 +17 430 0 428 427 447 424 4
43 407 0 431 +16 407 76 0 ?430 18 455 402 0 0 7 17 447 0 428 430 429 417 413 448
 0 0 -15 428 80 0 427 456 0 17 429 0 428 447 427 409 433 455 0 414 -16 448 10 0
 ?413 415 445 457 0 0 7 16 415 13 0 ?408 458 448 459 0 0 7 30 457 11 0 448 452 4
59 0 +.01 .015 .1 0 1 0 30 452 8 0 445 460 457 0 +-.00599999999999993 -.00499999
999999992 .1 1 0 0 30 459 14 0 415 457 461 0 +-.00599999999999993 .015 .1 -1 0 0
 30 461 69 0 462 459 463 0 +-.00599999999999993 .015 .01 867361737988404e-31 -1
 0 16 462 57 0 ?464 454 0 461 0 0 7 30 463 68 0 454 461 465 0 +-.005999999999999
93 -.00499999999999992 .01 1 0 0 16 454 53 0 ?425 432 462 463 0 0 7 30 465 67 0
 432 463 466 0 +.01 .015 .01 0 1 0 16 432 49 0 ?427 438 454 465 0 0 7 30 466 66
 0 438 465 467 0 +-.00599999999999993 .015 .01 -1 0 0 16 438 45 0 ?434 450 432 4
66 0 0 7 30 467 90 0 458 466 468 0 +-.00599999999999993 .015 .1 0 0 -1 16 458 74
 0 ?439 455 415 467 0 0 7 30 468 91 0 455 467 402 0 +.01 .015 .1 0 0 -1 16 455 7
5 0 ?433 407 458 468 0 0 7 30 402 92 0 407 468 15 0 +.01 -.00499999999999992 .1
 0 0 -1 17 433 0 436 434 414 426 429 455 0 437 +15 436 78 0 434 469 0 17 414 0 4
36 433 416 409 408 415 0 0 -17 437 0 470 431 471 426 434 438 0 0 -15 470 44 0 47
1 472 0 17 431 0 470 423 437 424 427 432 0 0 -17 471 0 470 437 423 403 464 462 0
 0 -17 423 0 470 471 431 421 425 454 0 406 -17 464 0 473 451 439 421 471 462 0 0
 +15 473 84 0 464 399 0 17 451 0 473 449 464 435 406 18 0 0 -17 439 0 473 464 44
9 403 416 458 0 471 +17 449 0 473 439 451 19 412 450 0 0 -17 416 0 436 414 434 1
9 439 458 0 449 -16 450 4 0 ?412 445 438 460 0 0 7 30 460 5 0 450 0 452 0 +-.005
99999999999993 .015 .1 867361737988404e-31 -1 0 17 406 0 442 425 440 421 451 18
 0 464 +14 399 85 474 ?453 0 473 13 14 -0 0 453 0 405 81 1 474 160 151 399 475 0
 0 476 477 14 453 83 476 ?456 399 442 13 401 -0 0 456 399 405 13 405 29 0 0 0 0
 0 0 17 399 81 1 476 161 151 453 478 0 474 479 480 14 456 81 479 ?469 453 428 13
 481 -0 0 469 453 405 50 401 88 0 453 481 14 0 +-.00599999999999993 -.0049999999
9999992 .1 0 1 0 0 0 1 50 481 87 0 456 482 401 0 +.01 .015 .1 -1 0 0 0 0 1 50 48
2 86 0 469 483 481 0 +-.00599999999999993 .015 .1 0 -1 0 0 0 -1 14 469 79 484 ?4
46 456 436 13 482 -0 0 446 456 405 50 483 65 0 472 485 482 0 +0 0 .01 0 0 1 1 0
 0 14 472 43 486 ?0 446 470 13 483 -0 0 0 446 405 50 485 2 0 446 0 483 0 +0 0 .1
 0 0 1 1 0 0 14 446 1 487 ?472 469 411 13 485 +0 0 472 469 405 81 1 487 165 151
 446 488 0 486 0 489 81 1 488 141 171 446 0 487 490 491 492 81 1 486 164 151 472
 491 0 484 487 493 82 1 489 574357633 81 1 491 142 171 472 0 486 488 0 494 81 1
 484 163 151 469 490 0 479 486 495 82 1 493 579993729 81 1 490 140 171 469 0 484
 496 488 497 81 1 479 162 151 456 496 0 476 484 498 82 1 495 580911233 81 1 496
 139 171 456 0 479 478 490 499 82 1 498 581173377 81 1 478 138 171 453 0 476 475
 496 500 83 3 499 .792156862745098 .819607843137255 .933333333333333 81 1 475 13
7 171 399 0 474 0 478 501 83 3 500 .792156862745098 .819607843137255 .9333333333
33333 83 3 501 .792156862745098 .819607843137255 .933333333333333 83 3 497 .7921
56862745098 .819607843137255 .933333333333333 83 3 494 .792156862745098 .8196078
43137255 .933333333333333 83 3 492 .792156862745098 .819607843137255 .9333333333
33333 82 1 480 581435521 82 1 477 581697665 19 400 95 0 7 0 17 13 S0 74 20 398 3
 0 0 487 491 10 0 0 0 0 0 0 0 0 0 0 0 0 0 0 0 0 0 74 20 6 1 0 0 2 0 0 0 0 0 0 0
 0 0 0 0 0 0 0 0 0 0 0 0 80 2 5 502 503 9000 0 0 0 0 3 5 0 0 0 TFFFFFFFFFFFFF9 1
 79 18 503 MULTI_BODY_ID_20011 0 
