**ABCDEFGHIJKLMNOPQRSTUVWXYZabcdefghijklmnopqrstuvwxyz**************************
**PARASOLID !"#$%&'()*+,-./:;<=>?@[\]^_`{|}~0123456789**************************
**PART1;
MC=AMD64;
MC_MODEL=Intel64 Family 6 Model 158 Stepping 10, GenuineIntel;
MC_ID=unknown;
OS=Windows_NT;
OS_RELEASE=unknown;
FRU=Parasolid Version 28.0, build 209,  1-25-2016;
APPL=SOLIDWORKS 2016-2016095;
SITE=;
USER=unknown;
FORMAT=text;
GUISE=transmit;
KEY=Two Story Building-1.5t;
FILE=Two Story Building-1.5t.x_t;
DATE=Wed Nov 01 14:58:27 2023;
**PART2;
SCH=SCH_2800209_28002;
USFLD_SIZE=0;
**PART3;
**END_OF_HEADER*****************************************************************
T51 : TRANSMIT FILE created by modeller version 280020923 SCH_2800209_28002_1300
6200 0 10 255 1 19 2 3 0 0 0 0 0 1e3 1e-8 0 0 0 1 0 1 4 81 255 1 2 19 5 1 0 0 0
 0 0 70 11 CI9 list_type0 0 1 uI10 notransmit0 0 1 lCCCDCCDI12 finger_index0 0 1
 dI12 finger_block1012 0 CZ3 0 4 T1 0 0 1 20 1 6 6 11 255 4 17 0 1 7 8 1 9 0 9 0
 12 30 CCCCCCCCCCCCCDI5 owner1040 0 CCCCCCCCCA13 boundary_mesh1006 0 A16 index_m
ap_offset0 0 1 dA9 index_map82 0 A17 node_id_index_map82 0 A20 schema_embedding_
map82 0 A5 child12 0 A14 lowest_node_id0 0 1 dZ7 285 10 11 0 0 0 0 1e3 1e-8 4 12
 0 1 0 1 1 13 14 15 16 17 18 19 0 0 0 0 0 0 0 100 255 8 18 4 0 0 .99956127002793
2 -.0157576915172756 .02507912714178305 .0194875459484192 .987530433403404 -.156
21740829688 -.02230477556613355 .156637601680223 .987404252941425 -.154520073897
9975 .174798683353508 .3222369869668535 1 3 ?11 9 15 0 1 7 20 1 21 4 0 4 100 20
 16 9 0 0 .999561270027932 -.01575769151727565 .02507912714178305 .0194875459484
192 .987530433403404 -.156217408296879 -.02230477556613355 .156637601680222 .987
404252941425 .150045482009637 .1807843599948765 .3154483070641395 1 3 ?11 21 13
 0 1 12 22 1 23 9 23 0 12 12 228 24 25 0 0 0 0 1e3 1e-8 21 26 7 1 0 1 1 27 28 29
 30 31 32 33 0 0 0 0 0 0 0 100 22 14 21 0 0 .999561270027932 -.0157576915172768
 .02507912714178345 .01948754594842045 .987530433403404 -.15621740829688 -.02230
477556613375 .156637601680223 .987404252941424 .151242146272337 .163961757284039
5 .421627721418692 1 3 ?11 23 11 0 1 12 34 1 35 21 0 21 100 34 12 23 0 0 .999561
270027932 -.0157576915172768 .0250791271417836 .01948754594842045 .9875304334034
04 -.15621740829688 -.0223047755661339 .156637601680223 .987404252941424 -.15032
4725825214 .158034543280516 .4283494869947075 1 3 ?11 35 9 0 1 26 36 1 37 23 0 0
 12 26 986 38 39 0 0 0 0 1e3 1e-8 35 40 12 1 0 1 1 41 42 43 44 45 46 47 0 0 0 0
 0 0 0 100 36 10 35 0 0 .999561270027932 -.02507912714178345 -.01575769151727735
 .019487545948421 .15621740829688 .987530433403404 -.02230477556613365 -.9874042
52941424 .156637601680223 .001334158346729424 .160207768204812 .4299051042835885
 1 3 ?11 37 7 0 1 40 48 1 49 35 0 0 12 40 2848 50 51 0 0 0 0 1e3 1e-8 37 52 26 1
 0 1 1 53 54 55 56 57 58 59 0 0 0 0 0 0 0 100 48 8 37 0 0 .999561270027932 .0250
791271417832 .0157576915172763 .0194875459484199 -.1562174082968795 -.9875304334
03404 -.0223047755661336 .987404252941424 -.156637601680223 -.00972361569305169
 .2291295016526665 -.00541903456220418 1 3 ?11 49 5 0 1 52 60 1 61 37 0 0 12 52
 986 62 63 0 0 0 0 1e3 1e-8 49 64 40 1 0 1 1 65 66 67 68 69 70 71 0 0 0 0 0 0 0
 100 60 6 49 0 0 .999561270027932 -.02507912714178305 -.01575769151727615 .01948
754594841975 .15621740829688 .987530433403404 -.02230477556613345 -.987404252941
424 .156637601680223 -.00405785398875389 .193794510988641 .2176131899011825 1 3
 ?11 61 3 0 1 64 72 1 73 49 73 0 12 64 286 74 75 0 0 0 0 1e3 1e-8 61 76 52 1 0 1
 1 77 78 79 80 81 82 83 0 0 0 0 0 0 0 100 72 4 61 0 0 .999561270027932 -.0157576
915172769 .0250791271417832 .0194875459484205 .987530433403404 -.156217408296879
 -.02230477556613355 .156637601680222 .987404252941424 -.158413507398315 .208462
4788471445 .109919200633385 1 3 ?11 73 1 0 1 64 84 1 0 61 0 61 100 84 2 73 0 0 .
999561270027932 -.0157576915172757 .0250791271417831 .0194875459484193 .98753043
3403404 -.1562174082968785 -.0223047755661336 .156637601680222 .987404252941425
 .143154127769112 .214341871459783 .1031898498450826 1 3 ?81 1 74 286 5 64 0 0 0
 0 85 70 75 0 4 T64 0 0 3 20 1 86 86 13 255 77 94 0 64 0 87 0 0 88 0 50 255 78 9
3 0 87 89 0 0 +.0015 .0245 -.1125 0 0 1 1 0 0 30 255 79 89 0 82 90 0 0 +.0015 .0
245 -.1125 -1 0 0 29 255 80 70 0 91 92 0 0 -.0245 -.1125 19 8 CCCCCCCA5 owner12
 0 Z81 28 0 64 88 0 93 V0 16 255 82 77 0 ?94 0 95 79 0 0 64 18 255 83 25 0 96 0
 97 98 ?64 17 255 96 0 99 100 101 83 102 103 0 104 +18 97 22 0 101 83 105 106 ?6
4 29 98 27 0 83 106 107 .0015 -.0245 -.1125 29 106 24 0 97 108 98 .0015 -.0245 .
1125 29 107 73 0 109 98 110 0 .0245 -.1125 18 109 64 0 111 112 0 107 ?64 29 110
 72 0 112 107 92 0 .0245 .1125 18 112 63 0 113 114 109 110 ?64 29 92 71 0 114 11
0 80 0 -.0245 .1125 18 114 62 0 115 91 112 92 ?64 17 115 0 116 117 118 114 119 1
20 0 121 +18 91 61 0 122 123 114 80 ?64 17 122 0 124 104 121 91 125 126 0 127 +1
8 123 16 0 128 105 91 129 ?64 17 128 0 130 94 131 123 132 133 0 100 -18 105 19 0
 132 97 123 108 ?64 29 129 18 0 123 0 108 .0015 .0245 -.1125 29 108 21 0 105 129
 106 .0015 .0245 .1125 17 132 0 99 101 100 105 128 133 0 131 +15 255 99 3 0 100
 134 0 17 101 0 99 96 132 97 135 136 0 117 +17 100 0 99 132 96 123 137 138 0 139
 +16 133 7 0 ?132 136 138 140 0 0 64 17 131 0 130 128 113 105 118 95 0 135 -15 1
30 82 0 113 141 0 17 113 0 130 131 94 112 111 142 0 118 +17 118 0 116 115 135 11
2 131 95 0 119 +16 95 76 0 ?118 82 143 90 0 0 64 17 135 0 116 118 117 105 101 13
6 0 0 -15 116 80 0 115 144 0 17 117 0 116 135 115 97 121 143 0 102 -16 136 10 0
 ?101 103 133 145 0 0 64 16 103 13 0 ?96 146 136 147 0 0 64 30 145 11 0 136 140
 147 0 +.0015 .0245 .1125 0 -1 0 30 140 8 0 133 148 145 0 +.0015 .0245 .1125 0 0
 1 30 147 14 0 103 145 149 0 +.0015 -.0245 .1125 0 0 -1 30 149 69 0 150 147 151
 0 +0 .0245 -.1125 0 1 0 16 150 57 0 ?152 142 153 149 0 0 64 30 151 68 0 142 149
 154 0 +0 .0245 .1125 0 0 1 16 142 53 0 ?113 120 150 151 0 0 64 30 154 67 0 120
 151 155 0 +0 .0245 .1125 0 -1 0 16 120 49 0 ?115 126 142 154 0 0 64 30 155 66 0
 126 154 156 0 +0 -.0245 .1125 0 0 -1 16 126 45 0 ?122 138 120 155 0 0 64 30 156
 86 0 146 155 157 0 +.0015 -.0245 -.1125 -1 0 0 16 146 74 0 ?127 143 103 156 0 0
 64 30 157 87 0 143 156 90 0 +.0015 -.0245 .1125 -1 0 0 16 143 75 0 ?121 95 146
 157 0 0 64 30 90 88 0 95 157 79 0 +.0015 .0245 .1125 -1 0 0 17 121 0 124 122 10
2 114 117 143 0 125 +15 124 78 0 122 158 0 17 102 0 124 121 104 97 96 103 0 0 -1
7 125 0 159 119 160 114 122 126 0 0 -15 159 44 0 160 161 0 17 119 0 159 111 125
 112 115 120 0 0 -17 160 0 159 125 111 91 152 150 0 0 -17 111 0 159 160 119 109
 113 142 0 94 -17 152 0 162 139 127 109 160 150 0 0 +15 162 84 0 152 87 0 17 139
 0 162 137 152 123 94 82 0 0 -17 127 0 162 152 137 91 104 146 0 160 +17 137 0 16
2 127 139 83 100 138 0 0 -17 104 0 124 102 122 83 127 146 0 137 -16 138 4 0 ?100
 133 126 148 0 0 64 30 148 5 0 138 163 140 0 +.0015 .0245 -.1125 0 1 0 31 255 16
3 171 0 164 165 148 0 +.0015 1394501848036084e-33 .1075 1 0 0 0 0 -1 .003 16 164
 152 0 ?166 153 167 163 0 0 64 31 165 172 0 153 168 163 0 +0 1394501848036084e-3
3 .1075 1 0 0 0 0 -1 .003 16 153 149 0 ?169 150 164 165 0 0 64 31 168 209 0 170
 171 165 0 +.0015 277244080297042e-31 -.1075 1 0 0 0 0 1 .003 16 170 190 0 ?172
 167 0 168 0 0 64 31 171 210 0 167 0 168 0 +0 277244080297042e-31 -.1075 1 0 0 0
 0 1 .003 16 167 187 0 ?173 164 170 171 0 0 64 17 173 0 174 173 173 0 175 167 0
 0 +15 174 175 0 173 161 176 17 175 0 177 175 175 0 173 167 0 0 -15 177 196 0 17
5 178 179 14 255 178 193 180 ?0 181 177 77 182 -0 0 0 181 93 15 179 197 0 172 17
8 0 17 172 0 179 172 172 0 183 170 0 0 +17 183 0 184 183 183 0 172 170 0 0 -15 1
84 182 0 183 134 185 14 134 1 186 ?161 158 184 77 187 +0 0 161 158 93 15 185 144
 0 188 134 99 17 188 0 185 188 188 0 166 164 0 0 -17 166 0 189 166 166 0 188 164
 0 0 +15 189 159 0 166 181 0 14 181 155 190 ?178 161 191 77 192 -0 0 178 161 93
 81 1 190 284 193 181 194 0 195 180 196 14 161 43 195 ?181 134 174 77 197 -0 0 1
81 134 93 15 191 158 0 198 181 189 51 255 192 168 0 181 182 187 0 +0 13945018480
36084e-33 .1075 1 0 0 .003 0 0 -1 13 93 29 0 0 0 0 0 0 81 87 14 87 85 199 ?141 0
 162 77 78 -0 0 141 0 93 81 1 199 278 193 87 200 0 0 201 202 14 141 83 201 ?144
 87 130 77 89 -0 0 144 87 93 81 1 201 279 193 141 203 0 199 204 205 14 144 81 20
4 ?158 141 116 77 206 -0 0 158 141 93 50 89 92 0 141 206 78 0 +.0015 .0245 .1125
 0 -1 0 0 0 -1 50 206 91 0 144 207 89 0 +.0015 .0245 .1125 0 0 -1 -1 0 0 50 207
 90 0 158 197 206 0 +.0015 -.0245 .1125 0 1 0 0 0 1 14 158 79 208 ?134 144 124 7
7 207 -0 0 134 144 93 50 197 65 0 161 187 207 0 +0 0 0 1 0 0 0 0 -1 50 187 2 0 1
34 192 197 0 +.0015 0 0 1 0 0 0 0 -1 81 1 208 281 193 158 209 0 204 186 210 80 2
55 1 193 0 211 8001 0 0 0 0 3 5 0 0 0 FFFFTFTFFFFFFF2 81 1 209 276 212 158 0 208
 213 0 214 81 1 204 280 193 144 213 0 201 208 215 81 1 186 282 193 134 216 0 208
 195 217 83 255 3 210 .866666666666667 .909803921568627 1 81 1 216 264 212 134 0
 186 218 194 219 81 1 195 283 193 161 220 0 186 190 221 83 3 217 .86666666666666
7 .909803921568627 1 81 1 220 268 212 161 0 195 194 200 222 83 3 221 .8666666666
66667 .909803921568627 1 80 1 212 223 224 9000 1 1 1 1 1 1 1 1 0 FFFFTFTFFFFFFF1
 81 1 194 266 212 181 0 190 216 220 225 81 1 200 270 212 87 0 199 220 203 226 82
 255 1 222 714997882 81 1 203 272 212 141 0 201 200 213 227 82 1 226 718864503 8
1 1 213 274 212 144 0 204 203 209 228 82 1 227 718602359 82 1 228 718340215 82 1
 225 734658682 79 255 14 224 SWEntUnchanged81 1 218 262 212 178 0 180 0 216 229
 82 1 219 711524474 81 1 180 285 193 178 218 0 190 0 230 82 1 229 738656378 83 3
 230 .866666666666667 .909803921568627 1 83 3 215 .866666666666667 .909803921568
627 1 82 1 214 718078071 79 15 211 SDL/TYSA_COLOUR83 3 205 .866666666666667 .909
803921568627 1 83 3 202 .866666666666667 .909803921568627 1 51 182 206 0 178 0 1
92 0 +0 277244080297042e-31 -.1075 1 0 0 .003 0 0 -1 17 198 0 191 198 198 0 169
 153 0 0 -17 169 0 176 169 169 0 198 153 0 0 +15 176 137 0 169 161 159 83 3 196
 .866666666666667 .909803921568627 1 17 94 0 130 113 128 109 139 82 0 152 +19 88
 95 0 64 0 81 77 S0 74 4 CI16 index_map_offset0 0 1 dCCZ20 86 3 0 0 209 180 74 0
 0 0 0 0 0 0 0 0 0 0 0 0 0 0 0 0 80 1 5 231 232 8017 0 0 0 0 0 0 0 0 0 TTTTTTTTT
TTTTF3 84 255 26 85 AluminumBar-1.5t_2nd floor79 13 232 SDL/TYSA_NAME81 1 62 986
 5 52 233 0 0 0 234 70 63 0 4 T52 0 0 4 20 1 235 235 13 65 94 0 52 0 236 0 0 237
 0 50 66 93 0 236 238 0 0 +.1501 .01 -.0245 -1 0 566440318686304e-30 56644031868
6304e-30 0 1 30 67 89 0 70 239 0 0 +.1501 .01 -.0245 0 -1 0 29 68 70 0 240 241 0
 .1501 0 .0245 19 69 28 0 52 237 0 242 V0 16 70 77 0 ?243 0 244 67 0 0 52 18 71
 25 0 245 0 246 247 ?52 17 245 0 248 249 250 71 251 252 0 253 +18 246 22 0 250 7
1 254 255 ?52 29 247 27 0 71 255 256 .1501 .01 .0245 29 255 24 0 246 257 247 -.1
501 .01 .0245 29 256 73 0 258 247 259 .1501 0 -.0245 18 258 64 0 260 261 0 256 ?
52 29 259 72 0 261 256 241 -.1501 0 -.0245 18 261 63 0 262 263 258 259 ?52 29 24
1 71 0 263 259 68 -.1501 0 .0245 18 263 62 0 264 240 261 241 ?52 17 264 0 265 26
6 267 263 268 269 0 270 +18 240 61 0 271 272 263 68 ?52 17 271 0 273 253 270 240
 274 275 0 276 +18 272 16 0 277 254 240 278 ?52 17 277 0 279 243 280 272 281 282
 0 249 -18 254 19 0 281 246 272 257 ?52 29 278 18 0 272 0 257 .1501 .01 -.0245 2
9 257 21 0 254 278 255 -.1501 .01 -.0245 17 281 0 248 250 249 254 277 282 0 280
 +15 248 3 0 249 283 0 17 250 0 248 245 281 246 284 285 0 266 +17 249 0 248 281
 245 272 286 287 0 288 +16 282 7 0 ?281 285 287 289 0 0 52 17 280 0 279 277 262
 254 267 244 0 284 -15 279 82 0 262 290 0 17 262 0 279 280 243 261 260 291 0 267
 +17 267 0 265 264 284 261 280 244 0 268 +16 244 76 0 ?267 70 292 239 0 0 52 17
 284 0 265 267 266 254 250 285 0 0 -15 265 80 0 264 293 0 17 266 0 265 284 264 2
46 270 292 0 251 -16 285 10 0 ?250 252 282 294 0 0 52 16 252 13 0 ?245 295 285 2
96 0 0 52 30 294 11 0 285 289 296 0 +-.1501 .01 -.0245 566440318686304e-30 0 1 3
0 289 8 0 282 297 294 0 +-.1501 .01 -.0245 -1 0 0 30 296 14 0 252 294 298 0 +-.1
501 .01 .0245 1 0 0 30 298 69 0 299 296 300 0 +.1501 0 -.0245 -566440318686304e-
30 0 -1 16 299 57 0 ?301 291 302 298 0 0 52 30 300 68 0 291 298 303 0 +-.1501 0
 -.0245 -1 0 0 16 291 53 0 ?262 269 299 300 0 0 52 30 303 67 0 269 300 304 0 +-.
1501 0 -.0245 566440318686304e-30 0 1 16 269 49 0 ?264 275 291 303 0 0 52 30 304
 66 0 275 303 305 0 +-.1501 0 .0245 1 0 0 16 275 45 0 ?271 287 269 304 0 0 52 30
 305 86 0 295 304 306 0 +.1501 .01 .0245 0 -1 0 16 295 74 0 ?276 292 252 305 0 0
 52 30 306 87 0 292 305 239 0 +-.1501 .01 .0245 0 -1 0 16 292 75 0 ?270 244 295
 306 0 0 52 30 239 88 0 244 306 67 0 +-.1501 .01 -.0245 0 -1 0 17 270 0 273 271
 251 263 266 292 0 274 +15 273 78 0 271 307 0 17 251 0 273 270 253 246 245 252 0
 0 -17 274 0 308 268 309 263 271 275 0 0 -15 308 44 0 309 310 0 17 268 0 308 260
 274 261 264 269 0 0 -17 309 0 308 274 260 240 301 299 0 0 -17 260 0 308 309 268
 258 262 291 0 243 -17 301 0 311 288 276 258 309 299 0 0 +15 311 84 0 301 236 0
 17 288 0 311 286 301 272 243 70 0 0 -17 276 0 311 301 286 240 253 295 0 309 +17
 286 0 311 276 288 71 249 287 0 0 -17 253 0 273 251 271 71 276 295 0 286 -16 287
 4 0 ?249 282 275 297 0 0 52 30 297 5 0 287 312 289 0 +.1501 .01 -.0245 -5664403
18686304e-30 0 -1 31 312 174 0 313 314 297 0 +.1501 .005 484252325473038e-19 1 0
 -566440318686304e-30 -566440318686304e-30 0 -1 .003 16 313 155 0 ?315 302 316 3
12 0 0 52 31 314 175 0 302 317 312 0 +.1421 .005 484252325473084e-19 1 0 -566440
318686304e-30 -566440318686304e-30 0 -1 .003 16 302 152 0 ?318 299 313 314 0 0 5
2 31 317 220 0 319 320 314 0 +-.1501 .005 416546049353941e-31 -1 0 5664403186863
04e-30 566440318686304e-30 0 1 .003 16 319 201 0 ?321 316 0 317 0 0 52 31 320 22
1 0 316 0 317 0 +-.1421 .005 371230823859037e-31 -1 0 566440318686304e-30 566440
318686304e-30 0 1 .003 16 316 198 0 ?322 313 319 320 0 0 52 17 322 0 323 322 322
 0 324 316 0 0 +15 323 211 0 322 325 0 17 324 0 326 324 324 0 322 316 0 0 -15 32
6 207 0 324 327 328 14 327 204 329 ?325 330 326 65 331 -0 0 325 330 242 15 328 2
08 0 321 327 0 17 321 0 328 321 321 0 332 319 0 0 +17 332 0 333 332 332 0 321 31
9 0 0 -15 333 191 0 332 293 265 14 293 81 334 ?307 290 333 65 335 -0 0 307 290 2
42 81 1 334 978 193 293 336 0 337 338 339 14 307 79 338 ?283 293 273 65 340 -0 0
 283 293 242 14 290 83 337 ?293 236 279 65 238 -0 0 293 236 242 50 335 91 0 293
 340 238 0 +-.1501 .01 -.0245 1 0 -566440318686304e-30 -566440318686304e-30 0 -1
 13 242 29 0 0 0 0 0 0 69 236 14 236 85 341 ?290 0 342 65 66 -0 0 290 0 242 81 1
 341 976 193 236 343 0 0 337 344 15 342 145 0 345 236 311 17 345 0 342 345 345 0
 315 313 0 0 -17 315 0 346 315 315 0 345 313 0 0 +15 346 162 0 315 347 0 14 347
 158 348 ?330 310 349 65 350 -0 0 330 310 242 81 1 348 982 193 347 351 0 352 353
 354 14 330 163 353 ?327 347 355 65 356 +0 0 327 347 242 14 310 43 352 ?347 283
 308 65 357 -0 0 347 283 242 15 349 161 0 358 347 346 51 350 171 0 347 356 359 0
 +.1421 .005 484252325473084e-19 1 0 -566440318686304e-30 .003 -566440318686304e
-30 0 -1 50 356 173 0 330 331 350 0 +.1421 .005 484252325473084e-19 1 0 -5664403
18686304e-30 -566440318686304e-30 0 -1 50 359 2 0 283 350 357 0 +0 .01 0 0 1 0 0
 0 1 14 283 1 360 ?310 307 248 65 359 +0 0 310 307 242 50 357 65 0 310 359 340 0
 +0 0 0 0 1 0 0 0 1 50 340 90 0 307 357 335 0 +-.1501 .01 .0245 0 0 -1 -1 0 0 81
 1 360 980 193 283 361 0 338 352 362 81 1 361 972 212 283 0 360 363 364 365 81 1
 338 979 193 307 366 0 334 360 367 81 1 352 981 193 310 363 0 360 348 368 83 3 3
62 .647058823529412 .619607843137255 .588235294117647 81 1 363 970 212 310 0 352
 369 361 370 83 3 368 .647058823529412 .619607843137255 .588235294117647 81 1 36
9 968 212 330 0 353 351 363 371 82 1 370 106430567 81 1 353 983 193 330 369 0 34
8 329 372 81 1 351 966 212 347 0 348 343 369 373 82 1 371 -1677066134 81 1 343 9
64 212 236 0 341 374 351 375 82 1 373 -1675100054 81 1 374 962 212 290 0 337 366
 343 376 82 1 375 110297194 81 1 337 977 193 290 374 0 341 334 377 81 1 366 960
 212 307 0 338 336 374 378 82 1 376 110035047 81 1 336 958 212 293 0 334 379 366
 380 82 1 378 109510759 81 1 379 956 212 327 0 329 0 336 381 82 1 380 109772913
 81 1 329 984 193 327 379 0 353 382 383 82 1 381 783548529 81 1 382 985 193 325
 364 0 329 0 384 83 3 383 .647058823529412 .619607843137255 .588235294117647 14
 325 209 382 ?0 327 323 65 385 +0 0 0 327 242 81 1 364 974 212 325 0 382 361 0 3
86 83 3 384 .647058823529412 .619607843137255 .588235294117647 82 1 386 78158244
9 50 385 219 0 325 0 331 0 +-.1421 .005 371230823859037e-31 -1 0 566440318686304
e-30 566440318686304e-30 0 1 51 331 217 0 327 385 356 0 +-.1421 .005 37123082385
9037e-31 -1 0 566440318686304e-30 .003 566440318686304e-30 0 1 83 3 377 .6470588
23529412 .619607843137255 .588235294117647 83 3 372 .647058823529412 .6196078431
37255 .588235294117647 83 3 367 .647058823529412 .619607843137255 .5882352941176
47 82 1 365 102957159 17 358 0 349 358 358 0 318 302 0 0 -17 318 0 355 318 318 0
 358 302 0 0 +15 355 165 0 318 330 0 83 3 354 .647058823529412 .619607843137255
 .588235294117647 83 3 344 .647058823529412 .619607843137255 .588235294117647 50
 238 92 0 290 335 66 0 +-.1501 .01 -.0245 0 0 1 1 0 0 83 3 339 .647058823529412
 .619607843137255 .588235294117647 17 243 0 279 262 277 258 288 70 0 301 +19 237
 95 0 52 0 69 65 S0 74 20 235 4 0 0 364 233 382 62 0 0 0 0 0 0 0 0 0 0 0 0 0 0 0
 0 81 2 233 304 387 52 0 62 0 0 388 0 80 2 387 389 390 8004 0 0 0 0 3 5 0 0 0 FF
TFFFFFFFFFFF2 3 83 1 388 1 79 16 390 SDL/TYSA_DENSITY84 10 234 RigidMass281 1 50
 2848 5 40 0 0 0 0 391 70 51 0 4 T40 0 0 3 20 1 392 392 13 53 94 0 40 0 393 0 0
 394 0 50 54 93 0 393 395 0 0 +.1501 .01177 -.0245 -1 0 566440318686304e-30 5664
40318686304e-30 0 1 30 55 89 0 58 396 0 0 +.1501 .01177 -.0245 0 -1 0 29 56 70 0
 397 398 0 .1501 0 .0245 19 57 28 0 40 394 0 399 V0 16 58 77 0 ?400 0 401 55 0 0
 40 18 59 25 0 402 0 403 404 ?40 17 402 0 405 406 407 59 408 409 0 410 +18 403 2
2 0 407 59 411 412 ?40 29 404 27 0 59 412 413 .1501 .01177 .0245 29 412 24 0 403
 414 404 -.1501 .01177 .0245 29 413 73 0 415 404 416 .1501 0 -.0245 18 415 64 0
 417 418 0 413 ?40 29 416 72 0 418 413 398 -.1501 0 -.0245 18 418 63 0 419 420 4
15 416 ?40 29 398 71 0 420 416 56 -.1501 0 .0245 18 420 62 0 421 397 418 398 ?40
 17 421 0 422 423 424 420 425 426 0 427 +18 397 61 0 428 429 420 56 ?40 17 428 0
 430 410 427 397 431 432 0 433 +18 429 16 0 434 411 397 435 ?40 17 434 0 436 400
 437 429 438 439 0 406 -18 411 19 0 438 403 429 414 ?40 29 435 18 0 429 0 414 .1
501 .01177 -.0245 29 414 21 0 411 435 412 -.1501 .01177 -.0245 17 438 0 405 407
 406 411 434 439 0 437 +15 405 3 0 406 440 0 17 407 0 405 402 438 403 441 442 0
 423 +17 406 0 405 438 402 429 443 444 0 445 +16 439 7 0 ?438 442 444 446 0 0 40
 17 437 0 436 434 419 411 424 401 0 441 -15 436 82 0 419 447 0 17 419 0 436 437
 400 418 417 448 0 424 +17 424 0 422 421 441 418 437 401 0 425 +16 401 76 0 ?424
 58 449 396 0 0 40 17 441 0 422 424 423 411 407 442 0 0 -15 422 80 0 421 450 0 1
7 423 0 422 441 421 403 427 449 0 408 -16 442 10 0 ?407 409 439 451 0 0 40 16 40
9 13 0 ?402 452 442 453 0 0 40 30 451 11 0 442 446 453 0 +-.1501 .01177 -.0245 5
66440318686304e-30 0 1 30 446 8 0 439 454 451 0 +-.1501 .01177 -.0245 -1 0 0 30
 453 14 0 409 451 455 0 +-.1501 .01177 .0245 1 0 0 30 455 69 0 456 453 457 0 +.1
501 0 -.0245 -566440318686304e-30 0 -1 16 456 57 0 ?458 448 459 455 0 0 40 30 45
7 68 0 448 455 460 0 +-.1501 0 -.0245 -1 0 0 16 448 53 0 ?419 426 456 457 0 0 40
 30 460 67 0 426 457 461 0 +-.1501 0 -.0245 566440318686304e-30 0 1 16 426 49 0
 ?421 432 448 460 0 0 40 30 461 66 0 432 460 462 0 +-.1501 0 .0245 1 0 0 16 432
 45 0 ?428 444 426 461 0 0 40 30 462 86 0 452 461 463 0 +.1501 .01177 .0245 0 -1
 0 16 452 74 0 ?433 449 409 462 0 0 40 30 463 87 0 449 462 396 0 +-.1501 .01177
 .0245 0 -1 0 16 449 75 0 ?427 401 452 463 0 0 40 30 396 88 0 401 463 55 0 +-.15
01 .01177 -.0245 0 -1 0 17 427 0 430 428 408 420 423 449 0 431 +15 430 78 0 428
 464 0 17 408 0 430 427 410 403 402 409 0 0 -17 431 0 465 425 466 420 428 432 0
 0 -15 465 44 0 466 467 0 17 425 0 465 417 431 418 421 426 0 0 -17 466 0 465 431
 417 397 458 456 0 0 -17 417 0 465 466 425 415 419 448 0 400 -17 458 0 468 445 4
33 415 466 456 0 0 +15 468 84 0 458 393 469 17 445 0 468 443 458 429 400 58 0 0
 -17 433 0 468 458 443 397 410 452 0 466 +17 443 0 468 433 445 59 406 444 0 0 -1
7 410 0 430 408 428 59 433 452 0 443 -16 444 4 0 ?406 439 432 454 0 0 40 30 454
 5 0 444 470 446 0 +.1501 .01177 -.0245 -566440318686304e-30 0 -1 31 470 168 0 4
71 472 454 0 +-.1501 .005885 850226918348143e-31 -1 0 566440318686304e-30 566440
318686304e-30 0 1 .003 16 471 149 0 ?473 459 474 470 0 0 40 31 472 169 0 459 475
 470 0 +-.1421 .005885 804911692853239e-31 -1 0 566440318686304e-30 566440318686
304e-30 0 1 .003 16 459 146 0 ?476 456 471 472 0 0 40 31 475 210 0 477 478 472 0
 +.1501 .005885 850226918348143e-31 -1 0 -566440318686304e-30 -566440318686304e-
30 0 1 .003 16 477 188 0 ?479 474 0 475 0 0 40 31 478 211 0 474 0 475 0 +.1421 .
005885 804911692853239e-31 -1 0 -566440318686304e-30 -566440318686304e-30 0 1 .0
03 16 474 191 0 ?480 471 477 478 0 0 40 17 480 0 481 480 480 0 482 474 0 0 +15 4
81 197 0 480 483 484 17 482 0 485 482 482 0 480 474 0 0 -15 485 201 0 482 486 0
 14 486 199 487 ?0 483 485 53 488 +0 0 0 483 399 81 1 487 2847 193 486 489 0 490
 0 491 14 483 194 490 ?486 492 481 53 493 +0 0 486 492 399 50 488 209 0 486 0 49
3 0 +.1421 .005885 804911692853239e-31 1 0 566440318686304e-30 -566440318686304e
-30 0 1 13 399 29 0 0 0 0 0 0 57 393 14 393 185 494 ?447 0 468 53 54 -0 0 447 0
 399 81 1 494 2838 193 393 495 0 0 496 497 14 447 83 496 ?450 393 436 53 395 -0
 0 450 393 399 81 1 496 2839 193 447 498 0 494 499 500 14 450 81 499 ?464 447 50
1 53 502 -0 0 464 447 399 50 395 92 0 447 502 54 0 +-.1501 .01177 -.0245 0 0 1 1
 0 0 50 502 91 0 450 503 395 0 +-.1501 .01177 -.0245 1 0 -566440318686304e-30 -5
66440318686304e-30 0 -1 50 503 90 0 464 504 502 0 +-.1501 .01177 .0245 0 0 -1 -1
 0 0 14 464 79 505 ?440 450 430 53 503 -0 0 440 450 399 50 504 65 0 467 506 503
 0 +0 0 0 0 1 0 0 0 1 14 467 43 507 ?508 440 465 53 504 -0 0 508 440 399 50 506
 2 0 440 509 504 0 +0 .01177 0 0 1 0 0 0 1 14 440 1 510 ?467 464 405 53 506 +0 0
 467 464 399 51 509 165 0 508 511 506 0 +-.1421 .005885 804911692853239e-31 -1 0
 566440318686304e-30 .003 566440318686304e-30 0 1 14 508 152 512 ?492 467 513 53
 509 -0 0 492 467 399 50 511 167 0 492 493 509 0 +-.1421 .005885 804911692853239
e-31 -1 0 566440318686304e-30 566440318686304e-30 0 1 14 492 157 514 ?483 508 51
5 53 511 +0 0 483 508 399 51 493 207 0 483 488 511 0 -.1421 .005885 804911692853
239e-31 1 0 566440318686304e-30 .003 566440318686304e-30 0 -1 81 1 514 2845 193
 492 516 0 512 490 517 15 515 159 0 476 492 0 17 476 0 515 476 476 0 518 459 0 0
 +17 518 0 513 518 518 0 476 459 0 0 -15 513 155 0 518 508 519 15 519 156 0 473
 508 0 17 473 0 519 473 473 0 520 471 0 0 +17 520 0 501 520 520 0 473 471 0 0 -1
5 501 140 0 520 450 422 81 1 516 2836 212 492 0 514 521 0 522 81 1 512 2844 193
 508 521 0 507 514 523 81 1 490 2846 193 483 524 0 514 487 525 83 3 517 .6470588
23529412 .619607843137255 .588235294117647 81 1 524 2820 212 483 0 490 489 495 5
26 83 3 525 .647058823529412 .619607843137255 .588235294117647 81 1 489 2818 212
 486 0 487 0 524 527 81 1 495 2822 212 393 0 494 524 498 528 82 1 526 2014183564
 81 1 498 2824 212 447 0 496 495 529 530 82 1 528 2016477324 81 1 529 2826 212 4
50 0 499 498 531 532 82 1 530 -556924793 81 1 499 2840 193 450 529 0 496 505 533
 81 1 531 2828 212 464 0 505 529 534 535 82 1 532 -557186934 81 1 505 2841 193 4
64 531 0 499 510 536 81 1 534 2830 212 467 0 507 531 537 538 82 1 535 -557449081
 81 1 507 2843 193 467 534 0 510 512 539 81 1 537 2832 212 440 0 510 534 521 540
 82 1 538 -560529273 81 1 510 2842 193 440 537 0 505 507 541 81 1 521 2834 212 5
08 0 512 537 516 542 82 1 540 -564002681 82 1 542 -539623286 83 3 541 .647058823
529412 .619607843137255 .588235294117647 83 3 539 .647058823529412 .619607843137
255 .588235294117647 83 3 536 .647058823529412 .619607843137255 .588235294117647
 83 3 533 .647058823529412 .619607843137255 .588235294117647 82 1 527 2012217484
 83 3 523 .647058823529412 .619607843137255 .588235294117647 82 1 522 -541589366
 83 3 500 .647058823529412 .619607843137255 .588235294117647 83 3 497 .647058823
529412 .619607843137255 .588235294117647 83 3 491 .647058823529412 .619607843137
255 .588235294117647 15 484 198 0 543 483 0 17 543 0 484 543 543 0 479 477 0 0 -
17 479 0 469 479 479 0 543 477 0 0 +15 469 183 0 479 393 0 17 400 0 436 419 434
 415 445 58 0 458 +19 394 95 0 40 0 57 53 S0 74 20 392 3 0 0 516 487 50 0 0 0 0
 0 0 0 0 0 0 0 0 0 0 0 0 0 84 10 391 RigidMass181 1 38 986 5 26 544 0 0 0 545 70
 39 0 4 T26 0 0 4 20 1 546 546 13 41 94 0 26 0 547 0 0 548 0 50 42 93 0 547 549
 0 0 +.1501 .01 -.0245 -1 0 566440318686304e-30 566440318686304e-30 0 1 30 43 89
 0 46 550 0 0 +.1501 .01 -.0245 0 -1 0 29 44 70 0 551 552 0 .1501 0 .0245 19 45
 28 0 26 548 0 553 V0 16 46 77 0 ?554 0 555 43 0 0 26 18 47 25 0 556 0 557 558 ?
26 17 556 0 559 560 561 47 562 563 0 564 +18 557 22 0 561 47 565 566 ?26 29 558
 27 0 47 566 567 .1501 .01 .0245 29 566 24 0 557 568 558 -.1501 .01 .0245 29 567
 73 0 569 558 570 .1501 0 -.0245 18 569 64 0 571 572 0 567 ?26 29 570 72 0 572 5
67 552 -.1501 0 -.0245 18 572 63 0 573 574 569 570 ?26 29 552 71 0 574 570 44 -.
1501 0 .0245 18 574 62 0 575 551 572 552 ?26 17 575 0 576 577 578 574 579 580 0
 581 +18 551 61 0 582 583 574 44 ?26 17 582 0 584 564 581 551 585 586 0 587 +18
 583 16 0 588 565 551 589 ?26 17 588 0 590 554 591 583 592 593 0 560 -18 565 19
 0 592 557 583 568 ?26 29 589 18 0 583 0 568 .1501 .01 -.0245 29 568 21 0 565 58
9 566 -.1501 .01 -.0245 17 592 0 559 561 560 565 588 593 0 591 +15 559 3 0 560 5
94 0 17 561 0 559 556 592 557 595 596 0 577 +17 560 0 559 592 556 583 597 598 0
 599 +16 593 7 0 ?592 596 598 600 0 0 26 17 591 0 590 588 573 565 578 555 0 595
 -15 590 82 0 573 601 0 17 573 0 590 591 554 572 571 602 0 578 +17 578 0 576 575
 595 572 591 555 0 579 +16 555 76 0 ?578 46 603 550 0 0 26 17 595 0 576 578 577
 565 561 596 0 0 -15 576 80 0 575 604 0 17 577 0 576 595 575 557 581 603 0 562 -
16 596 10 0 ?561 563 593 605 0 0 26 16 563 13 0 ?556 606 596 607 0 0 26 30 605 1
1 0 596 600 607 0 +-.1501 .01 -.0245 566440318686304e-30 0 1 30 600 8 0 593 608
 605 0 +-.1501 .01 -.0245 -1 0 0 30 607 14 0 563 605 609 0 +-.1501 .01 .0245 1 0
 0 30 609 69 0 610 607 611 0 +.1501 0 -.0245 -566440318686304e-30 0 -1 16 610 57
 0 ?612 602 613 609 0 0 26 30 611 68 0 602 609 614 0 +-.1501 0 -.0245 -1 0 0 16
 602 53 0 ?573 580 610 611 0 0 26 30 614 67 0 580 611 615 0 +-.1501 0 -.0245 566
440318686304e-30 0 1 16 580 49 0 ?575 586 602 614 0 0 26 30 615 66 0 586 614 616
 0 +-.1501 0 .0245 1 0 0 16 586 45 0 ?582 598 580 615 0 0 26 30 616 86 0 606 615
 617 0 +.1501 .01 .0245 0 -1 0 16 606 74 0 ?587 603 563 616 0 0 26 30 617 87 0 6
03 616 550 0 +-.1501 .01 .0245 0 -1 0 16 603 75 0 ?581 555 606 617 0 0 26 30 550
 88 0 555 617 43 0 +-.1501 .01 -.0245 0 -1 0 17 581 0 584 582 562 574 577 603 0
 585 +15 584 78 0 582 618 0 17 562 0 584 581 564 557 556 563 0 0 -17 585 0 619 5
79 620 574 582 586 0 0 -15 619 44 0 620 621 0 17 579 0 619 571 585 572 575 580 0
 0 -17 620 0 619 585 571 551 612 610 0 0 -17 571 0 619 620 579 569 573 602 0 554
 -17 612 0 622 599 587 569 620 610 0 0 +15 622 84 0 612 547 0 17 599 0 622 597 6
12 583 554 46 0 0 -17 587 0 622 612 597 551 564 606 0 620 +17 597 0 622 587 599
 47 560 598 0 0 -17 564 0 584 562 582 47 587 606 0 597 -16 598 4 0 ?560 593 586
 608 0 0 26 30 608 5 0 598 623 600 0 +.1501 .01 -.0245 -566440318686304e-30 0 -1
 31 623 174 0 624 625 608 0 +.1501 .005 484252325473038e-19 1 0 -566440318686304
e-30 -566440318686304e-30 0 -1 .003 16 624 155 0 ?626 613 627 623 0 0 26 31 625
 175 0 613 628 623 0 +.1421 .005 484252325473084e-19 1 0 -566440318686304e-30 -5
66440318686304e-30 0 -1 .003 16 613 152 0 ?629 610 624 625 0 0 26 31 628 220 0 6
30 631 625 0 +-.1501 .005 416546049353941e-31 -1 0 566440318686304e-30 566440318
686304e-30 0 1 .003 16 630 201 0 ?632 627 0 628 0 0 26 31 631 221 0 627 0 628 0
 +-.1421 .005 371230823859037e-31 -1 0 566440318686304e-30 566440318686304e-30 0
 1 .003 16 627 198 0 ?633 624 630 631 0 0 26 17 633 0 634 633 633 0 635 627 0 0
 +15 634 211 0 633 636 0 17 635 0 637 635 635 0 633 627 0 0 -15 637 207 0 635 63
8 639 14 638 204 640 ?636 641 637 41 642 -0 0 636 641 553 15 639 208 0 632 638 0
 17 632 0 639 632 632 0 643 630 0 0 +17 643 0 644 643 643 0 632 630 0 0 -15 644
 191 0 643 604 576 14 604 81 645 ?618 601 644 41 646 -0 0 618 601 553 81 1 645 9
78 193 604 647 0 648 649 650 14 618 79 649 ?594 604 584 41 651 -0 0 594 604 553
 14 601 83 648 ?604 547 590 41 549 -0 0 604 547 553 50 646 91 0 604 651 549 0 +-
.1501 .01 -.0245 1 0 -566440318686304e-30 -566440318686304e-30 0 -1 13 553 29 0
 0 0 0 0 0 45 547 14 547 85 652 ?601 0 653 41 42 -0 0 601 0 553 81 1 652 976 193
 547 654 0 0 648 655 15 653 145 0 656 547 622 17 656 0 653 656 656 0 626 624 0 0
 -17 626 0 657 626 626 0 656 624 0 0 +15 657 162 0 626 658 0 14 658 158 659 ?641
 621 660 41 661 -0 0 641 621 553 81 1 659 982 193 658 662 0 663 664 665 14 641 1
63 664 ?638 658 666 41 667 +0 0 638 658 553 14 621 43 663 ?658 594 619 41 668 -0
 0 658 594 553 15 660 161 0 669 658 657 51 661 171 0 658 667 670 0 +.1421 .005 4
84252325473084e-19 1 0 -566440318686304e-30 .003 -566440318686304e-30 0 -1 50 66
7 173 0 641 642 661 0 +.1421 .005 484252325473084e-19 1 0 -566440318686304e-30 -
566440318686304e-30 0 -1 50 670 2 0 594 661 668 0 +0 .01 0 0 1 0 0 0 1 14 594 1
 671 ?621 618 559 41 670 +0 0 621 618 553 50 668 65 0 621 670 651 0 +0 0 0 0 1 0
 0 0 1 50 651 90 0 618 668 646 0 +-.1501 .01 .0245 0 0 -1 -1 0 0 81 1 671 980 19
3 594 672 0 649 663 673 81 1 672 972 212 594 0 671 674 675 676 81 1 649 979 193
 618 677 0 645 671 678 81 1 663 981 193 621 674 0 671 659 679 83 3 673 .64705882
3529412 .619607843137255 .588235294117647 81 1 674 970 212 621 0 663 680 672 681
 83 3 679 .647058823529412 .619607843137255 .588235294117647 81 1 680 968 212 64
1 0 664 662 674 682 82 1 681 106430567 81 1 664 983 193 641 680 0 659 640 683 81
 1 662 966 212 658 0 659 654 680 684 82 1 682 -1677066134 81 1 654 964 212 547 0
 652 685 662 686 82 1 684 -1675100054 81 1 685 962 212 601 0 648 677 654 687 82
 1 686 110297194 81 1 648 977 193 601 685 0 652 645 688 81 1 677 960 212 618 0 6
49 647 685 689 82 1 687 110035047 81 1 647 958 212 604 0 645 690 677 691 82 1 68
9 109510759 81 1 690 956 212 638 0 640 0 647 692 82 1 691 109772913 81 1 640 984
 193 638 690 0 664 693 694 82 1 692 783548529 81 1 693 985 193 636 675 0 640 0 6
95 83 3 694 .647058823529412 .619607843137255 .588235294117647 14 636 209 693 ?0
 638 634 41 696 +0 0 0 638 553 81 1 675 974 212 636 0 693 672 0 697 83 3 695 .64
7058823529412 .619607843137255 .588235294117647 82 1 697 781582449 50 696 219 0
 636 0 642 0 +-.1421 .005 371230823859037e-31 -1 0 566440318686304e-30 566440318
686304e-30 0 1 51 642 217 0 638 696 667 0 +-.1421 .005 371230823859037e-31 -1 0
 566440318686304e-30 .003 566440318686304e-30 0 1 83 3 688 .647058823529412 .619
607843137255 .588235294117647 83 3 683 .647058823529412 .619607843137255 .588235
294117647 83 3 678 .647058823529412 .619607843137255 .588235294117647 82 1 676 1
02957159 17 669 0 660 669 669 0 629 613 0 0 -17 629 0 666 629 629 0 669 613 0 0
 +15 666 165 0 629 641 0 83 3 665 .647058823529412 .619607843137255 .58823529411
7647 83 3 655 .647058823529412 .619607843137255 .588235294117647 50 549 92 0 601
 646 42 0 +-.1501 .01 -.0245 0 0 1 1 0 0 83 3 650 .647058823529412 .619607843137
255 .588235294117647 17 554 0 590 573 588 569 599 46 0 612 +19 548 95 0 26 0 45
 41 S0 74 20 546 4 0 0 675 544 693 38 0 0 0 0 0 0 0 0 0 0 0 0 0 0 0 0 81 2 544 3
04 387 26 0 38 0 0 698 0 83 1 698 1 84 10 545 RigidMass381 1 24 228 5 12 0 0 0 0
 699 70 25 0 4 T12 0 0 3 20 1 700 700 13 27 94 0 12 0 701 0 0 702 0 50 28 93 0 7
03 704 0 0 +.0015 .0245 -.005 0 0 1 1 0 0 30 29 89 0 32 705 0 0 +.0015 .0245 -.0
05 -1 0 0 29 30 70 0 706 707 0 0 -.0245 -.005 19 31 28 0 12 702 0 708 V0 16 32 7
7 0 ?709 0 710 29 0 0 12 18 33 25 0 711 0 712 713 ?12 17 711 0 714 715 716 33 71
7 718 0 719 +18 712 22 0 716 33 720 721 ?12 29 713 27 0 33 721 722 .0015 -.0245
 -.005 29 721 24 0 712 723 713 .0015 -.0245 .005 29 722 73 0 724 713 725 0 .0245
 -.005 18 724 64 0 726 727 0 722 ?12 29 725 72 0 727 722 707 0 .0245 .005 18 727
 63 0 728 729 724 725 ?12 29 707 71 0 729 725 30 0 -.0245 .005 18 729 62 0 730 7
06 727 707 ?12 17 730 0 731 732 733 729 734 735 0 736 +18 706 61 0 737 738 729 3
0 ?12 17 737 0 739 719 736 706 740 741 0 742 +18 738 16 0 743 720 706 744 ?12 17
 743 0 745 709 746 738 747 748 0 715 -18 720 19 0 747 712 738 723 ?12 29 744 18
 0 738 0 723 .0015 .0245 -.005 29 723 21 0 720 744 721 .0015 .0245 .005 17 747 0
 714 716 715 720 743 748 0 746 +15 714 3 0 715 701 749 17 716 0 714 711 747 712
 750 751 0 732 +17 715 0 714 747 711 738 752 753 0 754 +16 748 7 0 ?747 751 753
 755 0 0 12 17 746 0 745 743 728 720 733 710 0 750 -15 745 82 0 728 756 0 17 728
 0 745 746 709 727 726 757 0 733 +17 733 0 731 730 750 727 746 710 0 734 +16 710
 76 0 ?733 32 758 705 0 0 12 17 750 0 731 733 732 720 716 751 0 0 -15 731 80 0 7
30 759 0 17 732 0 731 750 730 712 736 758 0 717 -16 751 10 0 ?716 718 748 760 0
 0 12 16 718 13 0 ?711 761 751 762 0 0 12 30 760 11 0 751 755 762 0 +.0015 .0245
 .005 0 -1 0 30 755 8 0 748 763 760 0 +.0015 .0245 .005 0 0 1 30 762 14 0 718 76
0 764 0 +.0015 -.0245 .005 0 0 -1 30 764 69 0 765 762 766 0 +0 .0245 -.005 0 1 0
 16 765 57 0 ?767 757 768 764 0 0 12 30 766 68 0 757 764 769 0 +0 .0245 .005 0 0
 1 16 757 53 0 ?728 735 765 766 0 0 12 30 769 67 0 735 766 770 0 +0 .0245 .005 0
 -1 0 16 735 49 0 ?730 741 757 769 0 0 12 30 770 66 0 741 769 771 0 +0 -.0245 .0
05 0 0 -1 16 741 45 0 ?737 753 735 770 0 0 12 30 771 86 0 761 770 772 0 +.0015 -
.0245 -.005 -1 0 0 16 761 74 0 ?742 758 718 771 0 0 12 30 772 87 0 758 771 705 0
 +.0015 -.0245 .005 -1 0 0 16 758 75 0 ?736 710 761 772 0 0 12 30 705 88 0 710 7
72 29 0 +.0015 .0245 .005 -1 0 0 17 736 0 739 737 717 729 732 758 0 740 +15 739
 78 0 737 773 0 17 717 0 739 736 719 712 711 718 0 0 -17 740 0 774 734 775 729 7
37 741 0 0 -15 774 44 0 775 776 777 17 734 0 774 726 740 727 730 735 0 0 -17 775
 0 774 740 726 706 767 765 0 0 -17 726 0 774 775 734 724 728 757 0 709 -17 767 0
 778 754 742 724 775 765 0 0 +15 778 84 0 767 703 0 17 754 0 778 752 767 738 709
 32 0 0 -17 742 0 778 767 752 706 719 761 0 775 +17 752 0 778 742 754 33 715 753
 0 0 -17 719 0 739 717 737 33 742 761 0 752 -16 753 4 0 ?715 748 741 763 0 0 12
 30 763 5 0 753 779 755 0 +.0015 .0245 -.005 0 1 0 31 779 142 0 780 781 763 0 +0
 242861286636753e-31 -1301042606982606e-32 1 0 0 0 0 -1 .003 16 780 120 0 ?782 7
68 0 779 0 0 12 31 781 143 0 768 0 779 0 +.0015 242861286636753e-31 -13010426069
82606e-32 1 0 0 0 0 -1 .003 16 768 123 0 ?783 765 780 781 0 0 12 17 783 0 784 78
3 783 0 785 768 0 0 +15 784 129 0 783 786 787 17 785 0 749 785 785 0 783 768 0 0
 -15 749 114 0 785 701 0 14 701 117 788 ?776 0 714 27 789 +0 0 776 0 708 81 1 78
8 221 193 701 790 0 0 791 792 14 776 111 791 ?703 701 774 27 793 -0 0 703 701 70
8 50 789 2 0 701 794 793 0 +.0015 0 0 1 0 0 0 0 -1 13 708 29 0 0 0 0 0 0 31 701
 51 794 139 0 786 0 789 0 -.0015 242861286636753e-31 -1301042606982606e-32 -1 0
 0 .003 0 0 1 50 793 65 0 776 789 795 0 +0 0 0 1 0 0 0 0 -1 50 795 90 0 773 793
 796 0 +.0015 -.0245 .005 0 1 0 0 0 1 14 773 79 797 ?786 759 739 27 795 -0 0 786
 759 708 50 796 91 0 759 795 704 0 +.0015 .0245 .005 0 0 -1 -1 0 0 14 759 81 798
 ?773 756 731 27 796 -0 0 773 756 708 50 704 92 0 756 796 28 0 +.0015 .0245 .005
 0 -1 0 0 0 -1 14 756 83 799 ?759 703 745 27 704 -0 0 759 703 708 81 1 799 224 1
93 756 800 0 801 798 802 14 703 85 801 ?756 776 778 27 28 -0 0 756 776 708 81 1
 801 223 193 703 803 0 791 799 804 81 1 803 217 212 703 0 801 800 805 806 81 1 7
91 222 193 776 807 0 788 801 808 83 3 804 .866666666666667 .909803921568627 1 81
 1 807 209 212 776 0 791 790 809 810 83 3 808 .866666666666667 .909803921568627
 1 81 1 790 207 212 701 0 788 0 807 811 81 1 809 211 212 773 0 797 807 812 813 8
2 1 810 423886989 81 1 797 226 193 773 809 0 798 814 815 81 1 812 213 212 759 0
 798 809 800 816 82 1 813 416546957 81 1 798 225 193 759 812 0 799 797 817 81 1
 800 215 212 756 0 799 812 803 818 82 1 816 416809101 82 1 818 417071245 83 3 81
7 .866666666666667 .909803921568627 1 81 1 814 227 193 786 805 0 797 0 819 83 3
 815 .866666666666667 .909803921568627 1 14 786 126 814 ?0 773 784 27 794 +0 0 0
 773 708 81 1 805 219 212 786 0 814 803 0 820 83 3 819 .866666666666667 .9098039
21568627 1 82 1 820 422183053 82 1 811 424411277 82 1 806 417333389 83 3 802 .86
6666666666667 .909803921568627 1 83 3 792 .866666666666667 .909803921568627 1 15
 787 130 0 821 786 0 17 821 0 787 821 821 0 782 780 0 0 -17 782 0 777 782 782 0
 821 780 0 0 +15 777 109 0 782 776 0 17 709 0 745 728 743 724 754 32 0 767 +19 7
02 95 0 12 0 31 27 S0 74 20 700 3 0 0 805 814 24 0 0 0 0 0 0 0 0 0 0 0 0 0 0 0 0
 0 84 23 699 AluminumBar-1.5t_filler81 1 10 285 5 7 0 0 0 0 822 70 11 0 4 T7 0 0
 3 20 1 823 823 13 13 94 0 7 0 824 0 0 825 0 50 14 93 0 824 826 0 0 +.0015 .0245
 -.1125 0 0 1 1 0 0 30 15 89 0 18 827 0 0 +.0015 .0245 -.1125 -1 0 0 29 16 70 0
 828 829 0 0 -.0245 -.1125 19 17 28 0 7 825 0 830 V0 16 18 77 0 ?831 0 832 15 0
 0 7 18 19 25 0 833 0 834 835 ?7 17 833 0 836 837 838 19 839 840 0 841 +18 834 2
2 0 838 19 842 843 ?7 29 835 27 0 19 843 844 .0015 -.0245 -.1125 29 843 24 0 834
 845 835 .0015 -.0245 .1125 29 844 73 0 846 835 847 0 .0245 -.1125 18 846 64 0 8
48 849 0 844 ?7 29 847 72 0 849 844 829 0 .0245 .1125 18 849 63 0 850 851 846 84
7 ?7 29 829 71 0 851 847 16 0 -.0245 .1125 18 851 62 0 852 828 849 829 ?7 17 852
 0 853 854 855 851 856 857 0 858 +18 828 61 0 859 860 851 16 ?7 17 859 0 861 841
 858 828 862 863 0 864 +18 860 16 0 865 842 828 866 ?7 17 865 0 867 831 868 860
 869 870 0 837 -18 842 19 0 869 834 860 845 ?7 29 866 18 0 860 0 845 .0015 .0245
 -.1125 29 845 21 0 842 866 843 .0015 .0245 .1125 17 869 0 836 838 837 842 865 8
70 0 868 +15 836 3 0 837 871 0 17 838 0 836 833 869 834 872 873 0 854 +17 837 0
 836 869 833 860 874 875 0 876 +16 870 7 0 ?869 873 875 877 0 0 7 17 868 0 867 8
65 850 842 855 832 0 872 -15 867 82 0 850 878 0 17 850 0 867 868 831 849 848 879
 0 855 +17 855 0 853 852 872 849 868 832 0 856 +16 832 76 0 ?855 18 880 827 0 0
 7 17 872 0 853 855 854 842 838 873 0 0 -15 853 80 0 852 881 0 17 854 0 853 872
 852 834 858 880 0 839 -16 873 10 0 ?838 840 870 882 0 0 7 16 840 13 0 ?833 883
 873 884 0 0 7 30 882 11 0 873 877 884 0 +.0015 .0245 .1125 0 -1 0 30 877 8 0 87
0 885 882 0 +.0015 .0245 .1125 0 0 1 30 884 14 0 840 882 886 0 +.0015 -.0245 .11
25 0 0 -1 30 886 69 0 887 884 888 0 +0 .0245 -.1125 0 1 0 16 887 57 0 ?889 879 8
90 886 0 0 7 30 888 68 0 879 886 891 0 +0 .0245 .1125 0 0 1 16 879 53 0 ?850 857
 887 888 0 0 7 30 891 67 0 857 888 892 0 +0 .0245 .1125 0 -1 0 16 857 49 0 ?852
 863 879 891 0 0 7 30 892 66 0 863 891 893 0 +0 -.0245 .1125 0 0 -1 16 863 45 0
 ?859 875 857 892 0 0 7 30 893 86 0 883 892 894 0 +.0015 -.0245 -.1125 -1 0 0 16
 883 74 0 ?864 880 840 893 0 0 7 30 894 87 0 880 893 827 0 +.0015 -.0245 .1125 -
1 0 0 16 880 75 0 ?858 832 883 894 0 0 7 30 827 88 0 832 894 15 0 +.0015 .0245 .
1125 -1 0 0 17 858 0 861 859 839 851 854 880 0 862 +15 861 78 0 859 895 0 17 839
 0 861 858 841 834 833 840 0 0 -17 862 0 896 856 897 851 859 863 0 0 -15 896 44
 0 897 898 0 17 856 0 896 848 862 849 852 857 0 0 -17 897 0 896 862 848 828 889
 887 0 0 -17 848 0 896 897 856 846 850 879 0 831 -17 889 0 899 876 864 846 897 8
87 0 0 +15 899 84 0 889 824 0 17 876 0 899 874 889 860 831 18 0 0 -17 864 0 899
 889 874 828 841 883 0 897 +17 874 0 899 864 876 19 837 875 0 0 -17 841 0 861 83
9 859 19 864 883 0 874 -16 875 4 0 ?837 870 863 885 0 0 7 30 885 5 0 875 900 877
 0 +.0015 .0245 -.1125 0 1 0 31 900 171 0 901 902 885 0 +.0015 1394501848036084e
-33 .1075 1 0 0 0 0 -1 .003 16 901 152 0 ?903 890 904 900 0 0 7 31 902 172 0 890
 905 900 0 +0 1394501848036084e-33 .1075 1 0 0 0 0 -1 .003 16 890 149 0 ?906 887
 901 902 0 0 7 31 905 209 0 907 908 902 0 +.0015 277244080297042e-31 -.1075 1 0
 0 0 0 1 .003 16 907 190 0 ?909 904 0 905 0 0 7 31 908 210 0 904 0 905 0 +0 2772
44080297042e-31 -.1075 1 0 0 0 0 1 .003 16 904 187 0 ?910 901 907 908 0 0 7 17 9
10 0 911 910 910 0 912 904 0 0 +15 911 175 0 910 898 913 17 912 0 914 912 912 0
 910 904 0 0 -15 914 196 0 912 915 916 14 915 193 917 ?0 918 914 13 919 -0 0 0 9
18 830 15 916 197 0 909 915 0 17 909 0 916 909 909 0 920 907 0 0 +17 920 0 921 9
20 920 0 909 907 0 0 -15 921 182 0 920 871 922 14 871 1 923 ?898 895 921 13 924
 +0 0 898 895 830 15 922 144 0 925 871 836 17 925 0 922 925 925 0 903 901 0 0 -1
7 903 0 926 903 903 0 925 901 0 0 +15 926 159 0 903 918 0 14 918 155 927 ?915 89
8 928 13 929 -0 0 915 898 830 81 1 927 283 193 918 930 0 931 917 932 14 898 43 9
31 ?918 871 911 13 933 -0 0 918 871 830 15 928 158 0 934 918 926 51 929 168 0 91
8 919 924 0 +0 1394501848036084e-33 .1075 1 0 0 .003 0 0 -1 13 830 29 0 0 0 0 0
 0 17 824 14 824 85 935 ?878 0 899 13 14 -0 0 878 0 830 81 1 935 277 193 824 936
 0 0 937 938 14 878 83 937 ?881 824 867 13 826 -0 0 881 824 830 81 1 937 278 193
 878 939 0 935 940 941 14 881 81 940 ?895 878 853 13 942 -0 0 895 878 830 50 826
 92 0 878 942 14 0 +.0015 .0245 .1125 0 -1 0 0 0 -1 50 942 91 0 881 943 826 0 +.
0015 .0245 .1125 0 0 -1 -1 0 0 50 943 90 0 895 933 942 0 +.0015 -.0245 .1125 0 1
 0 0 0 1 14 895 79 944 ?871 881 861 13 943 -0 0 871 881 830 50 933 65 0 898 924
 943 0 +0 0 0 1 0 0 0 0 -1 50 924 2 0 871 929 933 0 +.0015 0 0 1 0 0 0 0 -1 81 1
 944 280 193 895 945 0 940 923 946 81 1 945 275 212 895 0 944 947 0 948 81 1 940
 279 193 881 947 0 937 944 949 81 1 923 281 193 871 950 0 944 931 951 83 3 946 .
866666666666667 .909803921568627 1 81 1 950 263 212 871 0 923 952 930 953 81 1 9
31 282 193 898 954 0 923 927 955 83 3 951 .866666666666667 .909803921568627 1 81
 1 954 267 212 898 0 931 930 936 956 83 3 955 .866666666666667 .909803921568627
 1 81 1 930 265 212 918 0 927 950 954 957 81 1 936 269 212 824 0 935 954 939 958
 82 1 956 1958281338 81 1 939 271 212 878 0 937 936 947 959 82 1 958 1962147959
 81 1 947 273 212 881 0 940 939 945 960 82 1 959 1961885815 82 1 960 1961623671
 82 1 957 1977942138 81 1 952 261 212 915 0 917 0 950 961 82 1 953 1954807930 81
 1 917 284 193 915 952 0 927 0 962 82 1 961 1981939834 83 3 962 .866666666666667
 .909803921568627 1 83 3 949 .866666666666667 .909803921568627 1 82 1 948 196136
1527 83 3 941 .866666666666667 .909803921568627 1 83 3 938 .866666666666667 .909
803921568627 1 51 919 206 0 915 0 929 0 +0 277244080297042e-31 -.1075 1 0 0 .003
 0 0 -1 17 934 0 928 934 934 0 906 890 0 0 -17 906 0 913 906 906 0 934 890 0 0 +
15 913 137 0 906 898 896 83 3 932 .866666666666667 .909803921568627 1 17 831 0 8
67 850 865 846 876 18 0 889 +19 825 95 0 7 0 17 13 S0 74 20 823 3 0 0 945 917 10
 0 0 0 0 0 0 0 0 0 0 0 0 0 0 0 0 0 84 28 822 AluminumBar-1.5t_first floor74 20 6
 1 0 0 2 0 0 0 0 0 0 0 0 0 0 0 0 0 0 0 0 0 0 0 1 0 
