**ABCDEFGHIJKLMNOPQRSTUVWXYZabcdefghijklmnopqrstuvwxyz**************************
**PARASOLID !"#$%&'()*+,-./:;<=>?@[\]^_`{|}~0123456789**************************
**PART1;
MC=AMD64;
MC_MODEL=Intel64 Family 6 Model 151 Stepping 2, GenuineIntel;
MC_ID=unknown;
OS=Windows_NT;
OS_RELEASE=unknown;
FRU=Parasolid Version 35.1, build 210,  4-20-2023;
APPL=SOLIDWORKS 2024-2023282;
SITE=;
USER=unknown;
FORMAT=text;
GUISE=transmit;
KEY=Final_New_Arm_Fornt Upper_Assemble(2T);
FILE=Final_New_Arm_Fornt Upper_Assemble(2T).x_t;
DATE=Mon Dec 25 22:00:04 2023;
**PART2;
SCH=SCH_3501210_35102;
USFLD_SIZE=0;
**PART3;
**END_OF_HEADER*****************************************************************
T51 : TRANSMIT FILE created by modeller version 350121023 SCH_3501210_35102_1300
6231 0 10 21 CCCCI7 lattice222 0 CCCI4 mesh1006 0 I8 polyline1008 0 CCCCCCCCCCA1
6 mesh_offset_data206 0 Z1 25 2 3 0 0 0 0 0 0 0 0 1e3 1e-8 0 0 0 1 0 1 4 0 81 25
5 1 2 25 5 1 0 0 0 0 0 70 11 CI9 list_type0 0 1 uI10 notransmit0 0 1 lCCCDCCDI12
 finger_index0 0 1 dI12 finger_block1012 0 CZ3 0 4 T1 0 0 1 20 1 6 6 11 255 4 23
 0 1 7 8 1 9 0 9 0 12 36 CCCI7 lattice222 0 CCCI4 mesh1006 0 I8 polyline1008 0 C
CCCCCCDI5 owner1040 0 CCCI16 boundary_lattice222 0 CCCI13 boundary_mesh1006 0 I1
7 boundary_polyline1008 0 CCCA16 index_map_offset0 0 1 dA9 index_map82 0 A17 nod
e_id_index_map82 0 A20 schema_embedding_map82 0 A5 child12 0 A14 lowest_node_id0
 0 1 dA16 mesh_offset_data206 0 Z7 201 10 11 0 0 0 0 0 0 0 1e3 1e-8 4 12 0 1 0 1
 1 13 0 14 15 0 0 0 16 17 0 0 0 0 0 0 0 0 100 10 CCCCCCCCCA9 precision229 0 Z8 2
4 4 0 0 503069808033274e-31 .999111312855918 -.04214954950321675 -1 -10408340855
86084e-31 0 0 .04214954950321675 .999111312855918 -.01012725043505774 .013952721
08843536 -.096405 1 3 ?0 11 9 21 0 1 7 18 1 19 4 19 4 100 18 22 9 0 0 1 36207767
77209985e-32 116989723393041e-30 1224646799147352e-31 -.295658860965538 -.955293
587297937 -246519032881566e-46 .955293587297937 -.295658860965538 .0680872428851
136 .01395272108843536 .134015 1 3 ?0 11 19 19 0 1 7 20 1 21 9 0 9 100 20 20 19
 0 0 1 0 0 0 1 0 0 0 1 -.088341743755229 .01395272108843536 .134015 1 1 ?0 11 21
 17 0 1 12 22 1 23 19 24 0 12 12 455 25 26 0 0 0 0 0 0 0 1e3 1e-8 21 27 7 1 0 1
 1 28 0 29 30 31 0 0 32 33 34 0 0 0 0 0 0 0 100 22 18 21 0 0 -208780793899214e-4
5 127675647831893e-29 1 1 1224917849690474e-31 -3460581900612045e-50 -1224917849
690474e-31 1 -127675647831893e-29 .0680872428851136 .01395272108843536 .134015 1
 3 ?0 11 23 15 0 1 27 35 1 24 21 36 0 12 27 150 37 38 0 0 0 0 0 0 0 1e3 1e-8 23
 39 12 1 0 1 1 40 0 41 42 0 0 0 43 44 0 0 0 0 0 0 0 0 100 35 16 23 0 0 -20878079
3899214e-45 127675647831893e-29 1 1 1224917849690474e-31 -3460581900612045e-50 -
1224917849690474e-31 1 -127675647831893e-29 .0680872428851136 .01395272108843536
 .134015 1 3 ?0 11 24 13 0 1 12 45 1 36 23 0 21 100 45 14 24 0 0 361575182270665
e-45 -1165734175856414e-30 1 1 1224917849690474e-31 -197183628282417e-45 -122491
7849690474e-31 1 1165734175856414e-30 -.088341743755229 .01395272108843536 .1340
15 1 3 ?0 11 36 11 0 1 27 46 1 47 24 0 23 100 46 12 36 0 0 361575182270665e-45 -
1165734175856414e-30 1 1 1224917849690474e-31 -197183628282417e-45 -122491784969
0474e-31 1 1165734175856414e-30 -.088341743755229 .01395272108843536 .134015 1 3
 ?0 11 47 9 0 1 39 48 1 49 36 0 0 12 39 249 50 51 0 0 0 0 0 0 0 1e3 1e-8 47 52 2
7 1 0 1 1 53 0 54 55 0 0 0 56 57 0 0 0 0 0 0 0 0 100 48 10 47 0 0 1 0 0 0 1 0 0
 0 1 -.01012725043505774 .01395272108843536 -.0840978869793271 1 1 ?0 11 49 7 0
 1 52 58 1 59 47 0 0 12 52 97 60 61 0 0 0 0 0 0 0 1e3 1e-8 49 62 39 1 0 1 1 63 0
 64 65 0 0 0 66 67 0 0 0 0 0 0 0 0 100 58 8 49 0 0 1 0 0 0 1 0 0 0 1 -.010127250
43505774 .01395272108843536 -.0840978869793271 1 1 ?0 11 59 5 0 1 62 68 1 69 49
 0 0 12 62 105 70 71 0 0 0 0 0 0 0 1e3 1e-8 59 72 52 1 0 1 1 73 0 74 75 0 0 0 76
 77 0 0 0 0 0 0 0 0 100 68 6 59 0 0 1 0 0 0 1 0 0 0 1 -.01012725043505774 .01395
272108843536 -.0840978869793271 1 1 ?0 11 69 3 0 1 72 78 1 79 59 0 0 12 72 103 8
0 81 0 0 0 0 0 0 0 1e3 1e-8 69 82 62 1 0 1 1 83 0 84 85 0 0 0 86 87 0 0 0 0 0 0
 0 0 100 78 4 69 0 0 1 0 0 0 1 0 0 0 1 -.01012725043505774 .01395272108843536 -.
0840978869793271 1 1 ?0 11 79 1 0 1 82 88 1 0 69 0 0 12 82 103 89 90 0 0 0 0 0 0
 0 1e3 1e-8 79 91 72 1 0 1 1 92 0 93 94 0 0 0 95 96 0 0 0 0 0 0 0 0 100 88 2 79
 0 0 1 0 0 0 1 0 0 0 1 -.01012725043505774 .01395272108843536 -.0840978869793271
 1 1 ?0 81 1 89 103 5 82 97 0 0 0 98 70 90 0 4 T82 0 0 5 20 1 99 99 13 255 92 7
 0 82 0 100 0 0 101 0 50 255 93 41 0 102 103 0 0 +-.0782144933201712 -6617444900
42422e-36 .160502886979327 .205910542700106 -542101086242752e-34 -.9785708193099
51 -.978570819309951 216840434497101e-33 -.205910542700106 32 255 94 43 0 104 10
5 0 0 +-.0782144933201712 -661744490042422e-36 .160502886979327 .205910542700106
 -542101086242752e-34 -.978570819309951 .978570819309951 -216840434497101e-33 .2
05910542700106 .00600365337292891 .005875 19 9 CCCCCCI5 frame230 0 CA5 owner12 0
 Z95 5 0 82 101 0 106 0 V0 16 255 96 15 0 ?107 0 108 105 0 0 82 17 255 107 0 109
 107 107 0 110 96 0 0 +16 108 12 0 ?111 96 112 113 0 0 82 32 105 42 0 96 113 94
 0 +-.0782144933201712 -661744490042422e-36 .160502886979327 .205910542700106 -5
42101086242752e-34 -.978570819309951 .978570819309951 -216840434497101e-33 .2059
10542700106 .00807299772700228 .0079 31 255 113 38 0 108 114 105 0 +-.0782144933
201712 502925812432241e-36 .195502886979327 11518563880486e-28 -33881317890172e-
33 -1 -1 216840434497101e-33 -117961196366423e-29 .005875 31 114 37 0 112 0 113
 0 +-.0782144933201712 502925812432241e-36 .195502886979327 11518563880486e-28 -
33881317890172e-33 -1 -1 216840434497101e-33 -117961196366423e-29 .0079 16 112 9
 0 ?115 108 104 114 0 0 82 17 115 0 116 115 115 0 117 112 0 0 +16 104 8 0 ?118 1
12 0 94 0 0 82 17 118 0 119 118 118 0 120 104 0 0 +15 255 119 20 0 118 100 0 17
 120 0 121 120 120 0 118 104 0 0 -15 121 34 0 120 102 109 14 255 102 31 122 ?0 1
23 121 92 93 +0 0 0 123 106 15 109 35 0 107 102 0 81 1 122 102 124 102 125 0 126
 0 127 14 123 26 126 ?102 128 129 92 130 -0 0 102 128 106 13 106 6 0 0 0 0 0 0 9
5 100 14 100 16 131 ?128 0 132 92 133 +0 0 128 0 106 81 1 131 99 124 100 134 0 0
 135 136 14 128 21 135 ?123 100 116 92 103 -0 0 123 100 106 15 132 19 0 137 100
 119 51 255 133 39 0 100 130 103 0 --.0782144933201712 -449986253228847e-36 .160
502886979327 -1172673069760322e-30 33881317890172e-33 1 .005875 1 -2168404344971
01e-33 120042864537595e-29 50 130 36 0 123 0 133 0 +-.0782144933201712 502925812
432241e-36 .195502886979327 11518563880486e-28 -33881317890172e-33 -1 -1 2168404
34497101e-33 -117961196366423e-29 51 103 40 0 128 133 93 0 --.0782144933201712 -
449986253228847e-36 .160502886979327 -1172673069760322e-30 33881317890172e-33 1
 .0079 1 -216840434497101e-33 120042864537595e-29 17 137 0 132 137 137 0 111 108
 0 0 -17 111 0 129 111 111 0 137 108 0 0 +15 129 29 0 111 123 138 15 138 30 0 11
7 123 0 17 117 0 138 117 117 0 115 112 0 0 -81 1 135 100 124 128 139 0 131 126 1
40 15 116 24 0 115 128 141 15 141 25 0 110 128 0 17 110 0 141 110 110 0 107 96 0
 0 -80 7 CCCCCDI12 legal_owners0 16 1 lCZ1 124 0 142 8001 0 0 0 0 3 5 0 0 0 FFFF
TFTFFFFFFFFF2 81 1 139 96 143 128 0 135 134 0 144 81 1 126 101 124 123 145 0 135
 122 146 83 255 3 140 .792156862745098 .819607843137255 .933333333333333 81 1 14
5 90 143 123 0 126 125 134 147 83 3 146 .792156862745098 .819607843137255 .93333
3333333333 80 1 143 148 149 9000 1 1 1 1 1 1 1 1 0 FFFFTFTFFFFFFFFF1 81 1 125 87
 143 102 0 122 0 145 150 81 1 134 93 143 100 0 131 145 139 151 82 255 1 147 9999
99 82 1 151 999999 82 1 150 999999 79 255 14 149 SWEntUnchanged82 1 144 999999 7
9 15 142 SDL/TYSA_COLOUR83 3 136 .792156862745098 .819607843137255 .933333333333
333 83 3 127 .792156862745098 .819607843137255 .933333333333333 19 101 1 0 82 0
 95 92 0 S0 74 4 CI16 index_map_offset0 0 1 dCCZ20 99 5 0 0 152 97 139 122 89 0
 0 0 0 0 0 0 0 0 0 0 0 0 0 0 81 2 152 52 153 82 0 97 0 0 154 0 81 2 97 68 155 82
 152 89 0 0 156 0 80 2 155 157 158 8004 0 0 0 0 3 5 0 0 0 FFTFFFFFFFFFFFFF2 3 83
 1 156 1e2 79 16 158 SDL/TYSA_DENSITY80 2 153 159 160 9000 0 0 0 0 3 5 0 0 0 FFT
FTTTFFTFFFFFF10 10 98 255 27 154 67 105 114 99 117 108 97 114 32 116 117 98 101
 32 50 49 46 51 32 88 32 50 46 51 40 49 41 79 23 160 SWIMPLICITBODYNAME_ID_U80 1
 5 161 162 8017 0 0 0 0 0 0 0 0 0 TTTTTTTTTTTTTFTF3 84 255 46 98 Final_New_Arm_F
ront_Upper(2T)(기본<가공 상태>)79 13 162 SDL/TYSA_NAME81 1 80 103 5 72 163 0 0 0
 164 70 81 0 4 T72 0 0 5 20 1 165 165 13 83 7 0 72 0 166 0 0 167 0 50 84 41 0 16
8 169 0 0 +.0782144933201713 -509543257332665e-36 .160502886979327 -.20591054270
0106 -542101086242752e-34 -.97857081930995 -.978570819309951 -433680868994202e-3
3 .205910542700106 32 85 43 0 170 171 0 0 +.0782144933201713 -29778502051909e-35
 .160502886979327 -.205910542700106 -542101086242752e-34 -.97857081930995 -.9785
70819309951 -433680868994202e-33 .205910542700106 .00600365337292891 .005875 19
 86 5 0 72 167 0 172 0 V0 16 87 15 0 ?173 0 174 171 0 0 72 17 173 0 175 173 173
 0 176 87 0 0 +16 174 12 0 ?177 87 178 179 0 0 72 32 171 42 0 87 179 85 0 +.0782
144933201713 -29778502051909e-35 .160502886979327 -.205910542700106 -54210108624
2752e-34 -.97857081930995 -.978570819309951 -433680868994202e-33 .20591054270010
6 .00807299772700229 .0079 31 179 38 0 174 180 171 0 +.0782144933201713 12573145
31080602e-37 .195502886979327 -1283695372222836e-30 -67762635780344e-34 -1 -1 0
 1269817584415022e-30 .005875 31 180 37 0 178 0 179 0 +.0782144933201713 1257314
531080602e-37 .195502886979327 -1283695372222836e-30 -67762635780344e-34 -1 -1 0
 1269817584415022e-30 .0079 16 178 9 0 ?181 174 170 180 0 0 72 17 181 0 182 181
 181 0 183 178 0 0 +16 170 8 0 ?184 178 0 85 0 0 72 17 184 0 185 184 184 0 186 1
70 0 0 +15 185 20 0 184 166 0 17 186 0 187 186 186 0 184 170 0 0 -15 187 34 0 18
6 168 175 14 168 31 188 ?0 189 187 83 84 +0 0 0 189 172 15 175 35 0 173 168 0 81
 1 188 102 124 168 190 0 191 0 192 14 189 26 191 ?168 193 194 83 195 -0 0 168 19
3 172 13 172 6 0 0 0 0 0 0 86 166 14 166 16 196 ?193 0 197 83 198 +0 0 193 0 172
 81 1 196 99 124 166 199 0 0 200 201 14 193 21 200 ?189 166 182 83 169 -0 0 189
 166 172 15 197 19 0 202 166 185 51 198 39 0 166 195 169 0 -.0782144933201713 -2
9778502051909e-35 .160502886979327 1193489751472042e-30 67762635780344e-34 1 .00
5875 1 216840434497101e-33 -117961196366423e-29 50 195 36 0 189 0 198 0 +.078214
4933201713 1257314531080602e-37 .195502886979327 -1283695372222836e-30 -67762635
780344e-34 -1 -1 0 1269817584415022e-30 51 169 40 0 193 198 84 0 -.0782144933201
713 -29778502051909e-35 .160502886979327 1193489751472042e-30 67762635780344e-34
 1 .0079 1 216840434497101e-33 -117961196366423e-29 17 202 0 197 202 202 0 177 1
74 0 0 -17 177 0 194 177 177 0 202 174 0 0 +15 194 29 0 177 189 203 15 203 30 0
 183 189 0 17 183 0 203 183 183 0 181 178 0 0 -81 1 200 100 124 193 204 0 196 19
1 205 15 182 24 0 181 193 206 15 206 25 0 176 193 0 17 176 0 206 176 176 0 173 8
7 0 0 -81 1 204 96 143 193 0 200 199 0 207 81 1 191 101 124 189 208 0 200 188 20
9 83 3 205 .792156862745098 .819607843137255 .933333333333333 81 1 208 90 143 18
9 0 191 190 199 210 83 3 209 .792156862745098 .819607843137255 .933333333333333
 81 1 190 87 143 168 0 188 0 208 211 81 1 199 93 143 166 0 196 208 204 212 82 1
 210 999999 82 1 212 999999 82 1 211 999999 82 1 207 999999 83 3 201 .7921568627
45098 .819607843137255 .933333333333333 83 3 192 .792156862745098 .8196078431372
55 .933333333333333 19 167 1 0 72 0 86 83 0 S0 74 20 165 5 0 0 213 163 204 188 8
0 0 0 0 0 0 0 0 0 0 0 0 0 0 0 0 81 2 213 52 153 72 0 163 0 0 214 0 81 2 163 68 1
55 72 213 80 0 0 215 0 83 1 215 1e2 98 27 214 67 105 114 99 117 108 97 114 32 11
6 117 98 101 32 50 49 46 51 32 88 32 50 46 51 40 50 41 84 46 164 Final_New_Arm_F
ront_Upper(2T)(기본<가공 상태>)81 1 70 105 5 62 216 0 0 0 217 70 71 0 4 T62 0 0
 5 20 1 218 218 13 73 10 0 62 0 219 0 0 220 0 51 74 46 0 221 222 0 223 -0 .0085
 -.01230711302067296 433680868994202e-33 -1 650521303491303e-33 .015 -1393750363
05959e-30 650521303491303e-33 -1 38 12 CCCCCCCCCCCA17 intersection_data204 0 Z75
 48 0 77 224 0 0 +222 74 225 226 226 227 19 76 8 0 62 220 0 228 0 V0 16 77 14 0
 ?229 0 230 75 0 0 62 17 229 0 231 229 229 0 232 77 0 0 +16 230 13 0 ?233 77 234
 235 0 0 62 17 233 0 236 233 233 0 237 230 0 0 +16 234 12 0 ?238 230 239 224 0 0
 62 32 235 43 0 230 240 224 0 +-.0782144933201712 -1471719745854346e-35 .1605028
86979327 -.2059105427001055 -433680868994202e-33 .97857081930995 -.9785708193099
51 867361737988404e-33 -.205910542700106 .00807299772700228 .0079 32 240 42 0 23
9 0 235 0 +-.0782144933201712 -1471719745854346e-35 .160502886979327 -.205910542
7001055 -433680868994202e-33 .97857081930995 -.978570819309951 867361737988404e-
33 -.205910542700106 .00600365337292891 .005875 38 224 47 0 234 235 75 0 +241 74
 242 243 243 244 51 241 44 0 219 245 222 246 --.0063148917079883 190714762030226
e-34 -.002780673068949415 -.4029960969491975 -3930232875259955e-34 .915201696809
896 .005875 .915201696809896 -1301042606982604e-33 .4029960969491975 40 255 21 2
42 0 1 21 .0004211031541493495 .3887012054711735 ??-.00223220116450461 482808779
934951e-34 .00252586638203585 -.002558313112813945 -.0019116667540904 .002473111
40309016 -.00347815429080217 -.00360714301844769 .002284063858844805 -.004888139
58430597 -.00493892447210169 .001874074919846715 -.00656824897339391 -.005714561
21853433 .001178364554241084 -.0082025396456723 -.00585320099630261 .00025148337
2283298 -.00964969890784255 -.00542161799291877 -.000823067087815418 -.010881037
29036626 -.004431455810982915 -.001982238809058625 -.01180736587936508 -.0028496
6173065699 -.003055836838934305 -.01226867396378266 -.000870777211406614 -.00367
6954321645385 -.01225658940121532 .000983248547135066 -.003659800360082025 -.011
9078771669432 .002572417360463415 -.003185574697725845 -.01119780505068992 .0040
1830381264654 -.002326674050029275 -.01000329298919102 .00521247364896278 -.0011
29719345383444 -.00837348406377717 .0058322135795465 .000138157753145879 -.00664
440008223254 .0057341218982102 .001141007574682662 -.00505262151065047 .00504666
039488799 .001816307806807595 -.00367423751600879 .00384918456825095 .0022359258
18440175 -.00266031019989795 .00218223958835821 .00245509378049054 -.00223715387
8513205 .000238263577794298 .002525120207126975 -.00223220116450461 482808779934
951e-34 .00252586638203585 41 3 CI8 term_use0 0 1 cCZ1 243 H?-.00223220116450461
 482808779934951e-34 .00252586638203585 204 2 17 INTERSECTION_DATA17 Intersectio
n data7 uv_type0 0 1 u6 values0 1 1 fT84 244 4 0 .003211245555655045 3.290960867
59024 .0085 5.9517610722876 .003294385951745935 3.31298474372107 .01041166675409
04 5.62208997188959 .003492061723017265 3.37559943625357 .0121071430184477 5.284
66977742524 .003685057720410715 3.47353078422637 .0134389244721017 4.94662790277
211 .003725419939570345 3.594835512573915 .01421456121853432 4.62621745859339 .0
03535749471310085 3.72017309392671 .0143532009963026 4.31695270591212 .003135518
60123839 3.84041074053556 .01392161799291876 3.99616520998636 .00257086723724335
 3.95321160043965 .01293145581098292 3.648011630512975 .001961615304468345 4.047
779542931635 .011349661730657 3.290358170445385 .001579072887884265 4.0993644171
78795 .00937077721140661 2.97343988853456 .00158990219106608 4.097965536480905 .
00751675145286494 2.68837759184406 .001883384652555155 4.058720739215795 .005927
58263953659 2.388406449194585 .00238329569131565 3.98440954988674 .0044816961873
5346 2.05028796884895 .00299736696946929 3.871614882534335 .003287526351037225 1
.691557678470145 .00350092360567501 3.73384631924692 .002667786420453505 1.35136
2040399246 .003721919368131105 3.600490227212565 .0027658781017898 1.03332500967
1508 .003698474734873025 3.48515292507632 .00345333960511201 .714421323244974 .0
0352702648119331 3.38905991629446 .00465081543174905 .3805649252690335 .00331900
062096535 3.319889841073115 .00631776041164179 .040566628108633 .003212558579527
11 3.29129477478479 .0082617364222057 1085764751861792e-33 .003211245555655045 3
.29096086759024 .0085 14 219 15 247 ?248 0 249 73 241 +0 0 248 0 228 50 245 41 0
 250 0 241 0 +-.0782144933201712 -282697246146123e-34 .160502886979327 -.2059105
427001055 -433680868994202e-33 .97857081930995 .978570819309951 -867361737988404
e-33 .205910542700106 51 222 45 0 248 241 74 251 --.0063148917079883 19071476203
0226e-34 -.002780673068949415 -.4029960969491975 -3930232875259955e-34 .91520169
6809896 .0079 .915201696809896 -1301042606982604e-33 .4029960969491975 141 255 2
46 224 246 246 241 14 248 22 252 ?250 219 253 73 222 -0 0 250 219 228 141 251 75
 251 251 222 81 1 252 102 124 248 254 0 247 255 256 14 250 29 255 ?221 248 257 7
3 245 +0 0 221 248 228 15 253 27 0 237 248 258 13 228 9 0 0 0 0 0 0 76 219 17 23
7 0 253 237 237 0 233 230 0 0 -15 258 28 0 232 248 0 17 232 0 258 232 232 0 229
 77 0 0 -81 1 255 103 124 250 259 0 252 260 261 14 221 36 260 ?0 250 262 73 74 +
0 0 0 250 228 15 257 34 0 263 250 236 17 263 0 257 263 263 0 264 239 0 0 -15 236
 35 0 233 250 0 17 264 0 249 264 264 0 263 239 0 0 +16 239 11 0 ?264 234 0 240 0
 0 62 15 249 20 0 264 219 265 15 265 21 0 238 219 0 17 238 0 265 238 238 0 266 2
34 0 0 +17 266 0 262 266 266 0 238 234 0 0 -15 262 39 0 266 221 231 15 231 40 0
 229 221 0 81 1 260 104 124 221 267 0 255 0 268 81 1 267 98 143 221 0 260 259 0
 269 83 3 268 .792156862745098 .819607843137255 .933333333333333 81 1 259 95 143
 250 0 255 254 267 270 82 1 269 999999 81 1 254 92 143 248 0 252 271 259 272 82
 1 270 999999 81 1 271 89 143 219 0 247 0 254 273 82 1 272 999999 81 1 247 101 1
24 219 271 0 0 252 274 82 1 273 999999 83 3 274 .792156862745098 .81960784313725
5 .933333333333333 83 3 261 .792156862745098 .819607843137255 .933333333333333 8
3 3 256 .792156862745098 .819607843137255 .933333333333333 19 220 1 0 62 0 76 73
 0 S0 40 21 225 0 1 21 .000597958658170782 .3948182894534735 ??-929923716913583e
-19 76232965252887e-34 .0026925987238509 -.000534899652044792 -.0025064667878085
75 .002683346690831605 -.001763264045313815 -.00472721277455473 .002588889795737
32 -.00369118182036167 -.00654700756708674 .00223163440711567 -.0060283417468770
8 -.0076534053177808 .0014282099017362 -.00820361314873586 -.00788372094864054 .
0002507821574963265 -.01003904510020552 -.00740369407614922 -.001161819239168638
 -.0115901881667039 -.00625166585271424 -.00278516268156717 -.01280633031349276
 -.00429161795310503 -.00449699753486123 -.01340590248953544 -.00209557281765885
 -.00557793933878102 -.01356814111254878 -496082324831958e-19 -.0059113685956694
3 -.01342008058769042 .00200481735092271 -.00560625956608261 -.01297211298376 .0
0385311131232846 -.0047755604093872 -.01203966411921674 .00569715031366503 -.003
36024273568254 -.01033404925854508 .00725091673103227 -.00143478916962972 -.0080
4206067529474 .00789363315044413 .000354848126593199 -.00579143220350522 .007582
78470151786 .001529769324429275 -.003755980050615755 .00659109283532228 .0022150
29171833515 -.00193653772542083 .00494326956734889 .002567355764397025 -.0005781
33710301951 .002623608816190315 .0026817415524094 -929923716913583e-19 155261139
2317135e-33 .0026925987238509 41 1 226 H?-929923716913583e-19 1552611392317135e-
33 .0026925987238509 204 84 227 4 0 .002501746483734115 3.14779218474813 .0085 5
.96033143030355 .002671365916611805 3.17726019246036 .01100646678780858 5.641705
96210635 .003079944862064895 3.259416011507305 .01322721277455472 5.306341555848
72 .003529927462787165 3.390225202517255 .01504700756708675 4.96290154766263 .00
373649832053699 3.555171988123645 .0161534053177808 4.64818076428221 .0035355403
35891915 3.72025857585478 .01638372094864055 4.356039203390215 .0029823970534062
35 3.87481808828759 .0159036940761492 4.05460686191264 .002121814982026515 4.024
643613162905 .01475166585271424 3.71588736042303 .00104524135812482 4.1647483380
77545 .01279161795310502 3.41006869644789 .000297586831809211 4.24717776669487 .
01059557281765884 3.14787221795912 578133419876508e-19 4.271898737789535 .008549
6082324832 2.88501229477828 .0002773818299473385 4.24928916866654 .0064951826490
7729 2.63209861525025 .000857109911749904 4.186359575764215 .00464688868767155 2
.336119850499435 .00177663779523381 4.073308035553985 .002802849686334975 1.9789
94494339695 .002851460034264785 3.901613585602675 .001249083268967732 1.61094700
8003235 .00356567667114026 3.707447221047235 .000606366849555878 1.2864533224387
1 .00373397205520386 3.53798774688271 .000917215298482148 .986890065211471 .0035
40843757162575 3.394684675280435 .00190890716467773 .67606744845634 .00313006549
683025 3.27105652065694 .00355673043265111 .3385315890176095 .002687320047937085
 3.18014444977692 .00587639118380969 1937649925329365e-31 .002501746483734115 3.
14779218474813 .0085 141 223 75 275 275 74 141 275 224 223 223 74 74 20 218 5 0
 0 276 216 267 260 70 0 0 0 0 0 0 0 0 0 0 0 0 0 0 0 81 2 276 4 153 62 0 216 0 0
 277 0 81 2 216 62 155 62 276 70 0 0 278 0 83 1 278 1e2 98 9 277 -14440 -18564 -
20300 -20944 47 -19816 -18004 -20944 52 84 46 217 Final_New_Arm_Front_Upper(2T)(
기본<가공 상태>)81 1 60 97 5 52 279 0 0 0 280 70 61 0 4 T52 0 0 5 20 1 281 281 1
3 63 10 0 52 0 282 0 0 283 0 51 64 46 0 284 285 0 286 --693889390390723e-32 .008
5 -.012307113020673 0 -1 -216840434497101e-33 .015 362614804719566e-31 -21684043
4497101e-33 -1 38 65 48 0 67 287 0 0 +285 64 288 289 289 290 19 66 8 0 52 283 0
 291 0 V0 16 67 14 0 ?292 0 293 65 0 0 52 17 292 0 294 292 292 0 295 67 0 0 +16
 293 13 0 ?296 67 297 298 0 0 52 17 296 0 299 296 296 0 300 293 0 0 +16 297 12 0
 ?301 293 302 287 0 0 52 32 298 43 0 293 303 287 0 +.0782144933201713 1998468359
928115e-35 .160502886979327 .205910542700106 1084202172485504e-34 .9785708193099
5 .978570819309951 0 -.205910542700106 .00807299772700229 .0079 32 303 42 0 302
 0 298 0 +.0782144933201713 1998468359928115e-35 .160502886979327 .2059105427001
06 1084202172485504e-34 .97857081930995 .978570819309951 0 -.205910542700106 .00
600365337292891 .005875 38 287 47 0 297 298 65 0 +304 64 305 306 306 307 51 304
 44 0 282 308 285 309 -.00631489170798838 -2747563122656135e-35 -.00278067306894
9385 .4029960969491975 1337253265477726e-34 .915201696809896 .005875 .9152016968
09896 0 -.402996096949198 40 21 305 0 1 21 .0003944359803938365 .370290319178856
5 ??.01231218977300912 -16940658945086e-33 -.003739150427768555 .012126494426326
8 -.001776643735299295 -.003478289037363275 .01158916293193976 -.003347068821869
715 -.002783914895203105 .0106406813468765 -.00469063874262927 -.001734700785320
33 .00919023051734984 -.00562573643370999 -.000452170463327045 .0074632336287166
7 -.00586435425948759 .00070442585077464 .00579242714097859 -.00544141778500056
 .00152935285094516 .00430139042572141 -.004485062882153635 .002062926659352675
 .00308549355238145 -.003032087333548195 .002372114804325575 .002355357329890965
 -.00118326657818939 .00250680920973338 .00228513438106546 .000777643288671293 .
00251780387152145 .002847688330401575 .00259854237893247 .00242009551227358 .003
96446150736089 .004166478292331465 .002159505276519135 .00551515968712933 .00530
978905917632 .001642188525478455 .00720916005446857 .00583965604638914 .00084689
8204388907 .00877783632721141 .00575293199127587 -.0001436599989078496 .01014693
640698944 .00511262533783307 -.001259955850047054 .01127840802711146 .0038970848
2084981 -.002417850541904005 .0120450334155907 .00211598821817779 -.003367472646
62532 .01230208920378864 .000420753125289512 -.003724654094349675 .0123121897730
0912 -33881317890172e-34 -.003739150427768555 41 1 306 H?.01231218977300912 -338
81317890172e-34 -.003739150427768555 204 84 307 4 0 .00153968760729915 2.1787603
7023565 .0085 5.97596796084477 .00170359389449566 2.200107794812075 .01027664373
52993 5.67702768451444 .00212254379261571 2.258649357631385 .01184706882186972 5
.35854108295699 .00270055194948861 2.352976247856805 .01319063874262926 5.004728
86070251 .00328979985327103 2.482142943398195 .01412573643371 4.65217953840755 .
0036523457568984 2.62082184968603 .0143643542594876 4.32579539857692 .0037339918
5388294 2.745125654471445 .01394141778500056 4.01017643991509 .0036214375320542
 2.85075023947093 .01298506288215364 3.683884027671855 .00341440535271817 2.9344
14142720425 .0115320873335482 3.344386877515565 .003243435853193315 2.9839162893
14395 .00968326657818939 3.008838243909335 .003225198612024655 2.98865485664735
 .00772235671132871 2.68342544405272 .0033624828017543 2.95058747534535 .0059014
5762106753 2.35324714534181 .00357404540731188 2.87411727373044 .004333521707668
535 2.01303961528361 .003725521552964195 2.7650825084395 .00319021094082368 1.68
054179436898 .00368034603791477 2.640241704292385 .00266034395361086 1.366591107
853172 .003405955904760795 2.516479431066395 .002747068008724135 1.0556773177976
96 .00293606203613973 2.39864405158508 .00338737466216693 .725264752519042 .0023
3233349614302 2.29066264754112 .00460291517915019 .368448195474953 .001772184773
953205 2.20927689782268 .00638401178182221 .0716789169332919 .00154888418626883
 2.17993825009608 .00807924687471049 267707129661307e-32 .00153968760729915 2.17
876037023565 .0085 14 282 15 310 ?311 0 312 63 304 +0 0 311 0 291 50 308 41 0 31
3 0 304 0 +.0782144933201713 22790480237061e-33 .160502886979327 .20591054270010
6 1084202172485504e-34 .97857081930995 .978570819309951 0 -.205910542700106 51 2
85 45 0 311 304 64 314 -.00631489170798838 -2747563122656135e-35 -.0027806730689
49385 .4029960969491975 1337253265477726e-34 .915201696809896 .0079 .91520169680
9896 0 -.402996096949198 141 309 287 309 309 304 14 311 22 315 ?313 282 316 63 2
85 -0 0 313 282 291 141 314 65 314 314 285 81 1 315 94 124 311 317 0 310 318 319
 14 313 29 318 ?284 311 320 63 308 +0 0 284 311 291 15 316 27 0 300 311 321 13 2
91 9 0 0 0 0 0 0 66 282 17 300 0 316 300 300 0 296 293 0 0 -15 321 28 0 295 311
 0 17 295 0 321 295 295 0 292 67 0 0 -81 1 318 95 124 313 322 0 315 323 324 14 2
84 36 323 ?0 313 325 63 64 +0 0 0 313 291 15 320 34 0 326 313 299 17 326 0 320 3
26 326 0 327 302 0 0 -15 299 35 0 296 313 0 17 327 0 312 327 327 0 326 302 0 0 +
16 302 11 0 ?327 297 0 303 0 0 52 15 312 20 0 327 282 328 15 328 21 0 301 282 0
 17 301 0 328 301 301 0 329 297 0 0 +17 329 0 325 329 329 0 301 297 0 0 -15 325
 39 0 329 284 294 15 294 40 0 292 284 0 81 1 323 96 124 284 330 0 318 0 331 81 1
 330 90 143 284 0 323 322 0 332 83 3 331 .792156862745098 .819607843137255 .9333
33333333333 81 1 322 87 143 313 0 318 317 330 333 82 1 332 999999 81 1 317 84 14
3 311 0 315 334 322 335 82 1 333 999999 81 1 334 81 143 282 0 310 0 317 336 82 1
 335 999999 81 1 310 93 124 282 334 0 0 315 337 82 1 336 999999 83 3 337 .792156
862745098 .819607843137255 .933333333333333 83 3 324 .792156862745098 .819607843
137255 .933333333333333 83 3 319 .792156862745098 .819607843137255 .933333333333
333 19 283 1 0 52 0 66 63 0 S0 40 21 288 0 1 21 .000580356229216835 .39468643117
6426 ??.01356822910503866 -33881317890172e-33 -.00591155526914095 .0133798179358
6672 -.002251799571053015 -.0055262228134023 .01283131344528632 -.00423005177496
1365 -.00453811081518905 .01177141432421844 -.00604480311121415 -.00301013475848
559 .00990845860714967 -.00746351038314748 -.001045565701125752 .007582122752083
13 -.00789702089995304 .000635507060761181 .0053753015466578 -.00743718160487822
 .001696676940708825 .003377401212497885 -.00632075264528985 .00230771373334014
 .00161956697011597 -.00453645812493994 .00260519742503962 .0004037251508147015
 -.00210807065980616 .0026874528617592 .0001128197035659348 .000535949420045504
 .00269246269714274 .000700762207990854 .002928184422582865 .002676509115774925
 .002029649048684995 .00505368253898374 .002554936795525695 .0040603909971191 .0
0678678168503763 .00213287399284312 .00640548775062937 .00774764424348698 .00125
6431010167064 .00852496853984629 .00784993268669508 348848481742936e-19 .0103108
962118479 .00726383479304424 -.001412829230147766 .01181531866200392 .0059914908
7433146 -.003065995939102075 .01296020456832544 .003887188150692745 -.0047550869
6489456 .01345871944868446 .001730411250161205 -.0056842080083991 .0135682291050
3866 115196480826585e-33 -.00591155526914096 41 1 289 H?.01356822910503866 11519
6480826585e-33 -.00591155526914096 204 84 290 4 0 576779587397056e-19 2.01127281
1214585 .0085 5.99413931769059 .0003344059102696945 2.03986903536293 .0107517995
71053 5.71814531589363 .00101768251880968 2.11522971296946 .01273005177496136 5.
41188781505896 .001988953589639325 2.239282302628785 .01454480311121414 5.046359
86840417 .00303616664166737 2.420023035437305 .0159635103831475 4.68492536900358
 .0036371830160224 2.61166044383679 .01639702089995305 4.36839554618891 .0037190
27158302905 2.77508905626056 .01593718160487825 4.06904667433041 .00347310303097
2405 2.91448532077161 .01482075264528986 3.75326232729962 .00303696027162548 3.0
33410630343925 .01303645812493994 3.41170985204529 .002622261079197065 3.1146743
9285711 .01060807065980616 3.073698806579825 .0025096123292183 3.134071269103275
 .0079640505799545 2.761877146368825 .002731950118994055 3.09485816268275 .00557
181557741714 2.447476106409195 .00315622313530376 3.00586638437587 .003446317461
01626 2.108110845956285 .003588331621258265 2.86748009606335 .001713218314962375
 1.767508544273715 .00373127435498889 2.70038418614753 .000752355756513025 1.458
152283890498 .003467455720414715 2.53711637540006 .000650067313304919 1.16673731
8585524 .002862227220689 2.38369911215116 .00123616520695576 .86088023323332 .00
195552261912001 2.234545650358385 .002508509125668535 .514441981570207 .00087104
819794808 2.09840472181589 .00461281184930725 .220829852470349 .0002216145934467
25 2.028096160560385 .0067695887498388 181065351299776e-31 576779587397043e-19 2
.011272811214585 .0085 141 286 65 338 338 64 141 338 287 286 286 64 74 20 281 5
 0 0 339 279 330 323 60 0 0 0 0 0 0 0 0 0 0 0 0 0 0 0 81 2 339 3 153 52 0 279 0
 0 340 0 81 2 279 62 155 52 339 60 0 0 341 0 83 1 341 1e2 98 9 340 -14440 -18564
 -20300 -20944 47 -19816 -18004 -20944 52 84 46 280 Final_New_Arm_Front_Upper(2T
)(기본<가공 상태>)81 1 50 249 5 39 342 0 0 0 343 70 51 0 4 T39 0 0 5 20 1 344 34
4 13 53 31 0 39 0 345 0 0 346 0 51 54 30 0 345 347 0 0 -0 .0085 -.01230711302067
3 0 -1 0 .015 0 0 -1 31 55 156 0 348 349 0 0 -0 -.0055 -.012307113020673 0 -1 0
 0 0 -1 .00981389321319526 19 56 9 0 39 346 0 350 0 V0 16 57 5 0 ?351 0 352 353
 0 0 39 17 351 0 354 351 351 0 355 57 0 0 +16 352 20 0 ?356 57 357 349 0 0 39 31
 353 7 0 57 358 349 0 +0 .0085 -.012307113020673 0 1 0 0 0 1 .015 31 358 93 0 35
9 360 353 0 +0 .0085 -.012307113020673 0 1 0 0 0 1 .014 31 349 25 0 352 353 55 0
 +0 -.0085 -.012307113020673 0 1 0 0 0 1 .015 16 359 71 0 ?361 357 362 358 0 0 3
9 31 360 94 0 357 363 358 0 +0 .0055 -.012307113020673 0 1 0 0 0 1 .014 16 357 6
8 0 ?364 352 359 360 0 0 39 31 363 140 0 365 366 360 0 +0 -.0085 -.0123071130206
73 0 -1 0 0 0 -1 .014 16 365 118 0 ?367 362 368 363 0 0 39 31 366 141 0 362 369
 363 0 +0 -.0055 -.012307113020673 0 -1 0 0 0 -1 .014 16 362 115 0 ?370 359 365
 366 0 0 39 31 369 183 0 368 0 366 0 -0 .0055 -.012307113020673 0 1 0 0 0 1 .009
81389321319526 16 368 168 0 ?371 365 348 369 0 0 39 17 371 0 372 371 371 0 373 3
68 0 0 +16 348 169 0 ?374 368 0 55 0 0 39 17 374 0 375 374 374 0 376 348 0 0 +15
 375 154 0 374 377 378 17 376 0 379 376 376 0 374 348 0 0 -15 379 179 0 376 380
 0 14 380 176 381 ?0 377 382 53 383 +0 0 0 377 350 81 1 381 248 124 380 384 0 38
5 0 386 14 377 127 385 ?380 387 375 53 388 +0 0 380 387 350 15 382 178 0 373 380
 379 53 255 383 182 0 380 0 388 0 -0 0 -.012307113020673 .01125 0 1 102042557410
4004e-31 0 -1020425574104004e-31 1 13 350 10 0 0 0 0 0 0 56 345 14 345 27 389 ?3
90 0 391 53 54 -0 0 390 0 350 81 1 389 241 124 345 392 0 0 393 394 14 390 1 393
 ?395 345 396 53 397 +0 0 395 345 350 15 391 26 0 355 345 398 17 355 0 391 355 3
55 0 351 57 0 0 -15 398 28 0 356 345 0 17 356 0 398 356 356 0 399 352 0 0 +17 39
9 0 400 399 399 0 356 352 0 0 -15 400 19 0 399 395 0 14 395 18 401 ?402 390 403
 53 347 -0 0 402 390 350 81 1 401 243 124 395 404 0 393 405 406 14 402 74 405 ?4
07 395 408 53 409 -0 0 407 395 350 15 403 108 0 410 395 400 50 347 24 0 395 397
 54 0 +0 -.0085 -.012307113020673 0 1 0 0 0 1 50 397 3 0 390 409 347 0 +0 .0085
 -.012307113020673 0 1 0 0 0 1 51 409 90 0 402 411 397 0 +0 .0055 -.012307113020
673 0 1 0 .014 0 0 1 50 411 92 0 407 412 409 0 +0 .0055 -.012307113020673 0 1 0
 0 0 1 14 407 80 413 ?387 402 372 53 411 +0 0 387 402 350 51 412 137 0 387 388 4
11 0 +0 -.0055 -.012307113020673 0 -1 0 .014 0 0 -1 14 387 121 414 ?377 407 415
 53 412 -0 0 377 407 350 50 388 139 0 377 383 412 0 +0 -.0055 -.012307113020673
 0 -1 0 0 0 -1 81 1 414 246 124 387 416 0 413 385 417 15 415 125 0 418 387 419 1
7 418 0 415 418 418 0 370 362 0 0 -15 419 126 0 367 387 0 17 367 0 419 367 367 0
 410 365 0 0 +17 410 0 403 410 410 0 367 365 0 0 -17 370 0 378 370 370 0 418 362
 0 0 +15 378 130 0 370 377 0 81 1 416 238 143 387 0 414 420 0 421 81 1 413 245 1
24 407 420 0 405 414 422 81 1 385 247 124 377 423 0 414 381 424 83 3 417 .792156
862745098 .819607843137255 .933333333333333 81 1 423 220 143 377 0 385 384 392 4
25 83 3 424 .792156862745098 .819607843137255 .933333333333333 81 1 384 217 143
 380 0 381 0 423 426 81 1 392 223 143 345 0 389 423 427 428 82 1 425 -814218901
 81 1 427 226 143 390 0 393 392 404 429 82 1 428 -904986268 81 1 393 242 124 390
 427 0 389 401 430 81 1 404 229 143 395 0 401 427 431 432 82 1 429 -906952346 81
 1 431 232 143 402 0 405 404 420 433 82 1 432 -905248408 81 1 405 244 124 402 43
1 0 401 413 434 81 1 420 235 143 407 0 413 431 416 435 82 1 433 -861863578 82 1
 435 -861732501 83 3 434 .792156862745098 .819607843137255 .933333333333333 83 3
 430 .792156862745098 .819607843137255 .933333333333333 82 1 426 -678428309 83 3
 422 .792156862745098 .819607843137255 .933333333333333 82 1 421 -814349976 15 3
72 161 0 371 407 436 15 436 83 0 364 407 0 17 364 0 436 364 364 0 437 357 0 0 +1
7 437 0 408 437 437 0 364 357 0 0 -15 408 78 0 437 402 438 15 438 79 0 361 402 0
 17 361 0 438 361 361 0 439 359 0 0 +17 439 0 396 439 439 0 361 359 0 0 -15 396
 62 0 439 390 354 15 354 4 0 351 390 0 83 3 406 .792156862745098 .81960784313725
5 .933333333333333 83 3 394 .792156862745098 .819607843137255 .933333333333333 1
7 373 0 382 373 373 0 371 368 0 0 -83 3 386 .792156862745098 .819607843137255 .9
33333333333333 19 346 32 0 39 0 56 53 0 S0 74 20 344 5 0 0 440 416 342 381 50 0
 0 0 0 0 0 0 0 0 0 0 0 0 0 0 81 2 440 54 153 39 0 342 0 0 441 0 81 2 342 195 155
 39 440 50 0 0 442 0 83 1 442 1 98 5 441 -12553 45 -10612 -14332 49 84 46 343 Fi
nal_New_Arm_Front_Upper(2T)(기본<가공 상태>)81 1 37 150 5 27 443 0 0 0 444 70 38
 0 4 T27 0 0 4 20 1 445 445 13 40 35 0 27 0 446 0 0 447 0 50 41 70 0 446 448 0 0
 +4286263797015735e-33 -.054 0 -1224646799147352e-31 1 0 -1 -1224646799147352e-3
1 0 31 42 73 0 44 449 0 0 +4286263797015735e-33 -.054 0 -1224646799147352e-31 1
 0 -1 -1224646799147352e-31 0 .005725 19 43 39 0 27 447 0 450 0 V0 16 44 53 0 ?4
51 0 452 42 0 0 27 17 451 0 453 451 451 0 454 44 0 0 +16 452 48 0 ?455 44 456 44
9 0 0 27 17 455 0 457 455 455 0 458 452 0 0 +16 456 43 0 ?459 452 0 460 0 0 27 3
1 449 72 0 452 460 42 0 +2449293598294715e-34 -.021 0 -1224646799147352e-31 1 0
 -1 -1224646799147352e-31 0 .005725 31 460 71 0 456 0 449 0 +757378690244238e-49
 -.019 0 -1224646799147352e-31 1 0 -1 -1224646799147352e-31 0 .00505 17 459 0 46
1 459 459 0 462 456 0 0 +15 461 45 0 459 463 0 17 462 0 464 462 462 0 459 456 0
 0 -15 464 91 0 462 465 457 14 465 51 466 ?463 467 464 40 468 -0 0 463 467 450 1
5 457 50 0 455 465 0 81 1 466 148 124 465 469 0 470 471 472 14 463 46 471 ?0 465
 461 40 473 -0 0 0 465 450 14 467 56 470 ?465 446 474 40 448 -0 0 465 446 450 52
 255 468 68 0 465 473 448 0 -2449293598294715e-34 -.021 0 1224646799147352e-31 -
1 0 .005725 .319778644158181 .947492278987199 1 1224646799147352e-31 0 13 450 38
 0 0 0 0 0 0 43 446 14 446 61 475 ?467 0 476 40 41 -0 0 467 0 450 81 1 475 146 1
24 446 477 0 0 470 478 15 476 93 0 454 446 0 17 454 0 476 454 454 0 451 44 0 0 -
81 1 477 144 143 446 0 475 479 0 480 81 1 470 147 124 467 479 0 475 466 481 83 3
 478 .650980392156863 .619607843137255 .588235294117647 81 1 479 142 143 467 0 4
70 482 477 483 83 3 481 .650980392156863 .619607843137255 .588235294117647 81 1
 482 140 143 463 0 471 469 479 484 82 1 483 2116289002 81 1 471 149 124 463 482
 0 466 0 485 81 1 469 138 143 465 0 466 0 482 486 82 1 484 2115109354 82 1 486 2
115699178 83 3 485 .650980392156863 .619607843137255 .588235294117647 82 1 480 2
116878826 50 473 67 0 463 0 468 0 +378689345122119e-49 -.019 0 1224646799147352e
-31 -1 0 1 1224646799147352e-31 0 51 448 69 0 467 468 41 0 -0 -.019 0 -122464679
9147352e-31 1 0 .005725 -1 -1224646799147352e-31 0 15 474 92 0 458 467 453 17 45
8 0 474 458 458 0 455 452 0 0 -15 453 55 0 451 467 0 83 3 472 .650980392156863 .
619607843137255 .588235294117647 19 447 34 0 27 0 43 40 0 S0 74 20 445 4 0 0 477
 443 471 37 0 0 0 0 0 0 0 0 0 0 0 0 0 0 0 0 81 2 443 128 153 27 0 37 0 0 487 0 9
8 3 487 -10612 -14332 49 84 16 444 Rod End Body_M1281 1 25 455 5 12 488 0 0 0 48
9 70 26 0 4 T12 0 0 4 20 1 490 490 13 28 29 0 12 0 491 0 0 492 0 51 29 28 0 493
 494 0 0 -0 -.017 0 0 -1 0 .00625 0 0 -1 31 30 23 0 495 496 0 0 +0 -.019 0 0 1 0
 0 0 1 .00625 29 255 31 70 0 34 497 0 -.00574978260458602 -.017 .00245 19 32 7 0
 12 492 0 498 0 V0 16 33 75 0 ?499 0 500 501 502 503 12 18 255 34 68 0 504 0 505
 31 ?12 17 504 0 506 507 507 34 508 500 0 509 -18 505 65 0 510 34 511 497 ?12 17
 510 0 512 513 509 505 514 515 0 516 -18 511 62 0 513 505 517 518 ?12 29 497 67
 0 505 518 31 -.00625 -.017 0 29 518 64 0 511 519 497 -.00574978260458602 -.017
 -.00245 29 519 61 0 517 520 518 .00574978260458602 -.017 -.00245 18 517 59 0 49
9 511 521 519 ?12 29 520 58 0 521 522 519 .00625 -.017 0 18 521 56 0 523 517 524
 520 ?12 29 522 199 0 524 525 520 .00574978260458602 -.017 .00245 18 524 134 0 5
26 521 527 522 ?12 29 525 204 0 528 529 522 .00625 -.017 -.00245 18 528 131 0 53
0 531 532 525 ?12 29 529 205 0 532 533 525 -.00625 -.017 -.00245 18 532 129 0 53
4 528 535 529 ?12 29 533 207 0 535 536 529 .01218076499564094 -.0084064834574849
5 -.00245 18 535 139 0 537 532 538 533 ?12 29 536 208 0 527 539 533 .00625 -.017
 .00245 18 527 138 0 540 524 541 536 ?12 29 539 209 0 541 542 536 -.00625 -.017
 .00245 18 541 137 0 543 527 544 539 ?12 29 542 210 0 544 545 539 -.012180764995
64096 -.00840648345748494 .00245 18 544 136 0 546 541 531 542 ?12 29 545 211 0 5
31 547 542 .01218076499564094 -.00840648345748495 .00245 18 531 133 0 548 544 52
8 545 ?12 29 547 290 0 538 0 545 -.01218076499564096 -.00840648345748494 -.00245
 18 538 233 0 549 535 0 547 ?12 17 549 0 550 551 552 538 553 554 0 555 -15 550 1
77 0 556 557 558 17 551 0 550 556 549 535 559 560 0 0 -17 552 0 550 549 561 532
 562 502 0 0 -17 553 0 563 564 555 532 549 554 0 552 +16 554 101 0 ?553 503 565
 566 0 0 12 17 555 0 563 553 546 538 567 568 0 559 +15 563 167 0 553 569 0 17 54
6 0 563 555 570 544 543 571 0 567 -17 567 0 572 573 559 544 555 568 0 574 -16 56
8 104 0 ?555 575 576 577 0 0 12 17 559 0 572 567 578 538 551 560 0 0 +15 572 249
 0 578 579 0 17 578 0 572 559 573 535 580 575 0 551 +16 560 224 0 ?559 581 582 5
83 0 0 12 16 581 227 0 ?574 584 560 585 0 0 12 16 582 231 0 ?586 560 587 588 0 0
 12 31 583 285 0 560 589 590 0 +0 0 -.00245 0 0 1 1 0 0 .0148 31 589 286 0 584 5
85 583 0 +0 0 .00245 0 0 1 1 0 0 .013075 31 590 284 0 591 583 592 0 +0 0 .006 0
 0 1 1 0 0 .013075 16 591 223 0 ?593 594 595 590 0 0 12 31 592 283 0 595 590 596
 0 +0 0 -.006 0 0 1 1 0 0 .013075 16 595 230 0 ?597 591 584 592 0 0 12 31 596 28
2 0 594 592 598 0 +0 0 -.00245 0 0 1 1 0 0 .013075 16 594 228 0 ?599 565 591 596
 0 0 12 31 598 281 0 587 596 600 0 +0 0 -.006 0 0 1 1 0 0 .00951643315533714 16
 587 229 0 ?601 582 0 598 0 0 12 30 255 600 197 0 602 598 603 0 +.00625 -.017 .0
0245 .568005639019253 .823024661867632 0 16 602 108 0 ?548 571 502 600 0 0 12 30
 603 195 0 571 600 604 0 +-.00625 -.017 .00245 .568005639019253 -.82302466186763
2 0 16 571 114 0 ?543 605 602 603 0 0 12 30 604 194 0 606 603 607 0 +.00625 -.01
7 .00245 1 0 0 16 606 117 0 ?608 609 605 604 605 500 12 30 607 193 0 565 604 566
 0 +.00625 -.017 -.00245 .568005639019253 .823024661867632 0 16 565 92 0 ?537 55
4 594 607 0 0 12 30 566 191 0 554 607 501 0 +-.00625 -.017 -.00245 .568005639019
253 -.823024661867632 0 30 501 190 0 502 566 610 0 +.00625 -.017 -.00245 1 0 0 1
6 502 85 0 ?562 602 503 501 503 33 12 30 610 189 0 611 501 612 0 +.00625 -.017 .
00245 0 0 -1 16 611 95 0 ?613 614 609 610 609 609 12 30 612 188 0 576 610 577 0
 +-.00625 -.017 .00245 0 0 -1 16 576 90 0 ?615 568 614 612 614 614 12 30 577 187
 0 568 612 616 0 +-.01218076499564096 -.00840648345748494 .00245 0 0 -1 30 616 1
86 0 575 577 496 0 +.01218076499564094 -.00840648345748495 .00245 0 0 -1 16 575
 100 0 ?578 495 568 616 0 0 12 31 496 5 0 617 616 30 0 +0 -.017 0 0 1 0 0 0 1 .0
0625 16 617 4 0 ?618 500 619 496 620 619 12 17 618 0 621 622 623 521 526 617 0 6
24 +16 500 71 0 ?508 33 617 604 606 605 12 16 619 57 0 ?625 617 626 496 617 626
 12 16 620 69 0 ?507 515 495 496 515 617 12 17 507 0 506 504 504 524 509 620 0 6
23 +16 515 66 0 ?514 627 620 496 627 620 12 16 495 18 0 ?628 620 575 30 0 0 12 1
7 628 0 629 628 628 0 630 495 0 0 +15 629 26 0 628 493 0 17 630 0 631 630 630 0
 628 495 0 0 -15 631 17 0 630 632 0 14 632 16 633 ?634 635 631 28 494 -0 0 634 6
35 498 81 1 633 440 124 632 636 0 637 638 639 14 634 140 638 ?640 632 621 28 641
 -640 642 640 632 498 14 635 1 637 ?632 493 506 28 643 +491 491 632 493 498 50 4
94 22 0 632 643 29 0 +0 -.019 0 0 1 0 0 0 1 13 498 8 0 0 0 0 0 0 32 491 14 491 7
7 644 ?493 0 645 28 643 +635 635 493 0 498 81 1 644 437 124 491 646 0 0 647 648
 14 493 25 647 ?635 491 512 28 29 -0 0 635 491 498 15 645 3 0 649 491 0 50 643 2
 0 635 650 494 0 +0 -.017 0 0 1 0 0 0 1 50 650 180 0 651 652 643 0 +.00625 -.017
 .00245 -.823024661867632 .568005639019253 0 -.568005639019253 -.823024661867632
 0 14 651 156 653 ?569 642 654 28 650 -0 0 569 642 498 50 652 182 0 569 641 650
 0 +-.00625 -.017 .00245 .823024661867632 .568005639019253 0 -.568005639019253 .
823024661867632 0 14 569 164 655 ?656 651 563 28 652 -0 0 656 651 498 50 641 183
 0 634 657 652 0 +.00625 -.017 .00245 0 1 0 0 0 1 50 657 184 0 557 658 641 0 +0
 0 -.00245 0 0 1 1 0 0 14 557 175 659 ?660 656 550 28 657 -0 0 660 656 498 50 65
8 185 0 656 661 657 0 +0 0 .00245 0 0 1 1 0 0 14 656 172 662 ?557 569 663 28 658
 +0 0 557 569 498 51 661 272 0 660 664 658 0 -0 0 .006 0 0 -1 .013075 -1 0 0 14
 660 239 665 ?666 557 667 28 661 -668 668 666 557 498 50 664 273 0 669 670 661 0
 +0 0 -.006 0 0 1 1 0 0 14 669 258 671 ?668 579 672 28 664 -0 0 668 579 498 50 6
70 274 0 666 673 664 0 +0 0 .006 0 0 1 1 0 0 14 666 243 674 ?579 660 675 28 670
 +0 0 579 660 498 51 673 275 0 579 676 670 0 -0 0 .00245 0 0 -1 .0148 -1 0 0 14
 579 247 677 ?669 666 572 28 673 -0 0 669 666 498 53 676 278 0 678 0 673 0 +0 0
 0 .01125 0 0 -1 0 -1 0 14 678 266 679 ?0 668 680 28 676 -0 0 0 668 498 81 1 679
 454 124 678 681 0 682 0 683 14 668 262 682 ?678 669 684 28 661 -660 660 678 669
 498 15 680 268 0 586 678 685 17 586 0 680 586 586 0 686 582 0 0 +15 685 269 0 6
87 678 0 17 687 0 685 687 687 0 601 587 0 0 -17 601 0 672 601 601 0 687 587 0 0
 +15 672 260 0 601 669 688 15 688 261 0 689 669 0 17 689 0 688 689 689 0 597 595
 0 0 -17 597 0 684 597 597 0 689 595 0 0 +15 684 264 0 597 668 690 15 690 265 0
 691 668 0 17 691 0 690 691 691 0 599 594 0 0 -17 599 0 558 599 599 0 691 594 0
 0 +15 558 257 0 599 557 0 17 686 0 675 686 686 0 586 582 0 0 -15 675 245 0 686
 666 692 15 692 246 0 593 666 0 17 593 0 692 593 593 0 693 591 0 0 +17 693 0 694
 693 693 0 593 591 0 0 -15 694 242 0 693 660 0 81 1 682 453 124 668 695 0 671 67
9 696 81 1 695 429 143 668 0 682 681 697 698 81 1 671 452 124 669 699 0 677 682
 700 83 3 696 .650980392156863 .619607843137255 .588235294117647 81 1 699 421 14
3 669 0 671 701 702 703 81 1 677 451 124 579 704 0 674 671 705 83 3 700 .6509803
92156863 .619607843137255 .588235294117647 81 1 704 425 143 579 0 677 702 681 70
6 81 1 674 450 124 666 702 0 665 677 707 83 3 705 .650980392156863 .619607843137
255 .588235294117647 81 1 702 423 143 666 0 674 699 704 708 81 1 665 449 124 660
 701 0 659 674 709 83 3 707 .650980392156863 .619607843137255 .588235294117647 8
1 1 701 419 143 660 0 665 710 699 711 81 1 659 448 124 557 712 0 662 665 713 83
 3 709 .650980392156863 .619607843137255 .588235294117647 81 1 712 413 143 557 0
 659 714 710 715 81 1 662 447 124 656 710 0 655 659 716 83 3 713 .65098039215686
3 .619607843137255 .588235294117647 81 1 710 416 143 656 0 662 712 701 717 81 1
 655 446 124 569 714 0 653 662 718 83 3 716 .650980392156863 .619607843137255 .5
88235294117647 81 1 714 411 143 569 0 655 719 712 720 81 1 653 445 124 651 719 0
 721 655 722 83 3 718 .650980392156863 .619607843137255 .588235294117647 81 1 71
9 409 143 651 0 653 723 714 724 81 1 721 444 124 642 697 0 725 653 726 83 3 722
 .650980392156863 .619607843137255 .588235294117647 14 642 152 721 ?651 727 728
 28 641 -634 727 651 727 498 81 1 697 431 143 642 0 721 695 729 730 81 1 725 443
 124 727 729 0 731 721 732 83 3 726 .650980392156863 .619607843137255 .588235294
117647 14 727 148 725 ?642 640 733 28 641 -642 640 642 640 498 81 1 729 433 143
 727 0 725 697 734 735 81 1 731 442 124 640 734 0 638 725 736 83 3 732 .65098039
2156863 .619607843137255 .588235294117647 14 640 144 731 ?727 634 737 28 641 -72
7 634 727 634 498 81 1 734 435 143 640 0 731 729 0 738 81 1 638 441 124 634 739
 0 633 731 740 83 3 736 .650980392156863 .619607843137255 .588235294117647 81 1
 739 401 143 634 0 638 636 741 742 83 3 740 .650980392156863 .619607843137255 .5
88235294117647 81 1 636 399 143 632 0 633 0 739 743 81 1 741 403 143 635 0 637 7
39 646 744 82 1 742 149684722 81 1 637 439 124 635 741 0 647 633 745 81 1 646 40
5 143 491 0 644 741 723 746 82 1 744 2088436210 81 1 723 407 143 493 0 647 646 7
19 747 82 1 746 145424882 81 1 647 438 124 493 723 0 644 637 748 82 1 747 209040
2290 83 3 748 .650980392156863 .619607843137255 .588235294117647 83 3 745 .65098
0392156863 .619607843137255 .588235294117647 82 1 743 2090140137 82 1 738 149225
970 15 737 147 0 624 640 0 17 624 0 737 625 749 521 530 609 0 613 -17 625 0 737
 749 624 517 523 619 0 750 +17 749 0 737 624 625 528 750 503 0 556 +17 530 0 654
 537 613 528 624 609 0 749 +16 609 96 0 ?530 611 606 610 611 611 12 17 613 0 654
 530 751 521 622 611 0 0 +15 654 159 0 537 651 0 17 751 0 654 613 580 527 548 60
2 0 0 -17 622 0 621 623 618 527 613 611 0 751 -15 621 143 0 623 634 0 17 623 0 6
21 618 622 524 540 605 0 508 -17 540 0 663 548 508 527 623 605 0 622 +16 605 123
 0 ?540 606 571 604 500 606 12 17 508 0 663 540 608 524 504 500 0 0 +15 663 174
 0 548 656 752 17 608 0 663 508 543 34 753 606 0 0 +17 543 0 663 608 574 541 546
 571 0 570 +17 753 0 728 615 514 541 608 606 0 0 -15 728 155 0 615 642 0 17 615
 0 728 514 753 505 570 576 0 0 +17 514 0 728 753 615 34 510 515 0 608 +17 570 0
 563 546 564 541 615 576 0 753 -17 564 0 563 570 553 505 534 614 0 615 -17 534 0
 733 562 516 532 564 614 0 553 +16 614 89 0 ?534 576 611 612 576 576 12 15 733 1
51 0 562 727 0 17 562 0 733 516 534 511 552 502 0 0 +17 516 0 733 534 562 505 51
3 627 0 564 +17 513 0 512 754 510 511 516 627 0 649 -16 627 63 0 ?516 626 515 49
6 626 515 12 16 626 60 0 ?649 619 627 496 619 627 12 17 649 0 645 499 499 511 75
4 626 0 561 +17 499 0 645 649 649 517 561 33 0 754 +17 754 0 512 523 513 517 649
 626 0 625 -17 561 0 550 552 750 511 499 33 0 562 -17 750 0 550 561 556 517 749
 503 0 0 -17 556 0 550 750 551 528 537 565 0 0 -16 503 82 0 ?749 502 554 501 33
 502 12 17 537 0 654 580 530 535 556 565 0 578 +17 580 0 654 751 537 531 578 575
 0 573 -17 573 0 572 578 567 531 574 581 0 0 -17 574 0 663 543 548 544 573 581 0
 0 +17 548 0 663 574 540 531 751 602 0 580 +15 512 24 0 526 493 629 17 523 0 512
 526 754 521 625 619 0 618 -17 526 0 512 509 523 524 618 617 0 507 -17 509 0 512
 510 526 34 507 620 0 514 -15 752 253 0 755 656 0 17 755 0 752 755 755 0 756 584
 0 0 -17 756 0 667 756 756 0 755 584 0 0 +16 584 222 0 ?756 595 581 589 0 0 12 1
5 667 241 0 756 660 694 82 1 735 148767218 82 1 730 148308466 82 1 724 140902898
 82 1 720 141230578 82 1 717 141754866 82 1 715 141623794 82 1 711 152502770 82
 1 708 152633842 81 1 681 427 143 678 0 679 704 695 757 82 1 706 153420274 82 1
 757 152109554 82 1 703 153879026 82 1 698 152240626 83 3 683 .650980392156863 .
619607843137255 .588235294117647 83 3 648 .650980392156863 .619607843137255 .588
235294117647 15 506 72 0 504 635 0 83 3 639 .650980392156863 .619607843137255 .5
88235294117647 31 585 287 0 581 588 589 0 +0 0 .00245 0 0 1 1 0 0 .0148 31 588 2
88 0 582 0 585 0 +0 0 .006 0 0 1 1 0 0 .00951643315533714 19 492 30 0 12 0 32 28
 0 S0 74 20 490 4 0 0 734 488 679 25 0 0 0 0 0 0 0 0 0 0 0 0 0 0 0 0 81 2 488 37
5 153 12 0 25 0 0 758 0 98 6 758 -17164 -15708 45 -19508 -12900 54 84 16 489 Rod
 End Body_M1281 1 10 201 5 7 759 0 0 0 760 70 11 0 4 T7 0 0 4 20 1 761 761 13 13
 41 0 7 0 762 0 0 763 0 53 14 82 0 762 764 0 0 -0 0 0 .01125 -1 0 0 0 1 0 31 15
 88 0 17 765 0 0 +-.00810547710029715 0 0 -1 0 0 0 0 1 .00780152170903591 19 16
 45 0 7 763 0 766 0 V0 16 17 69 0 ?767 0 768 15 0 0 7 17 767 0 769 767 767 0 770
 17 0 0 +16 768 64 0 ?771 17 772 765 0 0 7 17 771 0 773 771 771 0 774 768 0 0 +1
6 772 59 0 ?775 768 776 777 0 0 7 31 765 87 0 768 777 15 0 +-.00810547710029715
 0 0 -1 0 0 0 0 1 .0065 31 777 86 0 772 778 765 0 +-.00760547710029717 0 0 -1 0
 0 0 0 1 .006 31 778 85 0 776 779 777 0 +.0076054771002971 0 0 -1 0 0 0 0 1 .006
 16 776 54 0 ?780 772 781 778 0 0 7 31 779 84 0 781 782 778 0 +.0081054771002970
8 0 0 -1 0 0 0 0 1 .0065 16 781 49 0 ?783 776 784 779 0 0 7 31 782 83 0 784 0 77
9 0 +.00810547710029708 0 0 -1 0 0 0 0 1 .00780152170903597 16 784 47 0 ?785 781
 0 782 0 0 7 17 785 0 786 785 785 0 787 784 0 0 +15 786 74 0 785 762 0 17 787 0
 788 787 787 0 785 784 0 0 -15 788 113 0 787 789 790 14 789 52 791 ?0 792 788 13
 793 -0 0 0 792 766 15 790 51 0 783 789 0 17 783 0 790 783 783 0 794 781 0 0 +17
 794 0 795 794 794 0 783 781 0 0 -15 795 114 0 794 792 796 14 792 57 797 ?789 79
8 795 13 799 -0 0 789 798 766 15 796 56 0 780 792 0 17 780 0 796 780 780 0 800 7
76 0 0 +17 800 0 801 800 800 0 780 776 0 0 -15 801 115 0 800 798 802 14 798 62 8
03 ?792 804 801 13 805 -0 0 792 804 766 15 802 61 0 775 798 0 17 775 0 802 775 7
75 0 806 772 0 0 +17 806 0 807 806 806 0 775 772 0 0 -15 807 116 0 806 804 773 1
4 804 67 808 ?798 809 807 13 810 -0 0 798 809 766 15 773 66 0 771 804 0 81 1 808
 197 124 804 811 0 812 803 813 14 809 72 812 ?804 762 814 13 764 -0 0 804 762 76
6 54 255 810 80 0 804 805 764 0 --.00760547710029717 0 0 -1 0 0 .0065 .000499999
999999978 0 0 1 13 766 44 0 0 0 0 0 0 16 762 14 762 75 815 ?809 0 816 13 14 -0 0
 809 0 766 81 1 815 195 124 762 817 0 0 812 818 15 816 118 0 770 762 786 17 770
 0 816 770 770 0 767 17 0 0 -81 1 817 193 143 762 0 815 819 0 820 81 1 812 196 1
24 809 819 0 815 808 821 83 3 818 .792156862745098 .819607843137255 .93333333333
3333 81 1 819 191 143 809 0 812 811 817 822 83 3 821 .792156862745098 .819607843
137255 .933333333333333 81 1 811 189 143 804 0 808 823 819 824 82 1 822 -8092383
74 81 1 823 187 143 798 0 803 825 811 826 82 1 824 -809828198 81 1 803 198 124 7
98 823 0 808 797 827 81 1 825 185 143 792 0 797 828 823 829 82 1 826 -810418022
 81 1 797 199 124 792 825 0 803 791 830 81 1 828 183 143 789 0 791 0 825 831 82
 1 829 -811007846 81 1 791 200 124 789 828 0 797 0 832 82 1 831 -811597670 83 3
 832 .792156862745098 .819607843137255 .933333333333333 83 3 830 .79215686274509
8 .819607843137255 .933333333333333 83 3 827 .792156862745098 .819607843137255 .
933333333333333 82 1 820 -808910694 51 805 79 0 798 799 810 0 +-.008000000000000
09 0 0 -1 0 0 .006 0 0 1 50 764 81 0 809 810 14 0 +-.00810547710029715 .00780152
170903591 0 1 0 0 0 0 -1 54 799 78 0 792 793 805 0 -.0076054771002971 0 0 -1 0 0
 .0065 .000499999999999978 0 0 1 50 793 77 0 789 0 799 0 +.00810547710029708 .00
65 0 -1 0 0 0 0 1 15 814 117 0 774 809 769 17 774 0 814 774 774 0 771 768 0 0 -1
5 769 71 0 767 809 0 83 3 813 .792156862745098 .819607843137255 .933333333333333
 19 763 40 0 7 0 16 13 0 S0 74 20 761 4 0 0 817 759 791 10 0 0 0 0 0 0 0 0 0 0 0
 0 0 0 0 0 81 2 759 153 153 7 0 10 0 0 833 0 98 3 833 -10612 -14332 49 84 22 760
 Rod End Ball Joint_M1274 20 6 1 0 0 2 0 0 0 0 0 0 0 0 0 0 0 0 0 0 0 0 0 0 0 1 0
 
