**ABCDEFGHIJKLMNOPQRSTUVWXYZabcdefghijklmnopqrstuvwxyz**************************
**PARASOLID !"#$%&'()*+,-./:;<=>?@[\]^_`{|}~0123456789**************************
**PART1;
MC=AMD64;
MC_MODEL=Intel64 Family 6 Model 151 Stepping 2, GenuineIntel;
MC_ID=unknown;
OS=Windows_NT;
OS_RELEASE=unknown;
FRU=Parasolid Version 35.1, build 210,  4-20-2023;
APPL=SOLIDWORKS 2024-2023282;
SITE=;
USER=unknown;
FORMAT=text;
GUISE=transmit;
KEY=Final_New_Arm_Fornt Upper_Assemble(1T);
FILE=Final_New_Arm_Fornt Upper_Assemble(1T).x_t;
DATE=Mon Dec 25 21:58:36 2023;
**PART2;
SCH=SCH_3501210_35102;
USFLD_SIZE=0;
**PART3;
**END_OF_HEADER*****************************************************************
T51 : TRANSMIT FILE created by modeller version 350121023 SCH_3501210_35102_1300
6231 0 10 21 CCCCI7 lattice222 0 CCCI4 mesh1006 0 I8 polyline1008 0 CCCCCCCCCCA1
6 mesh_offset_data206 0 Z1 25 2 3 0 0 0 0 0 0 0 0 1e3 1e-8 0 0 0 1 0 1 4 0 81 25
5 1 2 25 5 1 0 0 0 0 0 70 11 CI9 list_type0 0 1 uI10 notransmit0 0 1 lCCCDCCDI12
 finger_index0 0 1 dI12 finger_block1012 0 CZ3 0 4 T1 0 0 1 20 1 6 6 11 255 4 23
 0 1 7 8 1 9 0 9 0 12 36 CCCI7 lattice222 0 CCCI4 mesh1006 0 I8 polyline1008 0 C
CCCCCCDI5 owner1040 0 CCCI16 boundary_lattice222 0 CCCI13 boundary_mesh1006 0 I1
7 boundary_polyline1008 0 CCCA16 index_map_offset0 0 1 dA9 index_map82 0 A17 nod
e_id_index_map82 0 A20 schema_embedding_map82 0 A5 child12 0 A14 lowest_node_id0
 0 1 dA16 mesh_offset_data206 0 Z7 201 10 11 0 0 0 0 0 0 0 1e3 1e-8 4 12 0 1 0 1
 1 13 0 14 15 0 0 0 16 17 0 0 0 0 0 0 0 0 100 10 CCCCCCCCCA9 precision229 0 Z8 2
4 4 0 0 603900610074426e-31 -.880602259694292 -.473856159843161 1 10538445116559
1e-30 598479599211999e-31 1014813233446432e-31 -.473856159843161 .88060225969429
1 -.02089777197700785 .00758832199546486 -.096405 1 3 ?0 11 9 21 0 1 7 18 1 19 4
 19 4 100 18 22 9 0 0 1 0 0 0 1 0 0 0 1 .0573167213431635 .00758832199546515 .13
4015 1 1 ?0 11 19 19 0 1 7 20 1 21 9 0 9 100 20 20 19 0 0 1 0 0 0 1 0 0 0 1 -.09
91122652971791 .00758832199546485 .134015 1 1 ?0 11 21 17 0 1 12 22 1 23 19 24 0
 12 12 455 25 26 0 0 0 0 0 0 0 1e3 1e-8 21 27 7 1 0 1 1 28 0 29 30 31 0 0 32 33
 34 0 0 0 0 0 0 0 100 22 18 21 0 0 333066907387547e-30 1207893556009916e-30 -1 -
1 -1455671871797262e-31 -166533453693773e-30 -243916319112491e-30 1 115538852967
1544e-30 .0573167213431635 .00758832199546481 .134015 1 3 ?0 11 23 15 0 1 27 35
 1 24 21 36 0 12 27 150 37 38 0 0 0 0 0 0 0 1e3 1e-8 23 39 12 1 0 1 1 40 0 41 42
 0 0 0 43 44 0 0 0 0 0 0 0 0 100 35 16 23 0 0 333066907387547e-30 12078935560099
16e-30 -1 -1 -1455671871797262e-31 -166533453693773e-30 -243916319112491e-30 1 1
155388529671544e-30 .0573167213431635 .00758832199546481 .134015 1 3 ?0 11 24 13
 0 1 12 45 1 36 23 0 21 100 45 14 24 0 0 -555111512312582e-31 -1015649088093432e
-30 -1 -1 -441689749381647e-30 555111512312582e-31 -441689749381647e-30 1 -10156
49088093432e-30 -.0991122652971791 .00758832199546482 .134015 1 3 ?0 11 36 11 0
 1 27 46 1 47 24 0 23 100 46 12 36 0 0 -555111512312582e-31 -1015649088093432e-3
0 -1 -1 -441689749381647e-30 555111512312582e-31 -441689749381647e-30 1 -1015649
088093432e-30 -.0991122652971791 .00758832199546482 .134015 1 3 ?0 11 47 9 0 1 3
9 48 1 49 36 0 0 12 39 250 50 51 0 0 0 0 0 0 0 1e3 1e-8 47 52 27 1 0 1 1 53 0 54
 55 0 0 0 56 57 0 0 0 0 0 0 0 0 100 48 10 47 0 0 1 0 0 0 1 0 0 0 1 -.02089777197
700785 .00758832199546485 -.0840978869793271 1 1 ?0 11 49 7 0 1 52 58 1 59 47 0
 0 12 52 116 60 61 0 0 0 0 0 0 0 1e3 1e-8 49 62 39 1 0 1 1 63 0 64 65 0 0 0 66 6
7 0 0 0 0 0 0 0 0 100 58 8 49 0 0 1 0 0 0 1 0 0 0 1 -.02089777197700785 .0075883
2199546485 -.0840978869793271 1 1 ?0 11 59 5 0 1 62 68 1 69 49 0 0 12 62 98 70 7
1 0 0 0 0 0 0 0 1e3 1e-8 59 72 52 1 0 1 1 73 0 74 75 0 0 0 76 77 0 0 0 0 0 0 0 0
 100 68 6 59 0 0 1 0 0 0 1 0 0 0 1 -.02089777197700785 .00758832199546485 -.0840
978869793271 1 1 ?0 11 69 3 0 1 72 78 1 79 59 0 0 12 72 104 80 81 0 0 0 0 0 0 0
 1e3 1e-8 69 82 62 1 0 1 1 83 0 84 85 0 0 0 86 87 0 0 0 0 0 0 0 0 100 78 4 69 0
 0 1 0 0 0 1 0 0 0 1 -.02089777197700785 .00758832199546485 -.0840978869793271 1
 1 ?0 11 79 1 0 1 82 88 1 0 69 0 0 12 82 104 89 90 0 0 0 0 0 0 0 1e3 1e-8 79 91
 72 1 0 1 1 92 0 93 94 0 0 0 95 96 0 0 0 0 0 0 0 0 100 88 2 79 0 0 1 0 0 0 1 0 0
 0 1 -.02089777197700785 .00758832199546485 -.0840978869793271 1 1 ?0 81 1 89 10
4 5 82 97 0 0 0 98 70 90 0 4 T82 0 0 5 20 1 99 99 13 255 92 7 0 82 0 100 0 0 101
 0 50 255 93 41 0 102 103 0 0 +-.0782144933201712 1181213914725724e-36 .16050288
6979327 .205910542700106 216840434497101e-33 -.978570819309951 -.978570819309951
 -1301042606982604e-33 -.205910542700106 32 255 94 43 0 104 105 0 0 +-.078214493
3201712 1181213914725724e-36 .160502886979327 .205910542700106 216840434497101e-
33 -.978570819309951 .978570819309951 1301042606982604e-33 .205910542700106 .006
00365337292891 .005875 19 9 CCCCCCI5 frame230 0 CA5 owner12 0 Z95 5 0 82 101 0 1
06 0 V0 16 255 96 15 0 ?107 0 108 105 0 0 82 17 255 107 0 109 107 107 0 110 96 0
 0 +16 108 12 0 ?111 96 112 113 0 0 82 32 105 42 0 96 113 94 0 +-.07821449332017
12 1181213914725724e-36 .160502886979327 .205910542700106 216840434497101e-33 -.
978570819309951 .978570819309951 1301042606982604e-33 .205910542700106 .00705109
928054631 .0069 31 255 113 38 0 108 114 105 0 +-.0782144933201712 -7246102165964
52e-36 .195502886979327 1165734175856414e-30 406575814682064e-34 -1 -1 -13010426
06982604e-33 -1165734175856414e-30 .005875 31 114 37 0 112 0 113 0 +-.0782144933
201712 -724610216596452e-36 .195502886979327 1165734175856414e-30 40657581468206
4e-34 -1 -1 -1301042606982604e-33 -1165734175856414e-30 .0069 16 112 9 0 ?115 10
8 104 114 0 0 82 17 115 0 116 115 115 0 117 112 0 0 +16 104 8 0 ?118 112 0 94 0
 0 82 17 118 0 119 118 118 0 120 104 0 0 +15 255 119 20 0 118 100 0 17 120 0 121
 120 120 0 118 104 0 0 -15 121 34 0 120 102 109 14 255 102 31 122 ?0 123 121 92
 93 +0 0 0 123 106 15 109 35 0 107 102 0 81 1 122 103 124 102 125 0 126 0 127 14
 123 26 126 ?102 128 129 92 130 -0 0 102 128 106 13 106 6 0 0 0 0 0 0 95 100 14
 100 16 131 ?128 0 132 92 133 +0 0 128 0 106 81 1 131 100 124 100 134 0 0 135 13
6 14 128 21 135 ?123 100 116 92 103 -0 0 123 100 106 15 132 19 0 137 100 119 51
 255 133 39 0 100 130 103 0 --.0782144933201712 757697441098573e-36 .16050288697
9327 -119002030452009e-29 -542101086242752e-34 1 .005875 1 1301042606982604e-33
 119002030452009e-29 50 130 36 0 123 0 133 0 +-.0782144933201712 -72461021659645
2e-36 .195502886979327 1165734175856414e-30 406575814682064e-34 -1 -1 -130104260
6982604e-33 -1165734175856414e-30 51 103 40 0 128 133 93 0 --.0782144933201712 7
57697441098573e-36 .160502886979327 -119002030452009e-29 -542101086242752e-34 1
 .0069 1 1301042606982604e-33 119002030452009e-29 17 137 0 132 137 137 0 111 108
 0 0 -17 111 0 129 111 111 0 137 108 0 0 +15 129 29 0 111 123 138 15 138 30 0 11
7 123 0 17 117 0 138 117 117 0 115 112 0 0 -81 1 135 101 124 128 139 0 131 126 1
40 15 116 24 0 115 128 141 15 141 25 0 110 128 0 17 110 0 141 110 110 0 107 96 0
 0 -80 7 CCCCCDI12 legal_owners0 16 1 lCZ1 124 0 142 8001 0 0 0 0 3 5 0 0 0 FFFF
TFTFFFFFFFFF2 81 1 139 97 143 128 0 135 134 0 144 81 1 126 102 124 123 145 0 135
 122 146 83 255 3 140 .792156862745098 .819607843137255 .933333333333333 81 1 14
5 91 143 123 0 126 125 134 147 83 3 146 .792156862745098 .819607843137255 .93333
3333333333 80 1 143 148 149 9000 1 1 1 1 1 1 1 1 0 FFFFTFTFFFFFFFFF1 81 1 125 88
 143 102 0 122 0 145 150 81 1 134 94 143 100 0 131 145 139 151 82 255 1 147 9235
33623 82 1 151 934347063 82 1 150 933232951 79 255 14 149 SWEntUnchanged82 1 144
 932708663 79 15 142 SDL/TYSA_COLOUR83 3 136 .792156862745098 .819607843137255 .
933333333333333 83 3 127 .792156862745098 .819607843137255 .933333333333333 19 1
01 1 0 82 0 95 92 0 S0 74 4 CI16 index_map_offset0 0 1 dCCZ20 99 5 0 0 152 97 13
9 122 89 0 0 0 0 0 0 0 0 0 0 0 0 0 0 0 81 2 152 52 153 82 0 97 0 0 154 0 81 2 97
 68 155 82 152 89 0 0 156 0 80 2 155 157 158 8004 0 0 0 0 3 5 0 0 0 FFTFFFFFFFFF
FFFF2 3 83 1 156 1 79 16 158 SDL/TYSA_DENSITY80 2 153 159 160 9000 0 0 0 0 3 5 0
 0 0 FFTFTTTFFTFFFFFF10 10 98 255 27 154 67 105 114 99 117 108 97 114 32 116 117
 98 101 32 50 49 46 51 32 88 32 50 46 51 40 49 41 79 23 160 SWIMPLICITBODYNAME_I
D_U80 1 5 161 162 8017 0 0 0 0 0 0 0 0 0 TTTTTTTTTTTTTFTF3 84 255 46 98 Final_Ne
w_Arm_Front_Upper(1T)(±âº»<°¡°ø »óÅÂ>)79 13 162 SDL/TYSA_NAME81 1 80 104 5 72 16
3 0 0 0 164 70 81 0 4 T72 0 0 5 20 1 165 165 13 83 7 0 72 0 166 0 0 167 0 50 84
 41 0 168 169 0 0 +.0782144933201713 -761006163548785e-37 .160502886979327 -.205
910542700106 216840434497101e-33 -.97857081930995 -.97857081930995 4336808689942
02e-33 .205910542700106 32 85 43 0 170 171 0 0 +.0782144933201713 -7610061635487
85e-37 .160502886979327 -.205910542700106 216840434497101e-33 -.97857081930995 -
.97857081930995 433680868994202e-33 .205910542700106 .00600365337292891 .005875
 19 86 5 0 72 167 0 172 0 V0 16 87 15 0 ?173 0 174 171 0 0 72 17 173 0 175 173 1
73 0 176 87 0 0 +16 174 12 0 ?177 87 178 179 0 0 72 32 171 42 0 87 179 85 0 +.07
82144933201713 -761006163548785e-37 .160502886979327 -.205910542700106 216840434
497101e-33 -.97857081930995 -.97857081930995 433680868994202e-33 .20591054270010
6 .00705109928054631 .0069 31 179 38 0 174 180 171 0 +.0782144933201713 13565762
04586964e-37 .195502886979327 -128716481917479e-29 0 -1 -1 433680868994202e-33 1
26634813746307e-29 .005875 31 180 37 0 178 0 179 0 +.0782144933201713 1356576204
586964e-37 .195502886979327 -128716481917479e-29 0 -1 -1 433680868994202e-33 126
634813746307e-29 .0069 16 178 9 0 ?181 174 170 180 0 0 72 17 181 0 182 181 181 0
 183 178 0 0 +16 170 8 0 ?184 178 0 85 0 0 72 17 184 0 185 184 184 0 186 170 0 0
 +15 185 20 0 184 166 0 17 186 0 187 186 186 0 184 170 0 0 -15 187 34 0 186 168
 175 14 168 31 188 ?0 189 187 83 84 +0 0 0 189 172 15 175 35 0 173 168 0 81 1 18
8 103 124 168 190 0 191 0 192 14 189 26 191 ?168 193 194 83 195 -0 0 168 193 172
 13 172 6 0 0 0 0 0 0 86 166 14 166 16 196 ?193 0 197 83 198 +0 0 193 0 172 81 1
 196 100 124 166 199 0 0 200 201 14 193 21 200 ?189 166 182 83 169 -0 0 189 166
 172 15 197 19 0 202 166 185 51 198 39 0 166 195 169 0 -.0782144933201713 -76100
6163548785e-37 .160502886979327 120042864537595e-29 0 1 .005875 1 0 -11796119636
6423e-29 50 195 36 0 189 0 198 0 +.0782144933201713 1356576204586964e-37 .195502
886979327 -128716481917479e-29 0 -1 -1 433680868994202e-33 126634813746307e-29 5
1 169 40 0 193 198 84 0 -.0782144933201713 -761006163548785e-37 .160502886979327
 120042864537595e-29 0 1 .0069 1 0 -117961196366423e-29 17 202 0 197 202 202 0 1
77 174 0 0 -17 177 0 194 177 177 0 202 174 0 0 +15 194 29 0 177 189 203 15 203 3
0 0 183 189 0 17 183 0 203 183 183 0 181 178 0 0 -81 1 200 101 124 193 204 0 196
 191 205 15 182 24 0 181 193 206 15 206 25 0 176 193 0 17 176 0 206 176 176 0 17
3 87 0 0 -81 1 204 97 143 193 0 200 199 0 207 81 1 191 102 124 189 208 0 200 188
 209 83 3 205 .792156862745098 .819607843137255 .933333333333333 81 1 208 91 143
 189 0 191 190 199 210 83 3 209 .792156862745098 .819607843137255 .9333333333333
33 81 1 190 88 143 168 0 188 0 208 211 81 1 199 94 143 166 0 196 208 204 212 82
 1 210 999999 82 1 212 999999 82 1 211 999999 82 1 207 999999 83 3 201 .79215686
2745098 .819607843137255 .933333333333333 83 3 192 .792156862745098 .81960784313
7255 .933333333333333 19 167 1 0 72 0 86 83 0 S0 74 20 165 5 0 0 213 163 204 188
 80 0 0 0 0 0 0 0 0 0 0 0 0 0 0 0 81 2 213 52 153 72 0 163 0 0 214 0 81 2 163 68
 155 72 213 80 0 0 215 0 83 1 215 1 98 27 214 67 105 114 99 117 108 97 114 32 11
6 117 98 101 32 50 49 46 51 32 88 32 50 46 51 40 50 41 84 46 164 Final_New_Arm_F
ront_Upper(1T)(±âº»<°¡°ø »óÅÂ>)81 1 70 98 5 62 216 0 0 0 217 70 71 0 4 T62 0 0 5
 20 1 218 218 13 73 10 0 62 0 219 0 0 220 0 51 74 46 0 221 222 0 223 --693889390
390723e-32 .0075 -.012307113020673 867361737988404e-33 -1 0 .015 -15592182493057
15e-32 0 -1 38 12 CCCCCCCCCCCA17 intersection_data204 0 Z75 48 0 77 224 0 0 +222
 74 225 226 226 227 19 76 8 0 62 220 0 228 0 V0 16 77 14 0 ?229 0 230 75 0 0 62
 17 229 0 231 229 229 0 232 77 0 0 +16 230 13 0 ?233 77 234 235 0 0 62 17 233 0
 236 233 233 0 237 230 0 0 +16 234 12 0 ?238 230 239 224 0 0 62 32 235 43 0 230
 240 224 0 +-.0782144933201712 3605183981751115e-35 .160502886979327 -.205910542
7001055 650521303491303e-33 .97857081930995 -.978570819309951 867361737988404e-3
3 -.205910542700106 .00705109928054631 .0069 32 240 42 0 239 0 235 0 +-.07821449
33201712 3605183981751115e-35 .160502886979327 -.2059105427001055 65052130349130
3e-33 .97857081930995 -.978570819309951 867361737988404e-33 -.205910542700106 .0
0600365337292891 .005875 38 224 47 0 234 235 75 0 +241 74 242 243 243 244 51 241
 44 0 219 245 222 246 --.0063148917079883 -1975969047266675e-35 -.00278067306894
9425 -.4029960969491975 167500765319538e-33 .915201696809896 .005875 .9152016968
09896 0 .4029960969491975 40 255 21 242 0 1 21 .0004211031541493495 .38870120547
11735 ??-.00223220116450461 -372694496791892e-34 .002525866382035835 -.002558313
112813925 -.0019116667540904 .002473111403090145 -.00347815429080217 -.003607143
01844769 .00228406385884479 -.00488813958430599 -.00493892447210168 .00187407491
98467 -.00656824897339391 -.00571456121853433 .001178364554241056 -.008202539645
67229 -.00585320099630261 .000251483372283298 -.00964969890784256 -.005421617992
91876 -.000823067087815418 -.01088103729036624 -.004431455810982915 -.0019822388
0905861 -.0118073658793651 -.00284966173065699 -.003055836838934315 -.0122686739
6378266 -.000870777211406613 -.003676954321645385 -.0122565894012153 .0009832485
47135065 -.00365980036008204 -.01190787716694318 .002572417360463415 -.003185574
69772586 -.01119780505068992 .00401830381264654 -.002326674050029275 -.010003292
98919102 .00521247364896278 -.001129719345383444 -.00837348406377717 .0058322135
795465 .000138157753145851 -.00664440008223254 .0057341218982102 .00114100757468
2648 -.00505262151065047 .00504666039488799 .00181630780680758 -.003674237516008
775 .00384918456825095 .002235925818440165 -.00266031019989796 .0021822395883582
1 .00245509378049054 -.00223715387851321 .0002382635777942975 .00252512020712697
5 -.00223220116450461 -101643953670516e-34 .002525866382035835 41 3 CI8 term_use
0 0 1 cCZ1 243 H?-.00223220116450461 -101643953670516e-34 .002525866382035835 20
4 2 17 INTERSECTION_DATA17 Intersection data7 uv_type0 0 1 u6 values0 1 1 fT84 2
44 4 0 .003211245555655045 3.29096086759024 .0075 5.9517610722876 .0032943859517
45935 3.31298474372107 .0094116667540904 5.62208997188959 .003492061723017265 3.
37559943625357 .0111071430184477 5.28466977742524 .003685057720410715 3.47353078
422637 .01243892447210168 4.94662790277211 .003725419939570345 3.594835512573915
 .01321456121853432 4.62621745859339 .003535749471310085 3.72017309392671 .01335
32009963026 4.31695270591212 .00313551860123839 3.84041074053556 .01292161799291
876 3.99616520998636 .00257086723724335 3.95321160043965 .0119314558109829 3.648
011630512975 .001961615304468345 4.047779542931635 .010349661730657 3.2903581704
45385 .001579072887884265 4.099364417178795 .00837077721140661 2.97343988853456
 .00158990219106608 4.097965536480905 .00651675145286493 2.68837759184406 .00188
3384652555155 4.058720739215795 .00492758263953659 2.388406449194585 .0023832956
9131565 3.98440954988674 .00348169618735346 2.05028796884895 .00299736696946929
 3.871614882534335 .002287526351037225 1.691557678470145 .00350092360567501 3.73
384631924692 .001667786420453505 1.351362040399246 .003721919368131105 3.6004902
27212565 .001765878101789795 1.033325009671508 .003698474734873025 3.48515292507
632 .00245333960511201 .714421323244974 .00352702648119331 3.38905991629446 .003
65081543174905 .3805649252690335 .00331900062096535 3.319889841073115 .005317760
41164179 .040566628108633 .00321255857952711 3.29129477478479 .0072617364222057
 1085764751861792e-33 .003211245555655045 3.29096086759024 .0075 14 219 15 247 ?
248 0 249 73 241 +0 0 248 0 228 50 245 41 0 250 0 241 0 +-.0782144933201712 8946
78550537355e-35 .160502886979327 -.2059105427001055 650521303491303e-33 .9785708
1930995 .978570819309951 -867361737988404e-33 .205910542700106 51 222 45 0 248 2
41 74 251 --.0063148917079883 -1975969047266675e-35 -.002780673068949425 -.40299
60969491975 167500765319538e-33 .915201696809896 .0069 .915201696809896 0 .40299
60969491975 141 255 246 224 246 246 241 14 248 22 252 ?250 219 253 73 222 -0 0 2
50 219 228 141 251 75 251 251 222 81 1 252 95 124 248 254 0 247 255 256 14 250 2
9 255 ?221 248 257 73 245 +0 0 221 248 228 15 253 27 0 237 248 258 13 228 9 0 0
 0 0 0 0 76 219 17 237 0 253 237 237 0 233 230 0 0 -15 258 28 0 232 248 0 17 232
 0 258 232 232 0 229 77 0 0 -81 1 255 96 124 250 259 0 252 260 261 14 221 36 260
 ?0 250 262 73 74 +0 0 0 250 228 15 257 34 0 263 250 236 17 263 0 257 263 263 0
 264 239 0 0 -15 236 35 0 233 250 0 17 264 0 249 264 264 0 263 239 0 0 +16 239 1
1 0 ?264 234 0 240 0 0 62 15 249 20 0 264 219 265 15 265 21 0 238 219 0 17 238 0
 265 238 238 0 266 234 0 0 +17 266 0 262 266 266 0 238 234 0 0 -15 262 39 0 266
 221 231 15 231 40 0 229 221 0 81 1 260 97 124 221 267 0 255 0 268 81 1 267 91 1
43 221 0 260 259 0 269 83 3 268 .792156862745098 .819607843137255 .9333333333333
33 81 1 259 88 143 250 0 255 254 267 270 82 1 269 999999 81 1 254 85 143 248 0 2
52 271 259 272 82 1 270 999999 81 1 271 82 143 219 0 247 0 254 273 82 1 272 9999
99 81 1 247 94 124 219 271 0 0 252 274 82 1 273 999999 83 3 274 .792156862745098
 .819607843137255 .933333333333333 83 3 261 .792156862745098 .819607843137255 .9
33333333333333 83 3 256 .792156862745098 .819607843137255 .933333333333333 19 22
0 1 0 62 0 76 73 0 S0 40 21 225 0 1 21 .000478989761552499 .3864189347601 ??-.00
116579601037218 -101643953670516e-34 .00264751568291577 -.001551262183925715 -.0
0222006837449607 .002612457537380015 -.002631175099361915 -.004188301807114135 .
002460314568331735 -.00430379422337985 -.00576446490486938 .002062206910444215 -
.00630932667674602 -.00669977302778806 .001301428300354068 -.00821689358519172 -
.00688018462314882 .0002420965086015885 -.00986695089165 -.0064166895721911 -.00
100918046193607 -.0112681291055032 -.00532969584795267 -.00240614001486633 -.012
34667923604494 -.00353342982872707 -.00378892589886025 -.0128591279516283 -.0015
82297518084455 -.00458423607463454 -.01295852480981412 .000589360098364422 -.004
75220502960969 -.0126956464701206 .002426273204301235 -.004318335848557425 -.012
08825778475414 .00410799156470595 -.00342600814969374 -.0109507639629312 .005656
9534874899 -.002056221906815285 -.00918271965279005 .00669136893208373 -.0004463
516716590315 -.00714434844618715 .00686264522492041 .000882211650418532 -.005231
68896431308 .00629851133769414 .00175096048107985 -.003517200597187325 .00514497
000804615 .00227470099402166 -.002101851118595325 .003403880530627595 .002544897
680752585 -.001275346644517408 .001192708479029154 .00263857167211773 -.00116579
601037218 -101643953670516e-34 .00264751568291577 41 1 226 H?-.00116579601037218
 -101643953670516e-34 .00264751568291577 204 84 227 4 0 .00289282208735421 3.219
390843548735 .0075 5.9556091299728 .003016078176520905 3.24519537009877 .0097200
6837449607 5.63090485458682 .003312037363056045 3.317916562928375 .0116883018071
1414 5.29427114736875 .00362174753770619 3.43260235032632 .01326446490486938 4.9
5388367031557 .00373370341386653 3.575723219487745 .01419977302778806 4.63658437
190504 .00353294317934303 3.721316478418375 .01438018462314882 4.335883116327755
 .00305273902697302 3.859482429043355 .0139166895721911 4.02423488628211 .002338
90862506954 3.99148387253642 .01282969584795266 3.6792104284298 .001508032130685
92 4.10846205668926 .01103342982872706 3.372970100788735 .000986677740593818 4.1
7154644025054 .00908229751808446 3.056073945232475 .000873008813887087 4.1845582
0291347 .00691063990163558 2.78227686698363 .001164147679710656 4.15073697221918
5 .00507372679569877 2.503877652060315 .00173603223428738 4.078759416854645 .003
39200843529405 2.18044657082813 .002531257357538155 3.959989127744675 .001843046
5125101 1.817332330230565 .00329209837217677 3.80040895527382 .00080863106791626
6 1.466694191001292 .00368654613846694 3.63802308122122 .000637354775079589 1.15
015618833603 .003710832236401655 3.49786091292961 .001201488662305866 .841506529
886796 .00349922832231762 3.378276315234585 .002355029991953855 .515897822644001
 .003176132472794515 3.28217870477561 .004096119469372405 .1737288897805115 .002
92878499147439 3.22671853556978 .00630729152097085 0 .00289282208735421 3.219390
843548735 .0075 141 223 75 275 275 74 141 275 224 223 223 74 74 20 218 5 0 0 276
 216 267 260 70 0 0 0 0 0 0 0 0 0 0 0 0 0 0 0 81 2 276 4 153 62 0 216 0 0 277 0
 81 2 216 62 155 62 276 70 0 0 278 0 83 1 278 1 98 9 277 -14440 -18564 -20300 -2
0944 47 -19816 -18004 -20944 52 84 46 217 Final_New_Arm_Front_Upper(1T)(±âº»<°¡°
ø »óÅÂ>)81 1 60 116 5 52 279 0 0 0 280 70 61 0 4 T52 0 0 5 20 1 281 281 13 63 10
 0 52 0 282 0 0 283 0 51 64 46 0 284 285 0 286 -0 .0075 -.012307113020673 0 -1 0
 .015 1085591306519002e-31 0 -1 38 65 48 0 67 287 0 0 +285 64 288 289 289 290 19
 66 8 0 52 283 0 291 0 V0 16 67 14 0 ?292 0 293 65 0 0 52 17 292 0 294 292 292 0
 295 67 0 0 +16 293 13 0 ?296 67 297 298 0 0 52 17 296 0 299 296 296 0 300 293 0
 0 +16 297 12 0 ?301 293 302 287 0 0 52 32 298 43 0 293 303 287 0 +.078214493320
1713 1990527426047605e-35 .160502886979327 .205910542700106 216840434497101e-33
 .978570819309951 .978570819309951 0 -.2059105427001065 .00705109928054631 .0069
 32 303 42 0 302 0 298 0 +.0782144933201713 1990527426047605e-35 .16050288697932
7 .205910542700106 216840434497101e-33 .978570819309951 .978570819309951 0 -.205
9105427001065 .00600365337292891 .005875 38 287 47 0 297 298 65 0 +304 64 305 30
6 306 307 51 304 44 0 282 308 285 309 -.00631489170798838 -123216824045899e-34 -
.00278067306894937 .4029960969491975 -1816885671860475e-34 .915201696809896 .005
875 .915201696809896 867361737988404e-33 -.402996096949198 40 21 305 0 1 21 .000
3944359803938365 .3702903191788565 ??.01231218977300912 135525271560688e-34 -.00
373915042776858 .0121264944263268 -.001776643735299295 -.00347828903736329 .0115
8916293193976 -.003347068821869715 -.00278391489520312 .0106406813468765 -.00469
063874262927 -.00173470078532034 .00919023051734982 -.00562573643370999 -.000452
170463327087 .00746323362871668 -.00586435425948759 .000704425850774612 .0057924
2714097859 -.00544141778500056 .00152935285094516 .00430139042572141 -.004485062
88215364 .00206292665935265 .00308549355238145 -.003032087333548195 .00237211480
43256 .002355357329890955 -.00118326657818939 .00250680920973338 .00228513438106
5465 .000777643288671294 .00251780387152145 .002847688330401575 .002598542378932
47 .00242009551227357 .003964461507360885 .004166478292331465 .00215950527651910
5 .00551515968712933 .00530978905917632 .00164218852547844 .00720916005446857 .0
0583965604638914 .000846898204388907 .00877783632721142 .00575293199127587 -.000
1436599989078358 .01014693640698944 .00511262533783308 -.001259955850047054 .011
27840802711144 .003897084820849815 -.002417850541904035 .0120450334155907 .00211
598821817779 -.00336747264662532 .01230208920378864 .000420753125289512 -.003724
654094349675 .01231218977300912 135525271560688e-34 -.00373915042776858 41 1 306
 H?.01231218977300912 135525271560688e-34 -.00373915042776858 204 84 307 4 0 .00
153968760729915 2.17876037023565 .0075 5.97596796084477 .00170359389449566 2.200
107794812075 .0092766437352993 5.67702768451444 .00212254379261571 2.25864935763
1385 .0108470688218697 5.35854108295699 .00270055194948861 2.352976247856805 .01
219063874262926 5.00472886070251 .00328979985327103 2.482142943398195 .013125736
43371 4.65217953840755 .0036523457568984 2.62082184968603 .0133643542594876 4.32
579539857692 .00373399185388294 2.745125654471445 .01294141778500056 4.010176439
91509 .0036214375320542 2.85075023947093 .01198506288215364 3.683884027671855 .0
0341440535271817 2.934414142720425 .0105320873335482 3.344386877515565 .00324343
5853193315 2.983916289314395 .00868326657818939 3.008838243909335 .0032251986120
24655 2.98865485664735 .00672235671132871 2.68342544405272 .0033624828017543 2.9
5058747534535 .00490145762106753 2.35324714534181 .00357404540731188 2.874117273
73044 .003333521707668535 2.01303961528361 .003725521552964195 2.7650825084395 .
00219021094082368 1.68054179436898 .00368034603791477 2.640241704292385 .0016603
4395361086 1.366591107853172 .003405955904760795 2.516479431066395 .001747068008
724135 1.055677317797696 .00293606203613973 2.39864405158508 .002387374662166925
 .725264752519042 .00233233349614302 2.29066264754112 .00360291517915019 .368448
195474953 .001772184773953205 2.20927689782268 .00538401178182221 .0716789169332
919 .00154888418626883 2.17993825009608 .00707924687471049 267707129661307e-32 .
00153968760729915 2.17876037023565 .0075 14 282 15 310 ?311 0 312 63 304 +0 0 31
1 0 291 50 308 41 0 313 0 304 0 +.0782144933201713 -153524721689842e-35 .1605028
86979327 .205910542700106 216840434497101e-33 .978570819309951 .978570819309951
 0 -.2059105427001065 51 285 45 0 311 304 64 314 -.00631489170798838 -1232168240
45899e-34 -.00278067306894937 .4029960969491975 -1816885671860475e-34 .915201696
809896 .0069 .915201696809896 867361737988404e-33 -.402996096949198 141 309 287
 309 309 304 14 311 22 315 ?313 282 316 63 285 -0 0 313 282 291 141 314 65 314 3
14 285 81 1 315 113 124 311 317 0 310 318 319 14 313 29 318 ?284 311 320 63 308
 +0 0 284 311 291 15 316 27 0 300 311 321 13 291 9 0 0 0 0 0 0 66 282 17 300 0 3
16 300 300 0 296 293 0 0 -15 321 28 0 295 311 0 17 295 0 321 295 295 0 292 67 0
 0 -81 1 318 114 124 313 322 0 315 323 324 14 284 36 323 ?0 313 325 63 64 +0 0 0
 313 291 15 320 34 0 326 313 299 17 326 0 320 326 326 0 327 302 0 0 -15 299 35 0
 296 313 0 17 327 0 312 327 327 0 326 302 0 0 +16 302 11 0 ?327 297 0 303 0 0 52
 15 312 20 0 327 282 328 15 328 21 0 301 282 0 17 301 0 328 301 301 0 329 297 0
 0 +17 329 0 325 329 329 0 301 297 0 0 -15 325 39 0 329 284 294 15 294 40 0 292
 284 0 81 1 323 115 124 284 330 0 318 0 331 81 1 330 109 143 284 0 323 322 0 332
 83 3 331 .792156862745098 .819607843137255 .933333333333333 81 1 322 106 143 31
3 0 318 317 330 333 82 1 332 999999 81 1 317 103 143 311 0 315 334 322 335 82 1
 333 999999 81 1 334 100 143 282 0 310 0 317 336 82 1 335 999999 81 1 310 112 12
4 282 334 0 0 315 337 82 1 336 999999 83 3 337 .792156862745098 .819607843137255
 .933333333333333 83 3 324 .792156862745098 .819607843137255 .933333333333333 83
 3 319 .792156862745098 .819607843137255 .933333333333333 19 283 1 0 52 0 66 63
 0 S0 40 21 288 0 1 21 .000479763772537222 .381579295387577 ??.01297420550544774
 406575814682064e-34 -.0047791656575195 .01278213263561616 -.002030191597027545
 -.00445745791452244 .01222539018488882 -.003820397622796955 -.00361574748773030
5 .01120143736515316 -.00540356711780992 -.002330750910437095 .00953326973240322
 -.006567042714224 -.000726233597708403 .00750400742044693 -.00689317849626919 .
000680953526503172 .00555796067198319 -.00644341083086451 .001625190204877625 .0
03806041072835955 -.00539302712708157 .002201989341357735 .002320760123973065 -.
0037554766993811 .00251226862793083 .00136519003240468 -.001605105379309295 .002
630632999909315 .00120308921929599 .000697270247044388 .00264456167918632 .00179
3904257871655 .002814129144371635 .00258523090208107 .0030391528985494 .00467116
198378101 .002381779029418415 .00484609197143382 .00609946967943923 .00188849871
6917055 .00686130315497808 .00682174005554108 .001031647004737442 .0086998992705
7765 .00681215081494322 -877941901570173e-19 .010280902468638 .00618087137931937
 -.00138451971915557 .01160611709876954 .0049057517758344 -.00280458462610089 .0
125632730521089 .00291301996979894 -.00411173809220547 .01293002295848048 .00098
6729087456817 -.00470352792591884 .01297420550544774 -2303929616531695e-34 -.004
7791656575195 41 1 289 H?.01297420550544774 -2303929616531695e-34 -.004779165657
5195 204 84 290 4 0 .000854653660614687 2.09654783086385 .0075 5.98453485440128
 .001071676516010552 2.12152739223126 .00953019159702754 5.69640734790172 .00161
7646292184205 2.188818566674435 .01132039762279694 5.38350898176774 .00238102835
030428 2.298411739591975 .01290356711780992 5.02431152666046 .003177220272419215
 2.452870258239875 .014067042714224 4.66791906542616 .003647295524822225 2.61768
535913954 .0143931784962692 4.34656033651918 .00372721329094907 2.76201231563074
 .0139434108308645 4.038816381080215 .003549084078749015 2.88505186672428 .01289
302712708156 3.717113712444405 .003234489783040955 2.98625131009639 .01125547669
93811 3.376367452186865 .00295772603985404 3.050453866461265 .00910510537930929
 3.040366208739935 .00290514759576759 3.061300461674795 .00680272975295561 2.721
500272432915 .00308894412245268 3.02171210182932 .00468587085562837 2.3979410593
519 .003404574965297095 2.937569987600445 .00282883801621899 2.057282485100605 .
003681313380090365 2.81261804121995 .00140053032056077 1.721551268737795 .003709
243480685835 2.66650070963912 .000678259944458927 1.41105356882366 .003425676058
0921 2.52287220639816 .000687849185056784 1.110179438760206 .002876048771738425
 2.386448701305165 .001319128620680634 .790888727137828 .00211045928288488 2.256
86712215941 .0025942482241656 .4358452771109225 .001299880326082486 2.1488063703
2865 .00458698003020106 .1434961673261212 .000906072046937396 2.10238761233037 .
00651327091254318 0 .000854653660614688 2.09654783086385 .0075 141 286 65 338 33
8 64 141 338 287 286 286 64 74 20 281 5 0 0 339 279 330 323 60 0 0 0 0 0 0 0 0 0
 0 0 0 0 0 0 81 2 339 3 153 52 0 279 0 0 340 0 81 2 279 62 155 52 339 60 0 0 341
 0 83 1 341 1 98 9 340 -14440 -18564 -20300 -20944 47 -19816 -18004 -20944 52 84
 46 280 Final_New_Arm_Front_Upper(1T)(±âº»<°¡°ø »óÅÂ>)81 1 50 250 5 39 342 0 0 0
 343 70 51 0 4 T39 0 0 5 20 1 344 344 13 53 31 0 39 0 345 0 0 346 0 51 54 30 0 3
45 347 0 0 -0 .0075 -.012307113020673 0 -1 0 .015 0 0 -1 31 55 156 0 348 349 0 0
 -0 -.0045 -.012307113020673 0 -1 0 0 0 -1 .01031079531365064 19 56 9 0 39 346 0
 350 0 V0 16 57 5 0 ?351 0 352 353 0 0 39 17 351 0 354 351 351 0 355 57 0 0 +16
 352 20 0 ?356 57 357 349 0 0 39 31 353 7 0 57 358 349 0 +0 .0075 -.012307113020
673 0 1 0 0 0 1 .015 31 358 93 0 359 360 353 0 +0 .0075 -.012307113020673 0 1 0
 0 0 1 .014 31 349 25 0 352 353 55 0 +0 -.0075 -.012307113020673 0 1 0 0 0 1 .01
5 16 359 71 0 ?361 357 362 358 0 0 39 31 360 94 0 357 363 358 0 +0 .0045 -.01230
7113020673 0 1 0 0 0 1 .014 16 357 68 0 ?364 352 359 360 0 0 39 31 363 140 0 365
 366 360 0 +0 -.0075 -.012307113020673 0 -1 0 0 0 -1 .014 16 365 118 0 ?367 362
 368 363 0 0 39 31 366 141 0 362 369 363 0 +0 -.0045 -.012307113020673 0 -1 0 0
 0 -1 .014 16 362 115 0 ?370 359 365 366 0 0 39 31 369 183 0 368 0 366 0 -0 .004
5 -.012307113020673 0 1 0 0 0 1 .01031079531365064 16 368 168 0 ?371 365 348 369
 0 0 39 17 371 0 372 371 371 0 373 368 0 0 +16 348 169 0 ?374 368 0 55 0 0 39 17
 374 0 375 374 374 0 376 348 0 0 +15 375 154 0 374 377 378 17 376 0 379 376 376
 0 374 348 0 0 -15 379 179 0 376 380 0 14 380 176 381 ?0 377 382 53 383 +0 0 0 3
77 350 81 1 381 249 124 380 384 0 385 0 386 14 377 127 385 ?380 387 375 53 388 +
0 0 380 387 350 15 382 178 0 373 380 379 53 255 383 182 0 380 0 388 0 -0 0 -.012
307113020673 .01125 0 1 115648231731787e-30 0 -115648231731787e-30 1 13 350 10 0
 0 0 0 0 0 56 345 14 345 27 389 ?390 0 391 53 54 -0 0 390 0 350 81 1 389 242 124
 345 392 0 0 393 394 14 390 1 393 ?395 345 396 53 397 +0 0 395 345 350 15 391 26
 0 355 345 398 17 355 0 391 355 355 0 351 57 0 0 -15 398 28 0 356 345 0 17 356 0
 398 356 356 0 399 352 0 0 +17 399 0 400 399 399 0 356 352 0 0 -15 400 19 0 399
 395 0 14 395 18 401 ?402 390 403 53 347 -0 0 402 390 350 81 1 401 244 124 395 4
04 0 393 405 406 14 402 74 405 ?407 395 408 53 409 -0 0 407 395 350 15 403 108 0
 410 395 400 50 347 24 0 395 397 54 0 +0 -.0075 -.012307113020673 0 1 0 0 0 1 50
 397 3 0 390 409 347 0 +0 .0075 -.012307113020673 0 1 0 0 0 1 51 409 90 0 402 41
1 397 0 +0 .0045 -.012307113020673 0 1 0 .014 0 0 1 50 411 92 0 407 412 409 0 +0
 .0045 -.012307113020673 0 1 0 0 0 1 14 407 80 413 ?387 402 372 53 411 +0 0 387
 402 350 51 412 137 0 387 388 411 0 +0 -.0045 -.012307113020673 0 -1 0 .014 0 0
 -1 14 387 121 414 ?377 407 415 53 412 -0 0 377 407 350 50 388 139 0 377 383 412
 0 +0 -.0045 -.012307113020673 0 -1 0 0 0 -1 81 1 414 247 124 387 416 0 413 385
 417 15 415 125 0 418 387 419 17 418 0 415 418 418 0 370 362 0 0 -15 419 126 0 3
67 387 0 17 367 0 419 367 367 0 410 365 0 0 +17 410 0 403 410 410 0 367 365 0 0
 -17 370 0 378 370 370 0 418 362 0 0 +15 378 130 0 370 377 0 81 1 416 239 143 38
7 0 414 420 0 421 81 1 413 246 124 407 420 0 405 414 422 81 1 385 248 124 377 42
3 0 414 381 424 83 3 417 .792156862745098 .819607843137255 .933333333333333 81 1
 423 221 143 377 0 385 384 392 425 83 3 424 .792156862745098 .819607843137255 .9
33333333333333 81 1 384 218 143 380 0 381 0 423 426 81 1 392 224 143 345 0 389 4
23 427 428 82 1 425 1578762571 81 1 427 227 143 390 0 393 392 404 429 82 1 428 1
487995204 81 1 393 243 124 390 427 0 389 401 430 81 1 404 230 143 395 0 401 427
 431 432 82 1 429 1486029126 81 1 431 233 143 402 0 405 404 420 433 82 1 432 148
7733064 81 1 405 245 124 402 431 0 401 413 434 81 1 420 236 143 407 0 413 431 41
6 435 82 1 433 1531117894 82 1 435 1531248971 83 3 434 .792156862745098 .8196078
43137255 .933333333333333 83 3 430 .792156862745098 .819607843137255 .9333333333
33333 82 1 426 1714553163 83 3 422 .792156862745098 .819607843137255 .9333333333
33333 82 1 421 1578631496 15 372 161 0 371 407 436 15 436 83 0 364 407 0 17 364
 0 436 364 364 0 437 357 0 0 +17 437 0 408 437 437 0 364 357 0 0 -15 408 78 0 43
7 402 438 15 438 79 0 361 402 0 17 361 0 438 361 361 0 439 359 0 0 +17 439 0 396
 439 439 0 361 359 0 0 -15 396 62 0 439 390 354 15 354 4 0 351 390 0 83 3 406 .7
92156862745098 .819607843137255 .933333333333333 83 3 394 .792156862745098 .8196
07843137255 .933333333333333 17 373 0 382 373 373 0 371 368 0 0 -83 3 386 .79215
6862745098 .819607843137255 .933333333333333 19 346 32 0 39 0 56 53 0 S0 74 20 3
44 5 0 0 440 416 342 381 50 0 0 0 0 0 0 0 0 0 0 0 0 0 0 0 81 2 440 54 153 39 0 3
42 0 0 441 0 81 2 342 195 155 39 440 50 0 0 442 0 83 1 442 1 98 5 441 -12553 45
 -10612 -14332 49 84 46 343 Final_New_Arm_Front_Upper(1T)(±âº»<°¡°ø »óÅÂ>)81 1 3
7 150 5 27 443 0 0 0 444 70 38 0 4 T27 0 0 4 20 1 445 445 13 40 35 0 27 0 446 0
 0 447 0 50 41 70 0 446 448 0 0 +4286263797015735e-33 -.054 0 -1224646799147352e
-31 1 0 -1 -1224646799147352e-31 0 31 42 73 0 44 449 0 0 +4286263797015735e-33 -
.054 0 -1224646799147352e-31 1 0 -1 -1224646799147352e-31 0 .005725 19 43 39 0 2
7 447 0 450 0 V0 16 44 53 0 ?451 0 452 42 0 0 27 17 451 0 453 451 451 0 454 44 0
 0 +16 452 48 0 ?455 44 456 449 0 0 27 17 455 0 457 455 455 0 458 452 0 0 +16 45
6 43 0 ?459 452 0 460 0 0 27 31 449 72 0 452 460 42 0 +2449293598294715e-34 -.02
1 0 -1224646799147352e-31 1 0 -1 -1224646799147352e-31 0 .005725 31 460 71 0 456
 0 449 0 +757378690244238e-49 -.019 0 -1224646799147352e-31 1 0 -1 -122464679914
7352e-31 0 .00505 17 459 0 461 459 459 0 462 456 0 0 +15 461 45 0 459 463 0 17 4
62 0 464 462 462 0 459 456 0 0 -15 464 91 0 462 465 457 14 465 51 466 ?463 467 4
64 40 468 -0 0 463 467 450 15 457 50 0 455 465 0 81 1 466 148 124 465 469 0 470
 471 472 14 463 46 471 ?0 465 461 40 473 -0 0 0 465 450 14 467 56 470 ?465 446 4
74 40 448 -0 0 465 446 450 52 255 468 68 0 465 473 448 0 -2449293598294715e-34 -
.021 0 1224646799147352e-31 -1 0 .005725 .319778644158181 .947492278987199 1 122
4646799147352e-31 0 13 450 38 0 0 0 0 0 0 43 446 14 446 61 475 ?467 0 476 40 41
 -0 0 467 0 450 81 1 475 146 124 446 477 0 0 470 478 15 476 93 0 454 446 0 17 45
4 0 476 454 454 0 451 44 0 0 -81 1 477 144 143 446 0 475 479 0 480 81 1 470 147
 124 467 479 0 475 466 481 83 3 478 .650980392156863 .619607843137255 .588235294
117647 81 1 479 142 143 467 0 470 482 477 483 83 3 481 .650980392156863 .6196078
43137255 .588235294117647 81 1 482 140 143 463 0 471 469 479 484 82 1 483 211628
9002 81 1 471 149 124 463 482 0 466 0 485 81 1 469 138 143 465 0 466 0 482 486 8
2 1 484 2115109354 82 1 486 2115699178 83 3 485 .650980392156863 .61960784313725
5 .588235294117647 82 1 480 2116878826 50 473 67 0 463 0 468 0 +378689345122119e
-49 -.019 0 1224646799147352e-31 -1 0 1 1224646799147352e-31 0 51 448 69 0 467 4
68 41 0 -0 -.019 0 -1224646799147352e-31 1 0 .005725 -1 -1224646799147352e-31 0
 15 474 92 0 458 467 453 17 458 0 474 458 458 0 455 452 0 0 -15 453 55 0 451 467
 0 83 3 472 .650980392156863 .619607843137255 .588235294117647 19 447 34 0 27 0
 43 40 0 S0 74 20 445 4 0 0 477 443 471 37 0 0 0 0 0 0 0 0 0 0 0 0 0 0 0 0 81 2
 443 128 153 27 0 37 0 0 487 0 98 3 487 -10612 -14332 49 84 16 444 Rod End Body_
M1281 1 25 455 5 12 488 0 0 0 489 70 26 0 4 T12 0 0 4 20 1 490 490 13 28 29 0 12
 0 491 0 0 492 0 51 29 28 0 493 494 0 0 -0 -.017 0 0 -1 0 .00625 0 0 -1 31 30 23
 0 495 496 0 0 +0 -.019 0 0 1 0 0 0 1 .00625 29 255 31 70 0 34 497 0 -.005749782
60458602 -.017 .00245 19 32 7 0 12 492 0 498 0 V0 16 33 75 0 ?499 0 500 501 502
 503 12 18 255 34 68 0 504 0 505 31 ?12 17 504 0 506 507 507 34 508 500 0 509 -1
8 505 65 0 510 34 511 497 ?12 17 510 0 512 513 509 505 514 515 0 516 -18 511 62
 0 513 505 517 518 ?12 29 497 67 0 505 518 31 -.00625 -.017 0 29 518 64 0 511 51
9 497 -.00574978260458602 -.017 -.00245 29 519 61 0 517 520 518 .005749782604586
02 -.017 -.00245 18 517 59 0 499 511 521 519 ?12 29 520 58 0 521 522 519 .00625
 -.017 0 18 521 56 0 523 517 524 520 ?12 29 522 199 0 524 525 520 .0057497826045
8602 -.017 .00245 18 524 134 0 526 521 527 522 ?12 29 525 204 0 528 529 522 .006
25 -.017 -.00245 18 528 131 0 530 531 532 525 ?12 29 529 205 0 532 533 525 -.006
25 -.017 -.00245 18 532 129 0 534 528 535 529 ?12 29 533 207 0 535 536 529 .0121
8076499564094 -.00840648345748495 -.00245 18 535 139 0 537 532 538 533 ?12 29 53
6 208 0 527 539 533 .00625 -.017 .00245 18 527 138 0 540 524 541 536 ?12 29 539
 209 0 541 542 536 -.00625 -.017 .00245 18 541 137 0 543 527 544 539 ?12 29 542
 210 0 544 545 539 -.01218076499564096 -.00840648345748494 .00245 18 544 136 0 5
46 541 531 542 ?12 29 545 211 0 531 547 542 .01218076499564094 -.008406483457484
95 .00245 18 531 133 0 548 544 528 545 ?12 29 547 290 0 538 0 545 -.012180764995
64096 -.00840648345748494 -.00245 18 538 233 0 549 535 0 547 ?12 17 549 0 550 55
1 552 538 553 554 0 555 -15 550 177 0 556 557 558 17 551 0 550 556 549 535 559 5
60 0 0 -17 552 0 550 549 561 532 562 502 0 0 -17 553 0 563 564 555 532 549 554 0
 552 +16 554 101 0 ?553 503 565 566 0 0 12 17 555 0 563 553 546 538 567 568 0 55
9 +15 563 167 0 553 569 0 17 546 0 563 555 570 544 543 571 0 567 -17 567 0 572 5
73 559 544 555 568 0 574 -16 568 104 0 ?555 575 576 577 0 0 12 17 559 0 572 567
 578 538 551 560 0 0 +15 572 249 0 578 579 0 17 578 0 572 559 573 535 580 575 0
 551 +16 560 224 0 ?559 581 582 583 0 0 12 16 581 227 0 ?574 584 560 585 0 0 12
 16 582 231 0 ?586 560 587 588 0 0 12 31 583 285 0 560 589 590 0 +0 0 -.00245 0
 0 1 1 0 0 .0148 31 589 286 0 584 585 583 0 +0 0 .00245 0 0 1 1 0 0 .013075 31 5
90 284 0 591 583 592 0 +0 0 .006 0 0 1 1 0 0 .013075 16 591 223 0 ?593 594 595 5
90 0 0 12 31 592 283 0 595 590 596 0 +0 0 -.006 0 0 1 1 0 0 .013075 16 595 230 0
 ?597 591 584 592 0 0 12 31 596 282 0 594 592 598 0 +0 0 -.00245 0 0 1 1 0 0 .01
3075 16 594 228 0 ?599 565 591 596 0 0 12 31 598 281 0 587 596 600 0 +0 0 -.006
 0 0 1 1 0 0 .00951643315533714 16 587 229 0 ?601 582 0 598 0 0 12 30 255 600 19
7 0 602 598 603 0 +.00625 -.017 .00245 .568005639019253 .823024661867632 0 16 60
2 108 0 ?548 571 502 600 0 0 12 30 603 195 0 571 600 604 0 +-.00625 -.017 .00245
 .568005639019253 -.823024661867632 0 16 571 114 0 ?543 605 602 603 0 0 12 30 60
4 194 0 606 603 607 0 +.00625 -.017 .00245 1 0 0 16 606 117 0 ?608 609 605 604 6
05 500 12 30 607 193 0 565 604 566 0 +.00625 -.017 -.00245 .568005639019253 .823
024661867632 0 16 565 92 0 ?537 554 594 607 0 0 12 30 566 191 0 554 607 501 0 +-
.00625 -.017 -.00245 .568005639019253 -.823024661867632 0 30 501 190 0 502 566 6
10 0 +.00625 -.017 -.00245 1 0 0 16 502 85 0 ?562 602 503 501 503 33 12 30 610 1
89 0 611 501 612 0 +.00625 -.017 .00245 0 0 -1 16 611 95 0 ?613 614 609 610 609
 609 12 30 612 188 0 576 610 577 0 +-.00625 -.017 .00245 0 0 -1 16 576 90 0 ?615
 568 614 612 614 614 12 30 577 187 0 568 612 616 0 +-.01218076499564096 -.008406
48345748494 .00245 0 0 -1 30 616 186 0 575 577 496 0 +.01218076499564094 -.00840
648345748495 .00245 0 0 -1 16 575 100 0 ?578 495 568 616 0 0 12 31 496 5 0 617 6
16 30 0 +0 -.017 0 0 1 0 0 0 1 .00625 16 617 4 0 ?618 500 619 496 620 619 12 17
 618 0 621 622 623 521 526 617 0 624 +16 500 71 0 ?508 33 617 604 606 605 12 16
 619 57 0 ?625 617 626 496 617 626 12 16 620 69 0 ?507 515 495 496 515 617 12 17
 507 0 506 504 504 524 509 620 0 623 +16 515 66 0 ?514 627 620 496 627 620 12 16
 495 18 0 ?628 620 575 30 0 0 12 17 628 0 629 628 628 0 630 495 0 0 +15 629 26 0
 628 493 0 17 630 0 631 630 630 0 628 495 0 0 -15 631 17 0 630 632 0 14 632 16 6
33 ?634 635 631 28 494 -0 0 634 635 498 81 1 633 440 124 632 636 0 637 638 639 1
4 634 140 638 ?640 632 621 28 641 -640 642 640 632 498 14 635 1 637 ?632 493 506
 28 643 +491 491 632 493 498 50 494 22 0 632 643 29 0 +0 -.019 0 0 1 0 0 0 1 13
 498 8 0 0 0 0 0 0 32 491 14 491 77 644 ?493 0 645 28 643 +635 635 493 0 498 81
 1 644 437 124 491 646 0 0 647 648 14 493 25 647 ?635 491 512 28 29 -0 0 635 491
 498 15 645 3 0 649 491 0 50 643 2 0 635 650 494 0 +0 -.017 0 0 1 0 0 0 1 50 650
 180 0 651 652 643 0 +.00625 -.017 .00245 -.823024661867632 .568005639019253 0 -
.568005639019253 -.823024661867632 0 14 651 156 653 ?569 642 654 28 650 -0 0 569
 642 498 50 652 182 0 569 641 650 0 +-.00625 -.017 .00245 .823024661867632 .5680
05639019253 0 -.568005639019253 .823024661867632 0 14 569 164 655 ?656 651 563 2
8 652 -0 0 656 651 498 50 641 183 0 634 657 652 0 +.00625 -.017 .00245 0 1 0 0 0
 1 50 657 184 0 557 658 641 0 +0 0 -.00245 0 0 1 1 0 0 14 557 175 659 ?660 656 5
50 28 657 -0 0 660 656 498 50 658 185 0 656 661 657 0 +0 0 .00245 0 0 1 1 0 0 14
 656 172 662 ?557 569 663 28 658 +0 0 557 569 498 51 661 272 0 660 664 658 0 -0
 0 .006 0 0 -1 .013075 -1 0 0 14 660 239 665 ?666 557 667 28 661 -668 668 666 55
7 498 50 664 273 0 669 670 661 0 +0 0 -.006 0 0 1 1 0 0 14 669 258 671 ?668 579
 672 28 664 -0 0 668 579 498 50 670 274 0 666 673 664 0 +0 0 .006 0 0 1 1 0 0 14
 666 243 674 ?579 660 675 28 670 +0 0 579 660 498 51 673 275 0 579 676 670 0 -0
 0 .00245 0 0 -1 .0148 -1 0 0 14 579 247 677 ?669 666 572 28 673 -0 0 669 666 49
8 53 676 278 0 678 0 673 0 +0 0 0 .01125 0 0 -1 0 -1 0 14 678 266 679 ?0 668 680
 28 676 -0 0 0 668 498 81 1 679 454 124 678 681 0 682 0 683 14 668 262 682 ?678
 669 684 28 661 -660 660 678 669 498 15 680 268 0 586 678 685 17 586 0 680 586 5
86 0 686 582 0 0 +15 685 269 0 687 678 0 17 687 0 685 687 687 0 601 587 0 0 -17
 601 0 672 601 601 0 687 587 0 0 +15 672 260 0 601 669 688 15 688 261 0 689 669
 0 17 689 0 688 689 689 0 597 595 0 0 -17 597 0 684 597 597 0 689 595 0 0 +15 68
4 264 0 597 668 690 15 690 265 0 691 668 0 17 691 0 690 691 691 0 599 594 0 0 -1
7 599 0 558 599 599 0 691 594 0 0 +15 558 257 0 599 557 0 17 686 0 675 686 686 0
 586 582 0 0 -15 675 245 0 686 666 692 15 692 246 0 593 666 0 17 593 0 692 593 5
93 0 693 591 0 0 +17 693 0 694 693 693 0 593 591 0 0 -15 694 242 0 693 660 0 81
 1 682 453 124 668 695 0 671 679 696 81 1 695 429 143 668 0 682 681 697 698 81 1
 671 452 124 669 699 0 677 682 700 83 3 696 .650980392156863 .619607843137255 .5
88235294117647 81 1 699 421 143 669 0 671 701 702 703 81 1 677 451 124 579 704 0
 674 671 705 83 3 700 .650980392156863 .619607843137255 .588235294117647 81 1 70
4 425 143 579 0 677 702 681 706 81 1 674 450 124 666 702 0 665 677 707 83 3 705
 .650980392156863 .619607843137255 .588235294117647 81 1 702 423 143 666 0 674 6
99 704 708 81 1 665 449 124 660 701 0 659 674 709 83 3 707 .650980392156863 .619
607843137255 .588235294117647 81 1 701 419 143 660 0 665 710 699 711 81 1 659 44
8 124 557 712 0 662 665 713 83 3 709 .650980392156863 .619607843137255 .58823529
4117647 81 1 712 413 143 557 0 659 714 710 715 81 1 662 447 124 656 710 0 655 65
9 716 83 3 713 .650980392156863 .619607843137255 .588235294117647 81 1 710 416 1
43 656 0 662 712 701 717 81 1 655 446 124 569 714 0 653 662 718 83 3 716 .650980
392156863 .619607843137255 .588235294117647 81 1 714 411 143 569 0 655 719 712 7
20 81 1 653 445 124 651 719 0 721 655 722 83 3 718 .650980392156863 .61960784313
7255 .588235294117647 81 1 719 409 143 651 0 653 723 714 724 81 1 721 444 124 64
2 697 0 725 653 726 83 3 722 .650980392156863 .619607843137255 .588235294117647
 14 642 152 721 ?651 727 728 28 641 -634 727 651 727 498 81 1 697 431 143 642 0
 721 695 729 730 81 1 725 443 124 727 729 0 731 721 732 83 3 726 .65098039215686
3 .619607843137255 .588235294117647 14 727 148 725 ?642 640 733 28 641 -642 640
 642 640 498 81 1 729 433 143 727 0 725 697 734 735 81 1 731 442 124 640 734 0 6
38 725 736 83 3 732 .650980392156863 .619607843137255 .588235294117647 14 640 14
4 731 ?727 634 737 28 641 -727 634 727 634 498 81 1 734 435 143 640 0 731 729 0
 738 81 1 638 441 124 634 739 0 633 731 740 83 3 736 .650980392156863 .619607843
137255 .588235294117647 81 1 739 401 143 634 0 638 636 741 742 83 3 740 .6509803
92156863 .619607843137255 .588235294117647 81 1 636 399 143 632 0 633 0 739 743
 81 1 741 403 143 635 0 637 739 646 744 82 1 742 149684722 81 1 637 439 124 635
 741 0 647 633 745 81 1 646 405 143 491 0 644 741 723 746 82 1 744 2088436210 81
 1 723 407 143 493 0 647 646 719 747 82 1 746 145424882 81 1 647 438 124 493 723
 0 644 637 748 82 1 747 2090402290 83 3 748 .650980392156863 .619607843137255 .5
88235294117647 83 3 745 .650980392156863 .619607843137255 .588235294117647 82 1
 743 2090140137 82 1 738 149225970 15 737 147 0 624 640 0 17 624 0 737 625 749 5
21 530 609 0 613 -17 625 0 737 749 624 517 523 619 0 750 +17 749 0 737 624 625 5
28 750 503 0 556 +17 530 0 654 537 613 528 624 609 0 749 +16 609 96 0 ?530 611 6
06 610 611 611 12 17 613 0 654 530 751 521 622 611 0 0 +15 654 159 0 537 651 0 1
7 751 0 654 613 580 527 548 602 0 0 -17 622 0 621 623 618 527 613 611 0 751 -15
 621 143 0 623 634 0 17 623 0 621 618 622 524 540 605 0 508 -17 540 0 663 548 50
8 527 623 605 0 622 +16 605 123 0 ?540 606 571 604 500 606 12 17 508 0 663 540 6
08 524 504 500 0 0 +15 663 174 0 548 656 752 17 608 0 663 508 543 34 753 606 0 0
 +17 543 0 663 608 574 541 546 571 0 570 +17 753 0 728 615 514 541 608 606 0 0 -
15 728 155 0 615 642 0 17 615 0 728 514 753 505 570 576 0 0 +17 514 0 728 753 61
5 34 510 515 0 608 +17 570 0 563 546 564 541 615 576 0 753 -17 564 0 563 570 553
 505 534 614 0 615 -17 534 0 733 562 516 532 564 614 0 553 +16 614 89 0 ?534 576
 611 612 576 576 12 15 733 151 0 562 727 0 17 562 0 733 516 534 511 552 502 0 0
 +17 516 0 733 534 562 505 513 627 0 564 +17 513 0 512 754 510 511 516 627 0 649
 -16 627 63 0 ?516 626 515 496 626 515 12 16 626 60 0 ?649 619 627 496 619 627 1
2 17 649 0 645 499 499 511 754 626 0 561 +17 499 0 645 649 649 517 561 33 0 754
 +17 754 0 512 523 513 517 649 626 0 625 -17 561 0 550 552 750 511 499 33 0 562
 -17 750 0 550 561 556 517 749 503 0 0 -17 556 0 550 750 551 528 537 565 0 0 -16
 503 82 0 ?749 502 554 501 33 502 12 17 537 0 654 580 530 535 556 565 0 578 +17
 580 0 654 751 537 531 578 575 0 573 -17 573 0 572 578 567 531 574 581 0 0 -17 5
74 0 663 543 548 544 573 581 0 0 +17 548 0 663 574 540 531 751 602 0 580 +15 512
 24 0 526 493 629 17 523 0 512 526 754 521 625 619 0 618 -17 526 0 512 509 523 5
24 618 617 0 507 -17 509 0 512 510 526 34 507 620 0 514 -15 752 253 0 755 656 0
 17 755 0 752 755 755 0 756 584 0 0 -17 756 0 667 756 756 0 755 584 0 0 +16 584
 222 0 ?756 595 581 589 0 0 12 15 667 241 0 756 660 694 82 1 735 148767218 82 1
 730 148308466 82 1 724 140902898 82 1 720 141230578 82 1 717 141754866 82 1 715
 141623794 82 1 711 152502770 82 1 708 152633842 81 1 681 427 143 678 0 679 704
 695 757 82 1 706 153420274 82 1 757 152109554 82 1 703 153879026 82 1 698 15224
0626 83 3 683 .650980392156863 .619607843137255 .588235294117647 83 3 648 .65098
0392156863 .619607843137255 .588235294117647 15 506 72 0 504 635 0 83 3 639 .650
980392156863 .619607843137255 .588235294117647 31 585 287 0 581 588 589 0 +0 0 .
00245 0 0 1 1 0 0 .0148 31 588 288 0 582 0 585 0 +0 0 .006 0 0 1 1 0 0 .00951643
315533714 19 492 30 0 12 0 32 28 0 S0 74 20 490 4 0 0 734 488 679 25 0 0 0 0 0 0
 0 0 0 0 0 0 0 0 0 0 81 2 488 375 153 12 0 25 0 0 758 0 98 6 758 -17164 -15708 4
5 -19508 -12900 54 84 16 489 Rod End Body_M1281 1 10 201 5 7 759 0 0 0 760 70 11
 0 4 T7 0 0 4 20 1 761 761 13 13 41 0 7 0 762 0 0 763 0 53 14 82 0 762 764 0 0 -
0 0 0 .01125 -1 0 0 0 1 0 31 15 88 0 17 765 0 0 +-.00810547710029715 0 0 -1 0 0
 0 0 1 .00780152170903591 19 16 45 0 7 763 0 766 0 V0 16 17 69 0 ?767 0 768 15 0
 0 7 17 767 0 769 767 767 0 770 17 0 0 +16 768 64 0 ?771 17 772 765 0 0 7 17 771
 0 773 771 771 0 774 768 0 0 +16 772 59 0 ?775 768 776 777 0 0 7 31 765 87 0 768
 777 15 0 +-.00810547710029715 0 0 -1 0 0 0 0 1 .0065 31 777 86 0 772 778 765 0
 +-.00760547710029717 0 0 -1 0 0 0 0 1 .006 31 778 85 0 776 779 777 0 +.00760547
71002971 0 0 -1 0 0 0 0 1 .006 16 776 54 0 ?780 772 781 778 0 0 7 31 779 84 0 78
1 782 778 0 +.00810547710029708 0 0 -1 0 0 0 0 1 .0065 16 781 49 0 ?783 776 784
 779 0 0 7 31 782 83 0 784 0 779 0 +.00810547710029708 0 0 -1 0 0 0 0 1 .0078015
2170903597 16 784 47 0 ?785 781 0 782 0 0 7 17 785 0 786 785 785 0 787 784 0 0 +
15 786 74 0 785 762 0 17 787 0 788 787 787 0 785 784 0 0 -15 788 113 0 787 789 7
90 14 789 52 791 ?0 792 788 13 793 -0 0 0 792 766 15 790 51 0 783 789 0 17 783 0
 790 783 783 0 794 781 0 0 +17 794 0 795 794 794 0 783 781 0 0 -15 795 114 0 794
 792 796 14 792 57 797 ?789 798 795 13 799 -0 0 789 798 766 15 796 56 0 780 792
 0 17 780 0 796 780 780 0 800 776 0 0 +17 800 0 801 800 800 0 780 776 0 0 -15 80
1 115 0 800 798 802 14 798 62 803 ?792 804 801 13 805 -0 0 792 804 766 15 802 61
 0 775 798 0 17 775 0 802 775 775 0 806 772 0 0 +17 806 0 807 806 806 0 775 772
 0 0 -15 807 116 0 806 804 773 14 804 67 808 ?798 809 807 13 810 -0 0 798 809 76
6 15 773 66 0 771 804 0 81 1 808 197 124 804 811 0 812 803 813 14 809 72 812 ?80
4 762 814 13 764 -0 0 804 762 766 54 255 810 80 0 804 805 764 0 --.0076054771002
9717 0 0 -1 0 0 .0065 .000499999999999978 0 0 1 13 766 44 0 0 0 0 0 0 16 762 14
 762 75 815 ?809 0 816 13 14 -0 0 809 0 766 81 1 815 195 124 762 817 0 0 812 818
 15 816 118 0 770 762 786 17 770 0 816 770 770 0 767 17 0 0 -81 1 817 193 143 76
2 0 815 819 0 820 81 1 812 196 124 809 819 0 815 808 821 83 3 818 .7921568627450
98 .819607843137255 .933333333333333 81 1 819 191 143 809 0 812 811 817 822 83 3
 821 .792156862745098 .819607843137255 .933333333333333 81 1 811 189 143 804 0 8
08 823 819 824 82 1 822 -809238374 81 1 823 187 143 798 0 803 825 811 826 82 1 8
24 -809828198 81 1 803 198 124 798 823 0 808 797 827 81 1 825 185 143 792 0 797
 828 823 829 82 1 826 -810418022 81 1 797 199 124 792 825 0 803 791 830 81 1 828
 183 143 789 0 791 0 825 831 82 1 829 -811007846 81 1 791 200 124 789 828 0 797
 0 832 82 1 831 -811597670 83 3 832 .792156862745098 .819607843137255 .933333333
333333 83 3 830 .792156862745098 .819607843137255 .933333333333333 83 3 827 .792
156862745098 .819607843137255 .933333333333333 82 1 820 -808910694 51 805 79 0 7
98 799 810 0 +-.00800000000000009 0 0 -1 0 0 .006 0 0 1 50 764 81 0 809 810 14 0
 +-.00810547710029715 .00780152170903591 0 1 0 0 0 0 -1 54 799 78 0 792 793 805
 0 -.0076054771002971 0 0 -1 0 0 .0065 .000499999999999978 0 0 1 50 793 77 0 789
 0 799 0 +.00810547710029708 .0065 0 -1 0 0 0 0 1 15 814 117 0 774 809 769 17 77
4 0 814 774 774 0 771 768 0 0 -15 769 71 0 767 809 0 83 3 813 .792156862745098 .
819607843137255 .933333333333333 19 763 40 0 7 0 16 13 0 S0 74 20 761 4 0 0 817
 759 791 10 0 0 0 0 0 0 0 0 0 0 0 0 0 0 0 0 81 2 759 153 153 7 0 10 0 0 833 0 98
 3 833 -10612 -14332 49 84 22 760 Rod End Ball Joint_M1274 20 6 1 0 0 2 0 0 0 0
 0 0 0 0 0 0 0 0 0 0 0 0 0 0 0 1 0 
