**ABCDEFGHIJKLMNOPQRSTUVWXYZabcdefghijklmnopqrstuvwxyz**************************
**PARASOLID !"#$%&'()*+,-./:;<=>?@[\]^_`{|}~0123456789**************************
**PART1;
MC=AMD64;
MC_MODEL=AMD64 Family 25 Model 80 Stepping 0, AuthenticAMD;
MC_ID=unknown;
OS=Windows_NT;
OS_RELEASE=unknown;
FRU=Parasolid Version 31.1, build 278,  7-15-2019;
APPL=SOLIDWORKS 2020-2019269;
SITE=;
USER=unknown;
FORMAT=text;
GUISE=transmit;
KEY=Full_mode;
FILE=Full_mode.x_t;
DATE=Sat Oct 21 15:30:44 2023;
**PART2;
SCH=SCH_3101278_31100;
USFLD_SIZE=0;
**PART3;
**END_OF_HEADER*****************************************************************
T51 : TRANSMIT FILE created by modeller version 310127823 SCH_3101278_31100_1300
6222 0 12 34 CCCCCCI4 mesh1006 0 I8 polyline1008 0 CCCCCCCDI5 owner1040 0 CCCCCC
I13 boundary_mesh1006 0 I17 boundary_polyline1008 0 CCCA16 index_map_offset0 0 1
 dA9 index_map82 0 A17 node_id_index_map82 0 A20 schema_embedding_map82 0 A5 chi
ld12 0 A14 lowest_node_id0 0 1 dA16 mesh_offset_data206 0 Z1 2396 2 3 0 0 0 0 0
 0 1e3 1e-8 0 4 0 1 0 1 1 5 6 7 8 0 0 9 10 11 0 0 0 0 0 0 0 81 255 2 2 2362 12 1
 13 0 0 0 0 14 70 11 CI9 list_type0 0 1 uI10 notransmit0 0 1 lCCCDCCDI12 finger_
index0 0 1 dI12 finger_block1012 0 CZ3 0 4 T1 0 0 8 20 1 15 15 13 255 5 99 0 1 0
 16 0 0 17 0 51 255 6 2033 0 18 19 0 0 +.16 .51 .01 0 0 -1 .04 -1 0 0 30 255 7 1
983 0 10 20 0 0 -.2 .51 .2 0 0 -1 29 255 8 1970 0 11 21 0 .2 .51 .2 19 8 CCCCCCC
A5 owner12 0 Z9 33 0 1 17 0 22 V0 16 255 10 1981 0 ?23 0 24 7 0 0 1 18 255 11 19
68 0 23 0 25 8 ?1 17 255 23 0 26 27 28 11 29 10 0 30 +18 25 1945 0 31 11 32 21 ?
1 17 31 0 33 34 35 25 36 37 0 38 +18 32 1942 0 39 25 40 41 ?1 29 21 1947 0 25 41
 8 .04 .55 .2 29 41 1944 0 32 42 21 .16 .55 .2 29 42 1931 0 40 43 41 .04 .55 .19
 18 40 1929 0 44 32 45 42 ?1 29 43 1928 0 45 46 42 .2 .51 .19 18 45 1926 0 47 40
 48 43 ?1 29 46 1925 0 48 49 43 .16 .55 .19 18 48 1923 0 50 45 51 46 ?1 29 49 19
17 0 51 52 46 0 .51 .2 18 51 1915 0 53 48 54 49 ?1 29 52 1914 0 54 55 49 0 .51 .
19 18 54 1912 0 56 51 57 52 ?1 29 55 814 0 57 58 52 .066 .4 .01 18 57 812 0 59 5
4 60 55 ?1 29 58 811 0 60 61 55 .05 .4 .01 18 60 809 0 62 57 63 58 ?1 29 61 805
 0 63 64 58 .066 .55 .01 18 63 803 0 65 60 66 61 ?1 29 64 708 0 66 67 61 .04 .29
 .01 18 66 706 0 68 63 69 64 ?1 29 67 704 0 69 70 64 .04 .27 .01 18 69 702 0 71
 66 72 67 ?1 29 70 697 0 72 73 67 .056 .27 .01 18 72 695 0 74 69 75 70 ?1 29 73
 599 0 75 76 70 .056 .05 .01 18 75 597 0 77 72 78 73 ?1 29 76 595 0 78 79 73 .04
 .05 .01 18 78 593 0 80 75 81 76 ?1 29 79 589 0 81 82 76 .04 0 .01 18 81 587 0 8
3 78 84 79 ?1 29 82 492 0 84 85 79 .144 .27 .01 18 84 490 0 86 81 87 82 ?1 29 85
 488 0 87 88 82 .16 .27 .01 18 87 486 0 89 84 90 85 ?1 29 88 481 0 90 91 85 .16
 .29 .01 18 90 479 0 92 87 93 88 ?1 29 91 381 0 93 94 88 .144 .05 .01 18 93 379
 0 95 90 96 91 ?1 29 94 378 0 96 97 91 .16 .05 .01 18 96 376 0 98 93 99 94 ?1 29
 97 372 0 99 100 94 .144 0 .01 18 99 370 0 101 96 102 97 ?1 29 100 272 0 102 103
 97 .134 .4 .01 18 102 270 0 104 99 105 100 ?1 29 103 269 0 105 106 100 .134 .55
 .01 18 105 267 0 107 102 108 103 ?1 29 106 266 0 108 109 103 .15 .55 .01 18 108
 264 0 110 105 111 106 ?1 29 109 187 0 111 112 106 .2 .51 .01 18 111 185 0 113 1
08 114 109 ?1 29 112 174 0 114 115 109 .04 .55 .01 18 114 172 0 116 111 117 112
 ?1 29 115 171 0 117 118 112 .16 .55 .01 18 117 169 0 119 114 120 115 ?1 29 118
 158 0 120 121 115 .2 .51 0 18 120 156 0 122 117 123 118 ?1 29 121 155 0 123 124
 118 .04 .55 0 18 123 153 0 125 120 126 121 ?1 29 124 152 0 126 127 121 .16 .55
 0 18 126 150 0 128 123 129 124 ?1 29 127 144 0 129 130 124 0 .51 .01 18 129 142
 0 131 126 132 127 ?1 29 130 141 0 132 133 127 0 .51 0 18 132 139 0 134 129 135
 130 ?1 29 133 77 0 136 137 130 .2 0 0 18 136 68 0 138 139 140 133 ?1 29 137 78
 0 140 141 133 0 0 0 18 140 69 0 142 136 143 137 ?1 29 141 26 0 135 144 137 .2 0
 .01 18 135 24 0 145 132 139 141 ?1 29 144 23 0 139 146 141 0 0 .01 18 139 21 0
 147 135 136 144 ?1 29 146 362 0 143 148 144 .15 .4 .01 18 143 310 0 149 140 150
 146 ?1 29 148 471 0 150 151 146 .16 0 .01 18 150 419 0 152 143 153 148 ?1 29 15
1 578 0 153 154 148 .144 .29 .01 18 153 531 0 155 150 156 151 ?1 29 154 685 0 15
6 157 151 .056 0 .01 18 156 638 0 158 153 159 154 ?1 29 157 794 0 159 160 154 .0
56 .29 .01 18 159 747 0 161 156 162 157 ?1 29 160 904 0 162 163 157 .05 .55 .01
 18 162 852 0 164 159 165 160 ?1 29 163 1055 0 165 166 160 .134 .4 .19 18 165 10
06 0 167 162 168 163 ?1 29 166 1056 0 168 169 163 .15 .4 .19 18 168 1012 0 170 1
65 171 166 ?1 29 169 1057 0 171 172 166 .15 .55 .19 18 171 1010 0 173 168 174 16
9 ?1 29 172 1155 0 174 175 169 .144 0 .19 18 174 1106 0 176 171 177 172 ?1 29 17
5 1157 0 177 178 172 .16 .05 .19 18 177 1110 0 179 174 180 175 ?1 29 178 1158 0
 180 181 175 .144 .05 .19 18 180 1108 0 182 177 183 178 ?1 29 181 1255 0 183 184
 178 .144 .27 .19 18 183 1206 0 185 180 186 181 ?1 29 184 1256 0 186 187 181 .16
 .27 .19 18 186 1212 0 188 183 189 184 ?1 29 187 1257 0 189 190 184 .16 .29 .19
 18 189 1210 0 191 186 192 187 ?1 29 190 1355 0 192 193 187 .056 .05 .19 18 192
 1306 0 194 189 195 190 ?1 29 193 1356 0 195 196 190 .04 .05 .19 18 195 1312 0 1
97 192 198 193 ?1 29 196 1357 0 198 199 193 .04 0 .19 18 198 1310 0 200 195 201
 196 ?1 29 199 1455 0 201 202 196 .04 .29 .19 18 201 1406 0 203 198 204 199 ?1 2
9 202 1456 0 204 205 199 .04 .27 .19 18 204 1412 0 206 201 207 202 ?1 29 205 145
7 0 207 208 202 .056 .27 .19 18 207 1410 0 209 204 210 205 ?1 29 208 1555 0 210
 211 205 .066 .55 .19 18 210 1506 0 212 207 213 208 ?1 29 211 1557 0 213 214 208
 .05 .4 .19 18 213 1510 0 215 210 216 211 ?1 29 214 1558 0 216 217 211 .066 .4 .
19 18 216 1508 0 218 213 219 214 ?1 29 217 1820 0 219 220 214 .144 .29 .19 18 21
9 1712 0 221 216 222 217 ?1 29 220 1824 0 222 223 217 .056 .29 .19 18 222 1713 0
 224 219 225 220 ?1 29 223 1834 0 225 226 220 .16 0 .19 18 225 1733 0 227 222 22
8 223 ?1 29 226 1836 0 228 229 223 .056 0 .19 18 228 1734 0 230 225 231 226 ?1 2
9 229 1838 0 231 232 226 .05 .55 .19 18 231 1743 0 233 228 234 229 ?1 29 232 184
0 0 234 235 229 .134 .55 .19 18 234 1731 0 236 231 237 232 ?1 29 235 1844 0 238
 239 232 .2 0 .19 18 238 1735 0 240 241 242 235 ?1 29 239 1845 0 242 243 235 0 0
 .19 18 242 1728 0 244 238 0 239 ?1 29 243 1848 0 237 245 239 .2 0 .2 18 237 173
9 0 246 234 241 243 ?1 29 245 1849 0 241 0 243 0 0 .2 18 241 1736 0 247 237 238
 245 ?1 17 247 0 248 246 53 241 249 250 0 251 +15 255 248 1782 0 38 252 0 17 246
 0 248 30 247 237 251 253 0 254 +17 53 0 248 247 38 51 255 24 0 249 +17 249 0 25
6 257 258 51 247 250 0 259 -16 250 1916 0 ?247 253 260 261 0 0 1 17 251 0 262 26
3 254 241 246 253 0 258 -15 262 1871 0 264 265 266 17 263 0 262 267 251 242 258
 268 0 0 +17 254 0 262 251 240 237 269 270 0 27 -16 253 1700 0 ?246 271 250 272
 0 0 1 17 258 0 256 249 244 241 263 268 0 0 -15 256 1767 0 249 273 0 17 244 0 25
6 258 257 242 274 275 0 276 +16 268 1676 0 ?263 277 270 278 0 0 1 16 277 1493 0
 ?279 280 268 281 0 0 1 16 270 1680 0 ?269 268 282 283 0 0 1 30 278 1806 0 268 2
83 281 0 +0 0 .2 0 0 -1 30 283 1807 0 270 284 278 0 +.2 0 .2 0 0 -1 30 281 1550
 0 277 278 285 0 +.066 .55 .19 0 1 0 30 285 1549 0 280 281 286 0 +.066 .4 .19 1
 0 0 16 280 1502 0 ?287 288 277 285 0 0 1 30 286 1548 0 288 285 289 0 +.05 .55 .
19 0 -1 0 16 288 1499 0 ?290 291 280 286 0 0 1 30 289 1450 0 291 286 292 0 +.056
 .29 .19 -1 -346944695195361e-29 0 16 291 1393 0 ?293 294 288 289 0 0 1 30 292 1
449 0 294 289 295 0 +.056 .29 .19 0 1 0 16 294 1402 0 ?296 297 291 292 0 0 1 30
 295 1448 0 297 292 298 0 +.056 .27 .19 1 0 0 16 297 1399 0 ?299 300 294 295 0 0
 1 30 298 1447 0 300 295 301 0 +.04 .29 .19 1387778780781444e-30 -1 0 16 300 139
6 0 ?302 303 297 298 0 0 1 30 301 1350 0 303 298 304 0 +.056 0 .19 0 1 0 16 303
 1293 0 ?305 306 300 301 0 0 1 30 304 1348 0 306 301 307 0 +.04 0 .19 0 -1 0 16
 306 1299 0 ?308 309 303 304 0 0 1 30 307 1347 0 309 304 310 0 +.056 .05 .19 -1
 0 0 16 309 1296 0 ?311 312 306 307 0 0 1 30 310 1250 0 312 307 313 0 +.144 .29
 .19 0 -1 0 16 312 1193 0 ?314 315 309 310 0 0 1 30 313 1249 0 315 310 316 0 +.1
44 .29 .19 -1 346944695195361e-29 0 16 315 1202 0 ?317 318 312 313 0 0 1 30 316
 1248 0 318 313 319 0 +.16 .29 .19 1387778780781444e-30 1 0 16 318 1199 0 ?320 3
21 315 316 0 0 1 30 319 1247 0 321 316 322 0 +.144 .27 .19 1 0 0 16 321 1196 0 ?
323 324 318 319 0 0 1 30 322 1150 0 324 319 325 0 +.144 0 .19 0 -1 0 16 324 1093
 0 ?326 327 321 322 0 0 1 30 325 1149 0 327 322 328 0 +.144 .05 .19 -1 0 0 16 32
7 1102 0 ?329 330 324 325 0 0 1 30 328 1148 0 330 325 331 0 +.16 0 .19 0 1 0 16
 330 1099 0 ?332 333 327 328 0 0 1 30 331 1050 0 333 328 334 0 +.134 .55 .19 0 -
1 0 16 333 993 0 ?335 336 330 331 0 0 1 30 334 1048 0 336 331 337 0 +.15 .55 .19
 0 1 0 16 336 999 0 ?338 339 333 334 0 0 1 30 337 1047 0 339 334 340 0 +.134 .4
 .19 1 0 0 16 339 996 0 ?341 342 336 337 0 0 1 30 340 897 0 342 337 343 0 +.066
 .55 .01 0 1 0 16 342 824 0 ?344 345 339 340 0 0 1 30 343 895 0 345 340 346 0 +.
05 .55 .01 0 -1 0 16 345 832 0 ?347 348 342 343 0 0 1 30 346 894 0 348 343 349 0
 +.066 .4 .01 1 0 0 16 348 836 0 ?350 351 345 346 0 0 1 30 349 893 0 351 346 352
 0 +.066 .4 .1 0 0 -1 16 351 827 0 ?353 354 348 349 0 0 1 30 352 892 0 354 349 3
55 0 +.05 .4 .1 0 0 -1 16 354 839 0 ?356 357 351 352 0 0 1 30 355 891 0 357 352
 358 0 +.05 .55 .1 0 0 -1 16 357 835 0 ?359 360 354 355 0 0 1 30 358 890 0 360 3
55 361 0 +.066 .55 .1 0 0 -1 16 360 831 0 ?362 363 357 358 0 0 1 30 361 789 0 36
3 358 364 0 +.056 .29 .01 -1 -346944695195361e-29 0 16 363 716 0 ?365 366 360 36
1 0 0 1 30 364 788 0 366 361 367 0 +.04 .29 .01 1387778780781444e-30 -1 0 16 366
 720 0 ?368 369 363 364 0 0 1 30 367 787 0 369 364 370 0 +.056 .27 .01 1 0 0 16
 369 724 0 ?371 372 366 367 0 0 1 30 370 786 0 372 367 373 0 +.056 .29 .01 0 1 0
 16 372 728 0 ?374 375 369 370 0 0 1 30 373 785 0 375 370 376 0 +.056 .29 .1 0 0
 -1 16 375 719 0 ?377 378 372 373 0 0 1 30 376 784 0 378 373 379 0 +.056 .27 .1
 0 0 -1 16 378 731 0 ?380 381 375 376 0 0 1 30 379 783 0 381 376 382 0 +.04 .27
 .1 0 0 -1 16 381 727 0 ?383 384 378 379 0 0 1 30 382 782 0 384 379 385 0 +.04 .
29 .1 0 0 -1 16 384 723 0 ?386 387 381 382 0 0 1 30 385 680 0 387 382 388 0 +.05
6 0 .01 0 1 0 16 387 607 0 ?389 390 384 385 0 0 1 30 388 679 0 390 385 391 0 +.0
56 .05 .01 -1 0 0 16 390 611 0 ?392 393 387 388 0 0 1 30 391 678 0 393 388 394 0
 +.04 0 .01 0 -1 0 16 393 615 0 ?395 396 390 391 0 0 1 30 394 676 0 396 391 397
 0 +.056 0 .1 0 0 -1 16 396 610 0 ?398 399 393 394 0 0 1 30 397 675 0 399 394 40
0 0 +.04 0 .1 0 0 -1 16 399 622 0 ?401 402 396 397 0 0 1 30 400 674 0 402 397 40
3 0 +.04 .05 .1 0 0 -1 16 402 618 0 ?404 405 399 400 0 0 1 30 403 673 0 405 400
 406 0 +.056 .05 .1 0 0 -1 16 405 614 0 ?407 408 402 403 0 0 1 30 406 573 0 408
 403 409 0 +.144 .29 .01 0 -1 0 16 408 500 0 ?410 411 405 406 0 0 1 30 409 572 0
 411 406 412 0 +.144 .27 .01 1 0 0 16 411 504 0 ?413 414 408 409 0 0 1 30 412 57
1 0 414 409 415 0 +.16 .29 .01 1387778780781444e-30 1 0 16 414 508 0 ?416 417 41
1 412 0 0 1 30 415 570 0 417 412 418 0 +.144 .29 .01 -1 346944695195361e-29 0 16
 417 512 0 ?419 420 414 415 0 0 1 30 418 569 0 420 415 421 0 +.144 .29 .1 0 0 -1
 16 420 503 0 ?422 423 417 418 0 0 1 30 421 568 0 423 418 424 0 +.16 .29 .1 0 0
 -1 16 423 515 0 ?425 426 420 421 0 0 1 30 424 567 0 426 421 427 0 +.16 .27 .1 0
 0 -1 16 426 511 0 ?428 429 423 424 0 0 1 30 427 566 0 429 424 430 0 +.144 .27 .
1 0 0 -1 16 429 507 0 ?431 432 426 427 0 0 1 30 430 464 0 432 427 433 0 +.144 0
 .01 0 -1 0 16 432 391 0 ?434 435 429 430 0 0 1 30 433 462 0 435 430 436 0 +.16
 0 .01 0 1 0 16 435 399 0 ?437 438 432 433 0 0 1 30 436 461 0 438 433 439 0 +.14
4 .05 .01 -1 0 0 16 438 403 0 ?440 441 435 436 0 0 1 30 439 460 0 441 436 442 0
 +.144 .05 .1 0 0 -1 16 441 394 0 ?443 444 438 439 0 0 1 30 442 459 0 444 439 44
5 0 +.16 .05 .1 0 0 -1 16 444 406 0 ?446 447 441 442 0 0 1 30 445 458 0 447 442
 448 0 +.16 0 .1 0 0 -1 16 447 402 0 ?449 450 444 445 0 0 1 30 448 457 0 450 445
 451 0 +.144 0 .1 0 0 -1 16 450 398 0 ?452 453 447 448 0 0 1 30 451 355 0 453 44
8 454 0 +.134 .55 .01 0 -1 0 16 453 282 0 ?455 456 450 451 0 0 1 30 454 354 0 45
6 451 457 0 +.134 .4 .01 1 0 0 16 456 286 0 ?458 459 453 454 0 0 1 30 457 353 0
 459 454 460 0 +.15 .55 .01 0 1 0 16 459 290 0 ?461 462 456 457 0 0 1 30 460 351
 0 462 457 463 0 +.134 .55 .1 0 0 -1 16 462 285 0 ?464 465 459 460 0 0 1 30 463
 350 0 465 460 466 0 +.15 .55 .1 0 0 -1 16 465 297 0 ?467 468 462 463 0 0 1 30 4
66 349 0 468 463 469 0 +.15 .4 .1 0 0 -1 16 468 293 0 ?470 471 465 466 0 0 1 30
 469 348 0 471 466 472 0 +.134 .4 .1 0 0 -1 16 471 289 0 ?473 474 468 469 0 0 1
 30 472 7 0 475 469 476 0 +0 0 .01 0 -1 0 16 475 143 0 ?147 477 478 472 0 0 1 30
 476 11 0 479 472 480 0 +0 0 .01 1 0 0 16 479 9 0 ?83 481 482 476 482 477 1 30 4
80 15 0 481 476 483 0 +.2 0 .01 0 1 0 16 481 13 0 ?484 485 479 480 0 0 1 30 483
 19 0 486 480 487 0 +0 .55 .01 -1 0 0 16 486 170 0 ?110 488 489 483 485 489 1 30
 487 74 0 474 483 490 0 +0 0 0 0 -1 0 16 474 140 0 ?142 491 471 487 0 0 1 30 490
 73 0 491 487 492 0 +0 0 0 1 0 0 16 491 58 0 ?138 493 474 490 0 0 1 30 492 72 0
 493 490 494 0 +.2 0 0 0 1 0 16 493 54 0 ?495 478 491 492 0 0 1 30 494 71 0 478
 492 496 0 +0 .55 0 -1 0 0 16 478 151 0 ?497 475 493 494 0 0 1 30 496 97 0 488 4
94 498 0 +.2 0 .01 0 0 -1 16 488 81 0 ?499 500 486 496 0 0 1 30 498 98 0 500 496
 501 0 +0 0 .01 0 0 -1 16 500 82 0 ?502 503 488 498 0 0 1 30 501 147 0 503 498 5
04 0 +0 .51 .01 0 0 -1 16 503 145 0 ?505 506 500 501 0 0 1 31 255 504 161 0 506
 501 507 0 +.16 .51 0 0 0 -1 -1 0 0 .04 16 506 159 0 ?122 508 503 504 0 0 1 31 5
07 166 0 508 504 509 0 +.04 .51 0 0 0 -1 -1 0 0 .04 16 508 164 0 ?125 510 506 50
7 0 0 1 30 509 177 0 510 507 511 0 +.16 .55 .01 0 0 -1 16 510 175 0 ?512 513 508
 509 0 0 1 30 511 182 0 513 509 514 0 -.04 .55 .01 0 0 -1 16 513 180 0 ?515 516
 510 511 0 0 1 31 514 190 0 516 511 517 0 -.16 .51 .01 0 0 -1 -1 0 0 .04 16 516
 188 0 ?119 518 513 514 0 0 1 31 517 195 0 518 514 519 0 -.04 .51 .01 0 0 -1 -1
 0 0 .04 16 518 193 0 ?131 520 516 517 0 0 1 30 519 200 0 520 517 521 0 -.2 .51
 .01 0 0 -1 16 520 198 0 ?113 522 518 519 0 0 1 30 521 1920 0 522 519 523 0 +0 .
51 .2 0 0 -1 16 522 1918 0 ?257 524 520 521 0 0 1 31 523 1934 0 524 521 525 0 +.
16 .51 .19 0 0 -1 -1 0 0 .04 16 524 1932 0 ?47 526 522 523 0 0 1 31 525 1939 0 5
26 523 527 0 +.04 .51 .19 0 0 -1 -1 0 0 .04 16 526 1937 0 ?44 528 524 525 0 0 1
 30 527 1950 0 528 525 529 0 +.16 .55 .01 0 0 -1 16 528 1948 0 ?530 37 526 527 0
 0 1 30 529 1960 0 37 527 531 0 -.04 .55 .01 0 0 -1 16 37 1958 0 ?31 532 528 529
 0 0 1 31 531 1973 0 532 529 20 0 -.16 .51 .2 0 0 -1 -1 0 0 .04 16 532 1971 0 ?3
9 24 37 531 0 0 1 31 20 1978 0 24 531 7 0 -.04 .51 .2 0 0 -1 -1 0 0 .04 16 24 19
76 0 ?53 10 532 20 0 0 1 17 39 0 248 38 30 32 533 532 0 34 +17 38 0 248 53 39 25
 34 282 0 255 +17 30 0 248 39 246 11 27 271 0 533 +17 533 0 534 29 535 11 39 532
 0 0 -17 34 0 33 530 31 32 38 282 0 535 -15 33 83 0 35 536 0 17 530 0 33 173 34
 48 535 528 0 537 +16 282 1943 0 ?38 270 271 538 0 0 1 17 535 0 534 533 50 32 53
0 528 0 0 -15 534 2022 0 533 18 0 17 50 0 534 535 29 48 47 524 0 530 -17 29 0 53
4 50 533 45 23 10 0 0 -17 47 0 539 540 537 45 50 524 0 28 +15 539 1754 0 274 541
 0 17 540 0 539 542 47 238 28 543 0 0 -17 537 0 539 47 338 48 173 260 0 0 -17 28
 0 26 23 269 45 540 543 0 29 +15 26 1775 0 28 544 0 17 269 0 26 28 27 238 254 27
0 0 540 +16 543 1677 0 ?28 545 546 547 0 0 1 16 545 1693 0 ?35 548 543 284 548 2
60 1 16 546 1661 0 ?267 543 549 550 551 549 1 30 547 1811 0 543 550 284 0 +.2 0
 .19 0 1 0 30 550 1812 0 546 552 547 0 +0 0 .19 1 0 0 30 284 1810 0 260 547 283
 0 +0 .55 .19 -1 0 0 16 260 1924 0 ?173 250 548 284 545 548 1 17 173 0 33 467 53
0 171 537 260 0 553 +16 548 1687 0 ?554 260 545 284 260 545 1 17 554 0 555 362 5
56 210 557 548 0 0 +15 555 1872 0 556 536 33 17 362 0 555 558 554 63 212 360 0 3
44 +17 556 0 555 554 558 234 464 462 0 557 -17 557 0 539 335 279 234 554 548 0 0
 -17 335 0 539 341 557 165 236 333 0 0 +17 279 0 539 557 287 210 559 277 0 554 +
17 287 0 539 279 290 216 560 280 0 0 +17 559 0 561 353 212 216 279 277 0 287 -15
 561 863 0 344 562 0 17 353 0 561 344 559 57 218 351 0 0 +17 212 0 561 559 344 2
10 362 360 0 279 -17 344 0 561 212 353 63 59 342 0 0 +17 59 0 563 62 65 57 344 3
42 0 350 -15 563 819 0 59 16 0 17 62 0 563 564 59 60 350 348 0 347 -17 65 0 563
 59 107 63 558 489 0 362 +17 350 0 565 218 356 57 62 348 0 353 +15 565 875 0 350
 566 0 17 218 0 565 560 350 216 353 351 0 559 -17 356 0 565 350 560 60 215 354 0
 0 +17 560 0 565 356 218 213 287 280 0 290 -17 215 0 567 233 347 213 356 354 0 5
60 -15 567 871 0 347 568 0 17 233 0 567 359 215 231 290 288 0 569 -17 347 0 567
 215 359 60 564 345 0 356 +17 359 0 567 347 233 162 569 357 0 0 +17 564 0 563 11
6 62 162 347 345 0 359 -17 116 0 563 131 564 114 164 485 0 515 +17 131 0 563 147
 116 129 570 518 0 571 +17 164 0 33 569 515 162 116 485 0 564 -16 485 807 0 ?116
 489 481 483 489 486 1 17 515 0 33 164 497 114 572 513 0 570 +17 497 0 33 515 51
2 123 573 478 0 572 +17 572 0 574 134 570 123 515 513 0 0 -17 570 0 574 572 575
 114 131 518 0 0 -15 574 213 0 570 576 0 17 575 0 574 570 134 129 505 503 0 0 -1
7 134 0 574 575 572 132 125 508 0 505 -17 505 0 577 142 571 132 575 503 0 578 +1
5 577 89 0 571 579 0 17 142 0 577 580 505 140 578 474 0 581 +17 571 0 577 505 58
0 129 147 475 0 575 -17 578 0 582 125 581 132 142 474 0 0 -15 582 49 0 578 583 0
 17 125 0 582 573 578 123 134 508 0 497 +17 581 0 582 578 584 140 138 491 0 502
 -17 584 0 582 581 122 136 495 493 0 0 -17 138 0 262 585 502 136 581 491 0 499 +
17 502 0 262 138 586 140 580 500 0 0 +17 586 0 262 502 401 139 83 479 0 580 -17
 580 0 577 571 142 139 502 500 0 0 -17 401 0 262 586 267 81 200 399 0 0 +17 83 0
 563 80 147 81 586 479 0 395 +17 80 0 563 77 83 78 395 393 0 392 -17 147 0 563 8
3 131 139 571 475 0 586 +17 395 0 587 200 404 81 80 393 0 401 +15 587 654 0 395
 588 0 17 200 0 587 589 395 198 401 399 0 308 -17 404 0 587 395 589 78 197 402 0
 0 +17 589 0 587 404 200 195 308 306 0 311 -17 197 0 590 591 392 195 404 402 0 5
89 -15 590 650 0 392 592 0 17 591 0 590 407 197 192 311 309 0 305 -17 392 0 590
 197 407 78 77 390 0 404 +17 407 0 590 392 591 75 194 405 0 389 +17 77 0 563 593
 80 75 392 390 0 407 -17 593 0 563 101 77 156 389 387 0 398 -17 101 0 563 95 593
 99 158 482 0 452 +17 389 0 594 194 398 75 593 387 0 0 +17 398 0 594 389 230 156
 595 396 0 0 +15 594 646 0 389 596 0 17 230 0 594 398 194 228 305 303 0 595 -17
 595 0 266 597 158 228 398 396 0 598 -15 266 87 0 597 265 0 17 597 0 266 452 595
 174 598 549 0 0 +17 158 0 266 595 452 156 101 482 0 593 -17 598 0 539 305 326 2
28 597 549 0 0 -17 305 0 539 311 598 192 230 303 0 0 +17 326 0 539 598 329 174 5
99 324 0 597 +16 549 1667 0 ?597 546 551 550 546 551 1 16 551 1673 0 ?240 549 27
5 550 549 546 1 17 240 0 262 254 264 238 542 551 0 269 +16 275 1913 0 ?244 551 0
 552 0 0 1 30 552 1813 0 275 538 550 0 +0 0 .19 0 -1 0 30 538 1814 0 282 600 552
 0 +0 .55 .2 -1 0 0 30 600 1815 0 271 272 538 0 +.2 0 .2 0 1 0 16 271 1703 0 ?30
 282 253 600 0 0 1 30 272 1816 0 253 261 600 0 +0 0 .2 1 0 0 30 261 1817 0 250 0
 272 0 +0 0 .2 0 -1 0 17 264 0 262 240 152 225 449 447 0 542 -17 542 0 539 332 5
40 225 240 551 0 0 -17 332 0 539 329 542 177 227 330 0 0 +17 329 0 539 326 332 1
80 601 327 0 0 +17 227 0 602 449 179 225 332 330 0 264 -15 602 438 0 437 603 0 1
7 449 0 602 437 227 150 264 447 0 0 +17 179 0 602 227 437 177 446 444 0 601 -17
 437 0 602 179 449 96 604 435 0 446 +17 446 0 605 440 601 96 179 444 0 0 +17 601
 0 605 446 182 177 329 327 0 332 -15 605 442 0 440 606 0 17 182 0 605 601 440 18
0 443 441 0 599 -17 440 0 605 182 446 93 98 438 0 443 +17 443 0 607 434 599 93 1
82 441 0 0 +17 599 0 607 443 176 180 326 324 0 329 -15 607 430 0 434 608 0 17 17
6 0 607 599 434 174 452 450 0 326 -17 434 0 607 176 443 99 95 432 0 0 +17 452 0
 266 158 597 99 176 450 0 434 +17 95 0 563 98 101 93 434 432 0 440 -17 98 0 563
 604 95 96 440 438 0 437 -17 604 0 563 145 98 150 437 435 0 449 -17 145 0 563 48
4 604 135 152 477 0 585 +17 484 0 563 119 145 111 609 481 0 610 +17 152 0 262 26
4 585 150 145 477 0 604 -16 477 374 0 ?145 482 475 476 479 482 1 17 585 0 262 15
2 138 135 499 488 0 609 -17 499 0 611 495 609 136 585 488 0 584 +17 609 0 611 49
9 113 135 484 481 0 0 -15 611 85 0 495 612 0 17 113 0 611 609 495 111 613 520 0
 484 +17 495 0 611 113 499 120 584 493 0 613 +17 613 0 614 128 610 120 113 520 0
 0 -15 614 234 0 610 615 0 17 128 0 614 616 613 126 122 506 0 512 -17 610 0 614
 613 616 111 119 516 0 0 -17 616 0 614 610 128 117 512 510 0 0 -17 119 0 563 110
 484 117 610 516 0 617 +17 110 0 563 149 119 108 617 486 0 461 +17 617 0 33 512
 467 117 110 486 0 616 -17 512 0 33 497 617 126 616 510 0 573 +17 467 0 33 617 1
73 108 553 465 0 0 +17 553 0 618 619 461 171 467 465 0 338 -15 618 329 0 461 620
 0 17 619 0 618 470 553 168 338 336 0 341 -17 461 0 618 553 470 108 149 459 0 46
7 +17 338 0 539 537 341 171 619 336 0 0 +17 341 0 539 338 335 168 621 339 0 0 +1
7 621 0 622 473 170 165 341 339 0 335 -15 622 325 0 458 623 0 17 473 0 622 458 6
21 102 167 471 0 455 +17 170 0 622 621 458 168 470 468 0 619 -17 458 0 622 170 4
73 143 104 456 0 470 +17 470 0 618 461 619 143 170 468 0 0 +17 104 0 563 107 149
 102 458 456 0 473 -17 107 0 563 65 104 105 455 453 0 558 -17 149 0 563 104 110
 143 461 459 0 458 -17 455 0 624 167 464 102 107 453 0 0 +17 558 0 555 556 362 1
05 65 489 0 464 -16 489 268 0 ?65 486 485 483 486 485 1 17 464 0 624 455 236 105
 556 462 0 0 +15 624 321 0 455 625 0 17 236 0 624 464 167 234 335 333 0 556 -17
 167 0 624 236 455 165 473 471 0 621 -14 255 625 318 626 ?623 615 624 5 627 -0 0
 623 615 22 81 1 626 2363 628 625 629 0 0 630 631 14 623 322 630 ?620 625 622 5
 632 -0 0 620 625 22 14 615 233 633 ?625 576 614 5 634 +0 0 625 576 22 50 255 62
7 342 0 625 632 635 0 +.134 .55 .1 1 0 0 0 0 -1 13 22 34 0 0 0 0 0 0 9 16 14 16
 821 636 ?579 0 637 5 635 -0 0 579 0 22 81 1 636 2366 628 16 638 0 633 639 640 1
4 579 90 639 ?265 16 577 5 641 -0 0 265 16 22 15 637 711 0 161 16 642 50 635 3 0
 16 627 643 0 +0 0 .01 0 0 -1 -1 0 0 50 643 70 0 583 635 644 0 +0 0 0 0 0 -1 -1
 0 0 14 583 48 645 ?576 536 582 5 643 +0 0 576 536 22 50 644 91 0 536 643 646 0
 +0 .55 .01 0 -1 0 0 0 -1 14 536 84 647 ?583 612 555 5 644 -0 0 583 612 22 50 64
6 92 0 612 644 648 0 +.2 0 .01 -1 0 0 0 0 1 14 612 86 649 ?536 265 611 5 646 -0
 0 536 265 22 50 648 93 0 265 646 641 0 +0 0 .01 0 1 0 0 0 1 14 265 88 650 ?612
 579 262 5 648 -0 0 612 579 22 50 641 94 0 579 648 651 0 +0 0 .01 1 0 0 0 0 -1 5
1 651 224 0 576 641 634 0 +.04 .51 .01 0 0 -1 .04 -1 0 0 14 576 212 652 ?615 583
 574 5 651 +0 0 615 583 22 51 634 245 0 615 651 19 0 +.16 .51 .01 0 0 -1 .04 -1
 0 0 51 19 2012 0 653 634 6 0 +.04 .51 .2 0 0 -1 .04 -1 0 0 14 653 2000 654 ?18
 252 655 5 19 +0 0 18 252 22 81 1 654 2373 628 653 656 0 652 657 658 14 18 2021
 657 ?0 653 534 5 6 +0 0 0 653 22 14 252 1780 659 ?653 544 248 5 660 -0 0 653 54
4 22 15 655 2001 0 255 653 0 17 255 0 655 36 259 25 53 24 0 0 -17 36 0 655 56 25
5 40 31 37 0 0 -17 259 0 655 255 56 51 257 522 0 0 -17 56 0 655 259 36 54 44 526
 0 257 -17 257 0 256 244 249 54 259 522 0 274 +17 274 0 539 44 276 54 244 275 0
 0 -17 44 0 539 661 274 40 56 526 0 35 +17 276 0 539 274 308 242 267 546 0 263 -
17 308 0 539 276 311 198 589 306 0 267 +17 267 0 262 401 263 198 276 546 0 0 +17
 311 0 539 308 305 195 591 309 0 0 +17 661 0 539 290 44 231 35 545 0 0 -17 35 0
 33 31 569 40 661 545 0 36 +17 569 0 33 35 164 231 359 357 0 661 -17 290 0 539 2
87 661 213 233 288 0 0 +81 1 659 2375 628 252 662 0 657 663 664 14 544 1772 663
 ?252 273 26 5 665 -0 0 252 273 22 50 660 1793 0 252 0 666 0 +0 0 .2 0 0 -1 -1 0
 0 50 666 1792 0 541 660 665 0 +0 0 .19 0 0 -1 -1 0 0 14 541 1750 667 ?273 566 6
68 5 666 +0 0 273 566 22 50 665 1790 0 544 666 669 0 +.2 0 .2 -1 0 0 0 0 1 50 66
9 1788 0 273 665 670 0 +0 0 .2 1 0 0 0 0 -1 14 273 1764 671 ?544 541 256 5 669 -
0 0 544 541 22 50 670 887 0 566 669 672 0 +.066 .4 .1 0 1 0 0 0 1 14 566 872 673
 ?541 568 565 5 670 -0 0 541 568 22 50 672 886 0 568 670 674 0 +.05 .55 .1 1 0 0
 0 0 -1 14 568 868 675 ?566 562 567 5 672 -0 0 566 562 22 50 674 884 0 562 672 6
76 0 +.066 .55 .1 -1 0 0 0 0 1 14 562 860 677 ?568 678 561 5 674 -0 0 568 678 22
 50 676 779 0 678 674 679 0 +.056 .29 .1 -1 0 0 0 0 1 14 678 764 680 ?562 681 68
2 5 676 -0 0 562 681 22 50 679 778 0 681 676 683 0 +.056 .27 .1 0 1 0 0 0 1 14 6
81 760 684 ?678 685 686 5 679 -0 0 678 685 22 50 683 777 0 685 679 687 0 +.04 .2
9 .1 1 1387778780781444e-30 0 -1387778780781444e-30 1 0 14 685 756 688 ?681 689
 690 5 683 -0 0 681 689 22 50 687 776 0 689 683 691 0 +.056 .29 .1 3469446951953
61e-29 -1 0 1 346944695195361e-29 0 14 689 752 692 ?685 588 693 5 687 -0 0 685 5
88 22 50 691 669 0 588 687 694 0 +.04 0 .1 1 0 0 0 0 -1 14 588 651 695 ?689 592
 587 5 691 -0 0 689 592 22 50 694 668 0 592 691 696 0 +.056 .05 .1 0 -1 0 0 0 -1
 14 592 647 697 ?588 596 590 5 694 -0 0 588 596 22 50 696 667 0 596 694 698 0 +.
056 0 .1 -1 0 0 0 0 1 14 596 643 699 ?592 700 594 5 696 -0 0 592 700 22 50 698 5
63 0 700 696 701 0 +.144 .29 .1 -346944695195361e-29 -1 0 1 -346944695195361e-29
 0 14 700 548 702 ?596 703 704 5 698 -0 0 596 703 22 50 701 562 0 703 698 705 0
 +.16 .29 .1 -1 1387778780781444e-30 0 -1387778780781444e-30 -1 0 14 703 544 706
 ?700 707 708 5 701 -0 0 700 707 22 50 705 561 0 707 701 709 0 +.144 .27 .1 0 1
 0 0 0 1 14 707 540 710 ?703 711 712 5 705 -0 0 703 711 22 50 709 560 0 711 705
 713 0 +.144 .29 .1 1 0 0 0 0 -1 14 711 536 714 ?707 606 715 5 709 -0 0 707 606
 22 50 713 454 0 606 709 716 0 +.144 .05 .1 0 -1 0 0 0 -1 14 606 439 717 ?711 60
3 605 5 713 -0 0 711 603 22 50 716 453 0 603 713 718 0 +.16 0 .1 -1 0 0 0 0 1 14
 603 435 719 ?606 608 602 5 716 -0 0 606 608 22 50 718 451 0 608 716 720 0 +.144
 0 .1 1 0 0 0 0 -1 14 608 427 721 ?603 620 607 5 718 -0 0 603 620 22 50 720 344
 0 620 718 632 0 +.15 .55 .1 -1 0 0 0 0 1 14 620 326 722 ?608 623 618 5 720 -0 0
 608 623 22 50 632 343 0 623 720 627 0 +.134 .4 .1 0 1 0 0 0 1 81 1 722 2396 628
 620 723 0 721 0 724 80 255 1 628 725 726 9000 1 1 1 1 1 1 1 1 0 FFFFTFTFFFFFFF1
 81 1 723 2239 727 620 0 722 728 729 730 81 1 721 2395 628 608 729 0 719 722 731
 82 255 1 724 754843944 81 1 729 2240 727 608 0 721 723 732 733 81 1 719 2394 62
8 603 732 0 717 721 734 82 1 731 767099176 81 1 732 2241 727 603 0 719 729 735 7
36 81 1 717 2393 628 606 735 0 714 719 737 82 1 734 766574888 81 1 735 2242 727
 606 0 717 732 738 739 81 1 714 2392 628 711 738 0 710 717 740 82 1 737 76631274
4 81 1 738 2243 727 711 0 714 735 741 742 81 1 710 2391 628 707 741 0 706 714 74
3 82 1 740 778764584 81 1 741 2244 727 707 0 710 738 744 745 81 1 706 2390 628 7
03 744 0 702 710 746 82 1 743 778502440 81 1 744 2245 727 703 0 706 741 747 748
 81 1 702 2389 628 700 747 0 699 706 749 82 1 746 778240296 81 1 747 2246 727 70
0 0 702 744 750 751 81 1 699 2388 628 596 750 0 697 702 752 82 1 749 777978152 8
1 1 750 2247 727 596 0 699 747 753 754 81 1 697 2387 628 592 753 0 695 699 755 8
2 1 752 790429992 81 1 753 2248 727 592 0 697 750 756 757 81 1 695 2386 628 588
 756 0 692 697 758 82 1 755 790167848 81 1 756 2249 727 588 0 695 753 759 760 81
 1 692 2385 628 689 759 0 688 695 761 82 1 758 789905704 81 1 759 2250 727 689 0
 692 756 762 763 81 1 688 2384 628 685 762 0 684 692 764 82 1 761 802095400 81 1
 762 2251 727 685 0 688 759 765 766 81 1 684 2383 628 681 765 0 680 688 767 82 1
 764 801833256 81 1 765 2252 727 681 0 684 762 768 769 81 1 680 2382 628 678 768
 0 677 684 770 82 1 767 801571112 81 1 768 2253 727 678 0 680 765 771 772 81 1 6
77 2381 628 562 771 0 675 680 773 82 1 770 801308968 81 1 771 2254 727 562 0 677
 768 774 775 81 1 675 2380 628 568 774 0 673 677 776 82 1 773 813760808 81 1 774
 2255 727 568 0 675 771 777 778 81 1 673 2379 628 566 777 0 671 675 779 82 1 776
 813236520 81 1 777 2256 727 566 0 673 774 780 781 81 1 671 2378 628 273 782 0 6
67 673 783 82 1 779 812974376 81 1 782 2258 727 273 0 671 780 784 785 81 1 667 2
377 628 541 780 0 663 671 786 82 1 783 1685324077 81 1 780 2257 727 541 0 667 77
7 782 787 81 1 663 2376 628 544 784 0 659 667 788 82 1 786 1697120557 81 1 784 2
259 727 544 0 663 782 662 789 82 1 788 1684799789 80 1 727 0 790 8001 0 0 0 0 3
 5 0 0 0 FFFFTFTFFFFFFF2 81 1 662 2260 727 252 0 659 784 656 791 83 255 3 789 .7
92156862745098 .819607843137255 .933333333333333 81 1 656 2261 727 653 0 654 662
 792 793 83 3 791 .792156862745098 .819607843137255 .933333333333333 81 1 792 22
62 727 18 0 657 656 0 794 83 3 793 .792156862745098 .819607843137255 .9333333333
33333 81 1 657 2374 628 18 792 0 654 659 795 83 3 794 .792156862745098 .81960784
3137255 .933333333333333 82 1 795 -1731985107 79 255 15 790 SDL/TYSA_COLOUR83 3
 787 .792156862745098 .819607843137255 .933333333333333 83 3 785 .79215686274509
8 .819607843137255 .933333333333333 83 3 781 .792156862745098 .819607843137255 .
933333333333333 83 3 778 .792156862745098 .819607843137255 .933333333333333 83 3
 775 .792156862745098 .819607843137255 .933333333333333 83 3 772 .79215686274509
8 .819607843137255 .933333333333333 83 3 769 .792156862745098 .819607843137255 .
933333333333333 83 3 766 .792156862745098 .819607843137255 .933333333333333 83 3
 763 .792156862745098 .819607843137255 .933333333333333 83 3 760 .79215686274509
8 .819607843137255 .933333333333333 83 3 757 .792156862745098 .819607843137255 .
933333333333333 83 3 754 .792156862745098 .819607843137255 .933333333333333 83 3
 751 .792156862745098 .819607843137255 .933333333333333 83 3 748 .79215686274509
8 .819607843137255 .933333333333333 83 3 745 .792156862745098 .819607843137255 .
933333333333333 83 3 742 .792156862745098 .819607843137255 .933333333333333 83 3
 739 .792156862745098 .819607843137255 .933333333333333 83 3 736 .79215686274509
8 .819607843137255 .933333333333333 83 3 733 .792156862745098 .819607843137255 .
933333333333333 81 1 728 2238 727 623 0 630 629 723 796 83 3 730 .79215686274509
8 .819607843137255 .933333333333333 81 1 630 2364 628 623 728 0 626 633 797 81 1
 629 2237 727 625 0 626 798 728 799 83 3 796 .792156862745098 .819607843137255 .
933333333333333 81 1 798 2236 727 615 0 633 800 629 801 83 3 799 .79215686274509
8 .819607843137255 .933333333333333 81 1 633 2365 628 615 798 0 630 636 802 81 1
 800 2235 727 576 0 652 803 798 804 83 3 801 .792156862745098 .819607843137255 .
933333333333333 81 1 652 2372 628 576 800 0 650 654 805 81 1 803 2234 727 583 0
 645 806 800 807 83 3 804 .792156862745098 .819607843137255 .933333333333333 81
 1 645 2368 628 583 803 0 639 647 808 81 1 806 2233 727 536 0 647 809 803 810 83
 3 807 .792156862745098 .819607843137255 .933333333333333 81 1 647 2369 628 536
 806 0 645 649 811 81 1 809 2232 727 612 0 649 812 806 813 83 3 810 .79215686274
5098 .819607843137255 .933333333333333 81 1 649 2370 628 612 809 0 647 650 814 8
1 1 812 2231 727 265 0 650 815 809 816 83 3 813 .792156862745098 .81960784313725
5 .933333333333333 81 1 650 2371 628 265 812 0 649 652 817 81 1 815 2230 727 579
 0 639 638 812 818 83 3 816 .792156862745098 .819607843137255 .933333333333333 8
1 1 639 2367 628 579 815 0 636 645 819 81 1 638 2229 727 16 0 636 0 815 820 83 3
 818 .792156862745098 .819607843137255 .933333333333333 83 3 820 .79215686274509
8 .819607843137255 .933333333333333 82 1 819 -1650917116 82 1 817 -1651179224 82
 1 814 -1651441404 82 1 811 -1651703507 82 1 808 -1652621052 82 1 805 -100138982
0 82 1 802 -999423740 82 1 797 755106088 79 14 726 SWEntUnchanged15 715 539 0 41
0 711 0 17 410 0 715 185 422 84 155 408 0 0 +17 185 0 715 221 410 183 431 429 0
 821 -17 422 0 715 410 221 153 822 420 0 0 +17 155 0 642 92 86 153 410 408 0 419
 -15 642 495 0 155 16 563 17 92 0 642 89 155 90 419 417 0 416 -17 86 0 642 155 8
9 84 413 411 0 431 -17 419 0 704 822 425 153 92 417 0 422 +15 704 551 0 419 700
 0 17 822 0 704 823 419 219 422 420 0 317 -17 425 0 704 419 823 90 191 423 0 0 +
17 823 0 704 425 822 189 317 315 0 320 -17 191 0 708 824 416 189 425 423 0 823 -
15 708 547 0 416 703 0 17 824 0 708 428 191 186 320 318 0 323 -17 416 0 708 191
 428 90 89 414 0 425 +17 428 0 708 416 824 87 188 426 0 0 +17 89 0 642 86 92 87
 416 414 0 413 -17 413 0 712 188 431 87 86 411 0 428 +15 712 543 0 413 707 0 17
 188 0 712 821 413 186 428 426 0 824 -17 431 0 712 413 821 84 185 429 0 410 +17
 821 0 712 431 188 183 323 321 0 314 -17 323 0 668 320 314 186 821 321 0 0 +17 3
14 0 668 323 317 183 221 312 0 0 +15 668 1752 0 317 541 825 17 317 0 668 314 320
 219 823 315 0 0 +17 221 0 715 422 185 219 314 312 0 822 -17 320 0 668 317 323 1
89 824 318 0 0 +15 825 1753 0 296 541 539 17 296 0 825 293 299 222 826 294 0 0 +
17 293 0 825 302 296 201 224 291 0 0 +17 299 0 825 296 302 207 827 297 0 0 +17 8
26 0 682 380 828 207 296 294 0 299 -15 682 767 0 374 678 0 17 380 0 682 374 826
 72 209 378 0 0 +17 828 0 682 826 374 222 377 375 0 296 -17 374 0 682 828 380 15
9 74 372 0 377 +17 377 0 693 365 224 159 828 375 0 0 +15 693 755 0 365 689 0 17
 365 0 693 203 377 66 161 363 0 0 +17 224 0 693 377 203 222 293 291 0 828 -17 20
3 0 693 224 365 201 386 384 0 829 -17 386 0 690 368 829 66 203 384 0 365 +17 829
 0 690 386 206 201 302 300 0 293 -15 690 759 0 368 685 0 17 206 0 690 829 368 20
4 383 381 0 827 -17 302 0 825 299 293 204 829 300 0 0 +17 368 0 690 206 386 69 6
8 366 0 383 +17 383 0 686 371 827 69 206 381 0 0 +17 827 0 686 383 209 204 299 2
97 0 302 -15 686 763 0 371 681 0 17 209 0 686 827 371 207 380 378 0 826 -17 371
 0 686 209 383 72 71 369 0 380 +17 71 0 637 68 74 69 371 369 0 368 -17 68 0 637
 161 71 66 368 366 0 386 -17 74 0 637 71 161 72 374 372 0 371 -17 161 0 637 74 6
8 159 365 363 0 374 -82 1 664 1677984045 82 1 658 -1733951187 82 1 640 833028364
 82 1 631 755368232 17 573 0 582 122 125 126 497 478 0 0 -17 122 0 582 584 573 1
20 128 506 0 495 +16 482 591 0 ?101 479 477 476 477 479 1 17 194 0 594 230 389 1
92 407 405 0 591 -17 27 0 26 269 23 237 30 271 0 0 -19 17 100 0 1 0 9 5 S0 74 4
 CI16 index_map_offset0 0 1 dCCZ20 15 8 0 0 722 830 831 832 833 13 792 2 0 0 0 0
 0 0 0 0 0 0 0 0 81 2 830 1873 834 1 0 831 0 0 0 835 81 2 831 1881 836 1 830 832
 0 0 0 837 81 2 832 1909 838 1 831 833 0 0 0 0 81 1 833 2050 839 1 832 13 0 0 84
0 81 2 13 2086 841 1 833 2 0 0 842 0 80 2 841 843 844 8004 0 0 0 0 3 5 0 0 0 FFT
FFFFFFFFFFF2 3 83 1 842 1 79 16 844 SDL/TYSA_DENSITY80 1 839 845 846 9000 1 1 1
 1 1 1 1 1 0 FFTFFFFFFFFFFF1 82 1 840 564519 79 10 846 BODY_MATCH80 2 838 847 84
8 9000 0 0 0 0 3 5 0 0 0 FFTFFFFFFFFFFF9 1 79 16 848 BODY_RECIPE_200180 2 836 84
9 850 9000 0 0 0 0 3 5 0 0 0 FFTFFFFFFFFFFF9 1 82 1 837 150 79 30 850 LAST_BODY_
MODIFYING_FEATURE_ID80 2 834 851 852 9000 0 0 0 0 3 5 0 0 0 FFTFFFFFFFFFFF9 1 82
 1 835 281 79 19 852 ENT_TIME_STAMP_200180 2 12 853 854 9000 0 0 0 0 3 5 0 0 0 F
FTFFFFFFFFFFF9 1 82 1 14 112 79 12 854 ATOM_ID_20011 0 
