**ABCDEFGHIJKLMNOPQRSTUVWXYZabcdefghijklmnopqrstuvwxyz**************************
**PARASOLID !"#$%&'()*+,-./:;<=>?@[\]^_`{|}~0123456789**************************
**PART1;
MC=AMD64;
MC_MODEL=Intel64 Family 6 Model 151 Stepping 2, GenuineIntel;
MC_ID=unknown;
OS=Windows_NT;
OS_RELEASE=unknown;
FRU=Parasolid Version 35.1, build 210,  4-20-2023;
APPL=SOLIDWORKS 2024-2023282;
SITE=;
USER=unknown;
FORMAT=text;
GUISE=transmit;
KEY=Final_New_Arm_Fornt Upper_2T;
FILE=Final_New_Arm_Fornt Upper_2T.x_t;
DATE=Mon Dec 18 22:40:08 2023;
**PART2;
SCH=SCH_3501210_35102;
USFLD_SIZE=0;
**PART3;
**END_OF_HEADER*****************************************************************
T51 : TRANSMIT FILE created by modeller version 350121023 SCH_3501210_35102_1300
6231 0 10 21 CCCCI7 lattice222 0 CCCI4 mesh1006 0 I8 polyline1008 0 CCCCCCCCCCA1
6 mesh_offset_data206 0 Z1 25 2 3 0 0 0 0 0 0 0 0 1e3 1e-8 0 0 0 1 0 1 4 0 81 25
5 1 2 25 5 1 0 0 0 0 0 70 11 CI9 list_type0 0 1 uI10 notransmit0 0 1 lCCCDCCDI12
 finger_index0 0 1 dI12 finger_block1012 0 CZ3 0 4 T1 0 0 1 20 1 6 6 11 255 4 23
 0 1 7 8 1 9 0 9 0 12 36 CCCI7 lattice222 0 CCCI4 mesh1006 0 I8 polyline1008 0 C
CCCCCCDI5 owner1040 0 CCCI16 boundary_lattice222 0 CCCI13 boundary_mesh1006 0 I1
7 boundary_polyline1008 0 CCCA16 index_map_offset0 0 1 dA9 index_map82 0 A17 nod
e_id_index_map82 0 A20 schema_embedding_map82 0 A5 child12 0 A14 lowest_node_id0
 0 1 dA16 mesh_offset_data206 0 Z7 549 10 11 0 0 0 0 0 0 0 1e3 1e-8 4 12 0 1 0 1
 1 13 0 14 15 0 0 0 16 17 0 0 0 0 0 0 0 0 100 10 CCCCCCCCCA9 precision229 0 Z8 2
4 4 0 0 503069808033274e-31 .999111312855918 -.04214954950321675 -1 -10408340855
86084e-31 0 0 .04214954950321675 .999111312855918 -.01012725043505774 .013952721
08843536 -.096405 1 3 ?0 11 9 21 0 1 7 18 1 19 4 19 4 100 18 22 9 0 0 1 36207767
77209985e-32 116989723393041e-30 1224646799147352e-31 -.295658860965538 -.955293
587297937 -246519032881566e-46 .955293587297937 -.295658860965538 .0680872428851
136 .01395272108843536 .134015 1 3 ?0 11 19 19 0 1 7 20 1 21 9 0 9 100 20 20 19
 0 0 1 0 0 0 1 0 0 0 1 -.088341743755229 .01395272108843536 .134015 1 1 ?0 11 21
 17 0 1 12 22 1 23 19 24 0 12 12 1299 25 26 0 0 0 0 0 0 0 1e3 1e-8 21 27 7 1 0 1
 1 28 0 29 30 31 0 0 32 33 34 0 0 0 0 0 0 0 100 22 18 21 0 0 -208780793899214e-4
5 127675647831893e-29 1 1 1224917849690474e-31 -3460581900612045e-50 -1224917849
690474e-31 1 -127675647831893e-29 .0680872428851136 .01395272108843536 .134015 1
 3 ?0 11 23 15 0 1 27 35 1 24 21 36 0 12 27 274 37 38 0 0 0 0 0 0 0 1e3 1e-8 23
 39 12 1 0 1 1 40 0 41 42 0 0 0 43 44 0 0 0 0 0 0 0 0 100 35 16 23 0 0 -20878079
3899214e-45 127675647831893e-29 1 1 1224917849690474e-31 -3460581900612045e-50 -
1224917849690474e-31 1 -127675647831893e-29 .0680872428851136 .01395272108843536
 .134015 1 3 ?0 11 24 13 0 1 12 45 1 36 23 0 21 100 45 14 24 0 0 361575182270665
e-45 -1165734175856414e-30 1 1 1224917849690474e-31 -197183628282417e-45 -122491
7849690474e-31 1 1165734175856414e-30 -.088341743755229 .01395272108843536 .1340
15 1 3 ?0 11 36 11 0 1 27 46 1 47 24 0 23 100 46 12 36 0 0 361575182270665e-45 -
1165734175856414e-30 1 1 1224917849690474e-31 -197183628282417e-45 -122491784969
0474e-31 1 1165734175856414e-30 -.088341743755229 .01395272108843536 .134015 1 3
 ?0 11 47 9 0 1 39 48 1 49 36 0 0 12 39 227 50 51 0 0 0 0 0 0 0 1e3 1e-8 47 52 2
7 1 0 1 1 53 0 54 55 0 0 0 56 57 0 0 0 0 0 0 0 0 100 48 10 47 0 0 1 0 0 0 1 0 0
 0 1 -.01012725043505774 .01395272108843536 -.0840978869793271 1 1 ?0 11 49 7 0
 1 52 58 1 59 47 0 0 12 52 84 60 61 0 0 0 0 0 0 0 1e3 1e-8 49 62 39 1 0 1 1 63 0
 64 65 0 0 0 66 67 0 0 0 0 0 0 0 0 100 58 8 49 0 0 1 0 0 0 1 0 0 0 1 -.010127250
43505774 .01395272108843536 -.0840978869793271 1 1 ?0 11 59 5 0 1 62 68 1 69 49
 0 0 12 62 84 70 71 0 0 0 0 0 0 0 1e3 1e-8 59 72 52 1 0 1 1 73 0 74 75 0 0 0 76
 77 0 0 0 0 0 0 0 0 100 68 6 59 0 0 1 0 0 0 1 0 0 0 1 -.01012725043505774 .01395
272108843536 -.0840978869793271 1 1 ?0 11 69 3 0 1 72 78 1 79 59 0 0 12 72 82 80
 81 0 0 0 0 0 0 0 1e3 1e-8 69 82 62 1 0 1 1 83 0 84 85 0 0 0 86 87 0 0 0 0 0 0 0
 0 100 78 4 69 0 0 1 0 0 0 1 0 0 0 1 -.01012725043505774 .01395272108843536 -.08
40978869793271 1 1 ?0 11 79 1 0 1 82 88 1 0 69 0 0 12 82 83 89 90 0 0 0 0 0 0 0
 1e3 1e-8 79 91 72 1 0 1 1 92 0 93 94 0 0 0 95 96 0 0 0 0 0 0 0 0 100 88 2 79 0
 0 1 0 0 0 1 0 0 0 1 -.01012725043505774 .01395272108843536 -.0840978869793271 1
 1 ?0 81 1 89 83 5 82 97 0 0 0 98 70 90 0 4 T82 0 0 4 20 1 99 99 13 255 92 7 0 8
2 0 100 0 0 101 0 50 255 93 41 0 102 103 0 0 +-.0782144933201712 178671012311454
e-36 .160502886979327 .205910542700106 1084202172485504e-34 -.978570819309951 -.
978570819309951 -216840434497101e-33 -.205910542700106 32 255 94 43 0 104 105 0
 0 +-.0782144933201712 178671012311454e-36 .160502886979327 .205910542700106 108
4202172485504e-34 -.978570819309951 .978570819309951 216840434497101e-33 .205910
542700106 .00585036860596052 .005725 19 9 CCCCCCI5 frame230 0 CA5 owner12 0 Z95
 5 0 82 101 0 106 0 V0 16 255 96 15 0 ?107 0 108 105 0 0 82 17 255 107 0 109 107
 107 0 110 96 0 0 +16 108 12 0 ?111 96 112 113 0 0 82 32 105 42 0 96 113 94 0 +-
.0782144933201712 178671012311454e-36 .160502886979327 .205910542700106 10842021
72485504e-34 -.978570819309951 .978570819309951 216840434497101e-33 .20591054270
0106 .00807299772700228 .0079 31 255 113 38 0 108 114 105 0 +-.0782144933201712
 727918939046664e-37 .195502886979327 1158795281952506e-30 0 -1 -1 -433680868994
202e-33 -1172673069760322e-30 .005725 31 114 37 0 112 0 113 0 +-.078214493320171
2 727918939046664e-37 .195502886979327 1158795281952506e-30 0 -1 -1 -43368086899
4202e-33 -1172673069760322e-30 .0079 16 112 9 0 ?115 108 104 114 0 0 82 17 115 0
 116 115 115 0 117 112 0 0 +16 104 8 0 ?118 112 0 94 0 0 82 17 118 0 119 118 118
 0 120 104 0 0 +15 255 119 20 0 118 100 0 17 120 0 121 120 120 0 118 104 0 0 -15
 121 34 0 120 102 109 14 255 102 31 122 ?0 123 121 92 93 +0 0 0 123 106 15 109 3
5 0 107 102 0 81 1 122 82 124 102 0 0 125 0 126 14 123 26 125 ?102 127 128 92 12
9 -0 0 102 127 106 13 106 6 0 0 0 0 0 0 95 100 14 100 16 130 ?127 0 131 92 132 +
0 0 127 0 106 81 1 130 79 124 100 0 0 0 133 134 14 127 21 133 ?123 100 116 92 10
3 -0 0 123 100 106 15 131 19 0 135 100 119 51 255 132 39 0 100 129 103 0 --.0782
144933201712 178671012311454e-36 .160502886979327 -117961196366423e-29 677626357
80344e-34 1 .005725 1 433680868994202e-33 1193489751472042e-30 50 129 36 0 123 0
 132 0 +-.0782144933201712 727918939046664e-37 .195502886979327 1158795281952506
e-30 0 -1 -1 -433680868994202e-33 -1172673069760322e-30 51 103 40 0 127 132 93 0
 --.0782144933201712 178671012311454e-36 .160502886979327 -117961196366423e-29 6
7762635780344e-34 1 .0079 1 433680868994202e-33 1193489751472042e-30 17 135 0 13
1 135 135 0 111 108 0 0 -17 111 0 128 111 111 0 135 108 0 0 +15 128 29 0 111 123
 136 15 136 30 0 117 123 0 17 117 0 136 117 117 0 115 112 0 0 -81 1 133 80 124 1
27 0 0 130 125 137 15 116 24 0 115 127 138 15 138 25 0 110 127 0 17 110 0 138 11
0 110 0 107 96 0 0 -80 7 CCCCCDI12 legal_owners0 16 1 lCZ1 124 0 139 8001 0 0 0
 0 3 5 0 0 0 FFFFTFTFFFFFFFFF2 81 1 125 81 124 123 0 0 133 122 140 83 255 3 137
 .792156862745098 .819607843137255 .933333333333333 83 3 140 .792156862745098 .8
19607843137255 .933333333333333 79 255 15 139 SDL/TYSA_COLOUR83 3 134 .792156862
745098 .819607843137255 .933333333333333 83 3 126 .792156862745098 .819607843137
255 .933333333333333 19 101 1 0 82 0 95 92 0 S0 74 4 CI16 index_map_offset0 0 1
 dCCZ20 99 4 0 0 141 97 122 89 0 0 0 0 0 0 0 0 0 0 0 0 0 0 0 0 81 2 141 52 142 8
2 0 97 0 0 143 0 81 2 97 68 144 82 141 89 0 0 145 0 80 2 144 146 147 8004 0 0 0
 0 3 5 0 0 0 FFTFFFFFFFFFFFFF2 3 83 1 145 1e2 79 16 147 SDL/TYSA_DENSITY80 2 142
 148 149 9000 0 0 0 0 3 5 0 0 0 FFTFTTTFFTFFFFFF10 10 98 255 27 143 67 105 114 9
9 117 108 97 114 32 116 117 98 101 32 50 49 46 51 32 88 32 50 46 51 40 49 41 79
 23 149 SWIMPLICITBODYNAME_ID_U80 1 5 150 151 8017 0 0 0 0 0 0 0 0 0 TTTTTTTTTTT
TTFTF3 84 255 42 98 Final_New_Arm_Front_Upper(기본<가공 상태>)79 13 151 SDL/TYSA
_NAME81 1 80 82 5 72 152 0 0 0 153 70 81 0 4 T72 0 0 4 20 1 154 154 13 83 7 0 72
 0 155 0 0 156 0 50 84 41 0 157 158 0 0 +.0782144933201713 -529395592033938e-37
 .160502886979327 -.2059105427001065 -1626303258728255e-34 -.97857081930995 -.97
8570819309951 -650521303491303e-33 .205910542700106 32 85 43 0 159 160 0 0 +.078
2144933201713 -529395592033938e-37 .160502886979327 -.2059105427001065 -16263032
58728255e-34 -.97857081930995 -.978570819309951 -650521303491303e-33 .2059105427
00106 .00585036860596052 .005725 19 86 5 0 72 156 0 161 0 V0 16 87 15 0 ?162 0 1
63 160 0 0 72 17 162 0 164 162 162 0 165 87 0 0 +16 163 12 0 ?166 87 167 168 0 0
 72 32 160 42 0 87 168 85 0 +.0782144933201713 -529395592033938e-37 .16050288697
9327 -.2059105427001065 -1626303258728255e-34 -.97857081930995 -.978570819309951
 -650521303491303e-33 .205910542700106 .00807299772700229 .0079 31 168 38 0 163
 169 160 0 +.0782144933201713 529395592033938e-37 .195502886979327 -127675647831
893e-29 -135525271560688e-34 -1 -1 -867361737988404e-33 1269817584415022e-30 .00
5725 31 169 37 0 167 0 168 0 +.0782144933201713 529395592033938e-37 .19550288697
9327 -127675647831893e-29 -135525271560688e-34 -1 -1 -867361737988404e-33 126981
7584415022e-30 .0079 16 167 9 0 ?170 163 159 169 0 0 72 17 170 0 171 170 170 0 1
72 167 0 0 +16 159 8 0 ?173 167 0 85 0 0 72 17 173 0 174 173 173 0 175 159 0 0 +
15 174 20 0 173 155 0 17 175 0 176 175 175 0 173 159 0 0 -15 176 34 0 175 157 16
4 14 157 31 177 ?0 178 176 83 84 +0 0 0 178 161 15 164 35 0 162 157 0 81 1 177 8
1 124 157 0 0 179 0 180 14 178 26 179 ?157 181 182 83 183 -0 0 157 181 161 13 16
1 6 0 0 0 0 0 0 86 155 14 155 16 184 ?181 0 185 83 186 +0 0 181 0 161 81 1 184 7
8 124 155 0 0 0 187 188 14 181 21 187 ?178 155 171 83 158 -0 0 178 155 161 15 18
5 19 0 189 155 174 51 186 39 0 155 183 158 0 -.0782144933201713 -529395592033938
e-37 .160502886979327 1193489751472042e-30 67762635780344e-34 1 .005725 1 867361
737988404e-33 -117961196366423e-29 50 183 36 0 178 0 186 0 +.0782144933201713 52
9395592033938e-37 .195502886979327 -127675647831893e-29 -135525271560688e-34 -1
 -1 -867361737988404e-33 1269817584415022e-30 51 158 40 0 181 186 84 0 -.0782144
933201713 -529395592033938e-37 .160502886979327 1193489751472042e-30 67762635780
344e-34 1 .0079 1 867361737988404e-33 -117961196366423e-29 17 189 0 185 189 189
 0 166 163 0 0 -17 166 0 182 166 166 0 189 163 0 0 +15 182 29 0 166 178 190 15 1
90 30 0 172 178 0 17 172 0 190 172 172 0 170 167 0 0 -81 1 187 79 124 181 0 0 18
4 179 191 15 171 24 0 170 181 192 15 192 25 0 165 181 0 17 165 0 192 165 165 0 1
62 87 0 0 -81 1 179 80 124 178 0 0 187 177 193 83 3 191 .792156862745098 .819607
843137255 .933333333333333 83 3 193 .792156862745098 .819607843137255 .933333333
333333 83 3 188 .792156862745098 .819607843137255 .933333333333333 83 3 180 .792
156862745098 .819607843137255 .933333333333333 19 156 1 0 72 0 86 83 0 S0 74 20
 154 4 0 0 194 152 177 80 0 0 0 0 0 0 0 0 0 0 0 0 0 0 0 0 81 2 194 52 142 72 0 1
52 0 0 195 0 81 2 152 67 144 72 194 80 0 0 196 0 83 1 196 1e2 98 27 195 67 105 1
14 99 117 108 97 114 32 116 117 98 101 32 50 49 46 51 32 88 32 50 46 51 40 50 41
 84 42 153 Final_New_Arm_Front_Upper(기본<가공 상태>)81 1 70 84 5 62 197 0 0 0 1
98 70 71 0 4 T62 0 0 5 20 1 199 199 13 73 10 0 62 0 200 0 0 201 0 51 74 46 0 202
 203 0 204 -208166817117217e-31 .0085 -.012307113020673 867361737988404e-33 -1 8
67361737988404e-33 .015 1116008259654902e-31 867361737988404e-33 -1 38 12 CCCCCC
CCCCCA17 intersection_data204 0 Z75 48 0 77 205 0 0 +203 74 206 207 207 208 19 7
6 8 0 62 201 0 209 0 V0 16 77 14 0 ?210 0 211 75 0 0 62 17 210 0 212 210 210 0 2
13 77 0 0 +16 211 13 0 ?214 77 215 216 0 0 62 17 214 0 217 214 214 0 218 211 0 0
 +16 215 12 0 ?219 211 220 205 0 0 62 32 216 43 0 211 221 205 0 +-.0782144933201
712 -1760240343512845e-35 .160502886979327 -.205910542700106 -433680868994202e-3
3 .97857081930995 -.978570819309951 1301042606982604e-33 -.205910542700106 .0080
7299772700228 .0079 32 221 42 0 220 0 216 0 +-.0782144933201712 -176024034351284
5e-35 .160502886979327 -.205910542700106 -433680868994202e-33 .97857081930995 -.
978570819309951 1301042606982604e-33 -.205910542700106 .00585036860596052 .00572
5 38 205 47 0 215 216 75 0 +222 74 223 224 224 225 51 222 44 0 200 226 203 227 -
-.00631489170798828 2932851579868015e-35 -.00278067306894944 -.4029960969491975
 -1129730193400422e-34 .915201696809896 .005725 .915201696809896 -17347234759768
05e-33 .4029960969491975 40 255 20 223 0 1 20 .000405827684285759 .3866242440562
605 ??-.002385578171742805 118584612615602e-34 .002501972595478465 -.00270292782
509963 -.00186546103388768 .002447350072652425 -.00359885733877447 -.00352002534
1169055 .002254762746382185 -.00497048595331102 -.00481647700542482 .00184542277
288491 -.0066040479865572 -.00556984786818777 .001160869389148056 -.008198265011
42278 -.00570307199128307 .000254274275421351 -.00961452734098361 -.005277445917
92881 -.000793605127355754 -.01081966294108576 -.004303983074016735 -.0019179410
69006445 -.0117231124359823 -.002756741209526235 -.002949301587794245 -.01217013
144907108 -.000832537678798583 -.00353853842086885 -.01215464600230512 .00097523
5078777606 -.003517085685183775 -.01180500017002036 .00253284560939328 -.0030528
18288721835 -.01109774687301048 .003944242324575515 -.002215531660817365 -.00992
02499564173 .00509821735049285 -.00105595126722717 -.00832794467483191 .00568754
832778971 .000168677034186812 -.00664297043066946 .00557997104549919 .0011417138
3735634 -.00509249480306021 .00489706560456725 .001801979674493635 -.00375593661
7056375 .00371587729744583 .00221504040533979 -.00278319949021374 .0020818327455
9572 .002432418878192495 -.002385578171742805 228698895758661e-33 .0025019725954
78465 41 3 CI8 term_use0 0 1 cCZ1 224 H?-.002385578171742805 118584612615602e-34
 .002501972595478465 204 2 17 INTERSECTION_DATA17 Intersection data7 uv_type0 0
 1 u6 values0 1 1 fT80 225 4 0 .003251188256933285 3.30130937997319 .0085 5.9512
8023093104 .003329088303029835 3.322777537804425 .01036546103388768 5.6209875410
9702 .003513888152395785 3.383880034497225 .01202002534116904 5.28349054086323 .
00369202049220102 3.47934337264082 .0133164770054248 4.94573040594688 .003723835
197370715 3.59749186853957 .01406984786818776 4.62483708193504 .0035365810496792
65 3.71983275658723 .01420307199128306 4.314354476101635 .003148308233274695 3.8
3735202049052 .0137774459179288 3.99236123885094 .00260497901482733 3.9472857500
0982 .01280398307401674 3.64398865423006 .00202516273824405 4.03872451890887 .01
125674120952622 3.28753156938721 .00166603910632813 4.08803698783718 .0093325376
7879858 2.97041111346604 .001679432111822125 4.08627312955186 .0075247649212224
 2.68329904280274 .00196342451511229 4.04752386756308 .00596715439060672 2.38155
2396445735 .002444690339437265 3.974439716533095 .00455575767542449 2.0431094668
64805 .003031413621681735 3.86420979988749 .003401782649507155 1.68524213709734
 .003510502707466715 3.73019163226789 .002812451672210295 1.345229248339042 .003
721989596928555 3.60038392135282 .002920028954500815 1.026289078496866 .00370143
038508084 3.487977559579145 .00360293439543275 .706350160863068 .003540836534531
725 3.394681684430875 .00478412270255417 .372171264803828 .00334777241626132 3.3
2822077917872 .00641816725440428 39808810572494e-30 .003251188256933285 3.301309
37997319 .0085 14 200 15 228 ?229 0 230 73 222 +0 0 229 0 209 50 226 41 0 231 0
 222 0 +-.0782144933201712 722624983126325e-35 .160502886979327 -.20591054270010
6 -433680868994202e-33 .97857081930995 .978570819309951 -1301042606982604e-33 .2
05910542700106 51 203 45 0 229 222 74 232 --.00631489170798828 2932851579868015e
-35 -.00278067306894944 -.4029960969491975 -1129730193400422e-34 .91520169680989
6 .0079 .915201696809896 -1734723475976805e-33 .4029960969491975 141 255 227 205
 227 227 222 14 229 22 233 ?231 200 234 73 203 -0 0 231 200 209 141 232 75 232 2
32 203 81 1 233 81 124 229 235 0 228 236 237 14 231 29 236 ?202 229 238 73 226 +
0 0 202 229 209 15 234 27 0 218 229 239 13 209 9 0 0 0 0 0 0 76 200 17 218 0 234
 218 218 0 214 211 0 0 -15 239 28 0 213 229 0 17 213 0 239 213 213 0 210 77 0 0
 -81 1 236 82 124 231 240 0 233 241 242 14 202 36 241 ?0 231 243 73 74 +0 0 0 23
1 209 15 238 34 0 244 231 217 17 244 0 238 244 244 0 245 220 0 0 -15 217 35 0 21
4 231 0 17 245 0 230 245 245 0 244 220 0 0 +16 220 11 0 ?245 215 0 221 0 0 62 15
 230 20 0 245 200 246 15 246 21 0 219 200 0 17 219 0 246 219 219 0 247 215 0 0 +
17 247 0 243 247 247 0 219 215 0 0 -15 243 39 0 247 202 212 15 212 40 0 210 202
 0 81 1 241 83 124 202 248 0 236 0 249 81 1 248 77 250 202 0 241 240 0 251 83 3
 249 .792156862745098 .819607843137255 .933333333333333 80 1 250 252 253 9000 1
 1 1 1 1 1 1 1 0 FFFFTFTFFFFFFFFF1 81 1 240 74 250 231 0 236 235 248 254 82 255
 1 251 999999 81 1 235 71 250 229 0 233 255 240 256 82 1 254 999999 81 1 255 68
 250 200 0 228 0 235 257 82 1 256 999999 81 1 228 80 124 200 255 0 0 233 258 82
 1 257 999999 83 3 258 .792156862745098 .819607843137255 .933333333333333 79 14
 253 SWEntUnchanged83 3 242 .792156862745098 .819607843137255 .933333333333333 8
3 3 237 .792156862745098 .819607843137255 .933333333333333 19 201 1 0 62 0 76 73
 0 S0 40 21 206 0 1 21 .000597958658170782 .3948182894534735 ??-929923716913444e
-19 -118584612615602e-34 .00269259872385086 -.000534899652044778 -.0025064667878
08575 .00268334669083159 -.00176326404531381 -.00472721277455473 .00258888979573
7295 -.003691181820361665 -.00654700756708674 .00223163440711567 -.0060283417468
7707 -.0076534053177808 .0014282099017362 -.00820361314873586 -.0078837209486405
4 .0002507821574963125 -.01003904510020552 -.00740369407614922 -.001161819239168
652 -.01159018816670388 -.00625166585271424 -.0027851626815672 -.012806330313492
74 -.00429161795310503 -.004496997534861255 -.01340590248953544 -.00209557281765
8845 -.00557793933878104 -.01356814111254876 -496082324831957e-19 -.005911368595
66946 -.0134200805876904 .00200481735092271 -.00560625956608266 -.01297211298375
996 .00385311131232846 -.00477556040938723 -.01203966411921674 .0056971503136650
3 -.003360242735682585 -.01033404925854506 .00725091673103227 -.0014347891696297
46 -.00804206067529473 .00789363315044413 .0003548481265931715 -.005791432203505
21 .00758278470151786 .001529769324429275 -.003755980050615745 .0065910928353222
7 .00221502917183347 -.001936537725420815 .00494326956734889 .002567355764396985
 -.000578133710301937 .002623608816190315 .002681741552409385 -929923716913444e-
19 1506024580218145e-33 .00269259872385086 41 1 207 H?-929923716913444e-19 -1185
84612615602e-34 .00269259872385086 204 84 208 4 0 .002501746483734115 3.14779218
474813 .0085 5.96033143030355 .002671365916611805 3.17726019246036 .011006466787
80858 5.64170596210635 .003079944862064895 3.259416011507305 .01322721277455472
 5.30634155584872 .003529927462787165 3.390225202517255 .01504700756708675 4.962
90154766263 .00373649832053699 3.555171988123645 .0161534053177808 4.64818076428
221 .003535540335891915 3.72025857585478 .01638372094864055 4.356039203390215 .0
02982397053406235 3.87481808828759 .0159036940761492 4.05460686191264 .002121814
982026515 4.024643613162905 .01475166585271424 3.71588736042303 .001045241358124
82 4.164748338077545 .01279161795310502 3.41006869644789 .000297586831809211 4.2
4717776669487 .01059557281765884 3.14787221795912 578133419876508e-19 4.27189873
7789535 .0085496082324832 2.88501229477828 .0002773818299473385 4.24928916866654
 .00649518264907729 2.63209861525025 .000857109911749904 4.186359575764215 .0046
4688868767155 2.336119850499435 .00177663779523381 4.073308035553985 .0028028496
86334975 1.978994494339695 .002851460034264785 3.901613585602675 .00124908326896
7732 1.610947008003235 .00356567667114026 3.707447221047235 .000606366849555878
 1.28645332243871 .00373397205520386 3.53798774688271 .000917215298482148 .98689
0065211471 .003540843757162575 3.394684675280435 .00190890716467773 .67606744845
634 .00313006549683025 3.27105652065694 .00355673043265111 .3385315890176095 .00
2687320047937085 3.18014444977692 .00587639118380969 1937649925329365e-31 .00250
1746483734115 3.14779218474813 .0085 141 204 75 259 259 74 141 259 205 204 204 7
4 74 20 199 5 0 0 260 197 248 241 70 0 0 0 0 0 0 0 0 0 0 0 0 0 0 0 81 2 260 4 14
2 62 0 197 0 0 261 0 81 2 197 61 144 62 260 70 0 0 262 0 83 1 262 1e2 98 9 261 -
14440 -18564 -20300 -20944 47 -19816 -18004 -20944 52 84 42 198 Final_New_Arm_Fr
ont_Upper(기본<가공 상태>)81 1 60 84 5 52 263 0 0 0 264 70 61 0 4 T52 0 0 5 20 1
 265 265 13 63 10 0 52 0 266 0 0 267 0 51 64 46 0 268 269 0 270 -693889390390723
e-32 .0085 -.012307113020673 -1301042606982604e-33 -1 650521303491303e-33 .015 1
273556387844202e-31 650521303491303e-33 -1 38 65 48 0 67 271 0 0 +269 64 272 273
 273 274 19 66 8 0 52 267 0 275 0 V0 16 67 14 0 ?276 0 277 65 0 0 52 17 276 0 27
8 276 276 0 279 67 0 0 +16 277 13 0 ?280 67 281 282 0 0 52 17 280 0 283 280 280
 0 284 277 0 0 +16 281 12 0 ?285 277 286 271 0 0 52 32 282 43 0 277 287 271 0 +.
0782144933201713 299108509499175e-35 .160502886979327 .205910542700106 -43368086
8994202e-33 .97857081930995 .978570819309951 1301042606982604e-33 -.205910542700
1065 .00807299772700229 .0079 32 287 42 0 286 0 282 0 +.0782144933201713 2991085
09499175e-35 .160502886979327 .205910542700106 -433680868994202e-33 .97857081930
995 .978570819309951 1301042606982604e-33 -.2059105427001065 .00585036860596052
 .005725 38 271 47 0 281 282 65 0 +288 64 289 290 290 291 51 288 44 0 266 292 26
9 293 -.00631489170798839 349401090742399e-35 -.00278067306894937 .4029960969491
975 -307578838971718e-33 .915201696809896 .005725 .915201696809896 4336808689942
02e-33 -.402996096949198 40 21 289 0 1 21 .000384061005576631 .3688005180196225
 ??.01221132626382316 237169225231204e-34 -.003595998805002165 .0120273525756811
 -.001737565231236125 -.00334369904940862 .01149507499050778 -.00327386324351500
5 -.002670554975260575 .01056057383102156 -.00458233414922309 -.0016546822952684
55 .00914326351809175 -.00548640445976193 -.000415909034585951 .0074604245670296
3 -.0057138746793462 .00070603668566871 .00583057879499176 -.0052962842088973 .0
01513319350110205 .004378229302138265 -.004355936566284455 .00203970224188259 .0
03200534012348835 -.00293255456915203 .00234746244352242 .00250006233127751 -.00
1128826649268922 .002483075901032085 .00244034567274095 .000782441755884694 .002
493046201360205 .00299619537604221 .00255892871901269 .00239060153869246 .004091
03045893308 .00408411519056722 .00212422336179975 .00560280843060702 .0051883731
9076509 .00160721548234573 .00725111070227325 .00569391660702514 .00082381967976
2972 .00878113773969348 .00559881440755234 -.0001460431665634976 .01011874224588
534 .0049605690228914 -.0012341253768013 .0112211678718847 .00375921560528828 -.
00235294848561621 .01196095292929854 .002015329644865465 -.003255284198655605 .0
1220397870620124 .0003526496024619945 -.00358570810296696 .01221132626382316 -98
2558218814988e-34 -.003595998805002165 41 1 290 H?.01221132626382316 23716922523
1204e-34 -.003595998805002165 204 84 291 4 0 .00163005261482952 2.19043487862618
 .0085 5.97481644512984 .001786817100990835 2.211252072987805 .01023756523123612
 5.67442142440042 .002188373910530265 2.268470691921065 .011773863243515 5.35521
026159078 .00274150199113443 2.36052467925236 .0130823341492231 5.00210891551929
 .00330405885699723 2.48609869579173 .01398640445976194 4.6500364796945 .0036526
87954830755 2.62103772636542 .0142138746793462 4.322931400581435 .00373469293437
244 2.742366731219895 .0137962842088973 4.006233544994325 .00363114827306811 2.8
4539876952807 .01285593656628444 3.679379631503365 .003438204326638845 2.9265706
40870115 .01143255456915202 3.340068124579045 .00328003063956675 2.9741403600050
5 .00962882664926892 3.004492508668995 .003265089895031685 2.97817658000326 .007
71755824411531 2.6782124009329 .003395337626849815 2.940493597834165 .0059410712
8098731 2.347279332288235 .00359276213257256 2.86535761280262 .00441588480943278
 2.00722736505328 .00372883626607051 2.758791263958445 .00331162680923491 1.6750
4922924461 .00367613048034701 2.63704971633877 .002806083392974855 1.36045089875
1944 .003405105282023255 2.516207983813045 .00290118559244766 1.04809732186484 .
002948339992201935 2.401193234338865 .0035394309771086 .716343837180974 .0023686
6440903893 2.29643181195261 .00474078439471172 .359731193489198 .001840975724092
215 2.218623535751085 .00648467035513454 .0616372045358836 .00163650964574974 2.
191277849986845 .00814735039753801 0 .00163005261482952 2.19043487862618 .0085 1
4 266 15 294 ?295 0 296 63 288 +0 0 295 0 275 50 292 41 0 297 0 288 0 +.07821449
33201713 -643215644321234e-35 .160502886979327 .205910542700106 -433680868994202
e-33 .97857081930995 .978570819309951 1301042606982604e-33 -.2059105427001065 51
 269 45 0 295 288 64 298 -.00631489170798839 349401090742399e-35 -.0027806730689
4937 .4029960969491975 -307578838971718e-33 .915201696809896 .0079 .915201696809
896 433680868994202e-33 -.402996096949198 141 293 271 293 293 288 14 295 22 299
 ?297 266 300 63 269 -0 0 297 266 275 141 298 65 298 298 269 81 1 299 81 124 295
 301 0 294 302 303 14 297 29 302 ?268 295 304 63 292 +0 0 268 295 275 15 300 27
 0 284 295 305 13 275 9 0 0 0 0 0 0 66 266 17 284 0 300 284 284 0 280 277 0 0 -1
5 305 28 0 279 295 0 17 279 0 305 279 279 0 276 67 0 0 -81 1 302 82 124 297 306
 0 299 307 308 14 268 36 307 ?0 297 309 63 64 +0 0 0 297 275 15 304 34 0 310 297
 283 17 310 0 304 310 310 0 311 286 0 0 -15 283 35 0 280 297 0 17 311 0 296 311
 311 0 310 286 0 0 +16 286 11 0 ?311 281 0 287 0 0 52 15 296 20 0 311 266 312 15
 312 21 0 285 266 0 17 285 0 312 285 285 0 313 281 0 0 +17 313 0 309 313 313 0 2
85 281 0 0 -15 309 39 0 313 268 278 15 278 40 0 276 268 0 81 1 307 83 124 268 31
4 0 302 0 315 81 1 314 77 250 268 0 307 306 0 316 83 3 315 .792156862745098 .819
607843137255 .933333333333333 81 1 306 74 250 297 0 302 301 314 317 82 1 316 999
999 81 1 301 71 250 295 0 299 318 306 319 82 1 317 999999 81 1 318 68 250 266 0
 294 0 301 320 82 1 319 999999 81 1 294 80 124 266 318 0 0 299 321 82 1 320 9999
99 83 3 321 .792156862745098 .819607843137255 .933333333333333 83 3 308 .7921568
62745098 .819607843137255 .933333333333333 83 3 303 .792156862745098 .8196078431
37255 .933333333333333 19 267 1 0 52 0 66 63 0 S0 40 21 272 0 1 21 .000580356229
216835 .394686431176426 ??.01356822910503866 135525271560688e-34 -.0059115552691
4092 .01337981793586672 -.002251799571053015 -.00552622281340232 .01283131344528
632 -.004230051774961365 -.00453811081518905 .01177141432421844 -.00604480311121
415 -.003010134758485605 .00990845860714966 -.00746351038314748 -.00104556570112
5752 .00758212275208314 -.00789702089995304 .000635507060761195 .005375301546657
79 -.00743718160487822 .00169667694070884 .003377401212497875 -.0063207526452898
5 .00230771373334013 .001619566970115955 -.00453645812493994 .00260519742503962
 .000403725150814688 -.00210807065980616 .002687452861759215 .000112819703565928
 .000535949420045504 .00269246269714271 .00070076220799084 .002928184422582865 .
00267650911577491 .002029649048684995 .00505368253898374 .00255493679552571 .004
060390997119085 .00678678168503762 .002132873992843135 .00640548775062937 .00774
764424348698 .001256431010167064 .00852496853984627 .00784993268669508 348848481
7427975e-20 .0103108962118479 .00726383479304424 -.001412829230147752 .011815318
66200392 .00599149087433146 -.00306599593910206 .01296020456832544 .003887188150
692745 -.00475508696489456 .01345871944868446 .001730411250161205 -.005684208008
39908 .01356822910503866 1592421940838085e-34 -.00591155526914093 41 1 273 H?.01
356822910503866 135525271560688e-34 -.00591155526914092 204 84 274 4 0 576779587
397056e-19 2.011272811214585 .0085 5.99413931769059 .0003344059102696945 2.03986
903536293 .010751799571053 5.71814531589363 .00101768251880968 2.11522971296946
 .01273005177496136 5.41188781505896 .001988953589639325 2.239282302628785 .0145
4480311121414 5.04635986840417 .00303616664166737 2.420023035437305 .01596351038
31475 4.68492536900358 .0036371830160224 2.61166044383679 .01639702089995305 4.3
6839554618891 .003719027158302905 2.77508905626056 .01593718160487825 4.06904667
433041 .003473103030972405 2.91448532077161 .01482075264528986 3.75326232729962
 .00303696027162548 3.033410630343925 .01303645812493994 3.41170985204529 .00262
2261079197065 3.11467439285711 .01060807065980616 3.073698806579825 .00250961232
92183 3.134071269103275 .0079640505799545 2.761877146368825 .002731950118994055
 3.09485816268275 .00557181557741714 2.447476106409195 .00315622313530376 3.0058
6638437587 .00344631746101626 2.108110845956285 .003588331621258265 2.8674800960
6335 .001713218314962375 1.767508544273715 .00373127435498889 2.70038418614753 .
000752355756513025 1.458152283890498 .003467455720414715 2.53711637540006 .00065
0067313304919 1.166737318585524 .002862227220689 2.38369911215116 .0012361652069
5576 .86088023323332 .00195552261912001 2.234545650358385 .002508509125668535 .5
14441981570207 .00087104819794808 2.09840472181589 .00461281184930725 .220829852
470349 .000221614593446725 2.028096160560385 .0067695887498388 181065351299776e-
31 576779587397043e-19 2.011272811214585 .0085 141 270 65 322 322 64 141 322 271
 270 270 64 74 20 265 5 0 0 323 263 314 307 60 0 0 0 0 0 0 0 0 0 0 0 0 0 0 0 81
 2 323 4 142 52 0 263 0 0 324 0 81 2 263 61 144 52 323 60 0 0 325 0 83 1 325 1e2
 98 9 324 -14440 -18564 -20300 -20944 47 -19816 -18004 -20944 52 84 42 264 Final
_New_Arm_Front_Upper(기본<가공 상태>)81 1 50 227 5 39 326 0 0 0 327 70 51 0 4 T3
9 0 0 4 20 1 328 328 13 53 31 0 39 0 329 0 0 330 0 51 54 30 0 329 331 0 0 -0 .00
85 -.012307113020673 0 -1 0 .015 0 0 -1 31 55 156 0 332 333 0 0 -0 -.0055 -.0123
07113020673 0 -1 0 0 0 -1 .00981389321319526 19 56 9 0 39 330 0 334 0 V0 16 57 5
 0 ?335 0 336 337 0 0 39 17 335 0 338 335 335 0 339 57 0 0 +16 336 20 0 ?340 57
 341 333 0 0 39 31 337 7 0 57 342 333 0 +0 .0085 -.012307113020673 0 1 0 0 0 1 .
015 31 342 93 0 343 344 337 0 +0 .0085 -.012307113020673 0 1 0 0 0 1 .014 31 333
 25 0 336 337 55 0 +0 -.0085 -.012307113020673 0 1 0 0 0 1 .015 16 343 71 0 ?345
 341 346 342 0 0 39 31 344 94 0 341 347 342 0 +0 .0055 -.012307113020673 0 1 0 0
 0 1 .014 16 341 68 0 ?348 336 343 344 0 0 39 31 347 140 0 349 350 344 0 +0 -.00
85 -.012307113020673 0 -1 0 0 0 -1 .014 16 349 118 0 ?351 346 352 347 0 0 39 31
 350 141 0 346 353 347 0 +0 -.0055 -.012307113020673 0 -1 0 0 0 -1 .014 16 346 1
15 0 ?354 343 349 350 0 0 39 31 353 183 0 352 0 350 0 -0 .0055 -.012307113020673
 0 1 0 0 0 1 .00981389321319526 16 352 168 0 ?355 349 332 353 0 0 39 17 355 0 35
6 355 355 0 357 352 0 0 +16 332 169 0 ?358 352 0 55 0 0 39 17 358 0 359 358 358
 0 360 332 0 0 +15 359 154 0 358 361 362 17 360 0 363 360 360 0 358 332 0 0 -15
 363 179 0 360 364 0 14 364 176 365 ?0 361 366 53 367 +0 0 0 361 334 81 1 365 22
6 124 364 368 0 369 0 370 14 361 127 369 ?364 371 359 53 372 +0 0 364 371 334 15
 366 178 0 357 364 363 53 255 367 182 0 364 0 372 0 -0 0 -.012307113020673 .0112
5 0 1 1020425574104004e-31 0 -1020425574104004e-31 1 13 334 10 0 0 0 0 0 0 56 32
9 14 329 27 373 ?374 0 375 53 54 -0 0 374 0 334 81 1 373 219 124 329 376 0 0 377
 378 14 374 1 377 ?379 329 380 53 381 +0 0 379 329 334 15 375 26 0 339 329 382 1
7 339 0 375 339 339 0 335 57 0 0 -15 382 28 0 340 329 0 17 340 0 382 340 340 0 3
83 336 0 0 +17 383 0 384 383 383 0 340 336 0 0 -15 384 19 0 383 379 0 14 379 18
 385 ?386 374 387 53 331 -0 0 386 374 334 81 1 385 221 124 379 388 0 377 389 390
 14 386 74 389 ?391 379 392 53 393 -0 0 391 379 334 15 387 108 0 394 379 384 50
 331 24 0 379 381 54 0 +0 -.0085 -.012307113020673 0 1 0 0 0 1 50 381 3 0 374 39
3 331 0 +0 .0085 -.012307113020673 0 1 0 0 0 1 51 393 90 0 386 395 381 0 +0 .005
5 -.012307113020673 0 1 0 .014 0 0 1 50 395 92 0 391 396 393 0 +0 .0055 -.012307
113020673 0 1 0 0 0 1 14 391 80 397 ?371 386 356 53 395 +0 0 371 386 334 51 396
 137 0 371 372 395 0 +0 -.0055 -.012307113020673 0 -1 0 .014 0 0 -1 14 371 121 3
98 ?361 391 399 53 396 -0 0 361 391 334 50 372 139 0 361 367 396 0 +0 -.0055 -.0
12307113020673 0 -1 0 0 0 -1 81 1 398 224 124 371 400 0 397 369 401 15 399 125 0
 402 371 403 17 402 0 399 402 402 0 354 346 0 0 -15 403 126 0 351 371 0 17 351 0
 403 351 351 0 394 349 0 0 +17 394 0 387 394 394 0 351 349 0 0 -17 354 0 362 354
 354 0 402 346 0 0 +15 362 130 0 354 361 0 81 1 400 216 250 371 0 398 404 0 405
 81 1 397 223 124 391 404 0 389 398 406 81 1 369 225 124 361 407 0 398 365 408 8
3 3 401 .792156862745098 .819607843137255 .933333333333333 81 1 407 198 250 361
 0 369 368 376 409 83 3 408 .792156862745098 .819607843137255 .933333333333333 8
1 1 368 195 250 364 0 365 0 407 410 81 1 376 201 250 329 0 373 407 411 412 82 1
 409 -226819823 81 1 411 204 250 374 0 377 376 388 413 82 1 412 -317587192 81 1
 377 220 124 374 411 0 373 385 414 81 1 388 207 250 379 0 385 411 415 416 82 1 4
13 -319553269 81 1 415 210 250 386 0 389 388 404 417 82 1 416 -317849330 81 1 38
9 222 124 386 415 0 385 397 418 81 1 404 213 250 391 0 397 415 400 419 82 1 417
 -274464501 82 1 419 -274333423 83 3 418 .792156862745098 .819607843137255 .9333
33333333333 83 3 414 .792156862745098 .819607843137255 .933333333333333 82 1 410
 -91029231 83 3 406 .792156862745098 .819607843137255 .933333333333333 82 1 405
 -226950898 15 356 161 0 355 391 420 15 420 83 0 348 391 0 17 348 0 420 348 348
 0 421 341 0 0 +17 421 0 392 421 421 0 348 341 0 0 -15 392 78 0 421 386 422 15 4
22 79 0 345 386 0 17 345 0 422 345 345 0 423 343 0 0 +17 423 0 380 423 423 0 345
 343 0 0 -15 380 62 0 423 374 338 15 338 4 0 335 374 0 83 3 390 .792156862745098
 .819607843137255 .933333333333333 83 3 378 .792156862745098 .819607843137255 .9
33333333333333 17 357 0 366 357 357 0 355 352 0 0 -83 3 370 .792156862745098 .81
9607843137255 .933333333333333 19 330 32 0 39 0 56 53 0 S0 74 20 328 4 0 0 326 4
00 365 50 0 0 0 0 0 0 0 0 0 0 0 0 0 0 0 0 81 2 326 54 142 39 0 50 0 0 424 0 98 5
 424 -12553 45 -10612 -14332 49 84 42 327 Final_New_Arm_Front_Upper(기본<가공 상
태>)81 1 37 274 5 27 425 0 0 0 426 70 38 0 4 T27 0 0 4 20 1 427 427 13 40 35 0 2
7 0 428 0 0 429 0 50 41 70 0 428 430 0 0 +4286263797015735e-33 -.054 0 -12246467
99147352e-31 1 0 -1 -1224646799147352e-31 0 31 42 73 0 44 431 0 0 +4286263797015
735e-33 -.054 0 -1224646799147352e-31 1 0 -1 -1224646799147352e-31 0 .005725 19
 43 39 0 27 429 0 432 0 V0 16 44 53 0 ?433 0 434 42 0 0 27 17 433 0 435 433 433
 0 436 44 0 0 +16 434 48 0 ?437 44 438 431 0 0 27 17 437 0 439 437 437 0 440 434
 0 0 +16 438 43 0 ?441 434 0 442 0 0 27 31 431 72 0 434 442 42 0 +24492935982947
15e-34 -.021 0 -1224646799147352e-31 1 0 -1 -1224646799147352e-31 0 .005725 31 4
42 71 0 438 0 431 0 +757378690244238e-49 -.019 0 -1224646799147352e-31 1 0 -1 -1
224646799147352e-31 0 .00505 17 441 0 443 441 441 0 444 438 0 0 +15 443 45 0 441
 445 0 17 444 0 446 444 444 0 441 438 0 0 -15 446 91 0 444 447 439 14 447 51 448
 ?445 449 446 40 450 -0 0 445 449 432 15 439 50 0 437 447 0 81 1 448 272 124 447
 451 0 452 453 454 14 445 46 453 ?0 447 443 40 455 -0 0 0 447 432 14 449 56 452
 ?447 428 456 40 430 -0 0 447 428 432 52 255 450 68 0 447 455 430 0 -24492935982
94715e-34 -.021 0 1224646799147352e-31 -1 0 .005725 .319778644158181 .9474922789
87199 1 1224646799147352e-31 0 13 432 38 0 0 0 0 0 0 43 428 14 428 61 457 ?449 0
 458 40 41 -0 0 449 0 432 81 1 457 270 124 428 459 0 0 452 460 15 458 93 0 436 4
28 0 17 436 0 458 436 436 0 433 44 0 0 -81 1 459 268 250 428 0 457 461 0 462 81
 1 452 271 124 449 461 0 457 448 463 83 3 460 .650980392156863 .619607843137255
 .588235294117647 81 1 461 266 250 449 0 452 464 459 465 83 3 463 .6509803921568
63 .619607843137255 .588235294117647 81 1 464 264 250 445 0 453 451 461 466 82 1
 465 2116289002 81 1 453 273 124 445 464 0 448 0 467 81 1 451 262 250 447 0 448
 0 464 468 82 1 466 2115109354 82 1 468 2115699178 83 3 467 .650980392156863 .61
9607843137255 .588235294117647 82 1 462 2116878826 50 455 67 0 445 0 450 0 +3786
89345122119e-49 -.019 0 1224646799147352e-31 -1 0 1 1224646799147352e-31 0 51 43
0 69 0 449 450 41 0 -0 -.019 0 -1224646799147352e-31 1 0 .005725 -1 -12246467991
47352e-31 0 15 456 92 0 440 449 435 17 440 0 456 440 440 0 437 434 0 0 -15 435 5
5 0 433 449 0 83 3 454 .650980392156863 .619607843137255 .588235294117647 19 429
 34 0 27 0 43 40 0 S0 74 20 427 4 0 0 459 425 453 37 0 0 0 0 0 0 0 0 0 0 0 0 0 0
 0 0 81 2 425 128 142 27 0 37 0 0 469 0 98 3 469 -10612 -14332 49 84 16 426 Rod
 End Body_M1281 1 25 1299 5 12 470 0 0 0 471 70 26 0 4 T12 0 0 4 20 1 472 472 13
 28 29 0 12 0 473 0 0 474 0 51 29 28 0 475 476 0 0 -0 -.017 0 0 -1 0 .00625 0 0
 -1 31 30 23 0 477 478 0 0 +0 -.019 0 0 1 0 0 0 1 .00625 29 255 31 70 0 34 479 0
 -.00574978260458602 -.017 .00245 19 32 7 0 12 474 0 480 0 V0 16 33 75 0 ?481 0
 482 483 484 485 12 18 255 34 68 0 486 0 487 31 ?12 17 486 0 488 489 489 34 490
 482 0 491 -18 487 65 0 492 34 493 479 ?12 17 492 0 494 495 491 487 496 497 0 49
8 -18 493 62 0 495 487 499 500 ?12 29 479 67 0 487 500 31 -.00625 -.017 0 29 500
 64 0 493 501 479 -.00574978260458602 -.017 -.00245 29 501 61 0 499 502 500 .005
74978260458602 -.017 -.00245 18 499 59 0 481 493 503 501 ?12 29 502 58 0 503 504
 501 .00625 -.017 0 18 503 56 0 505 499 506 502 ?12 29 504 199 0 506 507 502 .00
574978260458602 -.017 .00245 18 506 134 0 508 503 509 504 ?12 29 507 204 0 510 5
11 504 .00625 -.017 -.00245 18 510 131 0 512 513 514 507 ?12 29 511 205 0 514 51
5 507 -.00625 -.017 -.00245 18 514 129 0 516 510 517 511 ?12 29 515 207 0 517 51
8 511 .01218076499564094 -.00840648345748495 -.00245 18 517 139 0 519 514 520 51
5 ?12 29 518 208 0 509 521 515 .00625 -.017 .00245 18 509 138 0 522 506 523 518
 ?12 29 521 209 0 523 524 518 -.00625 -.017 .00245 18 523 137 0 525 509 526 521
 ?12 29 524 210 0 526 527 521 -.01218076499564096 -.00840648345748494 .00245 18
 526 136 0 528 523 513 524 ?12 29 527 211 0 513 529 524 .01218076499564094 -.008
40648345748495 .00245 18 513 133 0 530 526 510 527 ?12 29 529 290 0 520 0 527 -.
01218076499564096 -.00840648345748494 -.00245 18 520 233 0 531 517 0 529 ?12 17
 531 0 532 533 534 520 535 536 0 537 -15 532 177 0 538 539 540 17 533 0 532 538
 531 517 541 542 0 0 -17 534 0 532 531 543 514 544 484 0 0 -17 535 0 545 546 537
 514 531 536 0 534 +16 536 101 0 ?535 485 547 548 0 0 12 17 537 0 545 535 528 52
0 549 550 0 541 +15 545 167 0 535 551 0 17 528 0 545 537 552 526 525 553 0 549 -
17 549 0 554 555 541 526 537 550 0 556 -16 550 104 0 ?537 557 558 559 0 0 12 17
 541 0 554 549 560 520 533 542 0 0 +15 554 249 0 560 561 0 17 560 0 554 541 555
 517 562 557 0 533 +16 542 224 0 ?541 563 564 565 0 0 12 16 563 227 0 ?556 566 5
42 567 0 0 12 16 564 231 0 ?568 542 569 570 0 0 12 31 565 285 0 542 571 572 0 +0
 0 -.00245 0 0 1 1 0 0 .0148 31 571 286 0 566 567 565 0 +0 0 .00245 0 0 1 1 0 0
 .013075 31 572 284 0 573 565 574 0 +0 0 .006 0 0 1 1 0 0 .013075 16 573 223 0 ?
575 576 577 572 0 0 12 31 574 283 0 577 572 578 0 +0 0 -.006 0 0 1 1 0 0 .013075
 16 577 230 0 ?579 573 566 574 0 0 12 31 578 282 0 576 574 580 0 +0 0 -.00245 0
 0 1 1 0 0 .013075 16 576 228 0 ?581 547 573 578 0 0 12 31 580 281 0 569 578 582
 0 +0 0 -.006 0 0 1 1 0 0 .00951643315533714 16 569 229 0 ?583 564 0 580 0 0 12
 30 255 582 197 0 584 580 585 0 +.00625 -.017 .00245 .568005639019253 .823024661
867632 0 16 584 108 0 ?530 553 484 582 0 0 12 30 585 195 0 553 582 586 0 +-.0062
5 -.017 .00245 .568005639019253 -.823024661867632 0 16 553 114 0 ?525 587 584 58
5 0 0 12 30 586 194 0 588 585 589 0 +.00625 -.017 .00245 1 0 0 16 588 117 0 ?590
 591 587 586 587 482 12 30 589 193 0 547 586 548 0 +.00625 -.017 -.00245 .568005
639019253 .823024661867632 0 16 547 92 0 ?519 536 576 589 0 0 12 30 548 191 0 53
6 589 483 0 +-.00625 -.017 -.00245 .568005639019253 -.823024661867632 0 30 483 1
90 0 484 548 592 0 +.00625 -.017 -.00245 1 0 0 16 484 85 0 ?544 584 485 483 485
 33 12 30 592 189 0 593 483 594 0 +.00625 -.017 .00245 0 0 -1 16 593 95 0 ?595 5
96 591 592 591 591 12 30 594 188 0 558 592 559 0 +-.00625 -.017 .00245 0 0 -1 16
 558 90 0 ?597 550 596 594 596 596 12 30 559 187 0 550 594 598 0 +-.012180764995
64096 -.00840648345748494 .00245 0 0 -1 30 598 186 0 557 559 478 0 +.01218076499
564094 -.00840648345748495 .00245 0 0 -1 16 557 100 0 ?560 477 550 598 0 0 12 31
 478 5 0 599 598 30 0 +0 -.017 0 0 1 0 0 0 1 .00625 16 599 4 0 ?600 482 601 478
 602 601 12 17 600 0 603 604 605 503 508 599 0 606 +16 482 71 0 ?490 33 599 586
 588 587 12 16 601 57 0 ?607 599 608 478 599 608 12 16 602 69 0 ?489 497 477 478
 497 599 12 17 489 0 488 486 486 506 491 602 0 605 +16 497 66 0 ?496 609 602 478
 609 602 12 16 477 18 0 ?610 602 557 30 0 0 12 17 610 0 611 610 610 0 612 477 0
 0 +15 611 26 0 610 475 0 17 612 0 613 612 612 0 610 477 0 0 -15 613 17 0 612 61
4 0 14 614 16 615 ?616 617 613 28 476 -0 0 616 617 480 81 1 615 1284 124 614 618
 0 619 620 621 14 616 140 620 ?622 614 603 28 623 -622 624 622 614 480 14 617 1
 619 ?614 475 488 28 625 +473 473 614 475 480 50 476 22 0 614 625 29 0 +0 -.019
 0 0 1 0 0 0 1 13 480 8 0 0 0 0 0 0 32 473 14 473 77 626 ?475 0 627 28 625 +617
 617 475 0 480 81 1 626 1281 124 473 628 0 0 629 630 14 475 25 629 ?617 473 494
 28 29 -0 0 617 473 480 15 627 3 0 631 473 0 50 625 2 0 617 632 476 0 +0 -.017 0
 0 1 0 0 0 1 50 632 180 0 633 634 625 0 +.00625 -.017 .00245 -.823024661867632 .
568005639019253 0 -.568005639019253 -.823024661867632 0 14 633 156 635 ?551 624
 636 28 632 -0 0 551 624 480 50 634 182 0 551 623 632 0 +-.00625 -.017 .00245 .8
23024661867632 .568005639019253 0 -.568005639019253 .823024661867632 0 14 551 16
4 637 ?638 633 545 28 634 -0 0 638 633 480 50 623 183 0 616 639 634 0 +.00625 -.
017 .00245 0 1 0 0 0 1 50 639 184 0 539 640 623 0 +0 0 -.00245 0 0 1 1 0 0 14 53
9 175 641 ?642 638 532 28 639 -0 0 642 638 480 50 640 185 0 638 643 639 0 +0 0 .
00245 0 0 1 1 0 0 14 638 172 644 ?539 551 645 28 640 +0 0 539 551 480 51 643 272
 0 642 646 640 0 -0 0 .006 0 0 -1 .013075 -1 0 0 14 642 239 647 ?648 539 649 28
 643 -650 650 648 539 480 50 646 273 0 651 652 643 0 +0 0 -.006 0 0 1 1 0 0 14 6
51 258 653 ?650 561 654 28 646 -0 0 650 561 480 50 652 274 0 648 655 646 0 +0 0
 .006 0 0 1 1 0 0 14 648 243 656 ?561 642 657 28 652 +0 0 561 642 480 51 655 275
 0 561 658 652 0 -0 0 .00245 0 0 -1 .0148 -1 0 0 14 561 247 659 ?651 648 554 28
 655 -0 0 651 648 480 53 658 278 0 660 0 655 0 +0 0 0 .01125 0 0 -1 0 -1 0 14 66
0 266 661 ?0 650 662 28 658 -0 0 0 650 480 81 1 661 1298 124 660 663 0 664 0 665
 14 650 262 664 ?660 651 666 28 643 -642 642 660 651 480 15 662 268 0 568 660 66
7 17 568 0 662 568 568 0 668 564 0 0 +15 667 269 0 669 660 0 17 669 0 667 669 66
9 0 583 569 0 0 -17 583 0 654 583 583 0 669 569 0 0 +15 654 260 0 583 651 670 15
 670 261 0 671 651 0 17 671 0 670 671 671 0 579 577 0 0 -17 579 0 666 579 579 0
 671 577 0 0 +15 666 264 0 579 650 672 15 672 265 0 673 650 0 17 673 0 672 673 6
73 0 581 576 0 0 -17 581 0 540 581 581 0 673 576 0 0 +15 540 257 0 581 539 0 17
 668 0 657 668 668 0 568 564 0 0 -15 657 245 0 668 648 674 15 674 246 0 575 648
 0 17 575 0 674 575 575 0 675 573 0 0 +17 675 0 676 675 675 0 575 573 0 0 -15 67
6 242 0 675 642 0 81 1 664 1297 124 650 677 0 653 661 678 81 1 677 1273 250 650
 0 664 663 679 680 81 1 653 1296 124 651 681 0 659 664 682 83 3 678 .65098039215
6863 .619607843137255 .588235294117647 81 1 681 1265 250 651 0 653 683 684 685 8
1 1 659 1295 124 561 686 0 656 653 687 83 3 682 .650980392156863 .61960784313725
5 .588235294117647 81 1 686 1269 250 561 0 659 684 663 688 81 1 656 1294 124 648
 684 0 647 659 689 83 3 687 .650980392156863 .619607843137255 .588235294117647 8
1 1 684 1267 250 648 0 656 681 686 690 81 1 647 1293 124 642 683 0 641 656 691 8
3 3 689 .650980392156863 .619607843137255 .588235294117647 81 1 683 1263 250 642
 0 647 692 681 693 81 1 641 1292 124 539 694 0 644 647 695 83 3 691 .65098039215
6863 .619607843137255 .588235294117647 81 1 694 1257 250 539 0 641 696 692 697 8
1 1 644 1291 124 638 692 0 637 641 698 83 3 695 .650980392156863 .61960784313725
5 .588235294117647 81 1 692 1260 250 638 0 644 694 683 699 81 1 637 1290 124 551
 696 0 635 644 700 83 3 698 .650980392156863 .619607843137255 .588235294117647 8
1 1 696 1255 250 551 0 637 701 694 702 81 1 635 1289 124 633 701 0 703 637 704 8
3 3 700 .650980392156863 .619607843137255 .588235294117647 81 1 701 1253 250 633
 0 635 705 696 706 81 1 703 1288 124 624 679 0 707 635 708 83 3 704 .65098039215
6863 .619607843137255 .588235294117647 14 624 152 703 ?633 709 710 28 623 -616 7
09 633 709 480 81 1 679 1275 250 624 0 703 677 711 712 81 1 707 1287 124 709 711
 0 713 703 714 83 3 708 .650980392156863 .619607843137255 .588235294117647 14 70
9 148 707 ?624 622 715 28 623 -624 622 624 622 480 81 1 711 1277 250 709 0 707 6
79 716 717 81 1 713 1286 124 622 716 0 620 707 718 83 3 714 .650980392156863 .61
9607843137255 .588235294117647 14 622 144 713 ?709 616 719 28 623 -709 616 709 6
16 480 81 1 716 1279 250 622 0 713 711 0 720 81 1 620 1285 124 616 721 0 615 713
 722 83 3 718 .650980392156863 .619607843137255 .588235294117647 81 1 721 1245 2
50 616 0 620 618 723 724 83 3 722 .650980392156863 .619607843137255 .58823529411
7647 81 1 618 1243 250 614 0 615 0 721 725 81 1 723 1247 250 617 0 619 721 628 7
26 82 1 724 149684722 81 1 619 1283 124 617 723 0 629 615 727 81 1 628 1249 250
 473 0 626 723 705 728 82 1 726 2088436210 81 1 705 1251 250 475 0 629 628 701 7
29 82 1 728 145424882 81 1 629 1282 124 475 705 0 626 619 730 82 1 729 209040229
0 83 3 730 .650980392156863 .619607843137255 .588235294117647 83 3 727 .65098039
2156863 .619607843137255 .588235294117647 82 1 725 2090140137 82 1 720 149225970
 15 719 147 0 606 622 0 17 606 0 719 607 731 503 512 591 0 595 -17 607 0 719 731
 606 499 505 601 0 732 +17 731 0 719 606 607 510 732 485 0 538 +17 512 0 636 519
 595 510 606 591 0 731 +16 591 96 0 ?512 593 588 592 593 593 12 17 595 0 636 512
 733 503 604 593 0 0 +15 636 159 0 519 633 0 17 733 0 636 595 562 509 530 584 0
 0 -17 604 0 603 605 600 509 595 593 0 733 -15 603 143 0 605 616 0 17 605 0 603
 600 604 506 522 587 0 490 -17 522 0 645 530 490 509 605 587 0 604 +16 587 123 0
 ?522 588 553 586 482 588 12 17 490 0 645 522 590 506 486 482 0 0 +15 645 174 0
 530 638 734 17 590 0 645 490 525 34 735 588 0 0 +17 525 0 645 590 556 523 528 5
53 0 552 +17 735 0 710 597 496 523 590 588 0 0 -15 710 155 0 597 624 0 17 597 0
 710 496 735 487 552 558 0 0 +17 496 0 710 735 597 34 492 497 0 590 +17 552 0 54
5 528 546 523 597 558 0 735 -17 546 0 545 552 535 487 516 596 0 597 -17 516 0 71
5 544 498 514 546 596 0 535 +16 596 89 0 ?516 558 593 594 558 558 12 15 715 151
 0 544 709 0 17 544 0 715 498 516 493 534 484 0 0 +17 498 0 715 516 544 487 495
 609 0 546 +17 495 0 494 736 492 493 498 609 0 631 -16 609 63 0 ?498 608 497 478
 608 497 12 16 608 60 0 ?631 601 609 478 601 609 12 17 631 0 627 481 481 493 736
 608 0 543 +17 481 0 627 631 631 499 543 33 0 736 +17 736 0 494 505 495 499 631
 608 0 607 -17 543 0 532 534 732 493 481 33 0 544 -17 732 0 532 543 538 499 731
 485 0 0 -17 538 0 532 732 533 510 519 547 0 0 -16 485 82 0 ?731 484 536 483 33
 484 12 17 519 0 636 562 512 517 538 547 0 560 +17 562 0 636 733 519 513 560 557
 0 555 -17 555 0 554 560 549 513 556 563 0 0 -17 556 0 645 525 530 526 555 563 0
 0 +17 530 0 645 556 522 513 733 584 0 562 +15 494 24 0 508 475 611 17 505 0 494
 508 736 503 607 601 0 600 -17 508 0 494 491 505 506 600 599 0 489 -17 491 0 494
 492 508 34 489 602 0 496 -15 734 253 0 737 638 0 17 737 0 734 737 737 0 738 566
 0 0 -17 738 0 649 738 738 0 737 566 0 0 +16 566 222 0 ?738 577 563 571 0 0 12 1
5 649 241 0 738 642 676 82 1 717 148767218 82 1 712 148308466 82 1 706 140902898
 82 1 702 141230578 82 1 699 141754866 82 1 697 141623794 82 1 693 152502770 82
 1 690 152633842 81 1 663 1271 250 660 0 661 686 677 739 82 1 688 153420274 82 1
 739 152109554 82 1 685 153879026 82 1 680 152240626 83 3 665 .650980392156863 .
619607843137255 .588235294117647 83 3 630 .650980392156863 .619607843137255 .588
235294117647 15 488 72 0 486 617 0 83 3 621 .650980392156863 .619607843137255 .5
88235294117647 31 567 287 0 563 570 571 0 +0 0 .00245 0 0 1 1 0 0 .0148 31 570 2
88 0 564 0 567 0 +0 0 .006 0 0 1 1 0 0 .00951643315533714 19 474 30 0 12 0 32 28
 0 S0 74 20 472 4 0 0 716 470 661 25 0 0 0 0 0 0 0 0 0 0 0 0 0 0 0 0 81 2 470 37
5 142 12 0 25 0 0 740 0 98 6 740 -17164 -15708 45 -19508 -12900 54 84 16 471 Rod
 End Body_M1281 1 10 549 5 7 741 0 0 0 742 70 11 0 4 T7 0 0 4 20 1 743 743 13 13
 41 0 7 0 744 0 0 745 0 53 14 82 0 744 746 0 0 -0 0 0 .01125 -1 0 0 0 1 0 31 15
 88 0 17 747 0 0 +-.00810547710029715 0 0 -1 0 0 0 0 1 .00780152170903591 19 16
 45 0 7 745 0 748 0 V0 16 17 69 0 ?749 0 750 15 0 0 7 17 749 0 751 749 749 0 752
 17 0 0 +16 750 64 0 ?753 17 754 747 0 0 7 17 753 0 755 753 753 0 756 750 0 0 +1
6 754 59 0 ?757 750 758 759 0 0 7 31 747 87 0 750 759 15 0 +-.00810547710029715
 0 0 -1 0 0 0 0 1 .0065 31 759 86 0 754 760 747 0 +-.00760547710029717 0 0 -1 0
 0 0 0 1 .006 31 760 85 0 758 761 759 0 +.0076054771002971 0 0 -1 0 0 0 0 1 .006
 16 758 54 0 ?762 754 763 760 0 0 7 31 761 84 0 763 764 760 0 +.0081054771002970
8 0 0 -1 0 0 0 0 1 .0065 16 763 49 0 ?765 758 766 761 0 0 7 31 764 83 0 766 0 76
1 0 +.00810547710029708 0 0 -1 0 0 0 0 1 .00780152170903597 16 766 47 0 ?767 763
 0 764 0 0 7 17 767 0 768 767 767 0 769 766 0 0 +15 768 74 0 767 744 0 17 769 0
 770 769 769 0 767 766 0 0 -15 770 113 0 769 771 772 14 771 52 773 ?0 774 770 13
 775 -0 0 0 774 748 15 772 51 0 765 771 0 17 765 0 772 765 765 0 776 763 0 0 +17
 776 0 777 776 776 0 765 763 0 0 -15 777 114 0 776 774 778 14 774 57 779 ?771 78
0 777 13 781 -0 0 771 780 748 15 778 56 0 762 774 0 17 762 0 778 762 762 0 782 7
58 0 0 +17 782 0 783 782 782 0 762 758 0 0 -15 783 115 0 782 780 784 14 780 62 7
85 ?774 786 783 13 787 -0 0 774 786 748 15 784 61 0 757 780 0 17 757 0 784 757 7
57 0 788 754 0 0 +17 788 0 789 788 788 0 757 754 0 0 -15 789 116 0 788 786 755 1
4 786 67 790 ?780 791 789 13 792 -0 0 780 791 748 15 755 66 0 753 786 0 81 1 790
 545 124 786 793 0 794 785 795 14 791 72 794 ?786 744 796 13 746 -0 0 786 744 74
8 54 255 792 80 0 786 787 746 0 --.00760547710029717 0 0 -1 0 0 .0065 .000499999
999999978 0 0 1 13 748 44 0 0 0 0 0 0 16 744 14 744 75 797 ?791 0 798 13 14 -0 0
 791 0 748 81 1 797 543 124 744 799 0 0 794 800 15 798 118 0 752 744 768 17 752
 0 798 752 752 0 749 17 0 0 -81 1 799 541 250 744 0 797 801 0 802 81 1 794 544 1
24 791 801 0 797 790 803 83 3 800 .792156862745098 .819607843137255 .93333333333
3333 81 1 801 539 250 791 0 794 793 799 804 83 3 803 .792156862745098 .819607843
137255 .933333333333333 81 1 793 537 250 786 0 790 805 801 806 82 1 804 -8092383
74 81 1 805 535 250 780 0 785 807 793 808 82 1 806 -809828198 81 1 785 546 124 7
80 805 0 790 779 809 81 1 807 533 250 774 0 779 810 805 811 82 1 808 -810418022
 81 1 779 547 124 774 807 0 785 773 812 81 1 810 531 250 771 0 773 0 807 813 82
 1 811 -811007846 81 1 773 548 124 771 810 0 779 0 814 82 1 813 -811597670 83 3
 814 .792156862745098 .819607843137255 .933333333333333 83 3 812 .79215686274509
8 .819607843137255 .933333333333333 83 3 809 .792156862745098 .819607843137255 .
933333333333333 82 1 802 -808910694 51 787 79 0 780 781 792 0 +-.008000000000000
09 0 0 -1 0 0 .006 0 0 1 50 746 81 0 791 792 14 0 +-.00810547710029715 .00780152
170903591 0 1 0 0 0 0 -1 54 781 78 0 774 775 787 0 -.0076054771002971 0 0 -1 0 0
 .0065 .000499999999999978 0 0 1 50 775 77 0 771 0 781 0 +.00810547710029708 .00
65 0 -1 0 0 0 0 1 15 796 117 0 756 791 751 17 756 0 796 756 756 0 753 750 0 0 -1
5 751 71 0 749 791 0 83 3 795 .792156862745098 .819607843137255 .933333333333333
 19 745 40 0 7 0 16 13 0 S0 74 20 743 4 0 0 799 741 773 10 0 0 0 0 0 0 0 0 0 0 0
 0 0 0 0 0 81 2 741 153 142 7 0 10 0 0 815 0 98 3 815 -10612 -14332 49 84 22 742
 Rod End Ball Joint_M1274 20 6 1 0 0 2 0 0 0 0 0 0 0 0 0 0 0 0 0 0 0 0 0 0 0 1 0
 
