**ABCDEFGHIJKLMNOPQRSTUVWXYZabcdefghijklmnopqrstuvwxyz**************************
**PARASOLID !"#$%&'()*+,-./:;<=>?@[\]^_`{|}~0123456789**************************
**PART1;
MC=AMD64;
MC_MODEL=AMD64 Family 25 Model 80 Stepping 0, AuthenticAMD;
MC_ID=unknown;
OS=Windows_NT;
OS_RELEASE=unknown;
FRU=Parasolid Version 31.1, build 278,  7-15-2019;
APPL=SOLIDWORKS 2020-2019269;
SITE=;
USER=unknown;
FORMAT=text;
GUISE=transmit;
KEY=파트1;
FILE=파트1.x_t;
DATE=Wed Oct 11 14:28:11 2023;
**PART2;
SCH=SCH_3101278_31100;
USFLD_SIZE=0;
**PART3;
**END_OF_HEADER*****************************************************************
T51 : TRANSMIT FILE created by modeller version 310127823 SCH_3101278_31100_1300
6222 0 12 34 CCCCCCI4 mesh1006 0 I8 polyline1008 0 CCCCCCCDI5 owner1040 0 CCCCCC
I13 boundary_mesh1006 0 I17 boundary_polyline1008 0 CCCA16 index_map_offset0 0 1
 dA9 index_map82 0 A17 node_id_index_map82 0 A20 schema_embedding_map82 0 A5 chi
ld12 0 A14 lowest_node_id0 0 1 dA16 mesh_offset_data206 0 Z1 189 2 3 0 0 0 0 0 0
 1e3 1e-8 0 4 0 1 0 1 1 5 6 7 8 0 0 9 10 11 0 0 0 0 0 0 0 81 255 2 2 183 12 1 13
 0 0 0 0 14 70 11 CI9 list_type0 0 1 uI10 notransmit0 0 1 lCCCDCCDI12 finger_ind
ex0 0 1 dI12 finger_block1012 0 CZ3 0 4 T1 0 0 8 20 1 15 15 13 255 5 99 0 1 0 16
 0 0 17 0 50 255 6 94 0 16 18 0 0 +0 .003 0 1 0 0 0 0 -1 30 255 7 98 0 10 19 0 0
 +0 .003 0 0 -1 0 29 255 8 75 0 20 21 0 0 0 -.02 19 8 CCCCCCCA5 owner12 0 Z9 33
 0 1 17 0 22 V0 16 255 10 82 0 ?23 0 24 7 0 0 1 18 255 11 30 0 25 0 26 27 ?1 17
 255 25 0 28 29 30 11 31 32 0 33 +18 26 27 0 30 11 34 35 ?1 29 27 32 0 11 35 36
 0 .003 -.02 29 35 29 0 26 37 27 .42 .003 -.02 29 36 78 0 38 27 39 0 0 0 18 38 6
9 0 40 41 0 36 ?1 29 39 77 0 41 36 21 .42 0 0 18 41 68 0 42 43 38 39 ?1 29 21 76
 0 43 39 8 .42 0 -.02 18 43 67 0 44 20 41 21 ?1 17 44 0 45 46 47 43 48 49 0 50 +
18 20 66 0 51 52 43 8 ?1 17 51 0 53 33 50 20 54 55 0 56 +18 52 21 0 57 34 20 58
 ?1 17 57 0 59 23 60 52 61 62 0 29 -18 34 24 0 61 26 52 37 ?1 29 58 23 0 52 0 37
 0 .003 0 29 37 26 0 34 58 35 .42 .003 0 17 61 0 28 30 29 34 57 62 0 60 +15 255
 28 4 0 29 63 0 17 30 0 28 25 61 26 64 65 0 46 +17 29 0 28 61 25 52 66 67 0 68 +
16 62 9 0 ?61 65 67 69 0 0 1 17 60 0 59 57 42 34 47 24 0 64 -15 59 87 0 42 70 0
 17 42 0 59 60 23 41 40 71 0 47 +17 47 0 45 44 64 41 60 24 0 48 +16 24 81 0 ?47
 10 72 19 0 0 1 17 64 0 45 47 46 34 30 65 0 0 -15 45 85 0 44 73 0 17 46 0 45 64
 44 26 50 72 0 31 -16 65 13 0 ?30 32 62 74 0 0 1 16 32 17 0 ?25 75 65 76 0 0 1 3
0 74 15 0 65 69 76 0 +.42 .003 0 0 0 -1 30 69 11 0 62 77 74 0 +0 .003 0 1 0 0 30
 76 19 0 32 74 78 0 +0 .003 -.02 -1 0 0 30 78 74 0 79 76 80 0 +0 0 0 0 0 1 16 79
 62 0 ?81 71 0 78 0 0 1 30 80 73 0 71 78 82 0 +0 0 0 1 0 0 16 71 58 0 ?42 49 79
 80 0 0 1 30 82 72 0 49 80 83 0 +.42 0 0 0 0 -1 16 49 54 0 ?44 55 71 82 0 0 1 30
 83 71 0 55 82 84 0 +0 0 -.02 -1 0 0 16 55 50 0 ?51 67 49 83 0 0 1 30 84 95 0 75
 83 85 0 +0 .003 -.02 0 -1 0 16 75 79 0 ?56 72 32 84 0 0 1 30 85 96 0 72 84 19 0
 +.42 .003 -.02 0 -1 0 16 72 80 0 ?50 24 75 85 0 0 1 30 19 97 0 24 85 7 0 +.42 .
003 0 0 -1 0 17 50 0 53 51 31 43 46 72 0 54 +15 53 83 0 51 86 0 17 31 0 53 50 33
 26 25 32 0 0 -17 54 0 87 48 88 43 51 55 0 0 -15 87 49 0 88 89 0 17 48 0 87 40 5
4 41 44 49 0 0 -17 88 0 87 54 40 20 81 79 0 0 -17 40 0 87 88 48 38 42 71 0 23 -1
7 81 0 90 68 56 38 88 79 0 0 +15 90 89 0 81 16 0 17 68 0 90 66 81 52 23 10 0 0 -
17 56 0 90 81 66 20 33 75 0 88 +17 66 0 90 56 68 11 29 67 0 0 -17 33 0 53 31 51
 11 56 75 0 66 -16 67 5 0 ?29 62 55 77 0 0 1 30 77 7 0 67 0 69 0 +0 .003 0 0 0 1
 17 23 0 59 42 57 38 68 10 0 81 +14 255 16 90 91 ?70 0 90 5 6 -0 0 70 0 22 81 1
 91 184 92 16 93 0 0 94 95 14 70 88 94 ?73 16 59 5 18 -0 0 73 16 22 13 22 34 0 0
 0 0 0 0 9 16 81 1 94 185 92 70 96 0 91 97 98 14 73 86 97 ?86 70 45 5 99 -0 0 86
 70 22 50 18 93 0 70 99 6 0 +0 .003 0 0 0 -1 -1 0 0 50 99 92 0 73 100 18 0 +.42
 .003 0 -1 0 0 0 0 1 50 100 91 0 86 101 99 0 +0 .003 -.02 0 0 1 1 0 0 14 86 84 1
02 ?63 73 53 5 100 -0 0 63 73 22 50 101 70 0 89 103 100 0 +0 0 0 0 -1 0 0 0 -1 1
4 89 48 104 ?0 63 87 5 101 +0 0 0 63 22 50 103 3 0 63 0 101 0 +0 .003 0 0 -1 0 0
 0 -1 14 63 1 105 ?89 86 28 5 103 -0 0 89 86 22 81 1 105 189 92 63 106 0 104 0 1
07 80 255 1 92 108 109 9000 1 1 1 1 1 1 1 1 0 FFFFTFTFFFFFFF1 81 1 106 168 110 6
3 0 105 111 112 113 81 1 104 188 92 89 112 0 102 105 114 82 255 1 107 448856170
 81 1 112 169 110 89 0 104 106 0 115 81 1 102 187 92 86 111 0 97 104 116 82 1 11
4 454492266 81 1 111 167 110 86 0 102 117 106 118 81 1 97 186 92 73 117 0 94 102
 119 82 1 116 455409770 81 1 117 166 110 73 0 97 96 111 120 82 1 119 455671914 8
0 1 110 0 121 8001 0 0 0 0 3 5 0 0 0 FFFFTFTFFFFFFF2 81 1 96 165 110 70 0 94 93
 117 122 83 255 3 120 .792156862745098 .819607843137255 .933333333333333 81 1 93
 164 110 16 0 91 0 96 123 83 3 122 .792156862745098 .819607843137255 .9333333333
33333 83 3 123 .792156862745098 .819607843137255 .933333333333333 79 255 15 121
 SDL/TYSA_COLOUR83 3 118 .792156862745098 .819607843137255 .933333333333333 83 3
 115 .792156862745098 .819607843137255 .933333333333333 83 3 113 .79215686274509
8 .819607843137255 .933333333333333 79 14 109 SWEntUnchanged82 1 98 455934058 82
 1 95 456196202 19 17 100 0 1 0 9 5 S0 74 4 CI16 index_map_offset0 0 1 dCCZ20 15
 8 0 0 124 125 105 126 127 13 112 2 0 0 0 0 0 0 0 0 0 0 0 0 81 2 124 124 128 1 0
 125 0 0 0 129 81 2 125 128 130 1 124 126 0 0 0 131 81 1 126 135 132 1 125 127 0
 0 133 81 2 127 136 134 1 126 13 0 0 0 0 81 2 13 144 135 1 127 2 0 0 136 0 80 2
 135 137 138 8004 0 0 0 0 3 5 0 0 0 FFTFFFFFFFFFFF2 3 83 1 136 1 79 16 138 SDL/T
YSA_DENSITY80 2 134 139 140 9000 0 0 0 0 3 5 0 0 0 FFTFFFFFFFFFFF9 1 79 16 140 B
ODY_RECIPE_200180 1 132 141 142 9000 1 1 1 1 1 1 1 1 0 FFTFFFFFFFFFFF1 82 1 133
 6847 79 10 142 BODY_MATCH80 2 130 143 144 9000 0 0 0 0 3 5 0 0 0 FFTFFFFFFFFFFF
9 1 82 1 131 37 79 30 144 LAST_BODY_MODIFYING_FEATURE_ID80 2 128 145 146 9000 0
 0 0 0 3 5 0 0 0 FFTFFFFFFFFFFF9 1 82 1 129 103 79 19 146 ENT_TIME_STAMP_200180
 2 12 147 148 9000 0 0 0 0 3 5 0 0 0 FFTFFFFFFFFFFF9 1 82 1 14 101 79 12 148 ATO
M_ID_20011 0 
