**ABCDEFGHIJKLMNOPQRSTUVWXYZabcdefghijklmnopqrstuvwxyz**************************
**PARASOLID !"#$%&'()*+,-./:;<=>?@[\]^_`{|}~0123456789**************************
**PART1;
MC=AMD64;
MC_MODEL=Intel64 Family 6 Model 158 Stepping 10, GenuineIntel;
MC_ID=unknown;
OS=Windows_NT;
OS_RELEASE=unknown;
FRU=Parasolid Version 28.0, build 209,  1-25-2016;
APPL=SOLIDWORKS 2016-2016095;
SITE=;
USER=unknown;
FORMAT=text;
GUISE=transmit;
KEY=L-Beam(2023);
FILE=L-Beam(2023).x_t;
DATE=Mon Oct 16 16:14:20 2023;
**PART2;
SCH=SCH_2800209_28002;
USFLD_SIZE=0;
**PART3;
**END_OF_HEADER*****************************************************************
T51 : TRANSMIT FILE created by modeller version 280020923 SCH_2800209_28002_1300
6200 0 12 30 CCCCCCCCCCCCCDI5 owner1040 0 CCCCCCCCCA13 boundary_mesh1006 0 A16 i
ndex_map_offset0 0 1 dA9 index_map82 0 A17 node_id_index_map82 0 A20 schema_embe
dding_map82 0 A5 child12 0 A14 lowest_node_id0 0 1 dZ1 224 0 2 0 0 0 0 1e3 1e-8
 0 3 0 1 0 1 1 4 5 6 7 8 9 10 0 0 0 0 0 0 0 70 11 CI9 list_type0 0 1 uI10 notran
smit0 0 1 lCCCDCCDI12 finger_index0 0 1 dI12 finger_block1012 0 CZ2 0 4 T1 0 0 2
 20 1 11 11 13 255 4 134 0 1 0 12 0 0 13 0 50 255 5 127 0 12 14 0 0 +-3469446951
953615e-32 .315 .006 -1 -1101411730778924e-31 0 1101411730778924e-31 -1 0 30 255
 6 133 0 9 15 0 0 +-3469446951953615e-32 .315 .006 0 0 -1 29 255 7 98 0 16 17 0
 0 0 0 19 8 CCCCCCCA5 owner12 0 Z8 40 0 1 13 0 18 V0 16 255 9 109 0 ?19 0 20 6 0
 0 1 18 255 10 37 0 21 0 22 23 ?1 17 255 21 0 24 25 26 10 27 28 0 29 +18 22 34 0
 26 10 30 31 ?1 29 23 39 0 10 31 32 0 0 .006 29 31 36 0 22 33 23 .08 0 .006 29 3
2 103 0 34 23 35 -3469446951953615e-32 .315 0 18 34 90 0 36 37 0 32 ?1 29 35 102
 0 37 32 38 -.04 .315 0 18 37 89 0 39 40 34 35 ?1 29 38 101 0 40 35 41 -.04 -.04
 0 18 40 88 0 42 43 37 38 ?1 29 41 100 0 43 38 17 .08 -.04 0 18 43 87 0 44 45 40
 41 ?1 29 17 99 0 45 41 7 .08 0 0 18 45 86 0 46 16 43 17 ?1 17 46 0 47 48 49 45
 50 51 0 52 +18 16 85 0 53 54 45 7 ?1 17 53 0 55 29 52 16 56 57 0 58 +18 54 22 0
 59 60 16 61 ?1 17 59 0 62 19 63 54 64 65 0 25 -18 60 25 0 64 66 54 67 ?1 29 61
 24 0 54 0 67 -3469446951953615e-32 .315 .006 29 67 27 0 60 61 68 -.04 .315 .006
 29 68 30 0 66 67 33 -.04 -.04 .006 18 66 28 0 69 30 60 68 ?1 29 33 33 0 30 68 3
1 .08 -.04 .006 18 30 31 0 70 22 66 33 ?1 17 70 0 24 26 69 30 71 72 0 73 +15 255
 24 3 0 25 74 0 17 26 0 24 21 70 22 75 76 0 48 +17 69 0 24 70 64 66 77 78 0 79 +
17 71 0 80 81 73 66 70 72 0 0 -16 72 13 0 ?70 76 78 82 0 0 1 17 73 0 80 71 44 30
 49 83 0 75 -15 80 114 0 44 84 0 17 44 0 80 73 81 43 85 86 0 49 +17 49 0 47 46 7
5 43 73 83 0 50 +16 83 106 0 ?49 87 88 89 0 0 1 17 75 0 47 49 48 30 26 76 0 0 -1
5 47 112 0 46 90 0 17 48 0 47 75 46 22 52 88 0 27 -16 76 16 0 ?26 28 72 91 0 0 1
 16 28 19 0 ?21 92 76 93 0 0 1 30 91 17 0 76 82 93 0 +.08 0 .006 0 1 0 30 82 14
 0 72 94 91 0 +.08 -.04 .006 1 578241158658936e-31 0 30 93 20 0 28 91 95 0 +0 0
 .006 -1 0 0 30 95 97 0 96 93 97 0 +-3469446951953615e-32 .315 0 -11014117307789
24e-31 1 0 16 96 81 0 ?98 99 0 95 0 0 1 30 97 96 0 99 95 100 0 +-.04 .315 0 -1 0
 0 16 99 77 0 ?39 101 96 97 0 0 1 30 100 95 0 101 97 102 0 +-.04 -.04 0 0 -1 0 1
6 101 73 0 ?42 86 99 100 0 0 1 30 102 94 0 86 100 103 0 +.08 -.04 0 1 5782411586
58936e-31 0 16 86 69 0 ?44 51 101 102 0 0 1 30 103 93 0 51 102 104 0 +.08 0 0 0
 1 0 16 51 65 0 ?46 57 86 103 0 0 1 30 104 92 0 57 103 105 0 +0 0 0 -1 0 0 16 57
 61 0 ?53 106 51 104 0 0 1 30 105 128 0 92 104 107 0 +0 0 .006 0 0 -1 16 92 104
 0 ?58 88 28 105 0 0 1 30 107 129 0 88 105 89 0 +.08 0 .006 0 0 -1 16 88 105 0 ?
52 83 92 107 0 0 1 30 89 130 0 83 107 108 0 +.08 -.04 .006 0 0 -1 30 108 131 0 8
7 89 15 0 +-.04 -.04 .006 0 0 -1 16 87 107 0 ?81 20 83 108 0 0 1 30 15 132 0 20
 108 6 0 +-.04 .315 .006 0 0 -1 16 20 108 0 ?109 9 87 15 0 0 1 17 109 0 110 42 7
7 37 63 20 0 111 +15 110 116 0 42 112 0 17 42 0 110 79 109 40 111 101 0 81 +17 7
7 0 110 109 79 60 69 78 0 0 -17 63 0 62 59 39 60 109 20 0 77 -17 111 0 113 36 85
 37 42 101 0 0 -15 113 60 0 114 115 0 17 36 0 113 114 111 34 39 99 0 19 -17 85 0
 113 111 50 40 44 86 0 0 -17 50 0 113 85 56 43 46 51 0 0 -17 56 0 113 50 114 45
 53 57 0 0 -17 114 0 113 56 36 16 98 96 0 0 -17 98 0 116 117 58 34 114 96 0 0 +1
5 116 120 0 98 12 0 17 117 0 116 118 98 54 19 9 0 0 -17 58 0 116 98 118 16 29 92
 0 114 +17 118 0 116 58 117 10 25 106 0 0 -17 29 0 55 27 53 10 58 92 0 118 -15 5
5 110 0 53 119 0 17 27 0 55 52 29 22 21 28 0 0 -17 52 0 55 53 27 45 48 88 0 56 +
14 255 119 111 120 ?74 90 55 4 121 -0 0 74 90 18 81 255 1 120 217 122 119 123 0
 0 124 125 14 74 1 124 ?115 119 24 4 126 +0 0 115 119 18 14 90 113 127 ?119 84 4
7 4 128 -0 0 119 84 18 50 121 122 0 119 129 128 0 +0 0 .006 0 -1 0 0 0 -1 13 18
 41 0 0 0 0 0 0 8 12 14 12 121 130 ?131 0 116 4 5 -0 0 131 0 18 81 1 130 220 122
 12 132 0 127 133 134 14 131 119 133 ?112 12 62 4 14 -0 0 112 12 18 81 1 133 221
 122 131 135 0 130 136 137 14 112 117 136 ?84 131 110 4 138 -0 0 84 131 18 15 62
 118 0 39 131 0 50 14 126 0 131 138 5 0 +-.04 .315 .006 0 -1 0 0 0 -1 50 138 125
 0 112 139 14 0 +-.04 -.04 .006 1 0 0 0 0 -1 50 139 124 0 84 128 138 0 +.08 -.04
 .006 -578241158658936e-31 1 0 -1 -578241158658936e-31 0 14 84 115 140 ?90 112 8
0 4 139 -0 0 90 112 18 50 128 123 0 90 121 139 0 +.08 0 .006 -1 0 0 0 0 1 81 1 1
40 223 122 84 141 0 136 142 143 80 255 1 122 144 145 9000 1 1 1 1 1 1 1 1 0 FFFF
TFTFFFFFFF1 81 1 141 194 146 84 0 140 147 148 149 81 1 136 222 122 112 147 0 133
 140 150 81 1 142 224 122 115 151 0 140 0 152 82 255 1 143 1945763957 14 115 59
 142 ?0 74 113 4 129 -0 0 0 74 18 81 1 151 198 146 115 0 142 153 0 154 82 1 152
 1943928949 80 1 146 0 155 8001 0 0 0 0 3 5 0 0 0 FFFFTFTFFFFFFF2 81 1 153 197 1
46 74 0 124 123 151 156 83 255 3 154 .792156862745098 .819607843137255 .93333333
3333333 81 1 124 218 122 74 153 0 120 127 157 81 1 123 196 146 119 0 120 148 153
 158 83 3 156 .792156862745098 .819607843137255 .933333333333333 81 1 148 195 14
6 90 0 127 141 123 159 83 3 158 .792156862745098 .819607843137255 .9333333333333
33 81 1 127 219 122 90 148 0 124 130 160 83 3 159 .792156862745098 .819607843137
255 .933333333333333 82 1 160 1945501813 82 1 157 1935933557 79 255 15 155 SDL/T
YSA_COLOUR50 129 91 0 115 126 121 0 +0 0 0 0 0 1 1 0 0 50 126 2 0 74 0 129 0 +0
 0 .006 0 0 1 1 0 0 81 1 147 193 146 112 0 136 135 141 161 82 1 150 1946026101 8
1 1 135 192 146 131 0 133 132 147 162 83 3 161 .792156862745098 .819607843137255
 .933333333333333 81 1 132 191 146 12 0 130 0 135 163 83 3 162 .792156862745098
 .819607843137255 .933333333333333 83 3 163 .792156862745098 .819607843137255 .9
33333333333333 83 3 149 .792156862745098 .819607843137255 .933333333333333 79 14
 145 SWEntUnchanged17 39 0 62 63 19 37 36 99 0 109 +17 19 0 62 39 59 34 117 9 0
 98 +82 1 137 1946288245 82 1 134 1946550389 82 1 125 1945239669 17 25 0 24 64 2
1 54 118 106 0 117 +16 106 4 0 ?25 65 57 164 0 0 1 16 65 7 0 ?64 78 106 165 0 0
 1 30 164 5 0 106 0 165 0 +-3469446951953615e-32 .315 .006 -1101411730778924e-31
 1 0 30 165 8 0 65 164 94 0 +-.04 .315 .006 -1 0 0 30 94 11 0 78 165 82 0 +-.04
 -.04 .006 0 -1 0 16 78 10 0 ?69 72 65 94 0 0 1 17 64 0 24 69 25 60 59 65 0 63 +
17 79 0 110 77 42 66 81 87 0 71 -17 81 0 80 44 71 40 79 87 0 85 +19 13 135 0 1 0
 8 4 S0 74 4 CI16 index_map_offset0 0 1 dCCZ20 11 2 0 0 142 151 0 0 0 0 0 0 0 0
 0 0 0 0 0 0 0 0 0 0 1 0 
