**ABCDEFGHIJKLMNOPQRSTUVWXYZabcdefghijklmnopqrstuvwxyz**************************
**PARASOLID !"#$%&'()*+,-./:;<=>?@[\]^_`{|}~0123456789**************************
**PART1;
MC=AMD64;
MC_MODEL=AMD64 Family 25 Model 80 Stepping 0, AuthenticAMD;
MC_ID=unknown;
OS=Windows_NT;
OS_RELEASE=unknown;
FRU=Parasolid Version 31.1, build 278,  7-15-2019;
APPL=SOLIDWORKS 2020-2019269;
SITE=;
USER=unknown;
FORMAT=text;
GUISE=transmit;
KEY=case2;
FILE=case2.x_t;
DATE=Thu Aug 31 16:48:50 2023;
**PART2;
SCH=SCH_3101278_31100;
USFLD_SIZE=0;
**PART3;
**END_OF_HEADER*****************************************************************
T51 : TRANSMIT FILE created by modeller version 310127823 SCH_3101278_31100_1300
6222 0 12 34 CCCCCCI4 mesh1006 0 I8 polyline1008 0 CCCCCCCDI5 owner1040 0 CCCCCC
I13 boundary_mesh1006 0 I17 boundary_polyline1008 0 CCCA16 index_map_offset0 0 1
 dA9 index_map82 0 A17 node_id_index_map82 0 A20 schema_embedding_map82 0 A5 chi
ld12 0 A14 lowest_node_id0 0 1 dA16 mesh_offset_data206 0 Z1 335 2 3 0 0 0 0 0 0
 1e3 1e-8 0 4 0 1 0 1 1 5 6 7 8 0 0 9 10 11 0 0 0 0 0 0 0 81 255 2 2 326 12 1 13
 0 0 0 0 14 70 11 CI9 list_type0 0 1 uI10 notransmit0 0 1 lCCCDCCDI12 finger_ind
ex0 0 1 dI12 finger_block1012 0 CZ3 0 4 T1 0 0 8 20 1 15 15 13 255 5 99 0 1 0 16
 0 0 17 0 50 255 6 94 0 18 19 0 0 +0 0 .03 1 0 0 0 0 -1 30 255 7 98 0 10 20 0 0
 +0 0 .03 0 0 -1 29 255 8 75 0 21 22 0 0 .12 0 19 8 CCCCCCCA5 owner12 0 Z9 33 0
 1 17 0 23 V0 16 255 10 82 0 ?24 0 25 7 0 0 1 18 255 11 30 0 26 0 27 28 ?1 17 25
5 26 0 29 30 31 11 32 33 0 34 +18 27 27 0 31 11 35 36 ?1 29 28 32 0 11 36 37 0 .
12 .03 29 36 29 0 27 38 28 .3 .12 .03 29 37 78 0 39 28 40 0 0 0 18 39 69 0 41 42
 0 37 ?1 29 40 77 0 42 37 22 .3 0 0 18 42 68 0 43 44 39 40 ?1 29 22 76 0 44 40 8
 .3 .12 0 18 44 67 0 45 21 42 22 ?1 17 45 0 46 47 48 44 49 50 0 51 +18 21 66 0 5
2 53 44 8 ?1 17 52 0 54 34 51 21 55 56 0 57 +18 53 21 0 58 35 21 59 ?1 17 58 0 6
0 24 61 53 62 63 0 30 -18 35 24 0 62 27 53 38 ?1 29 59 23 0 53 0 38 0 0 .03 29 3
8 26 0 35 59 36 .3 0 .03 17 62 0 29 31 30 35 58 63 0 61 +15 255 29 4 0 30 16 64
 17 31 0 29 26 62 27 65 66 0 47 +17 30 0 29 62 26 53 67 68 0 69 +16 63 9 0 ?62 6
6 68 70 0 0 1 17 61 0 60 58 43 35 48 25 0 65 -15 60 87 0 43 71 0 17 43 0 60 61 2
4 42 41 72 0 48 +17 48 0 46 45 65 42 61 25 0 49 +16 25 81 0 ?48 10 73 20 0 0 1 1
7 65 0 46 48 47 35 31 66 0 0 -15 46 85 0 45 74 0 17 47 0 46 65 45 27 51 73 0 32
 -16 66 13 0 ?31 33 63 75 0 0 1 16 33 17 0 ?26 76 66 77 0 0 1 30 75 15 0 66 70 7
7 0 +.3 0 .03 0 1 0 30 70 11 0 63 78 75 0 +0 0 .03 1 0 0 30 77 19 0 33 75 79 0 +
0 .12 .03 -1 0 0 30 79 74 0 80 77 81 0 +0 0 0 0 -1 0 16 80 62 0 ?82 72 83 79 0 0
 1 30 81 73 0 72 79 84 0 +0 0 0 1 0 0 16 72 58 0 ?43 50 80 81 0 0 1 30 84 72 0 5
0 81 85 0 +.3 0 0 0 1 0 16 50 54 0 ?45 56 72 84 0 0 1 30 85 71 0 56 84 86 0 +0 .
12 0 -1 0 0 16 56 50 0 ?52 68 50 85 0 0 1 30 86 95 0 76 85 87 0 +0 .12 .03 0 0 -
1 16 76 79 0 ?57 73 33 86 0 0 1 30 87 96 0 73 86 20 0 +.3 .12 .03 0 0 -1 16 73 8
0 0 ?51 25 76 87 0 0 1 30 20 97 0 25 87 7 0 +.3 0 .03 0 0 -1 17 51 0 54 52 32 44
 47 73 0 55 +15 54 83 0 52 88 0 17 32 0 54 51 34 27 26 33 0 0 -17 55 0 89 49 90
 44 52 56 0 0 -15 89 49 0 90 91 92 17 49 0 89 41 55 42 45 50 0 0 -17 90 0 89 55
 41 21 82 80 0 0 -17 41 0 89 90 49 39 43 72 0 24 -17 82 0 93 69 57 39 90 80 0 0
 +15 93 89 0 82 18 0 17 69 0 93 67 82 53 24 10 0 0 -17 57 0 93 82 67 21 34 76 0
 90 +17 67 0 93 57 69 11 30 68 0 0 -17 34 0 54 32 52 11 57 76 0 67 -16 68 5 0 ?3
0 63 56 78 0 0 1 30 78 7 0 68 94 70 0 +0 0 .03 0 -1 0 31 255 94 147 0 95 96 78 0
 +.15 .06 0 0 0 1 1 0 0 .03 16 95 125 0 ?97 83 98 94 0 0 1 31 96 148 0 83 99 94
 0 +.15 .06 .03 0 0 1 1 0 0 .03 16 83 128 0 ?100 80 95 96 0 0 1 31 99 185 0 101
 102 96 0 +.06 .06 0 0 0 1 1 0 0 .015 16 101 163 0 ?103 98 104 99 0 0 1 31 102 1
86 0 98 105 99 0 +.06 .06 .03 0 0 1 1 0 0 .015 16 98 166 0 ?106 95 101 102 0 0 1
 31 105 223 0 107 108 102 0 +.24 .06 0 0 0 1 1 0 0 .015 16 107 201 0 ?109 104 0
 105 0 0 1 31 108 224 0 104 0 105 0 +.24 .06 .03 0 0 1 1 0 0 .015 16 104 204 0 ?
110 101 107 108 0 0 1 17 110 0 111 110 110 0 112 104 0 0 +15 111 210 0 110 113 1
14 17 112 0 115 112 112 0 110 104 0 0 -15 115 196 0 112 16 0 14 255 16 198 116 ?
91 0 29 5 117 -0 0 91 0 23 81 1 116 327 118 16 119 0 0 120 121 14 91 192 120 ?18
 16 122 5 123 +0 0 18 16 23 50 117 3 0 16 124 123 0 +0 0 .03 0 0 -1 -1 0 0 13 23
 34 0 0 0 0 0 0 9 16 51 255 124 144 0 125 126 117 0 -.15 .06 .03 0 0 -1 .03 -1 0
 0 50 123 70 0 91 117 127 0 +0 0 0 0 0 -1 -1 0 0 50 127 91 0 88 123 128 0 +0 .12
 .03 0 -1 0 0 0 -1 14 88 84 129 ?125 74 54 5 127 -0 0 125 74 23 50 128 92 0 74 1
27 19 0 +.3 0 .03 -1 0 0 0 0 1 14 74 86 130 ?88 71 46 5 128 -0 0 88 71 23 50 19
 93 0 71 128 6 0 +0 0 .03 0 1 0 0 0 1 14 71 88 131 ?74 18 60 5 19 -0 0 74 18 23
 81 1 131 331 118 71 132 0 130 133 134 14 18 90 133 ?71 91 93 5 6 -0 0 71 91 23
 81 1 133 332 118 18 135 0 131 136 137 80 255 1 118 138 139 9000 1 1 1 1 1 1 1 1
 0 FFFFTFTFFFFFFF1 81 1 135 300 140 18 0 133 141 132 142 81 1 136 333 118 125 14
3 0 133 144 145 82 255 1 137 -733347732 14 125 131 136 ?146 88 147 5 124 +0 0 14
6 88 23 81 1 143 304 140 125 0 136 148 149 150 81 1 144 334 118 146 149 0 136 15
1 152 82 1 145 -728498068 14 146 169 144 ?113 125 153 5 126 +0 0 113 125 23 81 1
 149 305 140 146 0 144 143 154 155 81 1 151 335 118 113 154 0 144 0 156 82 1 152
 -724434836 14 113 207 151 ?0 146 111 5 157 +0 0 0 146 23 81 1 154 306 140 113 0
 151 149 0 158 82 1 156 -720371604 80 1 140 0 159 8001 0 0 0 0 3 5 0 0 0 FFFFTFT
FFFFFFF2 83 255 3 158 .792156862745098 .819607843137255 .933333333333333 79 255
 15 159 SDL/TYSA_COLOUR51 157 220 0 113 0 126 0 -.24 .06 .03 0 0 -1 .015 -1 0 0
 51 126 182 0 146 157 124 0 -.06 .06 .03 0 0 -1 .015 -1 0 0 83 3 155 .7921568627
45098 .819607843137255 .933333333333333 15 153 172 0 106 146 160 17 106 0 153 10
6 106 0 161 98 0 0 +15 160 173 0 162 146 0 17 162 0 160 162 162 0 103 101 0 0 -1
7 103 0 122 103 103 0 162 101 0 0 +15 122 151 0 103 91 89 17 161 0 163 161 161 0
 106 98 0 0 -15 163 158 0 161 16 115 81 1 148 303 140 88 0 129 164 143 165 83 3
 150 .792156862745098 .819607843137255 .933333333333333 81 1 129 329 118 88 148
 0 120 130 166 81 1 164 302 140 74 0 130 132 148 167 83 3 165 .792156862745098 .
819607843137255 .933333333333333 81 1 130 330 118 74 164 0 129 131 168 81 1 132
 301 140 71 0 131 135 164 169 83 3 167 .792156862745098 .819607843137255 .933333
333333333 83 3 169 .792156862745098 .819607843137255 .933333333333333 82 1 168 -
733872020 81 1 120 328 118 91 141 0 116 129 170 82 1 166 -734134164 81 1 141 299
 140 91 0 120 119 135 171 82 1 170 -716046228 81 1 119 298 140 16 0 116 0 141 17
2 83 3 171 .792156862745098 .819607843137255 .933333333333333 83 3 172 .79215686
2745098 .819607843137255 .933333333333333 15 147 134 0 100 125 173 17 100 0 147
 100 100 0 174 83 0 0 +15 173 135 0 175 125 0 17 175 0 173 175 175 0 97 95 0 0 -
17 97 0 92 97 97 0 175 95 0 0 +15 92 113 0 97 91 176 15 176 189 0 109 91 0 17 10
9 0 176 109 109 0 177 107 0 0 +17 177 0 114 177 177 0 109 107 0 0 -15 114 211 0
 177 113 0 17 174 0 64 174 174 0 100 83 0 0 -15 64 120 0 174 16 163 83 3 142 .79
2156862745098 .819607843137255 .933333333333333 79 14 139 SWEntUnchanged82 1 134
 -733609876 82 1 121 -715521940 17 24 0 60 43 58 39 69 10 0 82 +19 17 100 0 1 0
 9 5 S0 74 4 CI16 index_map_offset0 0 1 dCCZ20 15 8 0 0 178 179 151 180 181 13 1
54 2 0 0 0 0 0 0 0 0 0 0 0 0 81 2 178 111 182 1 0 179 0 0 0 183 81 2 179 248 184
 1 178 180 0 0 0 185 81 1 180 258 186 1 179 181 0 0 187 81 2 181 259 188 1 180 1
3 0 0 0 0 81 2 13 270 189 1 181 2 0 0 190 0 80 2 189 191 192 8004 0 0 0 0 3 5 0
 0 0 FFTFFFFFFFFFFF2 3 83 1 190 1 79 16 192 SDL/TYSA_DENSITY80 2 188 193 194 900
0 0 0 0 0 3 5 0 0 0 FFTFFFFFFFFFFF9 1 79 16 194 BODY_RECIPE_200180 1 186 195 196
 9000 1 1 1 1 1 1 1 1 0 FFTFFFFFFFFFFF1 82 1 187 316376 79 10 196 BODY_MATCH80 2
 184 197 198 9000 0 0 0 0 3 5 0 0 0 FFTFFFFFFFFFFF9 1 82 1 185 45 79 30 198 LAST
_BODY_MODIFYING_FEATURE_ID80 2 182 199 200 9000 0 0 0 0 3 5 0 0 0 FFTFFFFFFFFFFF
9 1 82 1 183 106 79 19 200 ENT_TIME_STAMP_200180 2 12 201 202 9000 0 0 0 0 3 5 0
 0 0 FFTFFFFFFFFFFF9 1 82 1 14 101 79 12 202 ATOM_ID_20011 0 
